<svg xmlns="http://www.w3.org/2000/svg" width="200" height="150" viewBox="0 0 200 150"><defs><style>.a{fill:#eee;stroke:#fff;stroke-miterlimit:10;}</style></defs><title>eth</title><rect class="a" x="-121.5" y="-662.5" width="475" height="1101"/><polygon points="161.15 42 155.89 66.11 171.51 66.11 177.34 42 200 42 185.21 108.31 162.25 108.3 167.66 82.47 152.65 82.47 146.4 108.31 122.79 108.3 133.76 59.22 113.3 59.21 102.36 108.31 78.04 108.3 88.97 59.22 35.63 59.22 33.9 66.97 66.72 66.97 63.27 82.47 30.18 82.47 28.2 91.08 62.62 91.08 58.77 108.31 0 108.31 14.79 42 161.15 42"/></svg>