<svg xmlns="http://www.w3.org/2000/svg" width="200" height="150" viewBox="0 0 200 150"><defs><style>.a{fill:#eee;stroke:#fff;stroke-miterlimit:10;}.b{fill:#fd0001;}.c{fill:#fff;}</style></defs><title>lse</title><rect class="a" x="-123.5" y="-45.5" width="475" height="1101"/><rect class="b" x="36" y="12" width="127" height="127"/><polygon class="c" points="59.45 36.42 68.24 36.42 68.24 105.78 79.96 105.78 79.96 114.58 59.45 114.58 59.45 36.42"/><polygon class="c" points="118.06 35.45 139.55 35.45 139.55 44.24 126.85 44.24 126.85 69.64 138.58 69.64 138.58 78.43 126.85 78.43 126.85 105.78 139.55 105.78 139.55 114.58 118.06 114.58 118.06 35.45"/><path class="c" d="M87.78,114.58v-8.79h2.67c3.51,0,9.45-2.4,10.33-7.79.85-5.22.22-9-6.67-20.46L94,77.33c-4.79-7.62-9.34-14.27-7.64-24.71,1.84-11.35,11-16.34,19.24-16.2h2.68v8.8h-2.61c-3.42,0-9.37,2.36-10.23,7.75-.83,5.22-.25,8.6,6.28,19.91l.17.29c4.86,7.82,9.23,14.73,7.58,25.17-1.8,11.35-10.51,16.38-18.58,16.23H87.78"/></svg>