<svg xmlns="http://www.w3.org/2000/svg" width="200" height="150" viewBox="0 0 200 150"><defs><style>.a{fill:#eee;stroke:#fff;stroke-miterlimit:10;}.b{fill:#fff;}.c{fill:#5e0d8b;}</style></defs><title>nyu</title><rect class="a" x="-123.5" y="-242.5" width="475" height="1101"/><polygon class="b" points="127.16 98.67 72.1 98.67 72.1 9.87 127.16 9.87 127.16 98.67 127.16 98.67"/><path class="c" d="M93.84,55.45c-10.31-6.15-9.28-14.93-5-21.39a1,1,0,0,0,.09-.62A24.27,24.27,0,0,0,86.38,27c-.19-.28-.34-.26-.35-.06C86,28.66,84,33.07,80.91,38.12c-3.25,5.41-3.26,17.11,12.89,17.57.15,0,.19-.14,0-.24ZM96.6,55c-6.16-13.16,6.16-21.66,8.17-23.5.28-.26.21-.5.21-.79,0-4.14-2.37-10.85-3.14-11.81-.11-.15-.21-.09-.25.06-1.06,4.1-6.67,10.18-7.79,11.52-9.52,11.3-7.34,18.19,2.59,24.69.12.08.28,0,.21-.16Zm2-.56c2.91-14,14.28-14.31,15.29-17,1.59-4.13-1.31-11.46-2.05-12.33-.07-.09-.17,0-.21,0a24.73,24.73,0,0,1-5.88,8.08c-2.57,2.07-12.44,9.39-7.39,21.17a.12.12,0,0,0,.24,0Zm2,1.21c18.39.66,19.7-16.1,19.78-22.38,0-.36-.17-.39-.27-.14-.53,1.31-2.93,6-9.57,8.83a17.32,17.32,0,0,0-10.1,13.5.16.16,0,0,0,.17.2Zm4.18,6.28V57.71H90.3v4.22ZM96.33,91.81a1.08,1.08,0,0,0,2,0l3.51-27.86H93.28l3,27.86Zm53.75,11.75H49.53V3H150.08V103.55Z"/><polygon class="c" points="49.53 113.5 56.44 113.5 72.4 134.46 72.4 113.5 79.79 113.5 79.79 147.55 73.42 147.55 56.93 125.9 56.93 147.55 49.53 147.55 49.53 113.5 49.53 113.5"/><polygon class="c" points="96.63 134.12 83.54 113.5 92.29 113.5 100.42 127.17 108.69 113.5 117.2 113.5 104.12 133.97 104.12 147.55 96.63 147.55 96.63 134.12 96.63 134.12"/><path class="c" d="M120.42,133V113.5h7.49v19.26c0,5.55,2.77,8.42,7.35,8.42s7.34-2.78,7.34-8.18V113.5h7.49v19.21c0,10.31-5.79,15.38-14.93,15.38S120.42,143,120.42,133Z"/></svg>