<svg xmlns="http://www.w3.org/2000/svg" xmlns:xlink="http://www.w3.org/1999/xlink" width="200" height="150" viewBox="0 0 200 150"><defs><style>.a{fill:none;}.b{fill:#eee;stroke:#fff;stroke-miterlimit:10;}.c{fill:#001c54;}.d{clip-path:url(#a);}.e{fill:#fff;}</style><clipPath id="a"><rect class="a" x="31" y="7" width="136" height="136"/></clipPath></defs><title>oxford</title><rect class="b" x="-121.5" y="-894.5" width="475" height="1101"/><rect class="c" x="31" y="7" width="136" height="136"/><g class="d"><path class="e" d="M49.62,104.07a3,3,0,0,1-2.24.81,2.78,2.78,0,0,1-3-3.33V96.5h1.11v5.18a2.21,2.21,0,0,0,.47,1.74,2,2,0,0,0,1.46.52,1.87,1.87,0,0,0,1.36-.51c.55-.56.51-1.18.51-2.58V96.5h1.09v4.18c0,1.53,0,2.6-.74,3.39"/><polygon class="e" points="58.29 104.72 54.4 98.17 54.43 104.72 53.42 104.72 53.42 96.5 54.51 96.5 58.4 103.07 58.37 96.5 59.38 96.5 59.38 104.72 58.29 104.72"/><rect class="e" x="62.7" y="96.5" width="1.11" height="8.22"/><polygon class="e" points="69.98 104.72 68.76 104.72 65.92 96.5 67.07 96.5 69.4 103.59 71.79 96.5 72.86 96.5 69.98 104.72"/><polygon class="e" points="75.02 104.72 75.02 96.5 79.57 96.5 79.57 97.41 76.11 97.41 76.11 100 79.36 100 79.36 100.89 76.11 100.89 76.11 103.78 79.67 103.78 79.67 104.72 75.02 104.72"/><path class="e" d="M86.7,104.72l-.95-2.15c-.57-1.27-.84-1.38-1.95-1.38h-.52v3.53H82.2V96.5H84c1.1,0,1.95,0,2.61.65a2.23,2.23,0,0,1,.64,1.64,2,2,0,0,1-.51,1.42,2.17,2.17,0,0,1-1.32.65,1.15,1.15,0,0,1,.7.33,3.87,3.87,0,0,1,.64,1.15l1.06,2.38Zm-.88-6.92a2.17,2.17,0,0,0-1.69-.43h-.85v2.95h.38a2.86,2.86,0,0,0,2.11-.49,1.48,1.48,0,0,0,.41-1,1.43,1.43,0,0,0-.36-1"/><path class="e" d="M92.1,104.89a4,4,0,0,1-2.53-.89l.53-.76a3.54,3.54,0,0,0,1.95.7,1.42,1.42,0,0,0,1.6-1.36c0-.9-1-1.34-1.9-1.78-1-.51-2-1-2-2.26a2.31,2.31,0,0,1,2.58-2.22,3.2,3.2,0,0,1,2.34.84l-.56.72a2.74,2.74,0,0,0-1.71-.62c-.9,0-1.54.44-1.54,1.18s.73,1.06,1.54,1.48,2.34.93,2.34,2.55a2.43,2.43,0,0,1-2.7,2.4"/><rect class="e" x="97.4" y="96.5" width="1.11" height="8.22"/><polygon class="e" points="104.17 97.41 104.17 104.72 103.06 104.72 103.06 97.41 100.65 97.41 100.65 96.5 106.58 96.5 106.58 97.41 104.17 97.41"/><polygon class="e" points="111.37 101.47 111.37 104.72 110.27 104.72 110.27 101.47 107.67 96.5 108.88 96.5 110.89 100.37 112.85 96.5 113.97 96.5 111.37 101.47"/><path class="e" d="M123.17,104.88c-2.17,0-3.74-1.76-3.74-4.25s1.55-4.29,3.8-4.29,3.72,1.75,3.72,4.23-1.54,4.32-3.79,4.32m0-7.61c-1.57,0-2.59,1.32-2.59,3.33s1.15,3.33,2.65,3.33c1.71,0,2.6-1.47,2.6-3.4s-1.1-3.25-2.66-3.25"/><polygon class="e" points="130.69 97.41 130.69 100 133.84 100 133.84 100.89 130.69 100.89 130.69 104.72 129.59 104.72 129.59 96.5 134.04 96.5 134.04 97.41 130.69 97.41"/><path class="e" d="M61,120.88A9.13,9.13,0,1,1,51.92,112,8.93,8.93,0,0,1,61,120.88m-2.94.1c0-4.78-2.27-8-6.19-8-4.25,0-6.18,3.91-6.18,8,0,4.78,2.27,8,6.18,8,4.26,0,6.19-3.92,6.19-8"/><path class="e" d="M116.8,120.88a9.13,9.13,0,1,1-9.13-8.89,8.93,8.93,0,0,1,9.13,8.89m-2.94.1c0-4.78-2.27-8-6.19-8-4.25,0-6.18,3.91-6.18,8,0,4.78,2.27,8,6.18,8,4.25,0,6.19-3.92,6.19-8"/><path class="e" d="M123.85,121H126c3.29,0,4-2,4-4a3.42,3.42,0,0,0-2.17-3.38,6.55,6.55,0,0,0-2.66-.39h-1.31Zm4,2.86c-1-1.45-1.4-1.89-2.66-1.89h-1.31v5.81c0,.49.15.72.72.82l2,.39v.68h-7.82V129l1.79-.39c.58-.15.72-.34.72-.82V114.18c0-.49-.19-.73-.72-.83l-1.79-.39v-.68h7.63a10.34,10.34,0,0,1,3.62.48,4.58,4.58,0,0,1,2.94,4.2c0,2.13-1.59,3.91-4.25,4.54v.1c.53.24.82.58,2.71,3.05l2.42,3.14a1.94,1.94,0,0,0,1.35.92l1.65.29v.68h-4.2c-.49,0-.73-.15-1.16-.73Z"/><path class="e" d="M93.76,118.29h.82V124h-.82l-.34-1.65a1,1,0,0,0-1.11-.87h-4.2v6.29c0,.49.14.72.72.82l2,.39v.68H83V129l1.78-.39c.58-.15.73-.34.73-.82V114.18c0-.49-.19-.73-.73-.83L83,113v-.68H96.17v4.35h-.82l-.68-2.45a1.09,1.09,0,0,0-1.16-.92H88.11v7.28h4.2a1,1,0,0,0,1.11-.85Z"/><path class="e" d="M138.2,129.7V129l1.79-.39c.58-.15.73-.34.73-.82V114.18c0-.49-.19-.73-.73-.83L138.2,113v-.68h8.17a12.25,12.25,0,0,1,5.12.87,8.43,8.43,0,0,1,4.78,7.92c0,3.1-1.16,6-4.1,7.55a12.23,12.23,0,0,1-5.7,1.07Zm5.07-16.44v14.68c0,.63.14.78.77.78h2.13c2,0,3.53-.25,4.59-1,1.79-1.31,2.56-3.57,2.56-6.58s-.77-5.74-3.19-7.14a8.71,8.71,0,0,0-4.35-.72Z"/><path class="e" d="M67.91,129v.68H61.68V129l1.54-.34a2.25,2.25,0,0,0,1.36-.78l5.22-6.67-5.22-7a2.19,2.19,0,0,0-1.31-.87L61.83,113v-.68h7.68V113l-1.65.29c-.53.1-.48.24-.19.63l3.86,5.46h.1l4-5.37c.29-.39.29-.58-.14-.68L74,113v-.68h6.23V113l-1.54.34a2.23,2.23,0,0,0-1.36.78l-5,6.23,5.55,7.49a2.2,2.2,0,0,0,1.31.87l1.44.34v.68H72.93V129l1.65-.29c.52-.1.48-.25.19-.63l-4.21-5.89h-.09l-4.3,5.89c-.29.39-.34.49.19.58Z"/><path class="e" d="M127.61,40.82a2.46,2.46,0,0,0-1.09-2.27,3.73,3.73,0,0,0-1.87-.36H119V49.61h6.13c1.42,0,2.25.32,2.33,1.59h.14Z"/><path class="e" d="M128.59,40.82a2.46,2.46,0,0,1,1.09-2.27,3.73,3.73,0,0,1,1.87-.36h5.67V49.61h-6.17c-1.42,0-2.25.32-2.33,1.59h-.14Z"/><path class="e" d="M138.47,38.92V51.15h-8.91l-.12.3c-.15.36-.41.69-1.33.69s-1.19-.33-1.33-.69l-.12-.3h-8.88V38.92h-1v.32l-.68-.21a.76.76,0,1,0-.25.83l.93.29v.93l-.67-.12a.76.76,0,1,0-.15.86l.82.15v1l-.7,0a.76.76,0,1,0,0,.87l.74,0v1l-.73,0a.75.75,0,1,0,0,.87l.69,0v1l-.8.14a.76.76,0,1,0,.15.86l.66-.11v.94l-.89.27a.76.76,0,1,0,.25.83l.64-.19v.9l-1,.43a.76.76,0,1,0,.34.8l.66-.28v.89h9.25a2.62,2.62,0,0,0,4.1,0h9.28V38.92Z"/><path class="e" d="M122,34.95c-1.86,0-3.37.29-3.37.65s1.51.65,3.37.65,3.37-.29,3.37-.65-1.51-.65-3.37-.65"/><path class="e" d="M126.69,30.77l-1.95,1.37,0,.14.46.21c.09,0,.09.12,0,.16l-1.22,1h-.12L123,32.39c-.06-.08,0-.16.07-.18l.58-.1V32l-1.51-2.13h-.25L120.41,32v.15l.58.1c.1,0,.13.1.07.18l-.87,1.28h-.12l-1.14-1s0-.12,0-.16l.46-.21,0-.14-2-1.37-.16.06,1.19,3.64a14.15,14.15,0,0,1,7.24,0l1.19-3.64Z"/><path class="e" d="M128.1,59.35c-1.86,0-3.37.29-3.37.65s1.51.65,3.37.65,3.37-.29,3.37-.65-1.51-.65-3.37-.65"/><path class="e" d="M132.74,55.17l-1.95,1.37,0,.14.46.21c.09,0,.09.12,0,.16l-1.22,1h-.12l-.87-1.28c-.06-.08,0-.17.07-.18l.58-.09v-.15l-1.51-2.13H128l-1.51,2.13v.15l.58.09c.1,0,.13.1.07.18l-.87,1.28h-.12L125,57s0-.12,0-.16l.46-.21,0-.14-2-1.37-.16.06,1.19,3.64a14.15,14.15,0,0,1,7.24,0l1.19-3.64Z"/><path class="e" d="M134.13,34.95c-1.86,0-3.37.29-3.37.65s1.51.65,3.37.65,3.37-.29,3.37-.65-1.51-.65-3.37-.65"/><path class="e" d="M138.77,30.77l-1.95,1.37,0,.14.46.21c.09,0,.09.12,0,.16l-1.22,1H136l-.87-1.28c-.06-.08,0-.16.07-.18l.58-.1V32l-1.51-2.13H134L132.5,32v.15l.58.1c.1,0,.13.1.07.18l-.87,1.28h-.12l-1.14-1s0-.12,0-.16l.46-.19,0-.14-2-1.37-.16.06,1.19,3.64a14.15,14.15,0,0,1,7.24,0l1.19-3.64Z"/><path class="e" d="M128.76,21a.69.69,0,1,1-.69-.69.69.69,0,0,1,.69.69"/><path class="e" d="M144.91,27.42a.69.69,0,1,1-.66-.73.69.69,0,0,1,.66.73"/><path class="c" d="M120.46,39.95a1,1,0,0,1,.74.22.72.72,0,0,1,.22.52c0,.63-.48.9-1.06.9h-.65v-.1c.18,0,.2,0,.2-.3v-.83c0-.27,0-.29-.18-.3v-.1Zm-.12,1.24c0,.22.06.27.18.27s.44-.24.44-.69-.27-.69-.49-.69l-.11,0s0,.06,0,.13Z"/><path class="c" d="M123.31,40.74a.82.82,0,0,1-.85.88.81.81,0,0,1-.84-.83.85.85,0,0,1,.87-.88.8.8,0,0,1,.82.84m-1.22,0c0,.46.17.79.42.79s.33-.21.33-.66-.18-.78-.4-.78-.35.22-.35.66"/><path class="c" d="M125.54,39.95V40c-.19,0-.2,0-.19.29l0,.84c0,.28,0,.29.19.31v.1h-.79v-.1c.19,0,.2,0,.19-.31v-.89h0l-.49,1.26h-.14l-.46-1.17h0l0,.56a2.7,2.7,0,0,0,0,.41c0,.09.07.12.23.13v.1h-.62v-.1c.12,0,.17,0,.18-.13s0-.21,0-.44l0-.51c0-.32,0-.34-.2-.36v-.1h.59l.44,1,.39-1Z"/><path class="c" d="M126.35,41.18c0,.27,0,.29.19.3v.1h-.82v-.1c.17,0,.19,0,.19-.3v-.83c0-.27,0-.29-.19-.3v-.1h.82V40c-.17,0-.19,0-.19.3Z"/><path class="c" d="M122.3,44.62h-.22l-.93-1.19h0v.46a3.78,3.78,0,0,0,0,.48c0,.09.08.12.25.13v.1h-.63v-.1c.11,0,.18,0,.19-.13a4,4,0,0,0,0-.48v-.46c0-.19,0-.22-.06-.29a.24.24,0,0,0-.19-.08V43h.56l.84,1h0v-.34a4.12,4.12,0,0,0,0-.48c0-.09-.08-.12-.25-.13V43h.64v.1c-.13,0-.19,0-.2.13a4.12,4.12,0,0,0,0,.48Z"/><path class="c" d="M123.32,44.62l-.5-1.31c-.08-.22-.13-.23-.25-.24V43h.81v.1h-.09c-.09,0-.09,0-.06.12s.24.64.34.88c.08-.21.24-.69.28-.81s0-.18-.08-.19h-.08V43h.61v.1c-.14,0-.18,0-.28.26,0,0-.32.78-.51,1.3Z"/><path class="c" d="M124.46,44.08c.05.15.2.43.45.43a.22.22,0,0,0,.23-.25c0-.15-.1-.23-.25-.3l0,0c-.21-.1-.44-.23-.44-.5a.53.53,0,0,1,.6-.52.89.89,0,0,1,.23,0l.13,0c0,.1,0,.22.06.39l-.11,0c-.06-.17-.14-.34-.34-.34a.21.21,0,0,0-.22.22c0,.13.1.2.26.27l.06,0c.23.11.43.23.43.53a.56.56,0,0,1-.64.54.92.92,0,0,1-.27,0l-.16-.06c0-.12-.05-.25-.08-.42Z"/><path class="c" d="M121.18,47.22c0,.27,0,.29.19.3v.1h-.82v-.1c.17,0,.19,0,.19-.3v-.83c0-.27,0-.29-.19-.3V46h.82v.1c-.17,0-.19,0-.19.3Z"/><path class="c" d="M122.18,47.25c0,.13,0,.19.05.22a.41.41,0,0,0,.18,0,.31.31,0,0,0,.24-.07.66.66,0,0,0,.12-.25l.11,0c0,.1-.07.36-.09.44h-1.25v-.1c.19,0,.21,0,.21-.3v-.83c0-.27,0-.29-.19-.3V46h.82v.1c-.18,0-.2,0-.2.3Z"/><path class="c" d="M123.58,47.25c0,.13,0,.19.05.22a.41.41,0,0,0,.18,0,.31.31,0,0,0,.24-.07.66.66,0,0,0,.12-.25l.11,0c0,.1-.07.36-.09.44h-1.25v-.1c.19,0,.21,0,.21-.3v-.83c0-.27,0-.29-.19-.3V46h.82v.1c-.18,0-.2,0-.2.3Z"/><path class="c" d="M124.79,47.64l-.5-1.31c-.08-.22-.13-.23-.25-.24V46h.81v.1h-.09c-.09,0-.09,0-.07.12s.24.64.34.88c.08-.21.24-.69.28-.81s0-.18-.08-.19h-.07V46h.61v.1c-.14,0-.18,0-.28.26,0,0-.32.78-.51,1.3Z"/><path class="c" d="M131.74,40v.1c-.19,0-.2,0-.19.29l0,.84c0,.28,0,.29.19.31v.1H131v-.1c.19,0,.2,0,.19-.31v-.89h0l-.49,1.26h-.14l-.46-1.17h0l0,.56a2.7,2.7,0,0,0,0,.41c0,.09.07.12.23.13v.1h-.62v-.1c.12,0,.17,0,.18-.13a4.24,4.24,0,0,0,0-.44l0-.51c0-.32,0-.34-.2-.36V40h.59l.44,1,.38-1Z"/><path class="c" d="M132.56,41.24c0,.27,0,.29.19.3v.1h-.82v-.1c.17,0,.19,0,.19-.3V40.4c0-.27,0-.29-.19-.3V40h.82v.1c-.17,0-.19,0-.19.3Z"/><path class="c" d="M134.43,41.66h-.22l-.93-1.19h0v.46a3.93,3.93,0,0,0,0,.48c0,.09.08.12.25.13v.1h-.63v-.1c.11,0,.18,0,.19-.13a3.82,3.82,0,0,0,0-.48v-.46c0-.19,0-.22-.06-.29a.24.24,0,0,0-.19-.08V40h.56l.84,1h0v-.34a4,4,0,0,0,0-.48c0-.09-.08-.12-.25-.13V40h.64v.1c-.13,0-.19,0-.2.13a3.93,3.93,0,0,0,0,.48Z"/><path class="c" d="M135.48,41.54h.08c.09,0,.1,0,.06-.13l-.09-.26h-.41l-.08.24c0,.11,0,.13.08.15h.07v.1h-.59v-.1c.13,0,.17,0,.25-.24l.5-1.3.17,0,.17.48.31.85c.08.22.13.23.25.25v.1h-.79Zm-.32-.55h.32l-.16-.48h0Z"/><path class="c" d="M131.72,44.26c0,.27,0,.29.23.3v.1h-.88v-.1c.2,0,.22,0,.22-.3v-1.1h0c-.17,0-.24,0-.28.08a.62.62,0,0,0-.09.24h-.11c0-.21,0-.38,0-.51h.08c0,.06.06.06.13.06h1c.07,0,.08,0,.12-.06h.08c0,.11,0,.32,0,.51h-.11a.61.61,0,0,0-.1-.26.34.34,0,0,0-.25-.06h-.06Z"/><path class="c" d="M133,44.26c0,.27,0,.29.19.3v.1h-.82v-.1c.17,0,.19,0,.19-.3v-.83c0-.27,0-.29-.19-.3V43h.82v.1c-.17,0-.19,0-.19.3Z"/><path class="c" d="M135.13,43.82a.82.82,0,0,1-.85.88.81.81,0,0,1-.84-.83.85.85,0,0,1,.87-.88.8.8,0,0,1,.82.84m-1.22,0c0,.46.17.79.42.79s.33-.21.33-.66-.18-.79-.4-.79-.35.22-.35.66"/><path class="c" d="M132.46,46v.1c-.19,0-.2,0-.19.29l0,.84c0,.28,0,.29.19.31v.1h-.79v-.1c.19,0,.2,0,.19-.31v-.89h0l-.49,1.26h-.14l-.46-1.17h0l0,.56a2.81,2.81,0,0,0,0,.41c0,.09.07.12.23.13v.1h-.62v-.1c.12,0,.17,0,.18-.13a4.15,4.15,0,0,0,0-.44l0-.51c0-.32,0-.34-.2-.36V46H131l.44,1,.38-1Z"/><path class="c" d="M132.85,46.45c0-.27,0-.29-.19-.3V46h1.19l0,.42h-.11a.46.46,0,0,0-.09-.23s-.12-.06-.26-.06h0c-.1,0-.1,0-.1.09v.49h.13c.22,0,.22,0,.25-.21h.11v.59h-.11c0-.22,0-.24-.25-.24h-.13v.41c0,.13,0,.19.05.22a.42.42,0,0,0,.18,0,.37.37,0,0,0,.27-.08.72.72,0,0,0,.12-.26l.11,0a3.43,3.43,0,0,1-.09.45h-1.28v-.1c.19,0,.21,0,.21-.31Z"/><path class="c" d="M134.89,47.58H135c.09,0,.1,0,.07-.13l-.09-.26h-.41l-.08.24c0,.11,0,.13.08.15h.07v.1H134v-.1c.13,0,.17,0,.25-.24l.5-1.3.17,0,.17.48.31.85c.08.22.13.23.25.25v.1h-.79Zm-.32-.55h.32l-.16-.48h0Z"/><path class="e" d="M125.8,68.4a.69.69,0,1,1-.69-.69.69.69,0,0,1,.69.69"/><path class="e" d="M132.61,69.52a.69.69,0,1,1-.69-.69.69.69,0,0,1,.69.69"/><path class="e" d="M109.57,55.37a1.81,1.81,0,0,1,1.47.87,2,2,0,0,1,.4,1.13c0,.68-.33,1.07-1.13,1.63l-2.11,1.49-.57-.82L110,58a1,1,0,0,0,.51-.73.84.84,0,0,0-.19-.55.77.77,0,0,0-.68-.39c-.25,0-.49.15-1,.51l-2,1.33-.56-.79L108.22,56a2.39,2.39,0,0,1,1.35-.6"/><polygon class="e" points="105.82 53.44 108.7 52.31 109.02 53.12 104.66 54.81 104.35 53.96 106.61 51.09 103.7 52.11 103.39 51.26 107.78 49.72 108.08 50.52 105.82 53.44"/><rect class="e" x="102.74" y="47.29" width="4.68" height="1" transform="translate(-5.99 16.35) rotate(-8.65)"/><polygon class="e" points="107.15 43.87 102.4 45.29 102.45 44.29 106.01 43.33 102.54 42.05 102.58 41.08 107.19 42.9 107.15 43.87"/><polygon class="e" points="103.08 38.54 103.85 35.82 104.62 36.04 104.12 37.82 105.16 38.12 105.64 36.44 106.39 36.66 105.92 38.33 107.07 38.66 107.59 36.82 108.37 37.04 107.58 39.83 103.08 38.54"/><path class="e" d="M110.23,33.29l-1.39-.12c-.66-.06-.72.1-.91.43l-.06.1,1.65.88-.49.87-4.12-2.25L105.6,32c.3-.55.63-1.13,1.45-1.13a1.2,1.2,0,0,1,1.15,1.66.93.93,0,0,1,.82-.3c.17,0,.33,0,.47,0l1.25.11Zm-3.46-1.42c-.24.07-.36.25-.54.57l-.15.27,1.14.61.19-.34a.79.79,0,0,0,.14-.65.73.73,0,0,0-.33-.39.59.59,0,0,0-.44-.06"/><rect class="e" x="113.61" y="23.3" width="1" height="4.68" transform="translate(7.54 73.82) rotate(-36.99)"/><polygon class="e" points="117.55 21.75 119.33 25.2 118.45 25.66 116.67 22.21 115.53 22.8 115.16 22.09 118.32 20.46 118.69 21.17 117.55 21.75"/><polygon class="e" points="123.03 22 123.48 23.82 122.56 24.05 122.11 22.23 120 19.86 120.98 19.62 122.37 21.25 122.84 19.15 123.78 18.92 123.03 22"/><polygon class="e" points="139.98 23.69 141.45 24.57 141.05 25.24 139.57 24.36 138.55 26.09 137.7 25.58 140.1 21.56 142.5 22.99 142.09 23.68 140.53 22.75 139.98 23.69"/><polygon class="e" points="148.39 38.9 149.67 37.49 147.81 37.05 147.5 36.07 150.27 36.79 152 34.76 152.32 35.79 151.13 37.09 152.86 37.5 153.16 38.46 150.59 37.77 148.71 39.91 148.39 38.9"/><polygon class="e" points="152.87 42.23 151.78 42.32 151.9 44.05 151.11 44.1 151 42.39 149 42.52 148.93 41.58 153.6 41.2 153.79 44.01 152.99 44.07 152.87 42.23"/><path class="e" d="M156.16,44.53a28.07,28.07,0,0,0-47.22-20.68A28,28,0,0,0,112,67.26,6.86,6.86,0,0,0,121.37,72a28.29,28.29,0,0,0,2.74.72A14,14,0,0,1,123,75l.67.67a1,1,0,0,1,.54-.16,1,1,0,0,1,1,1,1,1,0,0,1-1.07,1,1.3,1.3,0,0,1-1.17-.79,4.63,4.63,0,0,0-.18,1.26c0,2.08,2.26,4.37,5.29,5.33,3-1,5.3-3.25,5.3-5.33a4.62,4.62,0,0,0-.18-1.26,1.3,1.3,0,0,1-1.17.79,1,1,0,0,1-1.07-1,1,1,0,0,1,1-1,1,1,0,0,1,.54.16l.62-.61h0l0,0h0v0h0a13.79,13.79,0,0,1-.68-2,20.88,20.88,0,0,0,12.64-6.37h0a27.77,27.77,0,0,0,11.07-22.06m-37.46,27a5.89,5.89,0,0,1-5.15-8.68l1,.84a4.61,4.61,0,0,0-.45,2,4.75,4.75,0,0,0,2.57,4.21,21.72,21.72,0,0,0,3.25,1.54,5.89,5.89,0,0,1-1.17.12M128.1,63a18.77,18.77,0,0,1-3.24-.28,6.85,6.85,0,0,0-8.09-3.56A18.65,18.65,0,1,1,128.1,63m4,.54a6.73,6.73,0,0,0-.88,2.82,29,29,0,0,1-4.62-1.66,1.44,1.44,0,0,1,1.38-.76h.14a19.68,19.68,0,0,0,4-.41m-6,.31a2.13,2.13,0,0,0-.39.45c-.6-.25-1.75-.79-2.13-1a17.17,17.17,0,0,0,2.52.56m-7.42-4a5.9,5.9,0,0,1,4.88,2.62,18.47,18.47,0,0,1-2.79-.93h0l0,0A4.71,4.71,0,0,0,114.95,63c-.36-.2-.72-.41-1.07-.63a5.85,5.85,0,0,1,4.82-2.54m13.14,14.83a1.91,1.91,0,0,0,.06,3.81,1.9,1.9,0,0,0,.39,0c-.32,1.51-2.1,3.14-4.25,3.87-2.11-.73-3.92-2.36-4.24-3.87a1.9,1.9,0,0,0,.4,0,1.91,1.91,0,0,0,.06-3.81,12.37,12.37,0,0,0,.81-1.76,21.94,21.94,0,0,0,3.67.34c.94,0,1.85,0,2.74-.14.12.46.41,1.34.49,1.57h-.12m-3.1-2.36a24.92,24.92,0,0,1-11.6-3.16A3.9,3.9,0,0,1,115,65.7a3.71,3.71,0,0,1,.24-1.32,25.31,25.31,0,0,0,3.23,2.35.9.9,0,0,0,.51.15.93.93,0,0,0,.93-.94.92.92,0,0,0-.57-.87c-.67-.29-2.07-.87-3.58-1.65A3.69,3.69,0,0,1,118.75,62a3.66,3.66,0,0,1,1.57.35l1,.59c3.24,2,11.53,7,21.57,4.41-3.79,3.31-8.45,4.94-14.17,4.94m15.69-6.39a22.06,22.06,0,0,1-12.27.69c.11-1.54.69-3.24,1.63-3.49a19.65,19.65,0,1,0-18.08-3.53,6.9,6.9,0,0,0-2.66,2.27c-.32-.22-.63-.46-.92-.69l-.18.18a12,12,0,0,0,.85.9,6.74,6.74,0,0,0-1,3.49c0,.09,0,.17,0,.26a27.06,27.06,0,1,1,32.58-.07"/><path class="e" d="M113.15,29.1a1.82,1.82,0,0,1-.53,1.21,2.27,2.27,0,0,1-1.46.8l-.2-.78a2,2,0,0,0,1-.55.86.86,0,0,0,.26-.56.49.49,0,0,0-.5-.51c-.41,0-1.09.59-1.78.59a1.19,1.19,0,0,1-.88-.32,1.31,1.31,0,0,1-.44-1,1.75,1.75,0,0,1,.51-1.16,2.16,2.16,0,0,1,1.37-.74l.17.76a1.79,1.79,0,0,0-.91.47.84.84,0,0,0-.25.54.4.4,0,0,0,.42.41c.34,0,1.18-.61,1.86-.61a1.12,1.12,0,0,1,.87.35,1.41,1.41,0,0,1,.48,1.06"/><path class="e" d="M134.71,24.39a2.25,2.25,0,0,1-2.28-2.28,2.49,2.49,0,0,1,2.31-2.64,2.24,2.24,0,0,1,2.33,2.23,2.56,2.56,0,0,1-2.36,2.69m1.36-2.7a1.54,1.54,0,0,0-.27-.92,1.16,1.16,0,0,0-.93-.46c-.84,0-1.45,1-1.45,1.9a1.25,1.25,0,0,0,1.26,1.34c.95,0,1.39-1.23,1.39-1.85"/><path class="e" d="M147.7,34.4a2.33,2.33,0,0,1-2.21-2.29,2.76,2.76,0,0,1,2.68-2.46A2.35,2.35,0,0,1,150.39,32a2.71,2.71,0,0,1-2.69,2.44m-.17-.95c.82,0,2-.71,2-1.67a1.16,1.16,0,0,0-1.17-1.17c-.77,0-1.94.68-1.94,1.65a1.18,1.18,0,0,0,1.15,1.19"/><path class="e" d="M148.62,48.19A2.22,2.22,0,0,1,151,45.89a2.36,2.36,0,0,1,2.57,2.25,2.21,2.21,0,0,1-2.31,2.33,2.41,2.41,0,0,1-2.6-2.3m2.66,1.3a1.3,1.3,0,0,0,1.44-1.25c0-.89-1-1.34-1.83-1.34a1.28,1.28,0,0,0-1.43,1.28c0,1,1.19,1.31,1.82,1.31"/><path class="e" d="M146.84,53.71h1.39c.66,0,.71-.16.87-.5l0-.1-1.67-.78.4-.89,4.24,2-.54,1.22c-.37.82-.69,1.23-1.47,1.23a1.24,1.24,0,0,1-1.23-1.18,1.42,1.42,0,0,1,.06-.38c-.25.43-.88.37-1.27.37h-1.25Zm2.72.52a.65.65,0,0,0,.63.64c.3,0,.49-.16.66-.55L151,54l-1.16-.54-.19.43a.92.92,0,0,0-.09.37"/><path class="e" d="M144,58.88a3.18,3.18,0,0,1,1-2.17l.61-.75,3.63,3-.82,1a2.58,2.58,0,0,1-2,1.26,2.4,2.4,0,0,1-1.48-.57,2.34,2.34,0,0,1-.9-1.73m2.49,1.37c.49,0,.78-.15,1.35-.85l.18-.22-2.41-2-.3.36a1.69,1.69,0,0,0-.44,1,1.56,1.56,0,0,0,.68,1.22,1.49,1.49,0,0,0,.94.4"/></g></svg>