<svg xmlns="http://www.w3.org/2000/svg" width="200" height="150" viewBox="0 0 200 150"><defs><style>.a{fill:#eee;stroke:#fff;stroke-miterlimit:10;stroke-width:1.16px;}</style></defs><title>telaviv</title><rect class="a" x="-121.5" y="-1198" width="475" height="1470"/><path d="M185.67,66.64c-4.41,10.12-16.57,14.92-27.15,10.74s-15.58-15.79-11.17-25.91,16.57-14.92,27.16-10.74,15.58,15.79,11.16,25.91M189.11,68c5.2-11.91-.71-25.62-13.17-30.55s-26.83.74-32,12.66.71,25.62,13.18,30.55,26.82-.74,32-12.66"/><path d="M149.74,81.67a19.26,19.26,0,0,1,3.9-27.8,21.39,21.39,0,0,1,29.1,3.66,19.26,19.26,0,0,1-3.9,27.8,21.4,21.4,0,0,1-29.1-3.66m-3,2.17C155,94.07,170.37,96,181.1,88.15a22.73,22.73,0,0,0,4.6-32.79c-8.19-10.23-23.58-12.17-34.32-4.31a22.74,22.74,0,0,0-4.6,32.79"/><path d="M154.16,44.47c11.37-1.43,21.78,6.21,23.25,17.07s-6.56,20.81-17.93,22.24-21.78-6.21-23.25-17.06,6.56-20.82,17.93-22.25m-.48-3.53c-13.39,1.68-22.88,13.46-21.15,26.24S146.56,89,160,87.31s22.88-13.45,21.15-26.24-14-21.82-27.42-20.13"/><path d="M128.66,60.41c0-13.68-11.39-24.81-25.4-24.81a25.5,25.5,0,0,0-15.1,4.87,24.66,24.66,0,0,0,0,47.58,25.56,25.56,0,0,0,15.1,4.86c14,0,25.4-11.13,25.4-24.81a23.76,23.76,0,0,0-.31-3.84,23.89,23.89,0,0,0,.31-3.85m-21.08,18a19.87,19.87,0,0,1-4.07.42A19,19,0,0,1,84.88,64.26,19,19,0,0,1,103.51,49.7a19.21,19.21,0,0,1,4.07.43,18.37,18.37,0,0,1,0,28.26"/><path d="M44.75,63.91H42.27c-2.48,5.64-8.83,5.64-11,0h-2.6q8.13,10.19,16.11,0"/><path d="M36.73,35.6C20.53,35.6,7.4,48.43,7.4,64.26S20.53,92.91,36.73,92.91,66.07,80.08,66.07,64.26,52.94,35.6,36.73,35.6m3,36.31,1.37,2a1.79,1.79,0,0,0,1-2l2,.23-.5,2.31-1.16,1L44,77.23l-1.86,1.36-3.42-4.67h-.8v4.21H35.57v-4.2H33.68s0,3-.7,3.52-3.41.91-3.41.91v-2.1h1.67V73.93h-.86v-2h5.19V70.57h-6L25,60.81l8.56,1.58S33.91,65.65,36,66l.11-1.17s-2.36-3.1-2.36-6.32c0-2.68,2.24-7.36,2.94-8.7.71,1.34,3,6,3,8.7,0,3.22-2.36,6.32-2.36,6.32L37.43,66c2.13-.34,2.48-3.6,2.48-3.6l8.56-1.58L43.9,70.57h-6v1.34Z"/><path d="M36.39,61.38,36.73,59l.35,2.43c1.32-.8-.35-5.15-.35-5.15s-1.66,4.35-.34,5.15"/><path d="M18.28,102.81H15v-2.6h9.51v2.6H21.21v11.31H18.28Z"/><path d="M33.05,108.15H28.64v3.47h4.93v2.5H25.71V100.21h7.58v2.5H28.64v3h4.41Z"/><path d="M35.22,100.21h2.93v11.37h4.79v2.54H35.22Z"/><path d="M50.57,110.67l-.84,3.45h-3l3.77-13.91h3.75L58,114.12H54.92l-.9-3.45Zm3-2.27-.72-3c-.2-.82-.42-2-.61-2.82h0c-.18.84-.38,2-.58,2.84L51,108.4Z"/><path d="M60.48,114.12l-3.95-13.91h3.2l1.45,5.92c.4,1.61.76,3.22,1.06,4.93h0c.28-1.67.67-3.32,1.07-4.91l1.46-5.94H68l-4.11,13.91Z"/><path d="M71.89,114.12H69V100.21h2.92Z"/><path d="M76.91,114.12l-4-13.91h3.21l1.44,5.92c.4,1.61.76,3.22,1.07,4.93h0c.28-1.67.66-3.32,1.06-4.91l1.46-5.94h3.15l-4.11,13.91Z"/><path d="M92.14,100.21v8.32c0,2.29.8,3.34,2.11,3.34s2.12-1,2.12-3.34v-8.32H99.3v8.05c0,4.06-1.86,6.06-5.13,6.06s-5-2-5-6.08v-8Z"/><path d="M100.63,114.12V100.21h3.21l2.59,5.2a41.53,41.53,0,0,1,2,4.56h.06c-.16-1.73-.26-3.75-.26-6v-3.76h2.65v13.91h-3l-2.65-5.35a41.73,41.73,0,0,1-2.06-4.68h-.07c.09,1.71.14,3.73.14,6.17v3.86Z"/><path d="M115.57,114.12h-2.93V100.21h2.93Z"/><path d="M120.59,114.12l-4-13.91h3.21l1.44,5.92c.4,1.61.77,3.22,1.07,4.93h0c.28-1.67.66-3.32,1.06-4.91l1.46-5.94h3.15L124,114.12Z"/><path d="M136.84,108.15h-4.41v3.47h4.94v2.5H129.5V100.21h7.59v2.5h-4.66v3h4.41Z"/><path d="M139,100.4a22.06,22.06,0,0,1,3.71-.29,6.32,6.32,0,0,1,4.14,1.07,3.62,3.62,0,0,1,1.2,2.93,3.69,3.69,0,0,1-2.31,3.45v.06a3.37,3.37,0,0,1,1.77,2.64,36.1,36.1,0,0,0,1,3.86h-3a18.28,18.28,0,0,1-.86-3.26c-.32-1.73-.86-2.21-2-2.21h-.76v5.47H139Zm2.91,6h1a2,2,0,0,0,2.23-2.06,1.84,1.84,0,0,0-2.07-2,4.43,4.43,0,0,0-1.14.1Z"/><path d="M149.79,111a6.68,6.68,0,0,0,3.05.79c1.34,0,2-.62,2-1.53s-.64-1.4-2.1-2c-2.13-.93-3.37-2.27-3.37-4.07,0-2.33,1.78-4.14,4.85-4.14a6.57,6.57,0,0,1,3.05.64l-.6,2.45a5.42,5.42,0,0,0-2.49-.6c-1.26,0-1.87.66-1.87,1.39s.65,1.25,2.31,2c2.21,1,3.17,2.29,3.17,4.1,0,2.4-1.74,4.27-5.13,4.27a7.91,7.91,0,0,1-3.45-.76Z"/><path d="M161.9,114.12H159V100.21h2.92Z"/><path d="M166.38,102.81h-3.27v-2.6h9.51v2.6h-3.31v11.31h-2.93Z"/><path d="M177.28,114.12v-5.59l-3.88-8.32h3.3l1.22,3.34c.38,1,.66,1.8.94,2.75h0c.26-.91.56-1.78.91-2.77l1.2-3.32h3.23l-4,8.21v5.7Z"/></svg>