<svg xmlns="http://www.w3.org/2000/svg" width="200" height="150" viewBox="0 0 200 150"><defs><style>.a{fill:#eee;stroke:#fff;stroke-miterlimit:10;}.b{fill:#890022;}.c{fill:#fff;}</style></defs><title>waseda</title><rect class="a" x="-123.5" y="-446.5" width="475" height="1101"/><path class="b" d="M99.12,149.86s0,.11-.1.13-.12,0-.13,0a.68.68,0,0,1,0-.13l-74.8-75C24.09,74.71,98.85,0,99,0s74.91,74.71,74.91,74.87Z"/><path class="c" d="M89.25,127.49A15.61,15.61,0,0,0,94.39,125c1.29-.86,1.48-1,1.67-.87.36.17.61.12,1.39-.28s.8-.38,1.19-.33a2.57,2.57,0,0,1,1,.38c.56.35.89.41,1.27.23.21-.09.37,0,1.65.84a14.48,14.48,0,0,0,5.84,2.56c1.49.21,3-.23,2.53-.71a2.47,2.47,0,0,0-.65-.29,10.2,10.2,0,0,1-2.51-1.3c-.54-.4-.75-.71-.47-.72a8.23,8.23,0,0,0,1.08-.46c1.43-.69,2.38-1.37,2.38-1.71,0-.12.25-.25,1.06-.51A29.62,29.62,0,0,0,123,115.29a25,25,0,0,0,5.2-6.85c1.54-3.62,3.41-6.43,5.2-7.8A6.21,6.21,0,0,1,137,99.26c.54,0,.7-.09.66-.39-.07-.5-2-.8-3.37-.52a8.51,8.51,0,0,0-1.57.57c-.76.37-.88.4-1,.27a5.5,5.5,0,0,0-2.75.15,5.21,5.21,0,0,1-.63.2c-.14,0-.29-.4-.33-.91a1.11,1.11,0,0,1,.25-1,1.17,1.17,0,0,0,.26-1,1.33,1.33,0,0,0-.34-.91,1.11,1.11,0,0,1-.3-.69,3,3,0,0,0-1.54-2.44,2.4,2.4,0,0,1-.79-.76c-.35-.62-.86-1.2-1.06-1.2s-.23.14.28.8a4.66,4.66,0,0,1,.53.81c.09.3-.08.42-.34.24a.59.59,0,0,0-.42-.1c-.15,0-.34-.07-.71-.39a4,4,0,0,0-2.07-1,1.36,1.36,0,0,1-.89-.38c-.32-.34-.51-.35-.51,0,0,.13,0,.23,0,.23l-.82-.37a9.74,9.74,0,0,0-2.5-.9c-.33.13,0,.37,1,.75,1.59.62,2.17.94,2.24,1.22s0,.44-.46.06a4.44,4.44,0,0,0-2.91-1.33,3,3,0,0,1-1.23-.42,3.37,3.37,0,0,0-2.56-.46,2.9,2.9,0,0,0-1.3.79,3.63,3.63,0,0,1-.82.57c-.55.28-1.2.79-1.2.94s.3.15.79-.18c.88-.62,1-.64,1.53-.31a3.47,3.47,0,0,0,.72.35c.14,0,.26.11.26.16a2,2,0,0,1-.34.5c-.31.38-.43.44-1.5.8s-1.36.53-1.2.7.48,0,1.29-.23a4,4,0,0,1,.88-.24s-.1.22-.28.45a4.18,4.18,0,0,0-.83,1.45,4.11,4.11,0,0,1-.85,1.22c-.7.78-.9,1.16-.62,1.16a.93.93,0,0,0,.39-.28c.15-.15.3-.26.33-.24a1.25,1.25,0,0,1,0,.54,3.65,3.65,0,0,0,.1,1,2,2,0,0,1-.08,1.36,7.19,7.19,0,0,0-.22,1.29c0,.38,0,.45.17.45s.19-.12.29-.75c.13-.89.3-1.42.48-1.51l.58-.27a3.68,3.68,0,0,0,.88-.64l.43-.43.18.23c.28.36.29.55.09,1.45-.15.69-.16.87-.07,1s.31,0,.53-1a2.23,2.23,0,0,1,.8-1.53,11,11,0,0,0,1-1.17,1.76,1.76,0,0,1,.95-.8c.8-.36.93-.35,1,.08s0,.36-.66,1a3.71,3.71,0,0,0-.72.78c0,.26.37.08,1.06-.53l.73-.64.73,0a4.12,4.12,0,0,0,1.33-.29l.61-.25-.28.31-.3.34a5.41,5.41,0,0,1-.8.16c-.95.15-1.49.33-1.62.53s0,.28.8.08a6.15,6.15,0,0,1,1.16-.19h.38l-.23.16a9.69,9.69,0,0,0-.85.78,2.45,2.45,0,0,1-1.55.88,7.84,7.84,0,0,0-1.16.4c-.19.12-.2.15-.09.27s.3.08,1.28-.2l1.15-.34.33.25a3.71,3.71,0,0,0,.78.42c.62.24.62.4,0,.76s-.64.48-.43.6a.87.87,0,0,0,.47-.14c.39-.2.56-.18.56,0a2.93,2.93,0,0,0,.28.66c.21.41.26.58.19.71a.93.93,0,0,0-.09.37c0,.35-.29.21-.93-.45a2.21,2.21,0,0,0-2.17-.92c-1.3.07-1.86.35-3.16,1.6a17.27,17.27,0,0,0-4.46,6.42,15.28,15.28,0,0,1-.67,1.41c-.31.57-.36.72-.27.84s.38.17.9-.15a9.75,9.75,0,0,0,2.33-2.18,24.09,24.09,0,0,1,3.53-3.44,7,7,0,0,1,2.25-1c.78-.16.8-.07.23,1.06-1.66,3.33-4.47,6.37-9.09,9.82a15.58,15.58,0,0,1-1.51,1.06c-.06,0-.17-.23-.26-.52s-.22-.54-.42-.62c-.54-.21-1.51.06-4.43,1.21a7.29,7.29,0,0,1-3.85.68,6.59,6.59,0,0,1-3.2-.46,22.3,22.3,0,0,0-4.54-1.44c-.47,0-.57,0-.73.21a1.48,1.48,0,0,0-.24.59,1,1,0,0,1-.13.41,7.55,7.55,0,0,1-1.26-.82A33,33,0,0,1,79.8,108a18.62,18.62,0,0,1-1.34-2.57c-.07-.22-.07-.23.5-.17a5.83,5.83,0,0,1,2.57,1.17A26.63,26.63,0,0,1,85,109.85c1.84,2.22,4,3.27,2.9,1.4a11.84,11.84,0,0,1-.66-1.4,18.15,18.15,0,0,0-4.32-6.3A5,5,0,0,0,80.59,102a3.62,3.62,0,0,0-2.23,0,5.16,5.16,0,0,0-1.06.86,2.9,2.9,0,0,1-.73.63,1.81,1.81,0,0,1-.14-.49,1.09,1.09,0,0,1,.15-.89,2.35,2.35,0,0,0,.23-.6c0-.24.16-.26.49-.06s.64.25.64,0-.19-.27-.49-.45c-.64-.36-.65-.56,0-.8a4.55,4.55,0,0,0,.81-.42l.35-.24,1.15.34c.78.23,1.18.31,1.25.25s-.05-.37-1.12-.68-1.16-.36-1.42-.65a1.81,1.81,0,0,1-.31-.39,2.59,2.59,0,0,0-.54-.42l-.54-.36.35,0a5,5,0,0,1,1.16.17,3.36,3.36,0,0,0,.86.15c.1-.1-.07-.35-.32-.45A9.24,9.24,0,0,0,78,97.2a1.92,1.92,0,0,1-1.23-.49,3.1,3.1,0,0,0-.84-.51c-.58-.21-.7-.3-.63-.47s.21-.16.65.2a4.37,4.37,0,0,0,2.42,1l.78.06.73.63a3.83,3.83,0,0,0,.86.63c.32,0,.09-.37-.57-.93a5.19,5.19,0,0,1-.7-.67c0-.17.22-.66.29-.66a5.38,5.38,0,0,1,.7.25,2,2,0,0,1,1.14,1,15.86,15.86,0,0,0,1,1.24c.5.53.58.72.76,1.87.07.43.27.66.43.49s.06-.31-.05-.88c-.22-1.09-.21-1.19.19-1.76a2.83,2.83,0,0,1,.55.44,3.6,3.6,0,0,0,1,.66c.46.17.5.21.66.67a5.77,5.77,0,0,1,.22,1c.07.65.14.8.36.72s.15-.14.1-.55a8.26,8.26,0,0,0-.22-1.06,3.62,3.62,0,0,1-.15-.89c0-.18,0-.75.07-1.25l.06-.93.31.3c.2.19.37.28.46.25s.15-.09.15-.13a8.14,8.14,0,0,0-.73-.93,4.81,4.81,0,0,1-.94-1.41,5,5,0,0,0-.68-1.15,2.34,2.34,0,0,1-.43-.64,4.69,4.69,0,0,1,1,.29c.94.34,1.26.36,1.21.07,0-.1-.42-.29-1.19-.55-1-.35-1.21-.45-1.52-.8a3,3,0,0,1-.36-.45,4.41,4.41,0,0,1,.79-.45c.9-.45.9-.45,1.78.22.49.37.72.42.72.16s-.38-.51-1.16-.94a3.34,3.34,0,0,1-.78-.58,3.21,3.21,0,0,0-.84-.58A1.86,1.86,0,0,0,83,89.41a4.06,4.06,0,0,0-2,.64,2.28,2.28,0,0,1-1.17.31,4,4,0,0,0-2.56,1.2c-.27.27-.52.46-.57.43s-.07-.18,0-.34c.05-.34.46-.57,2.18-1.23,1.05-.4,1.26-.52,1.16-.67s-1.26.12-2.62.78c-.82.4-.94.43-.87.23a.24.24,0,0,0-.08-.24c-.11-.09-.19-.05-.39.17a1.32,1.32,0,0,1-.92.39,3.81,3.81,0,0,0-2.07,1c-.37.34-.52.42-.71.39a.67.67,0,0,0-.45.1c-.15.11-.24.12-.31,0s.11-.66.59-1.17.48-.72.23-.72-.55.38-1,1.07a2.84,2.84,0,0,1-.81.83A2.88,2.88,0,0,0,69,94.88a1.48,1.48,0,0,1-.32.92,1.41,1.41,0,0,0-.08,1.94,1,1,0,0,1,.22,1c-.09.89-.15.93-1,.67a5,5,0,0,0-2.71-.15c-.17.15-.21.15-.77-.17a5.89,5.89,0,0,0-4.13-.68,4.45,4.45,0,0,0-.91.3c-.45.28-.15.6.57.6a6.38,6.38,0,0,1,2.6.78c2.09,1.19,4.34,4.27,6.11,8.39a19.74,19.74,0,0,0,2.64,4.09,29.48,29.48,0,0,0,13.8,9.35c1,.32,1.08.38,1.16.62A6.27,6.27,0,0,0,89,124.32a3.17,3.17,0,0,1,.78.4A5.82,5.82,0,0,1,88,126a12.93,12.93,0,0,1-1.22.52c-.75.26-.86.35-.83.6.07.46,2,.68,3.3.37Zm-1.34-.56a3.27,3.27,0,0,1,.77-.5,6.53,6.53,0,0,0,2.15-1.88c0-.23-.17-.35-.81-.57a6.25,6.25,0,0,1-1.78-.84,5.88,5.88,0,0,1,1.2-.12,5.09,5.09,0,0,0,1.86-.31,7.73,7.73,0,0,0,.89-.38,7,7,0,0,1,1.74-.17c.85,0,1.62-.06,1.69-.08s.13.08.11.58c0,.73,0,.67-1.78,1.88a17.49,17.49,0,0,1-4,2.06C89.06,126.89,87.91,127.08,87.91,126.93Zm19.57-.23a18.71,18.71,0,0,1-5.34-2.77,4,4,0,0,1-.84-.7c0-.08-.07-.39-.11-.69l-.07-.55.36.07a15.77,15.77,0,0,0,1.68.1,3.56,3.56,0,0,1,1.93.3,6.7,6.7,0,0,0,2.72.59c1.23,0,1.09.18-.69.85a4,4,0,0,0-1,.5c-.17.26,1.12,1.44,2.33,2.12a3.28,3.28,0,0,1,.54.34,3.4,3.4,0,0,1-1.48-.16ZM96.4,123.36a5.09,5.09,0,0,1,.16-1.18,13.28,13.28,0,0,0,.24-1.94A4.86,4.86,0,0,1,97,119c.16-.41.09-.4,1.38-.32a6.11,6.11,0,0,0,1-.05c.53-.07.54-.07.63.2a3.31,3.31,0,0,0,.18.42,3.94,3.94,0,0,1,.09,1,11.48,11.48,0,0,0,.21,1.93,5.42,5.42,0,0,1,.15,1.22c-.08.21-.31.19-.64,0a3,3,0,0,0-1.54-.46,2.32,2.32,0,0,0-1,.33c-.7.37-.87.4-.95.18ZM88,122a31.81,31.81,0,0,1-12.1-5.78,25.48,25.48,0,0,1-6.69-8.1,43.39,43.39,0,0,0-2-3.92c-.26-.46-.41-.78-.33-.71A23.9,23.9,0,0,1,69,106.8a23.06,23.06,0,0,0,4.59,6.28c4.13,4.12,9.2,6.71,17.09,8.74.22.06.4.14.4.18s-.17.13-.38.19A4.17,4.17,0,0,1,88,122Zm18.57.24c-.75-.16-.86-.3-.34-.43a41,41,0,0,0,12.77-5.3,25,25,0,0,0,8.65-9.45,23.76,23.76,0,0,1,2.13-3.4c.08-.07,0,.15-.2.49-.54.94-1.5,2.86-1.94,3.9-1.5,3.5-6,8.16-10.2,10.59a37,37,0,0,1-6.37,2.7c-1,.34-3.77,1.06-3.92,1l-.59-.12Zm-14.33-.81a3,3,0,0,1-1-.22,2.85,2.85,0,0,1-.86-1.48c-.26-.76-.29-1-.12-1.19s2.22,0,4.54.56l1.22.31,0,.86c0,.63,0,.88-.1,1a9.73,9.73,0,0,1-3.71.2Zm9.18-.09c-.55-.11-.56-.14-.56-1,0-.7,0-.85.16-.92s2.79-.73,3.6-.86a3.58,3.58,0,0,1,2.1.12c.11.18,0,.6-.32,1.53s-.6,1.09-1.17,1.19a26.39,26.39,0,0,1-3.8,0ZM86.59,119.9a34.1,34.1,0,0,1-10.54-5.52,30,30,0,0,1-3.84-3.79,13.55,13.55,0,0,1-2-3,9.77,9.77,0,0,1,.92,1.07,26.33,26.33,0,0,0,12.48,8.91,5,5,0,0,1,1.6.78c.34.25,1.17.81,1.85,1.23l1.26.81c.14.14-.5,0-1.77-.46Zm22,.47a6.33,6.33,0,0,1,.73-.48c.4-.25,1.26-.82,1.9-1.27a6.76,6.76,0,0,1,2.26-1.17,24.13,24.13,0,0,0,7-3.69,36.27,36.27,0,0,0,5.17-5.07q1.16-1.47.74-.66a26.23,26.23,0,0,1-5.39,6.2,34.21,34.21,0,0,1-11,5.8C108.84,120.39,108.59,120.45,108.59,120.37Zm-20.12-.79a30.83,30.83,0,0,1-11.55-11.2,17.89,17.89,0,0,1-1.73-4s.21,0,.4.08.37.3.71,1.15A24.9,24.9,0,0,0,80.07,112a38.19,38.19,0,0,0,7.74,6.42c.8.52,1.55,1,1.67,1.12s.39.69.2.69a8.5,8.5,0,0,1-1.22-.64Zm18.75.38c.09-.35.12-.38,1.41-1.2a40.75,40.75,0,0,0,8.27-6.84,26.25,26.25,0,0,0,3.72-6.36c.34-.89.49-1.09.87-1.18s.33,0-.07,1a28.54,28.54,0,0,1-8.52,11.22,41.25,41.25,0,0,1-5.63,3.67c-.07,0-.09-.09,0-.26Zm-6.39-1.33c.06-.1,3-1.28,4.1-1.64a5.86,5.86,0,0,1,1.12-.26c.39,0,.42,0,.49.25a.88.88,0,0,1,0,.54c-.09.25-.13.26-.74.26a16.12,16.12,0,0,0-3.58.61c-1.5.37-1.45.36-1.38.24Zm-12.6-.72a37.56,37.56,0,0,1-7.55-6.25A25.15,25.15,0,0,1,78,107.72a16.66,16.66,0,0,1-1.33-3.14c0-.24.41-.67.55-.58a3.45,3.45,0,0,1,.35.83c1.35,4.11,5,8.3,10.87,12.48.85.6,1.1.83,1.1,1a.36.36,0,0,1-.08.26,5.7,5.7,0,0,1-1.2-.66Zm6.31.42a15.08,15.08,0,0,0-3.34-.55c-.75,0-.89-.11-.81-.63a.76.76,0,0,1,.16-.41c.22-.14,2,.4,4.29,1.31a12.78,12.78,0,0,1,1.25.53c0,.09-.58,0-1.55-.25Zm12.93.11c-.15-.29-.13-.34.4-.68a52.57,52.57,0,0,0,6.08-4.91,21.62,21.62,0,0,0,5.42-8,6.11,6.11,0,0,1,.33-.83s.18,0,.31.08c.35.23.32.51-.18,1.7a23.3,23.3,0,0,1-3.52,5.79,36.64,36.64,0,0,1-6.82,5.8c-1.92,1.3-1.89,1.28-2,1.05Zm-25.19-2.12c-.18-.07-.73-.31-1.22-.54-.86-.41-.93-.46-2-1.63a33.54,33.54,0,0,1-5.56-8.07c-1-2,.62.45,2.17,3.24a14,14,0,0,0,2.18,3.13,12.94,12.94,0,0,0,2.73,2.13,10.1,10.1,0,0,1,2.12,1.87,2.27,2.27,0,0,1-.42-.12Zm32,.06a11.32,11.32,0,0,1,2.28-1.93,12,12,0,0,0,3.6-3.3c.22-.31.68-1.07,1-1.7a33.08,33.08,0,0,1,3-4.81c.1-.06.09,0-.26.53-.11.18-.49.88-.84,1.55a35.14,35.14,0,0,1-5.22,7.46,5.14,5.14,0,0,1-2.52,1.85c-1,.45-1.06.46-1.06.35Zm-36.8-2.67a8.19,8.19,0,0,1-1.78-1.91,24.66,24.66,0,0,1-3-5,28,28,0,0,0-2.23-3.77c-.54-.74-.29-.59.4.24A18.81,18.81,0,0,1,73.2,107a30,30,0,0,0,3.59,5.57c1,1.29,1.1,1.37,1,1.37a1.31,1.31,0,0,1-.36-.2Zm41.59.18s.4-.53.88-1.13a34.78,34.78,0,0,0,4-6.17,17.7,17.7,0,0,1,2.78-4c.26-.23.3-.29-.79,1.34a30.75,30.75,0,0,0-1.79,3.15c-1.59,3.23-3.54,6-4.65,6.63a1.26,1.26,0,0,1-.39.18Zm-40.95-2.25a16.69,16.69,0,0,1-2.28-3.41,31,31,0,0,0-5-7c-.8-.77-.82-.8-.76-1.13s.08-.43.74-.62l.55-.16.38.34a3.18,3.18,0,0,0,1.71.78l.48.06.34.72a2.2,2.2,0,0,0,1.28,1.31c.26.09.29.14.33.59a1.36,1.36,0,0,1,0,.57c0,.05-.31,0-.65-.09-.64-.19-.9-.12-.86.23a20.26,20.26,0,0,0,1.45,3.56,28.71,28.71,0,0,0,1.82,3.13c.59.88,1.06,1.6,1,1.6a6.5,6.5,0,0,1-.49-.49Zm40.25.4c0-.08.36-.54.71-1a28.14,28.14,0,0,0,3.28-6.17,4.47,4.47,0,0,0,.34-1.2c-.07-.18-.37-.19-1,0l-.53.14s-.07-.24-.07-.54v-.54l.42-.17a2.48,2.48,0,0,0,1.23-1.37c.22-.61.26-.63.82-.69a2.63,2.63,0,0,0,1.58-.74l.44-.37.54.15c.65.18.65.18.72.61s0,.36-1.06,1.46a30.38,30.38,0,0,0-4.85,6.86,15.7,15.7,0,0,1-2.27,3.34c-.24.23-.41.36-.36.28Zm-44.63-1.58c-.15-.17-.48-.87-.41-.87a2.85,2.85,0,0,1,.34.47C73.93,110.55,74,110.77,73.69,110.47Zm49.28.07a3.41,3.41,0,0,1,.62-.94,1.52,1.52,0,0,1-.19.46C123.16,110.52,123,110.74,123,110.54Zm-37.81-1.48a17.82,17.82,0,0,0-4.49-3.91,5,5,0,0,0-2-.61c-.53-.05-.57-.07-.59-.31s.36-.55,1.18-.55c1.25,0,2.08.6,4.25,3.07.86,1,2.27,2.74,2.49,3.12s-.05.06-.81-.8Zm26,.45a40.27,40.27,0,0,1,4.07-4.74,5.94,5.94,0,0,1,1.16-.81,2,2,0,0,1,1.36-.26c.6,0,.79.07.94.22a.32.32,0,0,1,.1.4c-.07.18-.15.21-.55.21a6.63,6.63,0,0,0-3.65,1.66,31.75,31.75,0,0,0-3.12,3.09c-.49.54-.54.58-.31.23Zm13.93-1.37a8.61,8.61,0,0,1,.41-1c.23-.52.61-1.49.85-2.16.45-1.24.61-1.57.61-1.2,0,.68-1.86,5-1.88,4.4Zm-53.83-.57a17.27,17.27,0,0,1-1.49-4c.1-.1.23.15.66,1.35.24.67.61,1.62.81,2.11C71.71,108.09,71.72,108.36,71.3,107.57Zm40.2.27a13.86,13.86,0,0,1,2-2.71,11.42,11.42,0,0,1,2.72-2.42,3.08,3.08,0,0,1,2.23,0c.49.26.57.47.13.36a5.17,5.17,0,0,0-1-.07,2.55,2.55,0,0,0-1.41.37,5.54,5.54,0,0,0-1.72,1.36c-.54.55-1.37,1.44-1.83,2C111.47,108,111.5,108,111.5,107.84Zm-27-1a17.65,17.65,0,0,0-3.59-3.44,3.33,3.33,0,0,0-2.17-.41c-.68.14-.72.13-.57-.05a2.07,2.07,0,0,1,1.32-.5,4.49,4.49,0,0,1,1.07.19c.58.18.72.28,1.62,1.15.54.53,1.29,1.31,1.65,1.75a10.74,10.74,0,0,1,1.54,2.22,6.4,6.4,0,0,1-.88-.92Zm-16-3.74a18.71,18.71,0,0,0-2.07-2.52c-.31-.32-.51-.59-.44-.59a7.89,7.89,0,0,1,2.43,1.72,2,2,0,0,1,.49,1.15c.21,1,.2.89.1.89a2.93,2.93,0,0,1-.52-.66Zm59.25.54c0-.06.08-.45.18-.86a2,2,0,0,1,.73-1.3c.8-.81,2.19-1.72,2.19-1.43a6.28,6.28,0,0,1-.65.73,18.12,18.12,0,0,0-1.93,2.34c-.46.65-.53.72-.52.52Zm-52.61-1.8a2.58,2.58,0,0,1-.69-1.21c0-.15.61-.34.72-.22a6.81,6.81,0,0,1,.5,1.48C75.69,102.14,75.48,102.13,75.15,101.85Zm46.05-.08a6,6,0,0,1,.26-.85c.2-.54.21-.55.55-.52s.35.07.37.24c.06.42-.71,1.43-1.09,1.43C121.19,102.08,121.17,102,121.21,101.77Zm-45.15-.31a4.12,4.12,0,0,1-.16-.54l-.05-.27.31.16c.27.14.3.19.25.45-.09.44-.22.52-.34.2Zm44.46,0a1.4,1.4,0,0,1-.09-.37c0-.15.44-.48.53-.39a2,2,0,0,1-.27,1S120.57,101.59,120.52,101.46Zm-44.72-1.36c-.21-.13-.31-.26-.31-.42,0-.32.19-.3.55.07S76.4,100.47,75.81,100.11Zm44.72.06a1.79,1.79,0,0,1,.76-.71s.09.1.09.23-.1.28-.33.42C120.65,100.33,120.52,100.34,120.52,100.16ZM73.2,100A2.66,2.66,0,0,1,72,99.34l-.27-.28.26-.23.26-.23.49.19a8.41,8.41,0,0,1,1.92,1.09C74.7,100.09,73.81,100.17,73.2,100Zm49.07-.09s.11-.19.31-.32a11.8,11.8,0,0,1,2-1,.76.76,0,0,1,.35.24l.23.24-.39.35a2.5,2.5,0,0,1-.76.46,4.14,4.14,0,0,1-1.75,0Zm-45.75-.32a2.58,2.58,0,0,0-.68-.54c-.82-.43-.53-.44,1.07,0a5.59,5.59,0,0,1,1,.31c.09.09-.23.31-.68.46S76.8,100,76.52,99.61Zm42.88.07c-.36-.17-.48-.27-.41-.34a11.29,11.29,0,0,1,2.12-.59c.46-.08.45.06,0,.27a2.68,2.68,0,0,0-.71.53,1.75,1.75,0,0,1-.4.36,4.33,4.33,0,0,1-.58-.24Zm-44.89-.42c-.16-.11-.65-.38-1.1-.61-.79-.4-1-.64-.69-.76a4.11,4.11,0,0,1,1.57.44,1.16,1.16,0,0,1,.64.93c0,.24-.07.24-.42,0Zm47.42,0a1.69,1.69,0,0,1,.18-.5c.14-.28.3-.41.75-.61.69-.31,1.34-.37,1.39-.13s-.18.27-.8.58c-.46.23-1,.51-1.11.61C122,99.48,121.93,99.49,121.93,99.3Zm-52.21-.23c-.08-.13.62-.62,1.5-1,1.07-.52,1.27-.46.69.24s-2,1.15-2.19.81Zm56.11-.18c-.83-.39-1.57-1.36-.92-1.19s2.36,1.19,2.24,1.37S126.39,99.16,125.83,98.89Zm-41-.59c-.6-.55-.68-.74-.52-1.3.1-.37.12-.39.27-.25a9.89,9.89,0,0,1,1,1.92c0,.22-.29.09-.79-.37Zm26.36.43a16.46,16.46,0,0,1,.91-1.76c.13-.2.26-.34.31-.31a1.37,1.37,0,0,1,.2.47c.11.41.11.44-.14.76-.39.51-1.27,1.09-1.27.84Zm-34.5-.22c-.65-.17-.76-.29-.37-.43a1,1,0,0,1,1,.31C77.77,98.74,77.67,98.76,76.72,98.52Zm42.59,0a2.36,2.36,0,0,1,.56-.37c.37-.19.47-.2.66-.11.35.17.24.29-.45.46s-.93.21-.77,0Zm-49.92-.12a1.79,1.79,0,0,1,.29-.61c.34-.52.7-.66,1.54-.61l.56,0-.72.35a8.48,8.48,0,0,0-1.15.68C69.42,98.65,69.39,98.66,69.39,98.43ZM127,98.31a6.61,6.61,0,0,0-1.1-.66c-.89-.43-.93-.6-.1-.52s1.16.26,1.48.83a3.58,3.58,0,0,1,.29.57c0,.15-.25.05-.56-.22Zm-41.08-.15c-.76-1.27-1.1-2-1-2a2.09,2.09,0,0,1,.44-.12c.32-.06.34,0,.49.3.31.7.45,1.83.26,2S86,98.25,85.93,98.16Zm24.83-.57a3.63,3.63,0,0,1,.25-1.19c.2-.45.21-.46.56-.39.51.09.56.18.28.59-.13.2-.39.67-.58,1a2,2,0,0,1-.44.67c-.07,0-.09-.23-.06-.73Zm-36.52.26-.75-.34c-.13,0,.33-.09,1.2-.11,1.54,0,1.74,0,1.56.21a3.35,3.35,0,0,1-1.3.51,3.19,3.19,0,0,1-.7-.27Zm8.14-.31a10.17,10.17,0,0,1-.67-.92c-.19-.32-.19-.35,0-.82.09-.27.19-.49.24-.49a1.31,1.31,0,0,1,.34.14c.21.11.3.27.47.85.24.8.36,1.83.22,1.83a2.74,2.74,0,0,1-.57-.59Zm31.52.51a3.67,3.67,0,0,1,.24-1.64,1.68,1.68,0,0,1,.43-.92c.36-.28.46-.23.64.32l.16.51-.38.55C114.42,97.72,114,98.19,113.91,98.05Zm7.75,0c-.46-.15-1-.46-1-.54a4.73,4.73,0,0,1,1.48-.12c1.41,0,1.44,0,1.12.14l-.78.37c-.46.22-.56.24-.81.16Zm-38.2-.53c0-.12-.11-.52-.19-.91a2.94,2.94,0,0,1-.11-.74c.1-.1.85.22.88.38a3.7,3.7,0,0,1-.45,1.48s-.11-.1-.13-.21Zm29.68-.22a3.52,3.52,0,0,1-.19-.78l-.05-.44.4-.12a1,1,0,0,1,.44-.07,6.1,6.1,0,0,1-.37,1.75s-.14-.15-.22-.34Zm-44.29-.09a.88.88,0,0,1,0-.87c.16-.31.6-.73.68-.65a1.75,1.75,0,0,1-.13.65c-.1.33-.22.71-.25.85-.07.32-.18.33-.32,0Zm58.83-.15c-.06-.22-.17-.59-.24-.82-.21-.65-.18-.74.16-.42.53.5.68,1.24.32,1.55-.1.09-.15,0-.23-.3Zm-57.87-.39c.09-.51.45-1.38.58-1.38s.52.57.52.82-.28.56-.74.72l-.41.14Zm56.89.16c-.69-.24-.86-.66-.52-1.23s.43-.38.66.23a2.85,2.85,0,0,1,.27,1.14ZM72,96.8c-.17,0-.28-.13-.25-.18a11.24,11.24,0,0,1,2.89-1.12c.19,0,.19,0-.06.26a5.49,5.49,0,0,1-2,1.14A2.86,2.86,0,0,1,72,96.8Zm2.53,0c-.17-.12-.19-.18-.1-.28a.48.48,0,0,1,.33-.13,3.61,3.61,0,0,1,1.31.48C76.21,97,74.81,96.93,74.58,96.76Zm46.27,0a3.74,3.74,0,0,1,.69-.33c.48-.18.52-.18.75,0l.24.16-.23.17c-.17.13-.39.17-.93.17s-.69,0-.52-.14Zm2.35-.32a6.61,6.61,0,0,1-1-.7c-.22-.24-.22-.24,0-.24A10,10,0,0,1,125,96.62c0,.1-.59.29-.9.29a3.64,3.64,0,0,1-.94-.46Zm-45.7-.18a4.18,4.18,0,0,1-1.53-1c0-.05.27-.09.6-.09s.61,0,.66-.14a.21.21,0,0,1,.16-.14,2.85,2.85,0,0,1,1.31,1.38c0,.18-.6.16-1.19,0Zm40.67,0a2.87,2.87,0,0,1,.87-1.13c.36-.28.59-.31.67-.1s.2.14.63.14c.69,0,.7.1.06.53C119.57,96.32,118.18,96.67,118.18,96.31ZM120.9,96c.46-.41.61-.46.69-.25s.05.17-.6.42l-.51.2Zm-49.35.1a2.51,2.51,0,0,1,.22-.49c.21-.39.25-.42.87-.58s1.78-.19,1.78,0a4,4,0,0,1-1,.43c-.54.19-1.17.44-1.38.55-.44.23-.5.24-.5.13Zm53.25-.13a14.05,14.05,0,0,0-1.36-.55,4,4,0,0,1-1-.43c0-.16,1.21-.13,1.83,0s.62.19.88.66S125.4,96.27,124.8,95.95Zm-46-.38a4.69,4.69,0,0,0-.59-.63l-.37-.32.27-.22a1,1,0,0,1,.38-.22c.3,0,.88,1.2.75,1.54s-.19.18-.44-.16Zm1.35.08c-.42-.19-.49-.26-.54-.55a2.79,2.79,0,0,0-.4-.82c-.56-.82-.14-1.08.51-.3a7.17,7.17,0,0,1,1.05,1.79c0,.15-.06.14-.62-.12Zm37.56-.17a1.81,1.81,0,0,1,.57-1.23c.11-.07.23,0,.46.12l.31.22-.42.39a4.57,4.57,0,0,0-.59.64c-.24.36-.33.32-.33-.14Zm-1.6.25a6.65,6.65,0,0,1,.81-1.43c.49-.69.76-.91.94-.77s.15.27-.16.73a3.54,3.54,0,0,0-.39.79.72.72,0,0,1-.49.55c-.37.17-.71.23-.71.13Zm-32.48-.18a9.36,9.36,0,0,1-1-.46c-.52-.26-.68-.4-.73-.59s0-.38.58-.47a3.46,3.46,0,0,1,2.16.83c.93.62.9.83-.1.81a3.6,3.6,0,0,1-.86-.13Zm28.07,0c-.1-.12-.06-.19.24-.44a8.34,8.34,0,0,1,1.2-.72c.75-.38.9-.42,1.29-.38.56.06.63.11.63.39s-.34.53-1.28.91S111.9,95.8,111.71,95.57Zm-30.54-.09a4.52,4.52,0,0,1-.31-.55,8,8,0,0,0-.53-.88c-.18-.25-.3-.48-.27-.51s.78.17,1,.44a1.08,1.08,0,0,1,.31.79c0,.57-.07.91-.23.7Zm34.38-.11a1.33,1.33,0,0,1,.43-1.53c.34-.24.87-.45.94-.38s-.09.26-.27.51A12.07,12.07,0,0,0,116,95l-.33.61-.1-.26Zm-44.69-.21c-.23-.27-.25-.36-.17-.53.15-.33.78-1,.88-1,.25.15-.08,1.85-.36,1.82A1.35,1.35,0,0,1,70.86,95.16Zm54.56-.06c-.21-.46-.24-1.43-.05-1.43a4.44,4.44,0,0,1,.9,1.06,2.13,2.13,0,0,1-.32.44l-.32.38-.2-.45Zm-55.89-.47a2.69,2.69,0,0,1,.8-1.28c.22-.14.23-.14.17,0-.29,1-.62,1.55-.9,1.55C69.49,94.94,69.48,94.86,69.52,94.63Zm57.43.09a3.91,3.91,0,0,1-.58-1.44c.18-.18,1,1,1,1.48C127.39,95,127.18,95,126.95,94.72ZM74.87,94.6c-.39-.18-.39-.3,0-.47a11.33,11.33,0,0,1,3.56-.71c.11.11-.64.72-1.25,1A3.59,3.59,0,0,1,74.87,94.6Zm45-.13c-1-.44-1.76-1.14-1.18-1.13a18.45,18.45,0,0,1,3,.67,1.73,1.73,0,0,1,.64.33c.06.18-.61.4-1.23.4a2.85,2.85,0,0,1-1.21-.27ZM84.21,94.1c-.67-.38-.72-.43-.57-.55a.67.67,0,0,1,.32-.12c.18,0,1.07.88,1,1a2,2,0,0,1-.77-.34Zm27.67.36a2.42,2.42,0,0,1,.46-.58c.42-.44.48-.48.72-.39a.55.55,0,0,1,.29.19,2.12,2.12,0,0,1-.72.49C112.21,94.38,111.88,94.51,111.88,94.46Zm-39-.19a11.87,11.87,0,0,1,1.81-1.4c.2,0,0,.5-.34,1.06a1.39,1.39,0,0,1-1.29.54h-.37l.18-.2Zm50.45.13a1.74,1.74,0,0,1-1-1c-.16-.38-.16-.5,0-.5a9.06,9.06,0,0,1,1.72,1.31l.28.29-.32,0-.62-.05Zm-51.21-.53c-.12-.63-.05-.73.66-1s1.22-.29,1.16-.14a17,17,0,0,1-1.71,1.42s-.08-.14-.11-.32Zm51.8-.34a6.89,6.89,0,0,0-.82-.66s-.07-.06-.07-.14.3-.13,1.08.11.88.33.79.8c0,.22-.08.44-.08.48S124.58,94.16,123.86,93.53Zm-42.69,0-.47-.31c-.1-.06-.15-.14-.11-.17a11.33,11.33,0,0,1,2.57-.1c.38.06.43.09.32.2a5.89,5.89,0,0,1-1.79.6,1.23,1.23,0,0,1-.51-.21Zm33.33.07c-.68-.21-1.14-.44-1.1-.55a9.21,9.21,0,0,1,2.65-.08l.37.08-.54.35a1.24,1.24,0,0,1-1.38.2Zm-38.44-.63c.41-.43.44-.44,1-.43s1.17.16,1.17.32a8.25,8.25,0,0,1-2.16.48l-.42.07Zm44.22.26a8.07,8.07,0,0,0-1-.19,1.5,1.5,0,0,1-.59-.15c-.09-.15.6-.36,1.16-.36s.56,0,1,.42.4.42.18.41A4.16,4.16,0,0,1,120.29,93.19Zm-45.07-.54c0-.23.1-.43.41-.77s.63-.51.63-.18S75.59,93,75.3,93C75.26,93,75.22,92.82,75.22,92.65Zm45.93,0c-.64-.64-.68-1.54,0-.94.42.4.63.76.58,1S121.53,93,121.15,92.64Zm-42.32-.08-.27-.23.56-.36a10.28,10.28,0,0,1,2.1-1c.35,0-.37.89-1.07,1.33s-1,.52-1.32.24ZM117,92.42c-.93-.55-1.75-1.57-1.12-1.39a13.09,13.09,0,0,1,2.27,1.17c.15.17.15.19-.09.37a1,1,0,0,1-.36.2A3.52,3.52,0,0,1,117,92.42Zm-36.09,0a3.87,3.87,0,0,1,.43-.51l.4-.43.35.12a5.72,5.72,0,0,0,.7.19c.34.06.92.46.92.63a5.87,5.87,0,0,1-1.42.09,5,5,0,0,1-1.39-.09Zm32.32,0c0-.13.58-.55.83-.6l.72-.19.47-.14.4.45a4,4,0,0,1,.4.49,10.58,10.58,0,0,1-1.41.05A7.53,7.53,0,0,1,113.19,92.39Zm-39.38-.27a2.46,2.46,0,0,1,1.2-.57c.25,0,.26.07,0,.34S73.81,92.31,73.81,92.12ZM77.59,92c.07-.37,1.25-1,2.35-1.19.39-.08.39.09,0,.27-.19.09-.69.37-1.11.63-.8.48-1.3.6-1.24.3Zm40.68-.17c-.28-.18-.77-.46-1.07-.62-.63-.32-.6-.48.07-.36a4.14,4.14,0,0,1,1.77.83C119.69,92.2,119.09,92.31,118.27,91.78Zm3.59.12a.9.9,0,0,1-.2-.28c0-.18,1.12.13,1.32.37s0,.13-.4.13S122,92.07,121.86,91.9Zm-39.54-.66c-.27-.08-.38-.16-.38-.3s.09-.2.63-.27a4.08,4.08,0,0,1,2,.19c.05.16-.95.5-1.46.49A3.63,3.63,0,0,1,82.32,91.24Zm30.83,0a3.52,3.52,0,0,1-.6-.24c-.51-.26-.24-.37.95-.38s1.58.06,1.58.27S113.75,91.44,113.15,91.28ZM81.79,90.2a3.69,3.69,0,0,1,1.72-.39,1.72,1.72,0,0,1,.73.32,3.27,3.27,0,0,1-.87.06,9.82,9.82,0,0,0-1.28.07c-.36.06-.4.06-.3-.07Zm32.67,0a5.61,5.61,0,0,0-1.15,0c-.38,0-.68,0-.68,0s.19-.16.42-.25a2.48,2.48,0,0,1,1.81.15C115.51,90.33,115.38,90.39,114.46,90.22ZM97.39,115.08c2.55-.08,2.39,0,2.45-2l0-1.54,1.93-.06,2.75-.07c.77,0,.84,0,1.06-.26l.23-.25v-6.82l-.24-.29a.75.75,0,0,0-1.08-.12c-.21.17-.21.22-.3,3.08,0,1.6-.1,3-.12,3s-.53.12-2.05.12c-2.27,0-2.25,0-2.21-.67l0-.41,1.4-.06c1.92-.08,1.79.1,1.8-2.45A21.47,21.47,0,0,0,103,104a.56.56,0,0,0-.31-.35c-.14-.05-1.89-.09-4.22-.09h-4l-.26.23L94,104l0,2.11c0,2.76-.17,2.57,1.88,2.66l1.48.06v1H92.83l-.07-2.7c-.07-2.73-.13-3.37-.36-3.51a1.2,1.2,0,0,0-.47-.08.49.49,0,0,0-.52.25c-.15.23-.17.59-.2,3.65a21.29,21.29,0,0,0,.08,3.61c.23.43.56.47,3.39.47h2.64l0,.73,0,.73-3.08.06c-1.69,0-3.23.09-3.41.12a1,1,0,0,0-.38,1.53c.22.26.26.27,1.39.32,1.86.08,3.56.09,5.61,0Zm-1.87-8.91v-1l3,0,3,0v1.88l-3,0-3,0v-1Zm-6.2,5.35a1.16,1.16,0,0,0,.5-.35,30.45,30.45,0,0,0,.16-4.34l0-4.14,8.38-.08c4.61,0,8.45-.06,8.53,0s.15.54.15,4.11c0,3.91,0,4.07.19,4.37.31.5.84.59,1.48.24.37-.2.4-.52.4-5.06,0-4.88,0-4.85-.63-5.15-.31-.15-1-.15-10.09-.09-9.31.07-9.77.08-10,.25a1,1,0,0,0-.38.42c-.05.14-.09,2-.09,4.74v4.5l.29.33a1.24,1.24,0,0,0,.49.37l.23.05A2.45,2.45,0,0,0,89.32,111.51Zm5.24-11.57a.67.67,0,0,0,.3-.87c-.21-.51-.24-.52-2.58-.57l-2.17,0,0-.45c0-.31,0-.46.09-.49s1.06-.08,2.21-.14,2.15-.12,2.22-.15a.74.74,0,0,0,.29-.73,1.33,1.33,0,0,0-.25-.41c-.19-.21-.24-.21-2.28-.21-2.35,0-2.33,0-2.28-.67l0-.41,1.27-.07c3.6-.19,3.48-.16,3.48-.83a.59.59,0,0,0-.25-.56c-.23-.18-.36-.19-2.39-.19s-2.14,0-2.32-.22a1,1,0,0,0-1.35-.3,1,1,0,0,0-.38.34,28.1,28.1,0,0,0,.11,6.83.81.81,0,0,0,.36.28,29,29,0,0,0,3,0,11.41,11.41,0,0,0,2.94-.18Zm2.88-.32,1-.46.91.43c1.42.67,2,.65,1.9-.08,0-.27-.11-.36-.59-.65a1.73,1.73,0,0,1-.55-.42,2.23,2.23,0,0,1,.56-.42,1.62,1.62,0,0,0,.58-.5.63.63,0,0,0-.33-.72c-.2-.08-.42,0-1.31.38a10.89,10.89,0,0,1-1.17.47,2.61,2.61,0,0,1-.56-.23,5.81,5.81,0,0,0-1.69-.61.53.53,0,0,0-.43.88,3.72,3.72,0,0,0,.61.4,1.51,1.51,0,0,1,.47.32,1.31,1.31,0,0,1-.42.31c-.47.27-.81.66-.81.91s.46.58.67.51.62-.26,1.16-.51Zm10.94.34c.51-.26.53-.4.56-3.78l0-3.11-.24-.29a1,1,0,0,0-1.58,0c-.17.21-.2.22-2.43.24s-2.26,0-2.44.25a.89.89,0,0,0,0,1c.22.29.69.35,2.71.35h2l0,.54,0,.54-2.19,0c-2.17,0-2.2,0-2.37.27a.77.77,0,0,0,.06,1.05c.24.23.27.23,2.4.26l2.15,0v1H105c-2,0-2.57.07-2.77.34a.93.93,0,0,0,.06,1c.17.21.25.22,1.67.27,3.1.11,4.16.1,4.44,0ZM97.44,95.86l1-.49.83.38c1.49.69,1.83.71,2,.15.08-.33,0-.49-.63-.85a2.22,2.22,0,0,1-.54-.39s.18-.2.44-.33c.6-.31.77-.48.77-.81a.52.52,0,0,0-.55-.56,5.89,5.89,0,0,0-1.24.46c-.92.43-1,.45-1.27.33-2-.9-2.21-.94-2.45-.57s-.07.7.57,1.08.55.32.33.47a3.42,3.42,0,0,0-1,1.07.69.69,0,0,0,.61.53,5.52,5.52,0,0,0,1.21-.49ZM94.2,89.31c2.35-1.09,4.32-2,4.38-2s2,.87,4.29,1.94c2.47,1.15,4.33,2,4.56,2a1.24,1.24,0,0,0,1.16-1.91c-.22-.35,0-.24-4.83-2.48L100.2,85.2,99.84,85l0-2.21,0-2.21,3.37,0a20.84,20.84,0,0,1,3.5.08c.1.09.13.66.13,3v2.85l.27.31a1,1,0,0,0,1.43,0l.27-.31V82.83c0-3.22,0-3.67-.15-3.86-.33-.47-.49-.48-4.81-.48h-4l-.06-.21a2.55,2.55,0,0,1-.06-.53,1.31,1.31,0,0,0-1.85-1.24c-.54.24-.72.55-.78,1.35l-.05.67-4.14,0c-2.27,0-4.21.08-4.3.13a1,1,0,0,0-.33.38c-.14.26-.16.71-.16,3.77,0,3.8,0,4,.52,4.23A1,1,0,0,0,90,86.77c.15-.22.17-.59.21-3.16l0-2.91h6.86l0,2.17A7.11,7.11,0,0,1,97,85.14c-.07.05-1.93.95-4.15,2s-4.13,2-4.25,2.1a1.25,1.25,0,0,0-.31,1.16,1.18,1.18,0,0,0,1.27,1,50.56,50.56,0,0,0,4.64-2Z"/></svg>