<svg xmlns="http://www.w3.org/2000/svg" xmlns:xlink="http://www.w3.org/1999/xlink" width="150" height="150" viewBox="0 0 150 150"><defs><style>.a{fill:none;}.b{clip-path:url(#a);}.c{fill:url(#b);}.d{fill:#e95d0f;}</style><clipPath id="a"><path class="a" d="M111.34,121a1.45,1.45,0,0,0-.42,2,1.45,1.45,0,1,0,.42-2m10.29-6.13a1.45,1.45,0,0,0-2-2.06,1.46,1.46,0,0,0,0,2,1.44,1.44,0,0,0,2,0m6.6-9.68a1.45,1.45,0,1,0-2,.38,1.45,1.45,0,0,0,2-.38m4.12-13.6a1.44,1.44,0,1,0,.79,1.88,1.44,1.44,0,0,0-.79-1.88m.28-10.68a1.45,1.45,0,1,0,1.69-1.15,1.44,1.44,0,0,0-1.69,1.15m1.18-13.66a1.45,1.45,0,0,0,.06,2.89,1.46,1.46,0,0,0,1.42-1.48,1.44,1.44,0,0,0-1.48-1.41m-3.59-8.59a1.44,1.44,0,1,0,1.13-1.7,1.44,1.44,0,0,0-1.13,1.7m-2.1-8.81a1.45,1.45,0,0,0-1.07-2.69,1.46,1.46,0,0,0-.81,1.88,1.44,1.44,0,0,0,1.88.81m-6.48-10.37a1.45,1.45,0,1,0-2-.41,1.45,1.45,0,0,0,2,.41m-9.72-10.23a1.45,1.45,0,1,0,2,0,1.44,1.44,0,0,0-2,0m-1.65,100.44a1.16,1.16,0,1,0,1.6.34,1.16,1.16,0,0,0-1.6-.34m9.93-8.06a1.16,1.16,0,1,0,1.63,1.65,1.17,1.17,0,0,0,0-1.64,1.16,1.16,0,0,0-1.64,0m7-8.29a1.14,1.14,0,0,0,.26,1.61,1.16,1.16,0,1,0-.26-1.61m8.06-12.09a1.15,1.15,0,1,0-.93,2.11,1.14,1.14,0,0,0,1.52-.58,1.15,1.15,0,0,0-.59-1.53m4.12-14.06a1.15,1.15,0,0,0-1.36.91,1.16,1.16,0,1,0,1.36-.91m.94-13.31A1.16,1.16,0,0,0,139.22,75a1.18,1.18,0,0,0,1.18,1.15,1.16,1.16,0,0,0,0-2.32m-1.2-10.57a1.16,1.16,0,1,0-1.37-.89,1.16,1.16,0,0,0,1.37.89M134.9,49.58a1.16,1.16,0,1,0,1.51.63,1.14,1.14,0,0,0-1.51-.63M130,40.45a1.16,1.16,0,1,0-1.61-.33,1.17,1.17,0,0,0,1.61.33m-7.56-9.65a1.16,1.16,0,1,0-1.64,0,1.17,1.17,0,0,0,1.64,0M113,22.57a1.16,1.16,0,1,0-1.61.29,1.16,1.16,0,0,0,1.61-.29m-10.52,96.22a2.26,2.26,0,1,0,3.12.68,2.26,2.26,0,0,0-3.12-.68m8-6.41a2.27,2.27,0,1,0,3.2.05,2.27,2.27,0,0,0-3.2-.05M121,106.77a2.26,2.26,0,1,0-3.13.61,2.27,2.27,0,0,0,3.13-.61m3.8-12.21a2.26,2.26,0,1,0,1.19,3,2.26,2.26,0,0,0-1.19-3m1.75-5.68a2.26,2.26,0,1,0-1.75-2.68,2.27,2.27,0,0,0,1.75,2.68m1.55-15.82a2.26,2.26,0,1,0,2.28,2.24,2.25,2.25,0,0,0-2.28-2.24M127.43,67a2.26,2.26,0,1,0-2.68-1.75A2.27,2.27,0,0,0,127.43,67m-5.54-10.89a2.26,2.26,0,0,0,4.18-1.73,2.26,2.26,0,0,0-4.18,1.73m-1.07-7.24a2.26,2.26,0,1,0-3.12-.68,2.26,2.26,0,0,0,3.12.68m-6.67-9a2.26,2.26,0,1,0-3.2,0,2.27,2.27,0,0,0,3.2,0m-11-6.44a2.26,2.26,0,1,0-.62-3.13,2.26,2.26,0,0,0,.62,3.13m-.79,76.3a2.38,2.38,0,1,0,3.29.71,2.39,2.39,0,0,0-3.29-.71m9.27-2.51a2.38,2.38,0,1,0-3.36-.06,2.37,2.37,0,0,0,3.36.06m5.63-8.25a2.38,2.38,0,1,0-3.3.64,2.37,2.37,0,0,0,3.3-.64m.41-7.06a2.38,2.38,0,1,0-1.23-3.13,2.37,2.37,0,0,0,1.23,3.13m5.05-10a2.37,2.37,0,1,0-2.85,1.79,2.37,2.37,0,0,0,2.85-1.79M120.48,69a2.38,2.38,0,1,0,2.36,2.4,2.38,2.38,0,0,0-2.36-2.4m-1.42-4.5a2.38,2.38,0,1,0-2.8-1.86,2.37,2.37,0,0,0,2.8,1.86M113,55a2.38,2.38,0,1,0,1.3-3.1A2.38,2.38,0,0,0,113,55m-1.51-6.4a2.38,2.38,0,1,0-3.3-.68,2.37,2.37,0,0,0,3.3.68m-6.07-6.7a2.38,2.38,0,1,0-3.36,0,2.38,2.38,0,0,0,3.36,0M94.76,106.4a2.79,2.79,0,1,0,3.85.85,2.8,2.8,0,0,0-3.85-.85m9.52-.6a2.79,2.79,0,1,0-3.94,0,2.79,2.79,0,0,0,3.94,0m5.13-6.12a2.79,2.79,0,1,0-3.88.73,2.78,2.78,0,0,0,3.88-.73m.54-6.17a2.79,2.79,0,1,0-1.51-3.65A2.79,2.79,0,0,0,110,93.51m6-9a2.79,2.79,0,1,0-3.3,2.17,2.8,2.8,0,0,0,3.3-2.17m.89-8.21A2.79,2.79,0,1,0,114,79.07a2.79,2.79,0,0,0,2.82-2.77m-6.5-7.73a2.79,2.79,0,1,0,2.09-3.35,2.79,2.79,0,0,0-2.09,3.35m-.56-10.67a2.79,2.79,0,1,0,3.68,1.46,2.78,2.78,0,0,0-3.68-1.46m-4.55-2.18a2.79,2.79,0,1,0,.82-3.87,2.79,2.79,0,0,0-.82,3.87m-.67-5.57a2.79,2.79,0,1,0-4,0,2.79,2.79,0,0,0,4,0m-9.28-4.4a2.8,2.8,0,1,0-.75-3.88,2.79,2.79,0,0,0,.75,3.88m-5.19,7.07a3.2,3.2,0,1,0-.89-4.45,3.2,3.2,0,0,0,.89,4.45M101.7,55a3.2,3.2,0,1,0-.57,4.49A3.2,3.2,0,0,0,101.7,55m3.49,14.49a3.21,3.21,0,1,0-4-2.06,3.2,3.2,0,0,0,4,2.06M103.6,94.6a3.2,3.2,0,1,0-4.43.93,3.2,3.2,0,0,0,4.43-.93m-.13-6.14a3.2,3.2,0,1,0-2.06-4,3.21,3.21,0,0,0,2.06,4m5.68-11.92a3.21,3.21,0,1,0-3.27,3.13,3.21,3.21,0,0,0,3.27-3.13m-13,26.21a3.2,3.2,0,1,0-4.5-.52,3.19,3.19,0,0,0,4.5.52M83.44,91.67a3.73,3.73,0,1,0,4.7,2.41,3.75,3.75,0,0,0-4.7-2.41m10.78.65A3.74,3.74,0,1,0,88.94,92a3.74,3.74,0,0,0,5.28.28m-.06-7a3.74,3.74,0,1,0-1.79-5,3.74,3.74,0,0,0,1.79,5M96.48,69a3.74,3.74,0,1,0,3.69,3.77A3.73,3.73,0,0,0,96.48,69M94.65,67.2a3.74,3.74,0,1,0-5-1.84,3.73,3.73,0,0,0,5,1.84m-5.5-7.59a3.73,3.73,0,1,0-5.26.44,3.73,3.73,0,0,0,5.26-.44"/></clipPath><linearGradient id="b" x1="112.38" y1="-118.65" x2="170.28" y2="-118.65" gradientTransform="matrix(0.98, 0, 0, -2.52, -28.23, -223.41)" gradientUnits="userSpaceOnUse"><stop offset="0" stop-color="#e95d0f"/><stop offset="0.81" stop-color="#e95d0f" stop-opacity="0.1"/><stop offset="1" stop-color="#e95d0f" stop-opacity="0"/></linearGradient></defs><title>erc</title><g class="b"><rect class="c" x="79.49" y="19.71" width="60.69" height="112.94"/></g><path class="d" d="M104.81,24.69a1.45,1.45,0,1,1-.37-2,1.46,1.46,0,0,1,.37,2"/><path class="d" d="M81.14,55.14a3.74,3.74,0,1,1-2.6-4.61,3.74,3.74,0,0,1,2.6,4.61"/><path class="d" d="M72.47,97.14a3.74,3.74,0,1,1,3.38,4,3.73,3.73,0,0,1-3.38-4"/><path class="d" d="M64.41,94.56a3.73,3.73,0,1,1,1.56,5,3.73,3.73,0,0,1-1.56-5"/><path class="d" d="M57.74,88.77a3.74,3.74,0,1,1-.6,5.25,3.74,3.74,0,0,1,.6-5.25"/><path class="d" d="M54,80.86a3.73,3.73,0,1,1-2.64,4.57A3.73,3.73,0,0,1,54,80.86"/><path class="d" d="M53.59,72.45a3.73,3.73,0,1,1-4.19,3.21,3.73,3.73,0,0,1,4.19-3.21"/><path class="d" d="M56.66,64.26a3.73,3.73,0,1,1-5.13,1.28,3.73,3.73,0,0,1,5.13-1.28"/><path class="d" d="M62.72,58a3.73,3.73,0,1,1-5.21-.86,3.74,3.74,0,0,1,5.21.86"/><path class="d" d="M71.77,54.42a3.74,3.74,0,1,1-4.31-3.05,3.76,3.76,0,0,1,4.31,3.05"/><path class="d" d="M78.14,107a3.21,3.21,0,1,1-3.21-3.21A3.21,3.21,0,0,1,78.14,107"/><path class="d" d="M87.81,104.36a3.2,3.2,0,1,1-4-2,3.21,3.21,0,0,1,4,2"/><path class="d" d="M71.53,44.87a3.21,3.21,0,1,1,3.1,3.3,3.2,3.2,0,0,1-3.1-3.3"/><path class="d" d="M81,45.14a3.21,3.21,0,1,1,2,4.06,3.21,3.21,0,0,1-2-4.06"/><path class="d" d="M62.08,47.53a3.2,3.2,0,1,1,4,2.12,3.2,3.2,0,0,1-4-2.12"/><path class="d" d="M53.42,53.45a3.21,3.21,0,1,1,4.49.62,3.21,3.21,0,0,1-4.49-.62"/><path class="d" d="M44.35,69.76a3.21,3.21,0,1,1,4.08-2,3.21,3.21,0,0,1-4.08,2"/><path class="d" d="M47.45,60.75a3.2,3.2,0,1,1,4.46-.82,3.2,3.2,0,0,1-4.46.82"/><path class="d" d="M43.81,79.39a3.21,3.21,0,1,1,3.32-3.09,3.2,3.2,0,0,1-3.32,3.09"/><path class="d" d="M46.34,88.91a3.2,3.2,0,1,1,2.17-4,3.2,3.2,0,0,1-2.17,4"/><path class="d" d="M51.89,97.17a3.21,3.21,0,1,1,.69-4.48,3.21,3.21,0,0,1-.69,4.48"/><path class="d" d="M67.45,106.46a3.21,3.21,0,1,1-1.91-4.11,3.22,3.22,0,0,1,1.91,4.11"/><path class="d" d="M59.35,103.17a3.21,3.21,0,1,1-.77-4.47,3.21,3.21,0,0,1,.77,4.47"/><path class="d" d="M77.72,36.69a2.79,2.79,0,1,1-2.79-2.8,2.79,2.79,0,0,1,2.79,2.8"/><path class="d" d="M85.34,38a2.79,2.79,0,1,1-2.19-3.28A2.78,2.78,0,0,1,85.34,38"/><path class="d" d="M92.19,40.62A2.79,2.79,0,1,1,90.65,37a2.8,2.8,0,0,1,1.54,3.63"/><path class="d" d="M35.61,73.28a2.79,2.79,0,1,1-2.77,2.81,2.79,2.79,0,0,1,2.77-2.81"/><path class="d" d="M36.88,65.65a2.79,2.79,0,1,1-3.27,2.22,2.79,2.79,0,0,1,3.27-2.22"/><path class="d" d="M39.44,58.78a2.79,2.79,0,1,1-3.62,1.57,2.78,2.78,0,0,1,3.62-1.57"/><path class="d" d="M43.76,51.81a2.8,2.8,0,1,1-3.87.79,2.8,2.8,0,0,1,3.87-.79"/><path class="d" d="M48.87,46.37a2.79,2.79,0,1,1-3.95,0,2.79,2.79,0,0,1,3.95,0"/><path class="d" d="M55.23,41.79A2.79,2.79,0,1,1,51.36,41a2.8,2.8,0,0,1,3.87.79"/><path class="d" d="M61.7,38.84A2.79,2.79,0,1,1,58,37.41a2.79,2.79,0,0,1,3.68,1.43"/><path class="d" d="M69.32,37.09A2.79,2.79,0,1,1,66,35a2.78,2.78,0,0,1,3.37,2.06"/><path class="d" d="M72.21,115.09A2.79,2.79,0,1,1,75,117.86a2.78,2.78,0,0,1-2.81-2.77"/><path class="d" d="M64.58,113.82a2.79,2.79,0,1,1,2.21,3.27,2.8,2.8,0,0,1-2.21-3.27"/><path class="d" d="M57.71,111.26a2.79,2.79,0,1,1,1.57,3.62,2.79,2.79,0,0,1-1.57-3.62"/><path class="d" d="M50.75,106.94a2.79,2.79,0,1,1,.78,3.87,2.78,2.78,0,0,1-.78-3.87"/><path class="d" d="M45.31,101.82a2.79,2.79,0,1,1,0,4,2.78,2.78,0,0,1,0-4"/><path class="d" d="M40.73,95.47a2.79,2.79,0,1,1-.79,3.86,2.78,2.78,0,0,1,.79-3.86"/><path class="d" d="M37.78,89a2.79,2.79,0,1,1-1.43,3.68A2.78,2.78,0,0,1,37.78,89"/><path class="d" d="M36,81.37A2.79,2.79,0,1,1,34,84.73,2.79,2.79,0,0,1,36,81.37"/><path class="d" d="M87.39,113.12a2.8,2.8,0,1,1,3.67,1.48,2.8,2.8,0,0,1-3.67-1.48"/><path class="d" d="M79.75,114.75a2.79,2.79,0,1,1,3.33,2.11,2.78,2.78,0,0,1-3.33-2.11"/><path class="d" d="M72.14,30.07a2.38,2.38,0,1,1-2.38-2.38,2.38,2.38,0,0,1,2.38,2.38"/><path class="d" d="M82.78,30.73A2.38,2.38,0,1,1,81,27.87a2.38,2.38,0,0,1,1.77,2.86"/><path class="d" d="M91,33a2.38,2.38,0,1,1-1.2-3.14A2.37,2.37,0,0,1,91,33"/><path class="d" d="M98.37,36.63a2.38,2.38,0,1,1-.62-3.31,2.38,2.38,0,0,1,.62,3.31"/><path class="d" d="M94.19,117.38a2.38,2.38,0,1,1,3.1,1.3,2.39,2.39,0,0,1-3.1-1.3"/><path class="d" d="M85.9,120.35a2.37,2.37,0,1,1,2.79,1.87,2.36,2.36,0,0,1-2.79-1.87"/><path class="d" d="M77.37,121.68A2.38,2.38,0,1,1,79.76,124a2.39,2.39,0,0,1-2.39-2.36"/><path class="d" d="M67.17,121.15A2.38,2.38,0,1,1,69,124a2.38,2.38,0,0,1-1.81-2.83"/><path class="d" d="M59.69,119.26a2.38,2.38,0,1,1,1.31,3.1,2.38,2.38,0,0,1-1.31-3.1"/><path class="d" d="M49.89,114.53a2.38,2.38,0,1,1,.54,3.32,2.38,2.38,0,0,1-.54-3.32"/><path class="d" d="M43.6,109.68a2.38,2.38,0,1,1,0,3.37,2.39,2.39,0,0,1,0-3.37"/><path class="d" d="M37.65,103.05a2.38,2.38,0,1,1-.68,3.3,2.37,2.37,0,0,1,.68-3.3"/><path class="d" d="M33.42,96.07a2.38,2.38,0,1,1-1.26,3.12,2.38,2.38,0,0,1,1.26-3.12"/><path class="d" d="M30.59,88.77a2.38,2.38,0,1,1-1.77,2.86,2.38,2.38,0,0,1,1.77-2.86"/><path class="d" d="M28.84,79a2.38,2.38,0,1,1-2.35,2.41A2.38,2.38,0,0,1,28.84,79"/><path class="d" d="M29.21,69.37a2.38,2.38,0,1,1-2.8,1.87,2.38,2.38,0,0,1,2.8-1.87"/><path class="d" d="M31.41,60.47a2.38,2.38,0,1,1-3.12,1.27,2.39,2.39,0,0,1,3.12-1.27"/><path class="d" d="M35.39,52.08a2.38,2.38,0,1,1-3.3.63,2.38,2.38,0,0,1,3.3-.63"/><path class="d" d="M41.17,44.48a2.38,2.38,0,1,1-3.36-.08,2.36,2.36,0,0,1,3.36.08"/><path class="d" d="M47.48,38.89a2.38,2.38,0,1,1-3.3-.69,2.38,2.38,0,0,1,3.3.69"/><path class="d" d="M54.66,34.57a2.38,2.38,0,1,1-3.12-1.28,2.37,2.37,0,0,1,3.12,1.28"/><path class="d" d="M63.16,31.45a2.38,2.38,0,1,1-2.8-1.86,2.39,2.39,0,0,1,2.8,1.86"/><path class="d" d="M66.35,23.2a2.26,2.26,0,1,1-2.66-1.76,2.28,2.28,0,0,1,2.66,1.76"/><path class="d" d="M77.25,22.58A2.27,2.27,0,1,1,75,20.31a2.27,2.27,0,0,1,2.25,2.27"/><path class="d" d="M89.61,24.62A2.26,2.26,0,1,1,88,21.88a2.26,2.26,0,0,1,1.65,2.74"/><path class="d" d="M98.05,27.85a2.26,2.26,0,1,1-1.17-3,2.26,2.26,0,0,1,1.17,3"/><path class="d" d="M92.73,126.14a2.26,2.26,0,1,1,2.94,1.25,2.26,2.26,0,0,1-2.94-1.25"/><path class="d" d="M83,128.6a2.26,2.26,0,1,1,2.66,1.78A2.27,2.27,0,0,1,83,128.6"/><path class="d" d="M71.65,129.14a2.26,2.26,0,1,1,2.21,2.3,2.26,2.26,0,0,1-2.21-2.3"/><path class="d" d="M61.46,127.53a2.26,2.26,0,1,1,4.42,1,2.25,2.25,0,0,1-2.68,1.73,2.28,2.28,0,0,1-1.74-2.69"/><path class="d" d="M51.43,123.83a2.26,2.26,0,1,1,1.15,3,2.26,2.26,0,0,1-1.15-3"/><path class="d" d="M41.25,117.34a2.26,2.26,0,1,1,.45,3.16,2.25,2.25,0,0,1-.45-3.16"/><path class="d" d="M35.14,111.54a2.26,2.26,0,1,1,0,3.19,2.27,2.27,0,0,1,0-3.19"/><path class="d" d="M29.08,103.34a2.26,2.26,0,1,1-.65,3.13,2.28,2.28,0,0,1,.65-3.13"/><path class="d" d="M25.2,95.47a2.26,2.26,0,1,1-1.16,3,2.25,2.25,0,0,1,1.16-3"/><path class="d" d="M22.31,85.27A2.26,2.26,0,1,1,20.58,88a2.26,2.26,0,0,1,1.73-2.69"/><path class="d" d="M21.5,74.2a2.26,2.26,0,1,1-2.24,2.28A2.26,2.26,0,0,1,21.5,74.2"/><path class="d" d="M23,63.41a2.26,2.26,0,1,1-2.65,1.77A2.26,2.26,0,0,1,23,63.41"/><path class="d" d="M26.31,53.68a2.26,2.26,0,1,1-2.95,1.23,2.27,2.27,0,0,1,2.95-1.23"/><path class="d" d="M31.55,44.68a2.26,2.26,0,1,1-3.13.63,2.27,2.27,0,0,1,3.13-.63"/><path class="d" d="M39.47,35.92a2.26,2.26,0,1,1-3.18-.07,2.26,2.26,0,0,1,3.18.07"/><path class="d" d="M47.09,30.31A2.26,2.26,0,1,1,44,29.67a2.26,2.26,0,0,1,3.14.64"/><path class="d" d="M56.32,25.84a2.26,2.26,0,1,1-3-1.22,2.27,2.27,0,0,1,3,1.22"/><path class="d" d="M70.28,16.73a1.45,1.45,0,1,1-1.45-1.45,1.45,1.45,0,0,1,1.45,1.45"/><path class="d" d="M75.78,10.32a1.16,1.16,0,1,1-1.16-1.16,1.15,1.15,0,0,1,1.16,1.16"/><path class="d" d="M91.25,12.4a1.15,1.15,0,1,1-.84-1.4,1.16,1.16,0,0,1,.84,1.4"/><path class="d" d="M103.15,16.74a1.16,1.16,0,1,1-.57-1.53,1.15,1.15,0,0,1,.57,1.53"/><path class="d" d="M97.76,137.31a1.16,1.16,0,1,1,1.5.66,1.16,1.16,0,0,1-1.5-.66"/><path class="d" d="M85.79,140.53a1.16,1.16,0,1,1,1.35.93,1.17,1.17,0,0,1-1.35-.93"/><path class="d" d="M72.17,141.4a1.16,1.16,0,1,1,2.31.06,1.16,1.16,0,0,1-2.31-.06"/><path class="d" d="M58.47,139.38a1.16,1.16,0,1,1,.85,1.4,1.16,1.16,0,0,1-.85-1.4"/><path class="d" d="M46.35,134.94a1.16,1.16,0,1,1,.57,1.54,1.16,1.16,0,0,1-.57-1.54"/><path class="d" d="M34.66,127.71a1.16,1.16,0,1,1,1.85,1.39,1.16,1.16,0,1,1-1.85-1.39"/><path class="d" d="M26.14,119.8a1.16,1.16,0,1,1-.06,1.64,1.17,1.17,0,0,1,.06-1.64"/><path class="d" d="M19.31,110.77a1.16,1.16,0,1,1-.34,1.6,1.16,1.16,0,0,1,.34-1.6"/><path class="d" d="M14.58,101.75a1.15,1.15,0,1,1,.94,2.11,1.14,1.14,0,0,1-1.53-.58,1.16,1.16,0,0,1,.59-1.53"/><path class="d" d="M10.8,90a1.16,1.16,0,1,1,.54,2.25A1.16,1.16,0,1,1,10.8,90"/><path class="d" d="M9.26,75.57a1.16,1.16,0,1,1-1.15,1.17,1.15,1.15,0,0,1,1.15-1.17"/><path class="d" d="M10.46,63.36a1.17,1.17,0,0,1,.94,1.35,1.16,1.16,0,1,1-.94-1.35"/><path class="d" d="M14.46,50.28a1.16,1.16,0,1,1-1.51.63,1.15,1.15,0,0,1,1.51-.63"/><path class="d" d="M21,38.48a1.16,1.16,0,0,1,.31,1.61,1.16,1.16,0,0,1-1.92-1.29A1.17,1.17,0,0,1,21,38.48"/><path class="d" d="M29.76,28.25a1.16,1.16,0,1,1-1.64,0,1.16,1.16,0,0,1,1.64,0"/><path class="d" d="M39.87,20.41a1.16,1.16,0,1,1-1.6-.34,1.15,1.15,0,0,1,1.6.34"/><path class="d" d="M51.76,14.5a1.16,1.16,0,1,1-1.5-.65,1.15,1.15,0,0,1,1.5.65"/><path class="d" d="M62.72,11.44a1.15,1.15,0,1,1-1.36-.91,1.16,1.16,0,0,1,1.36.91"/><path class="d" d="M83.61,17.21a1.45,1.45,0,0,1-2.82-.65,1.45,1.45,0,1,1,2.82.65"/><path class="d" d="M95.54,20.29a1.45,1.45,0,1,1-.7-1.92,1.44,1.44,0,0,1,.7,1.92"/><path class="d" d="M101.51,128.87a1.43,1.43,0,0,1,.79-1.89,1.45,1.45,0,1,1-.79,1.89"/><path class="d" d="M90.79,133a1.45,1.45,0,1,1,1.7,1.14,1.43,1.43,0,0,1-1.7-1.14"/><path class="d" d="M78.5,135.09a1.45,1.45,0,1,1,1.42,1.47,1.44,1.44,0,0,1-1.42-1.47"/><path class="d" d="M65.55,134.48a1.44,1.44,0,1,1,1.06,1.74,1.45,1.45,0,0,1-1.06-1.74"/><path class="d" d="M55.16,131.85a1.45,1.45,0,1,1,.74,1.91,1.45,1.45,0,0,1-.74-1.91"/><path class="d" d="M43.46,126.23a1.44,1.44,0,1,1,.31,2,1.45,1.45,0,0,1-.31-2"/><path class="d" d="M34.43,119.33a1.45,1.45,0,1,1-.08,2,1.46,1.46,0,0,1,.08-2"/><path class="d" d="M27.53,111.7a1.46,1.46,0,0,1,2,.43,1.45,1.45,0,1,1-2-.43"/><path class="d" d="M22.18,103.23a1.45,1.45,0,1,1,1.13,2.66,1.45,1.45,0,1,1-1.13-2.66"/><path class="d" d="M18.08,93.18A1.44,1.44,0,1,1,17,94.9a1.45,1.45,0,0,1,1.1-1.72"/><path class="d" d="M15.68,80.46a1.45,1.45,0,1,1,0,2.89,1.44,1.44,0,0,1-1.45-1.44,1.45,1.45,0,0,1,1.45-1.45"/><path class="d" d="M15.88,69.23a1.45,1.45,0,1,1-1.7,1.15,1.46,1.46,0,0,1,1.7-1.15"/><path class="d" d="M18.38,57.62a1.45,1.45,0,1,1-1.89.79,1.45,1.45,0,0,1,1.89-.79"/><path class="d" d="M23.13,46.78a1.45,1.45,0,1,1-2,.4,1.46,1.46,0,0,1,2-.4"/><path class="d" d="M30.52,36.44a1.45,1.45,0,1,1-2.05,0,1.45,1.45,0,0,1,2.05,0"/><path class="d" d="M39.15,28.48a1.44,1.44,0,1,1-2-.44,1.44,1.44,0,0,1,2,.44"/><path class="d" d="M48.59,22.67a1.45,1.45,0,1,1-2.69,1.08,1.45,1.45,0,0,1,2.69-1.08"/><path class="d" d="M59.48,18.57a1.44,1.44,0,1,1-1.69-1.15,1.44,1.44,0,0,1,1.69,1.15"/><path d="M82.59,79.73a8,8,0,0,1-2.65,3.8,6.72,6.72,0,0,1-4,1.14,7.19,7.19,0,0,1-5.32-2.09,8.4,8.4,0,0,1-2.24-4.79H90.66l0-1.35c0-.59,0-1,0-1.33,0-5.06-1.42-9.07-4.23-11.91a14.65,14.65,0,0,0-10.87-4.3,15,15,0,0,0-11.15,4.38c-2.87,2.9-4.32,7-4.32,12.12,0,5,1.44,8.95,4.28,11.77s6.7,4.25,11.47,4.25a15.86,15.86,0,0,0,9.44-2.67,13.54,13.54,0,0,0,5.16-7.53L91,79.65l-8-.93ZM68.72,71a6.66,6.66,0,0,1,2-3.53,7,7,0,0,1,5-1.85A6.33,6.33,0,0,1,82.33,71Z"/><path d="M112.94,60.64a11.75,11.75,0,0,0-6-1.74A7.09,7.09,0,0,0,101.85,61V59.54H94.47V90.78h7.9V74.49a16.66,16.66,0,0,1,.77-5.18,3.77,3.77,0,0,1,1.39-2,3.66,3.66,0,0,1,2.2-.69,6.25,6.25,0,0,1,3.07.86l1.39.78L114,61.24Z"/><path d="M134.15,78.27l-.2,1.35a7.73,7.73,0,0,1-2.12,4.76,6,6,0,0,1-4.14,1.46,6.34,6.34,0,0,1-5.08-2.23c-1.33-1.54-2-4.16-2-7.79s.7-6.16,2.08-7.71A6.71,6.71,0,0,1,128,65.85,5.28,5.28,0,0,1,131.48,67a6.83,6.83,0,0,1,2.07,3.76l.29,1.24,7.72-1.16-.28-1.43a12.57,12.57,0,0,0-4.55-7.78,14.21,14.21,0,0,0-9-2.74,16.43,16.43,0,0,0-7.92,2A12.62,12.62,0,0,0,114.27,67a21.86,21.86,0,0,0-1.75,9c0,5.31,1.4,9.47,4.18,12.39a14.6,14.6,0,0,0,11,4.42,13.63,13.63,0,0,0,14-12.08l.24-1.43Z"/></svg>