<svg xmlns="http://www.w3.org/2000/svg" width="2000" height="1000" viewBox="0 0 2000 1000"><defs><style>.a{isolation:isolate;}.b{opacity:0.25;mix-blend-mode:multiply;}.aa,.aaa,.aab,.aac,.aad,.aae,.aaf,.aag,.aah,.aai,.aaj,.aak,.aal,.aam,.aan,.aao,.aap,.aaq,.aar,.aas,.aat,.aau,.aav,.aaw,.aax,.aay,.aaz,.ab,.aba,.abb,.abc,.abd,.abe,.abf,.abg,.abh,.abi,.abj,.abk,.abl,.abm,.abn,.abo,.abp,.abq,.abr,.abs,.abt,.abu,.abv,.abw,.abx,.aby,.abz,.ac,.aca,.acb,.acc,.acd,.ace,.acf,.acg,.ach,.aci,.acj,.ack,.acl,.acm,.acn,.aco,.acp,.acq,.acr,.acs,.act,.acu,.acv,.acw,.acx,.acy,.ad,.ae,.af,.ag,.ah,.ai,.aj,.ak,.al,.am,.an,.ao,.ap,.aq,.ar,.as,.at,.au,.av,.aw,.ax,.ay,.az,.ba,.bb,.bc,.bd,.be,.bf,.bg,.bh,.bi,.bj,.bk,.bl,.bm,.bn,.bo,.bp,.bq,.br,.bs,.bt,.bu,.bv,.bw,.bx,.by,.bz,.c,.ca,.cb,.cc,.cd,.ce,.cf,.cg,.ch,.ci,.cj,.ck,.cl,.cm,.cn,.co,.cp,.cq,.cr,.cs,.ct,.cu,.cv,.cw,.cx,.cy,.cz,.d,.da,.db,.dc,.dd,.de,.df,.dg,.dh,.di,.dj,.dk,.dl,.dm,.dn,.do,.dp,.dq,.dr,.ds,.dt,.du,.dv,.dw,.dx,.dy,.dz,.e,.ea,.eb,.ec,.ed,.ee,.ef,.eg,.eh,.ei,.ej,.ek,.el,.em,.en,.eo,.ep,.eq,.er,.es,.et,.eu,.ev,.ew,.ex,.ey,.ez,.f,.fa,.fb,.fc,.fd,.fe,.ff,.fg,.fh,.fi,.fj,.fk,.fl,.fm,.fn,.fo,.fp,.fq,.fr,.fs,.ft,.fu,.fv,.fw,.fx,.fy,.fz,.g,.ga,.gb,.gc,.gd,.ge,.gf,.gg,.gh,.gi,.gj,.gk,.gl,.gm,.gn,.go,.gp,.gq,.gr,.gs,.gt,.gu,.gv,.gw,.gx,.gy,.gz,.h,.ha,.hb,.hc,.hd,.he,.hf,.hg,.hh,.hi,.hj,.hk,.hl,.hm,.hn,.ho,.hp,.hq,.hr,.hs,.ht,.hu,.hv,.hw,.hx,.hy,.hz,.i,.ia,.ib,.ic,.id,.ie,.if,.ig,.ih,.ii,.ij,.ik,.il,.im,.in,.io,.ip,.iq,.ir,.is,.it,.iu,.iv,.iw,.ix,.iy,.iz,.j,.ja,.jb,.jc,.jd,.je,.jf,.jg,.jh,.ji,.jj,.jk,.jl,.jm,.jn,.jo,.jp,.jq,.jr,.js,.jt,.ju,.jv,.jw,.jx,.jy,.jz,.k,.ka,.kb,.kc,.kd,.ke,.kf,.kg,.kh,.ki,.kj,.kk,.kl,.km,.kn,.ko,.kp,.kq,.kr,.ks,.kt,.ku,.kv,.kw,.kx,.ky,.kz,.l,.la,.lb,.lc,.ld,.le,.lf,.lg,.lh,.li,.lj,.lk,.ll,.lm,.ln,.lo,.lp,.lq,.lr,.ls,.lt,.lu,.lv,.lw,.lx,.ly,.lz,.m,.ma,.mb,.mc,.md,.me,.mf,.mg,.mh,.mi,.mj,.mk,.ml,.mm,.mn,.mo,.mp,.mq,.mr,.ms,.mt,.mu,.mv,.mw,.mx,.my,.mz,.n,.na,.nb,.nc,.nd,.ne,.nf,.ng,.nh,.ni,.nj,.nk,.nl,.nm,.nn,.no,.np,.nq,.nr,.ns,.nt,.nu,.nv,.nw,.nx,.ny,.nz,.o,.oa,.ob,.oc,.od,.oe,.of,.og,.oh,.oi,.oj,.ok,.ol,.om,.on,.oo,.op,.oq,.or,.os,.ot,.ou,.ov,.ow,.ox,.oy,.oz,.p,.pa,.pb,.pc,.pd,.pe,.pf,.pg,.ph,.pi,.pj,.pk,.pl,.pm,.pn,.po,.pp,.pq,.pr,.ps,.pt,.pu,.pv,.pw,.px,.py,.pz,.q,.qa,.qb,.qc,.qd,.qe,.qf,.qg,.qh,.qi,.qj,.qk,.ql,.qm,.qn,.qo,.qp,.qq,.qr,.qs,.qt,.qu,.qv,.qw,.qx,.qy,.qz,.r,.ra,.rb,.rc,.rd,.re,.rf,.rg,.rh,.ri,.rj,.rk,.rl,.rm,.rn,.ro,.rp,.rq,.rr,.rs,.rt,.ru,.rv,.rw,.rx,.ry,.rz,.s,.sa,.sb,.sc,.sd,.se,.sf,.sg,.sh,.si,.sj,.sk,.sl,.sm,.sn,.so,.sp,.sq,.sr,.ss,.st,.su,.sv,.sw,.sx,.sy,.sz,.t,.ta,.tb,.tc,.td,.te,.tf,.tg,.th,.ti,.tj,.tk,.tl,.tm,.tn,.to,.tp,.tq,.tr,.ts,.tt,.tu,.tv,.tw,.tx,.ty,.tz,.u,.ua,.ub,.uc,.ud,.ue,.uf,.ug,.uh,.ui,.uj,.uk,.ul,.um,.un,.uo,.up,.uq,.ur,.us,.ut,.uu,.uv,.uw,.ux,.uy,.uz,.v,.va,.vb,.vc,.vd,.ve,.vf,.vg,.vh,.vi,.vj,.vk,.vl,.vm,.vn,.vo,.vp,.vq,.vr,.vs,.vt,.vu,.vv,.vw,.vx,.vy,.vz,.w,.wa,.wb,.wc,.wd,.we,.wf,.wg,.wh,.wi,.wj,.wk,.wl,.wm,.wn,.wo,.wp,.wq,.wr,.ws,.wt,.wu,.wv,.ww,.wx,.wy,.wz,.x,.xa,.xb,.xc,.xd,.xe,.xf,.xg,.xh,.xi,.xj,.xk,.xl,.xm,.xn,.xo,.xp,.xq,.xr,.xs,.xt,.xu,.xv,.xw,.xx,.xy,.xz,.y,.ya,.yb,.yc,.yd,.ye,.yf,.yg,.yh,.yi,.yj,.yk,.yl,.ym,.yn,.yo,.yp,.yq,.yr,.ys,.yt,.yu,.yv,.yw,.yx,.yy,.yz,.z,.za,.zb,.zc,.zd,.ze,.zf,.zg,.zh,.zi,.zj,.zk,.zl,.zm,.zn,.zo,.zp,.zq,.zr,.zs,.zt,.zu,.zv,.zw,.zx,.zy,.zz{fill:#1d1d1b;}.c{opacity:0.26;}.d{opacity:0.32;}.e{opacity:0.12;}.f{opacity:0.23;}.g{opacity:0.28;}.h{opacity:0.41;}.i{opacity:0.28;}.j{opacity:0.34;}.k{opacity:0.5;}.l{opacity:0.46;}.m{opacity:0.26;}.n{opacity:0.39;}.o{opacity:0.28;}.p{opacity:0.31;}.q{opacity:0.08;}.r{opacity:0.38;}.s{opacity:0.37;}.t{opacity:0.47;}.u{opacity:0.17;}.v{opacity:0.17;}.w{opacity:0.11;}.x{opacity:0.01;}.y{opacity:0.16;}.z{opacity:0.24;}.aa{opacity:0.09;}.ab{opacity:0.49;}.ac{opacity:0.14;}.ad{opacity:0.12;}.ae{opacity:0.47;}.af{opacity:0.21;}.ag{opacity:0.16;}.ah{opacity:0.05;}.ai{opacity:0.07;}.aj{opacity:0.1;}.ak{opacity:0.22;}.al{opacity:0.25;}.am{opacity:0.36;}.an{opacity:0.05;}.ao{opacity:0.21;}.ap{opacity:0.28;}.aq{opacity:0.24;}.ar{opacity:0.05;}.as{opacity:0.2;}.at{opacity:0.26;}.au{opacity:0.07;}.av{opacity:0.07;}.aw{opacity:0.01;}.ax{opacity:0.33;}.ay{opacity:0.37;}.az{opacity:0.34;}.ba{opacity:0.16;}.bb{opacity:0.35;}.bc{opacity:0.38;}.bd{opacity:0.36;}.be{opacity:0.34;}.bf{opacity:0.35;}.bg{opacity:0.43;}.bh{opacity:0.38;}.bi{opacity:0.35;}.bj{opacity:0.28;}.bk{opacity:0.37;}.bl{opacity:0.22;}.bm{opacity:0.34;}.bn{opacity:0.39;}.bo{opacity:0.44;}.bp{opacity:0.09;}.bq{opacity:0.38;}.br{opacity:0.32;}.bs{opacity:0.14;}.bt{opacity:0.42;}.bu{opacity:0.4;}.bv{opacity:0.26;}.bw{opacity:0.12;}.bx{opacity:0.46;}.by{opacity:0.47;}.bz{opacity:0.3;}.ca{opacity:0.1;}.cb{opacity:0.35;}.cc{opacity:0.28;}.cd{opacity:0.17;}.ce{opacity:0.38;}.cf{opacity:0.42;}.cg{opacity:0.27;}.ch{opacity:0.21;}.ci{opacity:0.46;}.cj{opacity:0.4;}.ck{opacity:0.28;}.cl{opacity:0.12;}.cm{opacity:0.43;}.cn{opacity:0.38;}.co{opacity:0.01;}.cp{opacity:0.46;}.cq{opacity:0.33;}.cr{opacity:0.39;}.cs{opacity:0.32;}.ct{opacity:0.27;}.cu{opacity:0.38;}.cv{opacity:0.29;}.cw{opacity:0.04;}.cx{opacity:0.34;}.cy{opacity:0.5;}.cz{opacity:0.04;}.da{opacity:0.39;}.db{opacity:0.31;}.dc{opacity:0.41;}.dd{opacity:0.42;}.de{opacity:0.33;}.df{opacity:0.3;}.dg{opacity:0.35;}.dh{opacity:0.39;}.di{opacity:0.31;}.dj{opacity:0.38;}.dk{opacity:0.37;}.dl{opacity:0.32;}.dm{opacity:0.32;}.dn{opacity:0.32;}.do{opacity:0.32;}.dp{opacity:0.25;}.dq{opacity:0.16;}.dr{opacity:0.11;}.ds{opacity:0.01;}.dt{opacity:0.04;}.du{opacity:0.07;}.dv{opacity:0.04;}.dw{opacity:0.22;}.dx{opacity:0.06;}.dy{opacity:0.36;}.dz{opacity:0.16;}.ea{opacity:0.18;}.eb{opacity:0.04;}.ec{opacity:0.28;}.ed{opacity:0.15;}.ee{opacity:0.18;}.ef{opacity:0.09;}.eg{opacity:0.06;}.eh{opacity:0.13;}.ei{opacity:0.16;}.ej{opacity:0.04;}.ek{opacity:0.1;}.el{opacity:0.21;}.em{opacity:0.15;}.en{opacity:0.44;}.eo{opacity:0.31;}.ep{opacity:0.4;}.eq{opacity:0.45;}.er{opacity:0.42;}.es{opacity:0.45;}.et{opacity:0.44;}.eu{opacity:0.31;}.ev{opacity:0.13;}.ew{opacity:0.44;}.ex{opacity:0.49;}.ey{opacity:0.17;}.ez{opacity:0.4;}.fa{opacity:0.41;}.fb{opacity:0.36;}.fc{opacity:0.38;}.fd{opacity:0.17;}.fe{opacity:0.08;}.ff{opacity:0.15;}.fg{opacity:0.36;}.fh{opacity:0.02;}.fi{opacity:0.24;}.fj{opacity:0.31;}.fk{opacity:0.06;}.fl{opacity:0.03;}.fm{opacity:0.12;}.fn{opacity:0.45;}.fo{opacity:0.11;}.fp{opacity:0.06;}.fq{opacity:0.24;}.fr{opacity:0.27;}.fs{opacity:0.17;}.ft{opacity:0.16;}.fu{opacity:0.26;}.fv{opacity:0.16;}.fw{opacity:0.1;}.fx{opacity:0.17;}.fy{opacity:0.16;}.fz{opacity:0.02;}.ga{opacity:0.11;}.gb{opacity:0.25;}.gc{opacity:0.42;}.gd{opacity:0.22;}.ge{opacity:0.09;}.gf{opacity:0.39;}.gg{opacity:0.03;}.gh{opacity:0.03;}.gi{opacity:0.11;}.gj{opacity:0.05;}.gk{opacity:0.07;}.gl{opacity:0.18;}.gm{opacity:0.05;}.gn{opacity:0.07;}.go{opacity:0.06;}.gp{opacity:0.11;}.gq{opacity:0.26;}.gr{opacity:0.36;}.gs{opacity:0.42;}.gt{opacity:0.44;}.gu{opacity:0.29;}.gv{opacity:0.36;}.gw{opacity:0.47;}.gx{opacity:0.39;}.gy{opacity:0.33;}.gz{opacity:0.43;}.ha{opacity:0.35;}.hb{opacity:0.28;}.hc{opacity:0.44;}.hd{opacity:0.41;}.he{opacity:0.48;}.hf{opacity:0.37;}.hg{opacity:0.27;}.hh{opacity:0.28;}.hi{opacity:0.26;}.hj{opacity:0.33;}.hk{opacity:0.27;}.hl{opacity:0.29;}.hm{opacity:0.41;}.hn{opacity:0.26;}.ho{opacity:0.47;}.hp{opacity:0.47;}.hq{opacity:0.42;}.hr{opacity:0.43;}.hs{opacity:0.41;}.ht{opacity:0.42;}.hu{opacity:0.38;}.hv{opacity:0.29;}.hw{opacity:0.45;}.hx{opacity:0.26;}.hy{opacity:0.26;}.hz{opacity:0.46;}.ia{opacity:0.43;}.ib{opacity:0.06;}.ic{opacity:0.39;}.id{opacity:0.45;}.ie{opacity:0.1;}.if{opacity:0.49;}.ig{opacity:0.48;}.ih{opacity:0.26;}.ii{opacity:0.4;}.ij{opacity:0.02;}.ik{opacity:0.16;}.il{opacity:0.22;}.im{opacity:0.48;}.in{opacity:0.03;}.io{opacity:0.07;}.ip{opacity:0.37;}.iq{opacity:0.25;}.ir{opacity:0.18;}.is{opacity:0.12;}.it{opacity:0.34;}.iu{opacity:0.44;}.iv{opacity:0.31;}.iw{opacity:0.04;}.ix{opacity:0.44;}.iy{opacity:0.41;}.iz{opacity:0.37;}.ja{opacity:0.4;}.jb{opacity:0.38;}.jc{opacity:0.38;}.jd{opacity:0.45;}.je{opacity:0.48;}.jf{opacity:0.35;}.jg{opacity:0.3;}.jh{opacity:0.11;}.ji{opacity:0.19;}.jj{opacity:0.18;}.jk{opacity:0.02;}.jl{opacity:0.17;}.jm{opacity:0.21;}.jn{opacity:0.03;}.jo{opacity:0.14;}.jp{opacity:0.08;}.jq{opacity:0.05;}.jr{opacity:0.07;}.js{opacity:0.2;}.jt{opacity:0.11;}.ju{opacity:0.08;}.jv{opacity:0.11;}.jw{opacity:0.23;}.jx{opacity:0.17;}.jy{opacity:0.23;}.jz{opacity:0.07;}.ka{opacity:0.16;}.kb{opacity:0.03;}.kc{opacity:0.2;}.kd{opacity:0.08;}.ke{opacity:0.2;}.kf{opacity:0.18;}.kg{opacity:0.04;}.kh{opacity:0.15;}.ki{opacity:0.05;}.kj{opacity:0.11;}.kk{opacity:0.24;}.kl{opacity:0.25;}.km{opacity:0.15;}.kn{opacity:0.16;}.ko{opacity:0.13;}.kp{opacity:0.06;}.kq{opacity:0.18;}.kr{opacity:0.21;}.ks{opacity:0.15;}.kt{opacity:0.22;}.ku{opacity:0.2;}.kv{opacity:0.25;}.kw{opacity:0.15;}.kx{opacity:0.24;}.ky{opacity:0.18;}.kz{opacity:0.06;}.la{opacity:0.18;}.lb{opacity:0.1;}.lc{opacity:0.13;}.ld{opacity:0.02;}.le{opacity:0.25;}.lf{opacity:0.14;}.lg{opacity:0.24;}.lh{opacity:0.09;}.li{opacity:0.13;}.lj{opacity:0.01;}.lk{opacity:0.47;}.ll{opacity:0.45;}.lm{opacity:0.32;}.ln{opacity:0.5;}.lo{opacity:0.43;}.lp{opacity:0.38;}.lq{opacity:0.29;}.lr{opacity:0.47;}.ls{opacity:0.38;}.lt{opacity:0.26;}.lu{opacity:0.38;}.lv{opacity:0.38;}.lw{opacity:0.4;}.lx{opacity:0.45;}.ly{opacity:0.28;}.lz{opacity:0.39;}.ma{opacity:0.38;}.mb{opacity:0.38;}.mc{opacity:0.38;}.md{opacity:0.36;}.me{opacity:0.44;}.mf{opacity:0.48;}.mg{opacity:0.31;}.mh{opacity:0.46;}.mi{opacity:0.29;}.mj{opacity:0.29;}.mk{opacity:0.31;}.ml{opacity:0.35;}.mm{opacity:0.27;}.mn{opacity:0.4;}.mo{opacity:0.3;}.mp{opacity:0.37;}.mq{opacity:0.43;}.mr{opacity:0.27;}.ms{opacity:0.49;}.mt{opacity:0.47;}.mu{opacity:0.45;}.mv{opacity:0.47;}.mw{opacity:0.46;}.mx{opacity:0.36;}.my{opacity:0.04;}.mz{opacity:0.45;}.na{opacity:0.31;}.nb{opacity:0.33;}.nc{opacity:0.29;}.nd{opacity:0.05;}.ne{opacity:0.05;}.nf{opacity:0.23;}.ng{opacity:0.1;}.nh{opacity:0.16;}.ni{opacity:0.13;}.nj{opacity:0.37;}.nk{opacity:0.13;}.nl{opacity:0.04;}.nm{opacity:0.13;}.nn{opacity:0.35;}.no{opacity:0.07;}.np{opacity:0.12;}.nq{opacity:0.4;}.nr{opacity:0.19;}.ns{opacity:0.04;}.nt{opacity:0.16;}.nu{opacity:0.18;}.nv{opacity:0.1;}.nw{opacity:0.1;}.nx{opacity:0.23;}.ny{opacity:0.22;}.nz{opacity:0.06;}.oa{opacity:0.07;}.ob{opacity:0.49;}.oc{opacity:0.38;}.od{opacity:0.45;}.oe{opacity:0.42;}.of{opacity:0.41;}.og{opacity:0.3;}.oh{opacity:0.45;}.oi{opacity:0.32;}.oj{opacity:0.4;}.ok{opacity:0.49;}.ol{opacity:0.33;}.om{opacity:0.22;}.on{opacity:0.41;}.oo{opacity:0.36;}.op{opacity:0.29;}.oq{opacity:0.45;}.or{opacity:0.15;}.os{opacity:0.2;}.ot{opacity:0.17;}.ou{opacity:0.19;}.ov{opacity:0.14;}.ow{opacity:0.18;}.ox{opacity:0.31;}.oy{opacity:0.18;}.oz{opacity:0.15;}.pa{opacity:0.1;}.pb{opacity:0.49;}.pc{opacity:0.04;}.pd{opacity:0.04;}.pe{opacity:0.07;}.pf{opacity:0.07;}.pg{opacity:0.07;}.ph{opacity:0.1;}.pi{opacity:0.28;}.pj{opacity:0.15;}.pk{opacity:0.21;}.pl{opacity:0.08;}.pm{opacity:0.5;}.pn{opacity:0.11;}.po{opacity:0.06;}.pp{opacity:0.22;}.pq{opacity:0.06;}.pr{opacity:0.12;}.ps{opacity:0.15;}.pt{opacity:0.48;}.pu{opacity:0.03;}.pv{opacity:0.22;}.pw{opacity:0.19;}.px{opacity:0.42;}.py{opacity:0.2;}.pz{opacity:0.18;}.qa{opacity:0.02;}.qb{opacity:0.04;}.qc{opacity:0.22;}.qd{opacity:0.19;}.qe{opacity:0.42;}.qf{opacity:0.25;}.qg{opacity:0.01;}.qh{opacity:0.38;}.qi{opacity:0.34;}.qj{opacity:0.37;}.qk{opacity:0.49;}.ql{opacity:0.4;}.qm{opacity:0.23;}.qn{opacity:0.3;}.qo{opacity:0.4;}.qp{opacity:0.28;}.qq{opacity:0.12;}.qr{opacity:0.38;}.qs{opacity:0.46;}.qt{opacity:0.29;}.qu{opacity:0.43;}.qv{opacity:0.43;}.qw{opacity:0.47;}.qx{opacity:0.16;}.qy{opacity:0.5;}.qz{opacity:0.36;}.ra{opacity:0.41;}.rb{opacity:0.21;}.rc{opacity:0.44;}.rd{opacity:0.27;}.re{opacity:0.5;}.rf{opacity:0.27;}.rg{opacity:0.29;}.rh{opacity:0.38;}.ri{opacity:0.12;}.rj{opacity:0.29;}.rk{opacity:0.41;}.rl{opacity:0.27;}.rm{opacity:0.17;}.rn{opacity:0.31;}.ro{opacity:0.36;}.rp{opacity:0.44;}.rq{opacity:0.5;}.rr{opacity:0.26;}.rs{opacity:0.46;}.rt{opacity:0.4;}.ru{opacity:0.44;}.rv{opacity:0.46;}.rw{opacity:0.47;}.rx{opacity:0.15;}.ry{opacity:0.2;}.rz{opacity:0.21;}.sa{opacity:0.23;}.sb{opacity:0.16;}.sc{opacity:0.13;}.sd{opacity:0.05;}.se{opacity:0.05;}.sf{opacity:0.07;}.sg{opacity:0.18;}.sh{opacity:0.05;}.si{opacity:0.04;}.sj{opacity:0.02;}.sk{opacity:0.05;}.sl{opacity:0.07;}.sm{opacity:0.15;}.sn{opacity:0.15;}.so{opacity:0.07;}.sp{opacity:0.07;}.sq{opacity:0.09;}.sr{opacity:0.21;}.ss{opacity:0.19;}.st{opacity:0.05;}.su{opacity:0.22;}.sv{opacity:0.28;}.sw{opacity:0.46;}.sx{opacity:0.27;}.sy{opacity:0.43;}.sz{opacity:0.38;}.ta{opacity:0.17;}.tb{opacity:0.11;}.tc{opacity:0.19;}.td{opacity:0.26;}.te{opacity:0.03;}.tf{opacity:0.16;}.tg{opacity:0.14;}.th{opacity:0.11;}.ti{opacity:0.25;}.tj{opacity:0.14;}.tk{opacity:0.33;}.tl{opacity:0.11;}.tm{opacity:0.17;}.tn{opacity:0.2;}.to{opacity:0.34;}.tp{opacity:0.08;}.tq{opacity:0.03;}.tr{opacity:0.07;}.ts{opacity:0.1;}.tt{opacity:0.24;}.tu{opacity:0.15;}.tv{opacity:0.28;}.tw{opacity:0.14;}.tx{opacity:0.07;}.ty{opacity:0.08;}.tz{opacity:0.48;}.ua{opacity:0.03;}.ub{opacity:0.07;}.uc{opacity:0.01;}.ud{opacity:0.18;}.ue{opacity:0.17;}.uf{opacity:0.04;}.ug{opacity:0.34;}.uh{opacity:0.22;}.ui{opacity:0.01;}.uj{opacity:0.1;}.uk{opacity:0.14;}.ul{opacity:0.22;}.um{opacity:0.19;}.un{opacity:0.25;}.uo{opacity:0.23;}.up{opacity:0.14;}.uq{opacity:0.18;}.ur{opacity:0.45;}.us{opacity:0.21;}.ut{opacity:0.17;}.uu{opacity:0.03;}.uv{opacity:0.15;}.uw{opacity:0.2;}.ux{opacity:0.08;}.uy{opacity:0.07;}.uz{opacity:0.22;}.va{opacity:0.11;}.vb{opacity:0.02;}.vc{opacity:0.03;}.vd{opacity:0.09;}.ve{opacity:0.21;}.vf{opacity:0.16;}.vg{opacity:0.38;}.vh{opacity:0.31;}.vi{opacity:0.37;}.vj{opacity:0.3;}.vk{opacity:0.26;}.vl{opacity:0.27;}.vm{opacity:0.49;}.vn{opacity:0.44;}.vo{opacity:0.42;}.vp{opacity:0.34;}.vq{opacity:0.4;}.vr{opacity:0.4;}.vs{opacity:0.48;}.vt{opacity:0.29;}.vu{opacity:0.26;}.vv{opacity:0.28;}.vw{opacity:0.44;}.vx{opacity:0.44;}.vy{opacity:0.29;}.vz{opacity:0.36;}.wa{opacity:0.5;}.wb{opacity:0.08;}.wc{opacity:0.35;}.wd{opacity:0.42;}.we{opacity:0.26;}.wf{opacity:0.48;}.wg{opacity:0.42;}.wh{opacity:0.31;}.wi{opacity:0.44;}.wj{opacity:0.49;}.wk{opacity:0.26;}.wl{opacity:0.28;}.wm{opacity:0.06;}.wn{opacity:0.5;}.wo{opacity:0.3;}.wp{opacity:0.5;}.wq{opacity:0.29;}.wr{opacity:0.36;}.ws{opacity:0.46;}.wt{opacity:0.4;}.wu{opacity:0.4;}.wv{opacity:0.26;}.ww{opacity:0.38;}.wx{opacity:0.18;}.wy{opacity:0.38;}.wz{opacity:0.34;}.xa{opacity:0.46;}.xb{opacity:0.41;}.xc{opacity:0.27;}.xd{opacity:0.49;}.xe{opacity:0.35;}.xf{opacity:0.33;}.xg{opacity:0.44;}.xh{opacity:0.5;}.xi{opacity:0.04;}.xj{opacity:0.38;}.xk{opacity:0.27;}.xl{opacity:0.46;}.xm{opacity:0.4;}.xn{opacity:0.34;}.xo{opacity:0.26;}.xp{opacity:0.26;}.xq{opacity:0.31;}.xr{opacity:0.42;}.xs{opacity:0.36;}.xt{opacity:0.25;}.xu{opacity:0.28;}.xv{opacity:0.48;}.xw{opacity:0.31;}.xx{opacity:0.19;}.xy{opacity:0.15;}.xz{opacity:0.07;}.ya{opacity:0.34;}.yb{opacity:0.36;}.yc{opacity:0.42;}.yd{opacity:0.3;}.ye{opacity:0.48;}.yf{opacity:0.39;}.yg{opacity:0.37;}.yh{opacity:0.33;}.yi{opacity:0.41;}.yj{opacity:0.34;}.yk{opacity:0.22;}.yl{opacity:0.49;}.ym{opacity:0.41;}.yn{opacity:0.43;}.yo{opacity:0.48;}.yp{opacity:0.31;}.yq{opacity:0.32;}.yr{opacity:0.4;}.ys{opacity:0.5;}.yt{opacity:0.5;}.yu{opacity:0.35;}.yv{opacity:0.13;}.yw{opacity:0.44;}.yx{opacity:0.5;}.yy{opacity:0.43;}.yz{opacity:0.49;}.za{opacity:0.39;}.zb{opacity:0.3;}.zc{opacity:0.46;}.zd{opacity:0.29;}.ze{opacity:0.5;}.zf{opacity:0.28;}.zg{opacity:0.1;}.zh{opacity:0.48;}.zi{opacity:0.42;}.zj{opacity:0.3;}.zk{opacity:0.12;}.zl{opacity:0.31;}.zm{opacity:0.49;}.zn{opacity:0.48;}.zo{opacity:0.46;}.zp{opacity:0.35;}.zq{opacity:0.39;}.zr{opacity:0.17;}.zs{opacity:0.41;}.zt{opacity:0.41;}.zu{opacity:0.42;}.zv{opacity:0.06;}.zw{opacity:0.43;}.zx{opacity:0.4;}.zy{opacity:0.37;}.zz{opacity:0.37;}.aaa{opacity:0.28;}.aab{opacity:0.34;}.aac{opacity:0.23;}.aad{opacity:0.43;}.aae{opacity:0.5;}.aaf{opacity:0.44;}.aag{opacity:0.17;}.aah{opacity:0.46;}.aai{opacity:0.32;}.aaj{opacity:0.36;}.aak{opacity:0.15;}.aal{opacity:0.11;}.aam{opacity:0.39;}.aan{opacity:0.13;}.aao{opacity:0.09;}.aap{opacity:0.23;}.aaq{opacity:0.11;}.aar{opacity:0.01;}.aas{opacity:0.22;}.aat{opacity:0.24;}.aau{opacity:0.05;}.aav{opacity:0.24;}.aaw{opacity:0.22;}.aax{opacity:0.4;}.aay{opacity:0.2;}.aaz{opacity:0.22;}.aba{opacity:0.2;}.abb{opacity:0.06;}.abc{opacity:0.1;}.abd{opacity:0.09;}.abe{opacity:0.23;}.abf{opacity:0.06;}.abg{opacity:0.21;}.abh{opacity:0.19;}.abi{opacity:0.28;}.abj{opacity:0.09;}.abk{opacity:0.17;}.abl{opacity:0.18;}.abm{opacity:0.01;}.abn{opacity:0.08;}.abo{opacity:0.19;}.abp{opacity:0.13;}.abq{opacity:0.09;}.abr{opacity:0.12;}.abs{opacity:0.14;}.abt{opacity:0.37;}.abu{opacity:0.04;}.abv{opacity:0.25;}.abw{opacity:0.19;}.abx{opacity:0.03;}.aby{opacity:0.17;}.abz{opacity:0.2;}.aca{opacity:0.12;}.acb{opacity:0.24;}.acc{opacity:0.02;}.acd{opacity:0.16;}.ace{opacity:0.49;}.acf{opacity:0.15;}.acg{opacity:0.1;}.ach{opacity:0.25;}.aci{opacity:0.04;}.acj{opacity:0.05;}.ack{opacity:0.24;}.acl{opacity:0.2;}.acm{opacity:0.17;}.acn{opacity:0.12;}.aco{opacity:0.03;}.acp{opacity:0.44;}.acq{opacity:0.25;}.acr{opacity:0.01;}.acs{opacity:0.24;}.act{opacity:0.28;}.acu{opacity:0.1;}.acv{opacity:0.16;}.acw{opacity:0.04;}.acx{opacity:0.44;}.acy{opacity:0.03;}</style></defs><title>hexagon</title><g class="a"><g class="b"><polygon class="c" points="1952 0 1952 20 1980 37 2000 25 2000 0 1952 0"/><polygon class="d" points="1980 70 2000 82 2000 25 1980 37 1980 70"/><polygon class="e" points="1952 87 1952 120 1980 137 2000 125 2000 82 1980 70 1952 87"/><polygon class="f" points="1896 87 1896 120 1924 137 1952 120 1952 87 1924 70 1896 87"/><polygon class="g" points="1924 70 1952 87 1980 70 1980 37 1952 20 1924 37 1924 70"/><polygon class="h" points="1841 87 1841 120 1869 137 1896 120 1896 87 1869 70 1841 87"/><polygon class="i" points="1896 87 1924 70 1924 37 1896 20 1869 37 1869 70 1896 87"/><polygon class="j" points="1924 37 1952 20 1952 0 1896 0 1896 20 1924 37"/><polygon class="k" points="1869 37 1896 20 1896 0 1841 0 1841 20 1869 37"/><polygon class="l" points="1980 170 2000 182 2000 125 1980 137 1980 170"/><polygon class="m" points="1952 187 1952 220 1980 237 2000 224 2000 182 1980 170 1952 187"/><polygon class="n" points="1896 187 1896 220 1924 237 1952 220 1952 187 1924 170 1896 187"/><polygon class="o" points="1924 170 1952 187 1980 170 1980 137 1952 120 1924 137 1924 170"/><polygon class="p" points="1841 187 1841 220 1869 237 1896 220 1896 187 1869 170 1841 187"/><polygon class="q" points="1869 170 1896 187 1924 170 1924 137 1896 120 1869 137 1869 170"/><polygon class="r" points="1980 270 2000 282 2000 224 1980 237 1980 270"/><polygon class="s" points="1952 287 1952 320 1980 336 2000 324 2000 282 1980 270 1952 287"/><polygon class="t" points="1896 287 1896 320 1924 336 1952 320 1952 287 1924 270 1896 287"/><polygon class="u" points="1924 270 1952 287 1980 270 1980 237 1952 220 1924 237 1924 270"/><polygon class="v" points="1841 287 1841 320 1869 336 1896 320 1896 287 1869 270 1841 287"/><polygon class="w" points="1869 270 1896 287 1924 270 1924 237 1896 220 1869 237 1869 270"/><polygon class="x" points="1980 370 2000 382 2000 324 1980 336 1980 370"/><polygon class="y" points="1952 386 1952 420 1980 436 2000 424 2000 382 1980 370 1952 386"/><polygon class="z" points="1896 386 1896 420 1924 436 1952 420 1952 386 1924 370 1896 386"/><polygon class="aa" points="1924 370 1952 386 1980 370 1980 336 1952 320 1924 336 1924 370"/><polygon class="ab" points="1841 386 1841 420 1869 436 1896 420 1896 386 1869 370 1841 386"/><polygon class="ac" points="1869 370 1896 386 1924 370 1924 336 1896 320 1869 336 1869 370"/><polygon class="ad" points="1980 470 2000 482 2000 424 1980 436 1980 470"/><polygon class="ae" points="1952 486 1952 520 1980 536 2000 524 2000 482 1980 470 1952 486"/><polygon class="af" points="1896 486 1896 520 1924 536 1952 520 1952 486 1924 470 1896 486"/><polygon class="ag" points="1924 470 1952 486 1980 470 1980 436 1952 420 1924 436 1924 470"/><polygon class="ah" points="1841 486 1841 520 1869 536 1896 520 1896 486 1869 470 1841 486"/><polygon class="ai" points="1869 470 1896 486 1924 470 1924 436 1896 420 1869 436 1869 470"/><polygon class="aj" points="1980 570 2000 582 2000 524 1980 536 1980 570"/><polygon class="ak" points="1952 586 1952 619 1980 636 2000 624 2000 582 1980 570 1952 586"/><polygon class="al" points="1896 586 1896 619 1924 636 1952 619 1952 586 1924 570 1896 586"/><polygon class="am" points="1924 570 1952 586 1980 570 1980 536 1952 520 1924 536 1924 570"/><polygon class="an" points="1841 586 1841 619 1869 636 1896 619 1896 586 1869 570 1841 586"/><polygon class="ao" points="1869 570 1896 586 1924 570 1924 536 1896 520 1869 536 1869 570"/><polygon class="ap" points="1980 669 2000 682 2000 624 1980 636 1980 669"/><polygon class="aq" points="1952 686 1952 719 1980 736 2000 724 2000 682 1980 669 1952 686"/><polygon class="ar" points="1896 686 1896 719 1924 736 1952 719 1952 686 1924 669 1896 686"/><polygon class="as" points="1924 669 1952 686 1980 669 1980 636 1952 619 1924 636 1924 669"/><polygon class="at" points="1841 686 1841 719 1869 736 1896 719 1896 686 1869 669 1841 686"/><polygon class="au" points="1869 669 1896 686 1924 669 1924 636 1896 619 1869 636 1869 669"/><polygon class="av" points="1980 769 2000 781 2000 724 1980 736 1980 769"/><polygon class="aw" points="1952 786 1952 819 1980 836 2000 824 2000 781 1980 769 1952 786"/><polygon class="ax" points="1896 786 1896 819 1924 836 1952 819 1952 786 1924 769 1896 786"/><polygon class="ay" points="1924 769 1952 786 1980 769 1980 736 1952 719 1924 736 1924 769"/><polygon class="az" points="1841 786 1841 819 1869 836 1896 819 1896 786 1869 769 1841 786"/><polygon class="ba" points="1869 769 1896 786 1924 769 1924 736 1896 719 1869 736 1869 769"/><polygon class="bb" points="1980 869 2000 881 2000 824 1980 836 1980 869"/><polygon class="bc" points="1952 886 1952 919 1980 936 2000 923 2000 881 1980 869 1952 886"/><polygon class="bd" points="1896 886 1896 919 1924 936 1952 919 1952 886 1924 869 1896 886"/><polygon class="be" points="1924 869 1952 886 1980 869 1980 836 1952 819 1924 836 1924 869"/><polygon class="bf" points="1841 886 1841 919 1869 936 1896 919 1896 886 1869 869 1841 886"/><polygon class="bg" points="1869 869 1896 886 1924 869 1924 836 1896 819 1869 836 1869 869"/><polygon class="bh" points="1980 969 2000 981 2000 923 1980 936 1980 969"/><polygon class="bi" points="1952 986 1952 1019 1980 1035 2000 1023 2000 981 1980 969 1952 986"/><polygon class="bj" points="1896 986 1896 1019 1924 1035 1952 1019 1952 986 1924 969 1896 986"/><polygon class="bk" points="1924 969 1952 986 1980 969 1980 936 1952 919 1924 936 1924 969"/><polygon class="bl" points="1841 986 1841 1019 1869 1035 1896 1019 1896 986 1869 969 1841 986"/><polygon class="bm" points="1869 969 1896 986 1924 969 1924 936 1896 919 1869 936 1869 969"/><polygon class="bn" points="1813 37 1833 25 1841 20 1841 0 1785 0 1785 20 1813 37"/><polygon class="bo" points="1833 82 1841 87 1869 70 1869 37 1841 20 1833 25 1813 37 1813 70 1833 82"/><polygon class="bp" points="1785 87 1813 70 1813 37 1785 20 1757 37 1757 70 1785 87"/><polygon class="bq" points="1730 87 1757 70 1757 37 1730 20 1702 37 1702 70 1730 87"/><polygon class="br" points="1757 37 1785 20 1785 0 1730 0 1730 20 1757 37"/><polygon class="bs" points="1702 37 1730 20 1730 0 1674 0 1674 20 1702 37"/><polygon class="bt" points="1813 137 1833 125 1841 120 1841 87 1833 82 1813 70 1785 87 1785 120 1813 137"/><polygon class="bu" points="1813 137 1813 170 1833 182 1841 187 1869 170 1869 137 1841 120 1833 125 1813 137"/><polygon class="bv" points="1813 170 1785 187 1785 220 1813 237 1833 224 1841 220 1841 187 1833 182 1813 170"/><polygon class="bw" points="1730 187 1730 220 1757 237 1785 220 1785 187 1757 170 1730 187"/><polygon class="bx" points="1785 187 1813 170 1813 137 1785 120 1757 137 1757 170 1785 187"/><polygon class="by" points="1730 187 1757 170 1757 137 1730 120 1702 137 1702 170 1730 187"/><polygon class="bz" points="1757 137 1785 120 1785 87 1757 70 1730 87 1730 120 1757 137"/><polygon class="ca" points="1702 137 1730 120 1730 87 1702 70 1674 87 1674 120 1702 137"/><polygon class="cb" points="1813 237 1813 270 1833 282 1841 287 1869 270 1869 237 1841 220 1833 224 1813 237"/><polygon class="cc" points="1813 270 1785 287 1785 320 1813 336 1833 324 1841 320 1841 287 1833 282 1813 270"/><polygon class="cd" points="1730 287 1730 320 1757 336 1785 320 1785 287 1757 270 1730 287"/><polygon class="ce" points="1757 270 1785 287 1813 270 1813 237 1785 220 1757 237 1757 270"/><polygon class="cf" points="1674 287 1674 320 1702 336 1730 320 1730 287 1702 270 1674 287"/><polygon class="cg" points="1702 270 1730 287 1757 270 1757 237 1730 220 1702 237 1702 270"/><polygon class="ch" points="1702 237 1730 220 1730 187 1702 170 1674 187 1674 220 1702 237"/><polygon class="ci" points="1813 336 1813 370 1833 382 1841 386 1869 370 1869 336 1841 320 1833 324 1813 336"/><polygon class="cj" points="1813 370 1785 386 1785 420 1813 436 1833 424 1841 420 1841 386 1833 382 1813 370"/><polygon class="ck" points="1730 386 1730 420 1757 436 1785 420 1785 386 1757 370 1730 386"/><polygon class="cl" points="1757 370 1785 386 1813 370 1813 336 1785 320 1757 336 1757 370"/><polygon class="cm" points="1674 386 1674 420 1702 436 1730 420 1730 386 1702 370 1674 386"/><polygon class="cn" points="1702 370 1730 386 1757 370 1757 336 1730 320 1702 336 1702 370"/><polygon class="co" points="1813 436 1813 470 1833 482 1841 486 1869 470 1869 436 1841 420 1833 424 1813 436"/><polygon class="cp" points="1813 470 1785 486 1785 520 1813 536 1833 524 1841 520 1841 486 1833 482 1813 470"/><polygon class="cq" points="1730 486 1730 520 1757 536 1785 520 1785 486 1757 470 1730 486"/><polygon class="cr" points="1757 470 1785 486 1813 470 1813 436 1785 420 1757 436 1757 470"/><polygon class="cs" points="1674 486 1674 520 1702 536 1730 520 1730 486 1702 470 1674 486"/><polygon class="ct" points="1702 470 1730 486 1757 470 1757 436 1730 420 1702 436 1702 470"/><polygon class="cu" points="1813 536 1813 570 1833 582 1841 586 1869 570 1869 536 1841 520 1833 524 1813 536"/><polygon class="cv" points="1813 570 1785 586 1785 619 1813 636 1833 624 1841 619 1841 586 1833 582 1813 570"/><polygon class="cw" points="1730 586 1730 619 1757 636 1785 619 1785 586 1757 570 1730 586"/><polygon class="cx" points="1757 570 1785 586 1813 570 1813 536 1785 520 1757 536 1757 570"/><polygon class="cy" points="1674 586 1674 619 1702 636 1730 619 1730 586 1702 570 1674 586"/><polygon class="cz" points="1702 570 1730 586 1757 570 1757 536 1730 520 1702 536 1702 570"/><polygon class="da" points="1813 636 1813 669 1833 682 1841 686 1869 669 1869 636 1841 619 1833 624 1813 636"/><polygon class="db" points="1813 669 1785 686 1785 719 1813 736 1833 724 1841 719 1841 686 1833 682 1813 669"/><polygon class="dc" points="1730 686 1730 719 1757 736 1785 719 1785 686 1757 669 1730 686"/><polygon class="dd" points="1757 669 1785 686 1813 669 1813 636 1785 619 1757 636 1757 669"/><polygon class="de" points="1674 686 1674 719 1702 736 1730 719 1730 686 1702 669 1674 686"/><polygon class="df" points="1702 669 1730 686 1757 669 1757 636 1730 619 1702 636 1702 669"/><polygon class="dg" points="1813 736 1813 769 1833 781 1841 786 1869 769 1869 736 1841 719 1833 724 1813 736"/><polygon class="dh" points="1813 769 1785 786 1785 819 1813 836 1833 824 1841 819 1841 786 1833 781 1813 769"/><polygon class="di" points="1730 786 1730 819 1757 836 1785 819 1785 786 1757 769 1730 786"/><polygon class="dj" points="1757 769 1785 786 1813 769 1813 736 1785 719 1757 736 1757 769"/><polygon class="dk" points="1674 786 1674 819 1702 836 1730 819 1730 786 1702 769 1674 786"/><polygon class="dl" points="1702 769 1730 786 1757 769 1757 736 1730 719 1702 736 1702 769"/><polygon class="dm" points="1813 836 1813 869 1833 881 1841 886 1869 869 1869 836 1841 819 1833 824 1813 836"/><polygon class="dn" points="1813 869 1785 886 1785 919 1813 936 1833 923 1841 919 1841 886 1833 881 1813 869"/><polygon class="do" points="1730 886 1730 919 1757 936 1785 919 1785 886 1757 869 1730 886"/><polygon class="dp" points="1757 869 1785 886 1813 869 1813 836 1785 819 1757 836 1757 869"/><polygon class="dq" points="1674 886 1674 919 1702 936 1730 919 1730 886 1702 869 1674 886"/><polygon class="dr" points="1702 869 1730 886 1757 869 1757 836 1730 819 1702 836 1702 869"/><polygon class="ds" points="1813 936 1813 969 1833 981 1841 986 1869 969 1869 936 1841 919 1833 923 1813 936"/><polygon class="dt" points="1813 969 1785 986 1785 1019 1813 1035 1833 1023 1841 1019 1841 986 1833 981 1813 969"/><polygon class="du" points="1730 986 1730 1019 1757 1035 1785 1019 1785 986 1757 969 1730 986"/><polygon class="dv" points="1757 969 1785 986 1813 969 1813 936 1785 919 1757 936 1757 969"/><polygon class="dw" points="1674 986 1674 1019 1702 1035 1730 1019 1730 986 1702 969 1674 986"/><polygon class="dx" points="1702 969 1730 986 1757 969 1757 936 1730 919 1702 936 1702 969"/><polygon class="dy" points="1646 37 1667 25 1674 20 1674 0 1619 0 1619 20 1646 37"/><polygon class="dz" points="1667 82 1674 87 1702 70 1702 37 1674 20 1667 25 1646 37 1646 70 1667 82"/><polygon class="ea" points="1619 87 1646 70 1646 37 1619 20 1591 37 1591 70 1619 87"/><polygon class="eb" points="1563 87 1591 70 1591 37 1563 20 1535 37 1535 70 1563 87"/><polygon class="ec" points="1591 37 1619 20 1619 0 1563 0 1563 20 1591 37"/><polygon class="ed" points="1535 37 1563 20 1563 0 1507 0 1507 20 1535 37"/><polygon class="ee" points="1646 137 1667 125 1674 120 1674 87 1667 82 1646 70 1619 87 1619 120 1646 137"/><polygon class="ef" points="1667 182 1674 187 1702 170 1702 137 1674 120 1667 125 1646 137 1646 170 1667 182"/><polygon class="eg" points="1619 187 1646 170 1646 137 1619 120 1591 137 1591 170 1619 187"/><polygon class="eh" points="1563 187 1591 170 1591 137 1563 120 1535 137 1535 170 1563 187"/><polygon class="ei" points="1591 137 1619 120 1619 87 1591 70 1563 87 1563 120 1591 137"/><polygon class="ej" points="1535 137 1563 120 1563 87 1535 70 1507 87 1507 120 1535 137"/><polygon class="ek" points="1646 237 1667 224 1674 220 1674 187 1667 182 1646 170 1619 187 1619 220 1646 237"/><polygon class="el" points="1667 282 1674 287 1702 270 1702 237 1674 220 1667 224 1646 237 1646 270 1667 282"/><polygon class="em" points="1646 270 1619 287 1619 320 1646 336 1667 324 1674 320 1674 287 1667 282 1646 270"/><polygon class="en" points="1619 287 1646 270 1646 237 1619 220 1591 237 1591 270 1619 287"/><polygon class="eo" points="1563 287 1591 270 1591 237 1563 220 1535 237 1535 270 1563 287"/><polygon class="ep" points="1591 237 1619 220 1619 187 1591 170 1563 187 1563 220 1591 237"/><polygon class="eq" points="1535 237 1563 220 1563 187 1535 170 1507 187 1507 220 1535 237"/><polygon class="er" points="1646 336 1646 370 1667 382 1674 386 1702 370 1702 336 1674 320 1667 324 1646 336"/><polygon class="es" points="1646 370 1619 386 1619 420 1646 436 1667 424 1674 420 1674 386 1667 382 1646 370"/><polygon class="et" points="1563 386 1563 420 1591 436 1619 420 1619 386 1591 370 1563 386"/><polygon class="eu" points="1591 370 1619 386 1646 370 1646 336 1619 320 1591 336 1591 370"/><polygon class="ev" points="1507 386 1507 420 1535 436 1563 420 1563 386 1535 370 1507 386"/><polygon class="ew" points="1563 386 1591 370 1591 336 1563 320 1535 336 1535 370 1563 386"/><polygon class="ex" points="1591 336 1619 320 1619 287 1591 270 1563 287 1563 320 1591 336"/><polygon class="ey" points="1535 336 1563 320 1563 287 1535 270 1507 287 1507 320 1535 336"/><polygon class="ez" points="1646 436 1646 470 1667 482 1674 486 1702 470 1702 436 1674 420 1667 424 1646 436"/><polygon class="fa" points="1646 470 1619 486 1619 520 1646 536 1667 524 1674 520 1674 486 1667 482 1646 470"/><polygon class="fb" points="1563 486 1563 520 1591 536 1619 520 1619 486 1591 470 1563 486"/><polygon class="fc" points="1591 470 1619 486 1646 470 1646 436 1619 420 1591 436 1591 470"/><polygon class="fd" points="1507 486 1507 520 1535 536 1563 520 1563 486 1535 470 1507 486"/><polygon class="fe" points="1535 470 1563 486 1591 470 1591 436 1563 420 1535 436 1535 470"/><polygon class="ff" points="1646 536 1646 570 1667 582 1674 586 1702 570 1702 536 1674 520 1667 524 1646 536"/><polygon class="fg" points="1646 570 1619 586 1619 619 1646 636 1667 624 1674 619 1674 586 1667 582 1646 570"/><polygon class="fh" points="1563 586 1563 619 1591 636 1619 619 1619 586 1591 570 1563 586"/><polygon class="fi" points="1591 570 1619 586 1646 570 1646 536 1619 520 1591 536 1591 570"/><polygon class="fj" points="1507 586 1507 619 1535 636 1563 619 1563 586 1535 570 1507 586"/><polygon class="fk" points="1535 570 1563 586 1591 570 1591 536 1563 520 1535 536 1535 570"/><polygon class="fl" points="1646 636 1646 669 1667 682 1674 686 1702 669 1702 636 1674 619 1667 624 1646 636"/><polygon class="fm" points="1646 669 1619 686 1619 719 1646 736 1667 724 1674 719 1674 686 1667 682 1646 669"/><polygon class="fn" points="1563 686 1563 719 1591 736 1619 719 1619 686 1591 669 1563 686"/><polygon class="fo" points="1591 669 1619 686 1646 669 1646 636 1619 619 1591 636 1591 669"/><polygon class="fp" points="1507 686 1507 719 1535 736 1563 719 1563 686 1535 669 1507 686"/><polygon class="fq" points="1535 669 1563 686 1591 669 1591 636 1563 619 1535 636 1535 669"/><polygon class="fr" points="1646 736 1646 769 1667 781 1674 786 1702 769 1702 736 1674 719 1667 724 1646 736"/><polygon class="fs" points="1646 769 1619 786 1619 819 1646 836 1667 824 1674 819 1674 786 1667 781 1646 769"/><polygon class="ft" points="1563 786 1563 819 1591 836 1619 819 1619 786 1591 769 1563 786"/><polygon class="fu" points="1591 769 1619 786 1646 769 1646 736 1619 719 1591 736 1591 769"/><polygon class="fv" points="1507 786 1507 819 1535 836 1563 819 1563 786 1535 769 1507 786"/><polygon class="fw" points="1535 769 1563 786 1591 769 1591 736 1563 719 1535 736 1535 769"/><polygon class="fx" points="1646 836 1646 869 1667 881 1674 886 1702 869 1702 836 1674 819 1667 824 1646 836"/><polygon class="fy" points="1646 869 1619 886 1619 919 1646 936 1667 923 1674 919 1674 886 1667 881 1646 869"/><polygon class="fz" points="1563 886 1563 919 1591 936 1619 919 1619 886 1591 869 1563 886"/><polygon class="ga" points="1591 869 1619 886 1646 869 1646 836 1619 819 1591 836 1591 869"/><polygon class="gb" points="1507 886 1507 919 1535 936 1563 919 1563 886 1535 869 1507 886"/><polygon class="gc" points="1535 869 1563 886 1591 869 1591 836 1563 819 1535 836 1535 869"/><polygon class="gd" points="1646 936 1646 969 1667 981 1674 986 1702 969 1702 936 1674 919 1667 923 1646 936"/><polygon class="ge" points="1646 969 1619 986 1619 1019 1646 1035 1667 1023 1674 1019 1674 986 1667 981 1646 969"/><polygon class="gf" points="1563 986 1563 1019 1591 1035 1619 1019 1619 986 1591 969 1563 986"/><polygon class="gg" points="1591 969 1619 986 1646 969 1646 936 1619 919 1591 936 1591 969"/><polygon class="gh" points="1507 986 1507 1019 1535 1035 1563 1019 1563 986 1535 969 1507 986"/><polygon class="gi" points="1535 969 1563 986 1591 969 1591 936 1563 919 1535 936 1535 969"/><polygon class="gj" points="1480 37 1500 25 1507 20 1507 0 1452 0 1452 20 1480 37"/><polygon class="gk" points="1500 82 1507 87 1535 70 1535 37 1507 20 1500 25 1480 37 1480 70 1500 82"/><polygon class="gl" points="1452 87 1480 70 1480 37 1452 20 1424 37 1424 70 1452 87"/><polygon class="gm" points="1396 87 1424 70 1424 37 1396 20 1369 37 1369 70 1396 87"/><polygon class="gn" points="1424 37 1452 20 1452 0 1396 0 1396 20 1424 37"/><polygon class="go" points="1369 37 1396 20 1396 0 1341 0 1341 20 1369 37"/><polygon class="gp" points="1480 137 1500 125 1507 120 1507 87 1500 82 1480 70 1452 87 1452 120 1480 137"/><polygon class="gq" points="1500 182 1507 187 1535 170 1535 137 1507 120 1500 125 1480 137 1480 170 1500 182"/><polygon class="gr" points="1452 187 1480 170 1480 137 1452 120 1424 137 1424 170 1452 187"/><polygon class="gs" points="1396 187 1424 170 1424 137 1396 120 1369 137 1369 170 1396 187"/><polygon class="gt" points="1424 137 1452 120 1452 87 1424 70 1396 87 1396 120 1424 137"/><polygon class="gu" points="1369 137 1396 120 1396 87 1369 70 1341 87 1341 120 1369 137"/><polygon class="gv" points="1480 237 1500 224 1507 220 1507 187 1500 182 1480 170 1452 187 1452 220 1480 237"/><polygon class="gw" points="1500 282 1507 287 1535 270 1535 237 1507 220 1500 224 1480 237 1480 270 1500 282"/><polygon class="gx" points="1452 287 1480 270 1480 237 1452 220 1424 237 1424 270 1452 287"/><polygon class="gy" points="1396 287 1424 270 1424 237 1396 220 1369 237 1369 270 1396 287"/><polygon class="gz" points="1424 237 1452 220 1452 187 1424 170 1396 187 1396 220 1424 237"/><polygon class="ha" points="1369 237 1396 220 1396 187 1369 170 1341 187 1341 220 1369 237"/><polygon class="hb" points="1480 336 1500 324 1507 320 1507 287 1500 282 1480 270 1452 287 1452 320 1480 336"/><polygon class="hc" points="1500 382 1507 386 1535 370 1535 336 1507 320 1500 324 1480 336 1480 370 1500 382"/><polygon class="hd" points="1452 386 1480 370 1480 336 1452 320 1424 336 1424 370 1452 386"/><polygon class="he" points="1396 386 1424 370 1424 336 1396 320 1369 336 1369 370 1396 386"/><polygon class="hf" points="1424 336 1452 320 1452 287 1424 270 1396 287 1396 320 1424 336"/><polygon class="hg" points="1369 336 1396 320 1396 287 1369 270 1341 287 1341 320 1369 336"/><polygon class="hh" points="1480 436 1500 424 1507 420 1507 386 1500 382 1480 370 1452 386 1452 420 1480 436"/><polygon class="hi" points="1480 436 1480 470 1500 482 1507 486 1535 470 1535 436 1507 420 1500 424 1480 436"/><polygon class="hj" points="1480 470 1452 486 1452 520 1480 536 1500 524 1507 520 1507 486 1500 482 1480 470"/><polygon class="hk" points="1396 486 1396 520 1424 536 1452 520 1452 486 1424 470 1396 486"/><polygon class="hl" points="1452 486 1480 470 1480 436 1452 420 1424 436 1424 470 1452 486"/><polygon class="hm" points="1396 486 1424 470 1424 436 1396 420 1369 436 1369 470 1396 486"/><polygon class="hn" points="1424 436 1452 420 1452 386 1424 370 1396 386 1396 420 1424 436"/><polygon class="ho" points="1369 436 1396 420 1396 386 1369 370 1341 386 1341 420 1369 436"/><polygon class="hp" points="1480 536 1480 570 1500 582 1507 586 1535 570 1535 536 1507 520 1500 524 1480 536"/><polygon class="hq" points="1480 570 1452 586 1452 619 1480 636 1500 624 1507 619 1507 586 1500 582 1480 570"/><polygon class="hr" points="1396 586 1396 619 1424 636 1452 619 1452 586 1424 570 1396 586"/><polygon class="hs" points="1424 570 1452 586 1480 570 1480 536 1452 520 1424 536 1424 570"/><polygon class="ht" points="1341 586 1341 619 1369 636 1396 619 1396 586 1369 570 1341 586"/><polygon class="hu" points="1369 570 1396 586 1424 570 1424 536 1396 520 1369 536 1369 570"/><polygon class="hv" points="1369 536 1396 520 1396 486 1369 470 1341 486 1341 520 1369 536"/><polygon class="hw" points="1480 636 1480 669 1500 682 1507 686 1535 669 1535 636 1507 619 1500 624 1480 636"/><polygon class="hx" points="1480 669 1452 686 1452 719 1480 736 1500 724 1507 719 1507 686 1500 682 1480 669"/><polygon class="hy" points="1396 686 1396 719 1424 736 1452 719 1452 686 1424 669 1396 686"/><polygon class="hz" points="1424 669 1452 686 1480 669 1480 636 1452 619 1424 636 1424 669"/><polygon class="ia" points="1341 686 1341 719 1369 736 1396 719 1396 686 1369 669 1341 686"/><polygon class="ib" points="1369 669 1396 686 1424 669 1424 636 1396 619 1369 636 1369 669"/><polygon class="ic" points="1480 736 1480 769 1500 781 1507 786 1535 769 1535 736 1507 719 1500 724 1480 736"/><polygon class="id" points="1480 769 1452 786 1452 819 1480 836 1500 824 1507 819 1507 786 1500 781 1480 769"/><polygon class="ie" points="1396 786 1396 819 1424 836 1452 819 1452 786 1424 769 1396 786"/><polygon class="if" points="1424 769 1452 786 1480 769 1480 736 1452 719 1424 736 1424 769"/><polygon class="ig" points="1341 786 1341 819 1369 836 1396 819 1396 786 1369 769 1341 786"/><polygon class="ih" points="1369 769 1396 786 1424 769 1424 736 1396 719 1369 736 1369 769"/><polygon class="ii" points="1480 836 1480 869 1500 881 1507 886 1535 869 1535 836 1507 819 1500 824 1480 836"/><polygon class="ij" points="1480 869 1452 886 1452 919 1480 936 1500 923 1507 919 1507 886 1500 881 1480 869"/><polygon class="ik" points="1396 886 1396 919 1424 936 1452 919 1452 886 1424 869 1396 886"/><polygon class="il" points="1424 869 1452 886 1480 869 1480 836 1452 819 1424 836 1424 869"/><polygon class="im" points="1341 886 1341 919 1369 936 1396 919 1396 886 1369 869 1341 886"/><polygon class="in" points="1369 869 1396 886 1424 869 1424 836 1396 819 1369 836 1369 869"/><polygon class="io" points="1480 936 1480 969 1500 981 1507 986 1535 969 1535 936 1507 919 1500 923 1480 936"/><polygon class="ip" points="1480 969 1452 986 1452 1019 1480 1035 1500 1023 1507 1019 1507 986 1500 981 1480 969"/><polygon class="iq" points="1396 986 1396 1019 1424 1035 1452 1019 1452 986 1424 969 1396 986"/><polygon class="ir" points="1424 969 1452 986 1480 969 1480 936 1452 919 1424 936 1424 969"/><polygon class="is" points="1341 986 1341 1019 1369 1035 1396 1019 1396 986 1369 969 1341 986"/><polygon class="it" points="1369 969 1396 986 1424 969 1424 936 1396 919 1369 936 1369 969"/><polygon class="iu" points="1313 37 1333 25 1341 20 1341 0 1285 0 1285 20 1313 37"/><polygon class="iv" points="1333 82 1341 87 1369 70 1369 37 1341 20 1333 25 1313 37 1313 70 1333 82"/><polygon class="iw" points="1285 87 1313 70 1313 37 1285 20 1257 37 1257 70 1285 87"/><polygon class="ix" points="1230 87 1257 70 1257 37 1230 20 1202 37 1202 70 1230 87"/><polygon class="iy" points="1257 37 1285 20 1285 0 1230 0 1230 20 1257 37"/><polygon class="iz" points="1202 37 1230 20 1230 0 1174 0 1174 20 1202 37"/><polygon class="ja" points="1313 137 1333 125 1341 120 1341 87 1333 82 1313 70 1285 87 1285 120 1313 137"/><polygon class="jb" points="1333 182 1341 187 1369 170 1369 137 1341 120 1333 125 1313 137 1313 170 1333 182"/><polygon class="jc" points="1285 187 1313 170 1313 137 1285 120 1257 137 1257 170 1285 187"/><polygon class="jd" points="1230 187 1257 170 1257 137 1230 120 1202 137 1202 170 1230 187"/><polygon class="je" points="1257 137 1285 120 1285 87 1257 70 1230 87 1230 120 1257 137"/><polygon class="jf" points="1202 137 1230 120 1230 87 1202 70 1174 87 1174 120 1202 137"/><polygon class="jg" points="1313 237 1333 224 1341 220 1341 187 1333 182 1313 170 1285 187 1285 220 1313 237"/><polygon class="jh" points="1333 282 1341 287 1369 270 1369 237 1341 220 1333 224 1313 237 1313 270 1333 282"/><polygon class="ji" points="1285 287 1313 270 1313 237 1285 220 1257 237 1257 270 1285 287"/><polygon class="jj" points="1230 287 1257 270 1257 237 1230 220 1202 237 1202 270 1230 287"/><polygon class="jk" points="1257 237 1285 220 1285 187 1257 170 1230 187 1230 220 1257 237"/><polygon class="jl" points="1202 237 1230 220 1230 187 1202 170 1174 187 1174 220 1202 237"/><polygon class="jm" points="1313 336 1333 324 1341 320 1341 287 1333 282 1313 270 1285 287 1285 320 1313 336"/><polygon class="jn" points="1333 382 1341 386 1369 370 1369 336 1341 320 1333 324 1313 336 1313 370 1333 382"/><polygon class="jo" points="1285 386 1313 370 1313 336 1285 320 1257 336 1257 370 1285 386"/><polygon class="jp" points="1230 386 1257 370 1257 336 1230 320 1202 336 1202 370 1230 386"/><polygon class="jq" points="1257 336 1285 320 1285 287 1257 270 1230 287 1230 320 1257 336"/><polygon class="jr" points="1202 336 1230 320 1230 287 1202 270 1174 287 1174 320 1202 336"/><polygon class="js" points="1313 436 1333 424 1341 420 1341 386 1333 382 1313 370 1285 386 1285 420 1313 436"/><polygon class="jt" points="1333 482 1341 486 1369 470 1369 436 1341 420 1333 424 1313 436 1313 470 1333 482"/><polygon class="ju" points="1285 486 1313 470 1313 436 1285 420 1257 436 1257 470 1285 486"/><polygon class="jv" points="1230 486 1257 470 1257 436 1230 420 1202 436 1202 470 1230 486"/><polygon class="jw" points="1257 436 1285 420 1285 386 1257 370 1230 386 1230 420 1257 436"/><polygon class="jx" points="1202 436 1230 420 1230 386 1202 370 1174 386 1174 420 1202 436"/><polygon class="jy" points="1313 536 1333 524 1341 520 1341 486 1333 482 1313 470 1285 486 1285 520 1313 536"/><polygon class="jz" points="1333 582 1341 586 1369 570 1369 536 1341 520 1333 524 1313 536 1313 570 1333 582"/><polygon class="ka" points="1313 570 1285 586 1285 619 1313 636 1333 624 1341 619 1341 586 1333 582 1313 570"/><polygon class="kb" points="1285 586 1313 570 1313 536 1285 520 1257 536 1257 570 1285 586"/><polygon class="kc" points="1230 586 1257 570 1257 536 1230 520 1202 536 1202 570 1230 586"/><polygon class="kd" points="1257 536 1285 520 1285 486 1257 470 1230 486 1230 520 1257 536"/><polygon class="ke" points="1202 536 1230 520 1230 486 1202 470 1174 486 1174 520 1202 536"/><polygon class="kf" points="1313 636 1313 669 1333 682 1341 686 1369 669 1369 636 1341 619 1333 624 1313 636"/><polygon class="kg" points="1313 669 1285 686 1285 719 1313 736 1333 724 1341 719 1341 686 1333 682 1313 669"/><polygon class="kh" points="1230 686 1230 719 1257 736 1285 719 1285 686 1257 669 1230 686"/><polygon class="ki" points="1257 669 1285 686 1313 669 1313 636 1285 619 1257 636 1257 669"/><polygon class="kj" points="1174 686 1174 719 1202 736 1230 719 1230 686 1202 669 1174 686"/><polygon class="kk" points="1230 686 1257 669 1257 636 1230 619 1202 636 1202 669 1230 686"/><polygon class="kl" points="1257 636 1285 619 1285 586 1257 570 1230 586 1230 619 1257 636"/><polygon class="km" points="1202 636 1230 619 1230 586 1202 570 1174 586 1174 619 1202 636"/><polygon class="kn" points="1313 736 1313 769 1333 781 1341 786 1369 769 1369 736 1341 719 1333 724 1313 736"/><polygon class="ko" points="1313 769 1285 786 1285 819 1313 836 1333 824 1341 819 1341 786 1333 781 1313 769"/><polygon class="kp" points="1230 786 1230 819 1257 836 1285 819 1285 786 1257 769 1230 786"/><polygon class="kq" points="1257 769 1285 786 1313 769 1313 736 1285 719 1257 736 1257 769"/><polygon class="kr" points="1174 786 1174 819 1202 836 1230 819 1230 786 1202 769 1174 786"/><polygon class="ks" points="1202 769 1230 786 1257 769 1257 736 1230 719 1202 736 1202 769"/><polygon class="kt" points="1313 836 1313 869 1333 881 1341 886 1369 869 1369 836 1341 819 1333 824 1313 836"/><polygon class="ku" points="1313 869 1285 886 1285 919 1313 936 1333 923 1341 919 1341 886 1333 881 1313 869"/><polygon class="kv" points="1230 886 1230 919 1257 936 1285 919 1285 886 1257 869 1230 886"/><polygon class="kw" points="1257 869 1285 886 1313 869 1313 836 1285 819 1257 836 1257 869"/><polygon class="kx" points="1174 886 1174 919 1202 936 1230 919 1230 886 1202 869 1174 886"/><polygon class="ky" points="1202 869 1230 886 1257 869 1257 836 1230 819 1202 836 1202 869"/><polygon class="kz" points="1313 936 1313 969 1333 981 1341 986 1369 969 1369 936 1341 919 1333 923 1313 936"/><polygon class="la" points="1313 969 1285 986 1285 1019 1313 1035 1333 1023 1341 1019 1341 986 1333 981 1313 969"/><polygon class="lb" points="1230 986 1230 1019 1257 1035 1285 1019 1285 986 1257 969 1230 986"/><polygon class="lc" points="1257 969 1285 986 1313 969 1313 936 1285 919 1257 936 1257 969"/><polygon class="ld" points="1174 986 1174 1019 1202 1035 1230 1019 1230 986 1202 969 1174 986"/><polygon class="le" points="1202 969 1230 986 1257 969 1257 936 1230 919 1202 936 1202 969"/><polygon class="lf" points="1146 37 1167 25 1174 20 1174 0 1119 0 1119 20 1146 37"/><polygon class="lg" points="1167 82 1174 87 1202 70 1202 37 1174 20 1167 25 1146 37 1146 70 1167 82"/><polygon class="lh" points="1119 87 1146 70 1146 37 1119 20 1091 37 1091 70 1119 87"/><polygon class="li" points="1063 87 1091 70 1091 37 1063 20 1035 37 1035 70 1063 87"/><polygon class="lj" points="1091 37 1119 20 1119 0 1063 0 1063 20 1091 37"/><polygon class="lk" points="1035 37 1063 20 1063 0 1007 0 1007 20 1035 37"/><polygon class="ll" points="1146 137 1167 125 1174 120 1174 87 1167 82 1146 70 1119 87 1119 120 1146 137"/><polygon class="lm" points="1167 182 1174 187 1202 170 1202 137 1174 120 1167 125 1146 137 1146 170 1167 182"/><polygon class="ln" points="1119 187 1146 170 1146 137 1119 120 1091 137 1091 170 1119 187"/><polygon class="lo" points="1063 187 1091 170 1091 137 1063 120 1035 137 1035 170 1063 187"/><polygon class="lp" points="1091 137 1119 120 1119 87 1091 70 1063 87 1063 120 1091 137"/><polygon class="lq" points="1035 137 1063 120 1063 87 1035 70 1007 87 1007 120 1035 137"/><polygon class="lr" points="1146 237 1167 224 1174 220 1174 187 1167 182 1146 170 1119 187 1119 220 1146 237"/><polygon class="ls" points="1167 282 1174 287 1202 270 1202 237 1174 220 1167 224 1146 237 1146 270 1167 282"/><polygon class="lt" points="1119 287 1146 270 1146 237 1119 220 1091 237 1091 270 1119 287"/><polygon class="lu" points="1063 287 1091 270 1091 237 1063 220 1035 237 1035 270 1063 287"/><polygon class="lv" points="1091 237 1119 220 1119 187 1091 170 1063 187 1063 220 1091 237"/><polygon class="lw" points="1035 237 1063 220 1063 187 1035 170 1007 187 1007 220 1035 237"/><polygon class="lx" points="1146 336 1167 324 1174 320 1174 287 1167 282 1146 270 1119 287 1119 320 1146 336"/><polygon class="ly" points="1167 382 1174 386 1202 370 1202 336 1174 320 1167 324 1146 336 1146 370 1167 382"/><polygon class="lz" points="1119 386 1146 370 1146 336 1119 320 1091 336 1091 370 1119 386"/><polygon class="ma" points="1063 386 1091 370 1091 336 1063 320 1035 336 1035 370 1063 386"/><polygon class="mb" points="1091 336 1119 320 1119 287 1091 270 1063 287 1063 320 1091 336"/><polygon class="mc" points="1035 336 1063 320 1063 287 1035 270 1007 287 1007 320 1035 336"/><polygon class="md" points="1146 436 1167 424 1174 420 1174 386 1167 382 1146 370 1119 386 1119 420 1146 436"/><polygon class="me" points="1167 482 1174 486 1202 470 1202 436 1174 420 1167 424 1146 436 1146 470 1167 482"/><polygon class="mf" points="1119 486 1146 470 1146 436 1119 420 1091 436 1091 470 1119 486"/><polygon class="mg" points="1063 486 1091 470 1091 436 1063 420 1035 436 1035 470 1063 486"/><polygon class="mh" points="1091 436 1119 420 1119 386 1091 370 1063 386 1063 420 1091 436"/><polygon class="mi" points="1035 436 1063 420 1063 386 1035 370 1007 386 1007 420 1035 436"/><polygon class="mj" points="1146 536 1167 524 1174 520 1174 486 1167 482 1146 470 1119 486 1119 520 1146 536"/><polygon class="mk" points="1167 582 1174 586 1202 570 1202 536 1174 520 1167 524 1146 536 1146 570 1167 582"/><polygon class="ml" points="1119 586 1146 570 1146 536 1119 520 1091 536 1091 570 1119 586"/><polygon class="mm" points="1063 586 1091 570 1091 536 1063 520 1035 536 1035 570 1063 586"/><polygon class="mn" points="1091 536 1119 520 1119 486 1091 470 1063 486 1063 520 1091 536"/><polygon class="mo" points="1035 536 1063 520 1063 486 1035 470 1007 486 1007 520 1035 536"/><polygon class="mp" points="1146 636 1167 624 1174 619 1174 586 1167 582 1146 570 1119 586 1119 619 1146 636"/><polygon class="mq" points="1167 682 1174 686 1202 669 1202 636 1174 619 1167 624 1146 636 1146 669 1167 682"/><polygon class="mr" points="1119 686 1146 669 1146 636 1119 619 1091 636 1091 669 1119 686"/><polygon class="ms" points="1063 686 1091 669 1091 636 1063 619 1035 636 1035 669 1063 686"/><polygon class="mt" points="1091 636 1119 619 1119 586 1091 570 1063 586 1063 619 1091 636"/><polygon class="mu" points="1035 636 1063 619 1063 586 1035 570 1007 586 1007 619 1035 636"/><polygon class="mv" points="1146 736 1167 724 1174 719 1174 686 1167 682 1146 669 1119 686 1119 719 1146 736"/><polygon class="mw" points="1146 736 1146 769 1167 781 1174 786 1202 769 1202 736 1174 719 1167 724 1146 736"/><polygon class="mx" points="1146 769 1119 786 1119 819 1146 836 1167 824 1174 819 1174 786 1167 781 1146 769"/><polygon class="my" points="1063 786 1063 819 1091 836 1119 819 1119 786 1091 769 1063 786"/><polygon class="mz" points="1119 786 1146 769 1146 736 1119 719 1091 736 1091 769 1119 786"/><polygon class="na" points="1063 786 1091 769 1091 736 1063 719 1035 736 1035 769 1063 786"/><polygon class="nb" points="1091 736 1119 719 1119 686 1091 669 1063 686 1063 719 1091 736"/><polygon class="nc" points="1035 736 1063 719 1063 686 1035 669 1007 686 1007 719 1035 736"/><polygon class="nd" points="1146 836 1146 869 1167 881 1174 886 1202 869 1202 836 1174 819 1167 824 1146 836"/><polygon class="ne" points="1146 869 1119 886 1119 919 1146 936 1167 923 1174 919 1174 886 1167 881 1146 869"/><polygon class="nf" points="1063 886 1063 919 1091 936 1119 919 1119 886 1091 869 1063 886"/><polygon class="ng" points="1091 869 1119 886 1146 869 1146 836 1119 819 1091 836 1091 869"/><polygon class="nh" points="1007 886 1007 919 1035 936 1063 919 1063 886 1035 869 1007 886"/><polygon class="ni" points="1035 869 1063 886 1091 869 1091 836 1063 819 1035 836 1035 869"/><polygon class="nj" points="1035 836 1063 819 1063 786 1035 769 1007 786 1007 819 1035 836"/><polygon class="nk" points="1146 936 1146 969 1167 981 1174 986 1202 969 1202 936 1174 919 1167 923 1146 936"/><polygon class="nl" points="1146 969 1119 986 1119 1019 1146 1035 1167 1023 1174 1019 1174 986 1167 981 1146 969"/><polygon class="nm" points="1063 986 1063 1019 1091 1035 1119 1019 1119 986 1091 969 1063 986"/><polygon class="nn" points="1091 969 1119 986 1146 969 1146 936 1119 919 1091 936 1091 969"/><polygon class="no" points="1007 986 1007 1019 1035 1035 1063 1019 1063 986 1035 969 1007 986"/><polygon class="np" points="1035 969 1063 986 1091 969 1091 936 1063 919 1035 936 1035 969"/><polygon class="nq" points="980 37 1000 25 1007 20 1007 0 952 0 952 20 980 37"/><polygon class="nr" points="1000 82 1007 87 1035 70 1035 37 1007 20 1000 25 980 37 980 70 1000 82"/><polygon class="ns" points="952 87 980 70 980 37 952 20 924 37 924 70 952 87"/><polygon class="nt" points="896 87 924 70 924 37 896 20 869 37 869 70 896 87"/><polygon class="nu" points="924 37 952 20 952 0 896 0 896 20 924 37"/><polygon class="nv" points="869 37 896 20 896 0 841 0 841 20 869 37"/><polygon class="nw" points="980 137 1000 125 1007 120 1007 87 1000 82 980 70 952 87 952 120 980 137"/><polygon class="nx" points="1000 182 1007 187 1035 170 1035 137 1007 120 1000 125 980 137 980 170 1000 182"/><polygon class="ny" points="952 187 980 170 980 137 952 120 924 137 924 170 952 187"/><polygon class="nz" points="896 187 924 170 924 137 896 120 869 137 869 170 896 187"/><polygon class="oa" points="924 137 952 120 952 87 924 70 896 87 896 120 924 137"/><polygon class="ob" points="869 137 896 120 896 87 869 70 841 87 841 120 869 137"/><polygon class="oc" points="980 237 1000 224 1007 220 1007 187 1000 182 980 170 952 187 952 220 980 237"/><polygon class="od" points="1000 282 1007 287 1035 270 1035 237 1007 220 1000 224 980 237 980 270 1000 282"/><polygon class="oe" points="952 287 980 270 980 237 952 220 924 237 924 270 952 287"/><polygon class="of" points="896 287 924 270 924 237 896 220 869 237 869 270 896 287"/><polygon class="og" points="924 237 952 220 952 187 924 170 896 187 896 220 924 237"/><polygon class="oh" points="869 237 896 220 896 187 869 170 841 187 841 220 869 237"/><polygon class="oi" points="980 336 1000 324 1007 320 1007 287 1000 282 980 270 952 287 952 320 980 336"/><polygon class="oj" points="1000 382 1007 386 1035 370 1035 336 1007 320 1000 324 980 336 980 370 1000 382"/><polygon class="ok" points="952 386 980 370 980 336 952 320 924 336 924 370 952 386"/><polygon class="ol" points="896 386 924 370 924 336 896 320 869 336 869 370 896 386"/><polygon class="om" points="924 336 952 320 952 287 924 270 896 287 896 320 924 336"/><polygon class="on" points="869 336 896 320 896 287 869 270 841 287 841 320 869 336"/><polygon class="oo" points="980 436 1000 424 1007 420 1007 386 1000 382 980 370 952 386 952 420 980 436"/><polygon class="op" points="1000 482 1007 486 1035 470 1035 436 1007 420 1000 424 980 436 980 470 1000 482"/><polygon class="oq" points="952 486 980 470 980 436 952 420 924 436 924 470 952 486"/><polygon class="or" points="896 486 924 470 924 436 896 420 869 436 869 470 896 486"/><polygon class="os" points="924 436 952 420 952 386 924 370 896 386 896 420 924 436"/><polygon class="ot" points="869 436 896 420 896 386 869 370 841 386 841 420 869 436"/><polygon class="ou" points="980 536 1000 524 1007 520 1007 486 1000 482 980 470 952 486 952 520 980 536"/><polygon class="ov" points="1000 582 1007 586 1035 570 1035 536 1007 520 1000 524 980 536 980 570 1000 582"/><polygon class="ow" points="952 586 980 570 980 536 952 520 924 536 924 570 952 586"/><polygon class="ox" points="896 586 924 570 924 536 896 520 869 536 869 570 896 586"/><polygon class="oy" points="924 536 952 520 952 486 924 470 896 486 896 520 924 536"/><polygon class="oz" points="869 536 896 520 896 486 869 470 841 486 841 520 869 536"/><polygon class="pa" points="980 636 1000 624 1007 619 1007 586 1000 582 980 570 952 586 952 619 980 636"/><polygon class="pb" points="1000 682 1007 686 1035 669 1035 636 1007 619 1000 624 980 636 980 669 1000 682"/><polygon class="pc" points="952 686 980 669 980 636 952 619 924 636 924 669 952 686"/><polygon class="pd" points="896 686 924 669 924 636 896 619 869 636 869 669 896 686"/><polygon class="pe" points="924 636 952 619 952 586 924 570 896 586 896 619 924 636"/><polygon class="pf" points="869 636 896 619 896 586 869 570 841 586 841 619 869 636"/><polygon class="pg" points="980 736 1000 724 1007 719 1007 686 1000 682 980 669 952 686 952 719 980 736"/><polygon class="ph" points="1000 781 1007 786 1035 769 1035 736 1007 719 1000 724 980 736 980 769 1000 781"/><polygon class="pi" points="952 786 980 769 980 736 952 719 924 736 924 769 952 786"/><polygon class="pj" points="896 786 924 769 924 736 896 719 869 736 869 769 896 786"/><polygon class="pk" points="924 736 952 719 952 686 924 669 896 686 896 719 924 736"/><polygon class="pl" points="841 786 869 769 869 736 841 719 833 724 813 736 813 769 833 781 841 786"/><polygon class="pm" points="869 736 896 719 896 686 869 669 841 686 841 719 869 736"/><polygon class="pn" points="980 836 1000 824 1007 819 1007 786 1000 781 980 769 952 786 952 819 980 836"/><polygon class="po" points="1000 881 1007 886 1035 869 1035 836 1007 819 1000 824 980 836 980 869 1000 881"/><polygon class="pp" points="980 869 952 886 952 919 980 936 1000 923 1007 919 1007 886 1000 881 980 869"/><polygon class="pq" points="980 869 980 836 952 819 924 836 924 869 952 886 980 869"/><polygon class="pr" points="924 869 924 836 896 819 869 836 869 869 896 886 924 869"/><polygon class="ps" points="924 836 952 819 952 786 924 769 896 786 896 819 924 836"/><polygon class="pt" points="841 886 869 869 869 836 841 819 833 824 813 836 813 869 833 881 841 886"/><polygon class="pu" points="896 786 869 769 841 786 841 819 869 836 896 819 896 786"/><polygon class="pv" points="841 819 841 786 833 781 813 769 785 786 785 819 813 836 833 824 841 819"/><polygon class="pw" points="980 936 980 969 1000 981 1007 986 1035 969 1035 936 1007 919 1000 923 980 936"/><polygon class="px" points="980 969 952 986 952 1019 980 1035 1000 1023 1007 1019 1007 986 1000 981 980 969"/><polygon class="py" points="980 969 980 936 952 919 924 936 924 969 952 986 980 969"/><polygon class="pz" points="924 969 924 936 896 919 869 936 869 969 896 986 924 969"/><polygon class="qa" points="952 886 924 869 896 886 896 919 924 936 952 919 952 886"/><polygon class="qb" points="841 986 869 969 869 936 841 919 833 923 813 936 813 969 833 981 841 986"/><polygon class="qc" points="896 886 869 869 841 886 841 919 869 936 896 919 896 886"/><polygon class="qd" points="841 919 841 886 833 881 813 869 785 886 785 919 813 936 833 923 841 919"/><polygon class="qe" points="952 986 924 969 896 986 896 1019 924 1035 952 1019 952 986"/><polygon class="qf" points="896 986 869 969 841 986 841 1019 869 1035 896 1019 896 986"/><polygon class="qg" points="841 1019 841 986 833 981 813 969 785 986 785 1019 813 1035 833 1023 841 1019"/><polygon class="qh" points="813 37 833 25 841 20 841 0 785 0 785 20 813 37"/><polygon class="qi" points="833 82 841 87 869 70 869 37 841 20 833 25 813 37 813 70 833 82"/><polygon class="qj" points="785 87 813 70 813 37 785 20 757 37 757 70 785 87"/><polygon class="qk" points="730 87 757 70 757 37 730 20 702 37 702 70 730 87"/><polygon class="ql" points="757 37 785 20 785 0 730 0 730 20 757 37"/><polygon class="qm" points="702 37 730 20 730 0 674 0 674 20 702 37"/><polygon class="qn" points="813 137 833 125 841 120 841 87 833 82 813 70 785 87 785 120 813 137"/><polygon class="qo" points="833 182 841 187 869 170 869 137 841 120 833 125 813 137 813 170 833 182"/><polygon class="qp" points="785 187 813 170 813 137 785 120 757 137 757 170 785 187"/><polygon class="qq" points="730 187 757 170 757 137 730 120 702 137 702 170 730 187"/><polygon class="qr" points="757 137 785 120 785 87 757 70 730 87 730 120 757 137"/><polygon class="qs" points="702 137 730 120 730 87 702 70 674 87 674 120 702 137"/><polygon class="qt" points="813 237 833 224 841 220 841 187 833 182 813 170 785 187 785 220 813 237"/><polygon class="qu" points="833 282 841 287 869 270 869 237 841 220 833 224 813 237 813 270 833 282"/><polygon class="qv" points="785 287 813 270 813 237 785 220 757 237 757 270 785 287"/><polygon class="qw" points="730 287 757 270 757 237 730 220 702 237 702 270 730 287"/><polygon class="qx" points="757 237 785 220 785 187 757 170 730 187 730 220 757 237"/><polygon class="qy" points="702 237 730 220 730 187 702 170 674 187 674 220 702 237"/><polygon class="qz" points="813 336 833 324 841 320 841 287 833 282 813 270 785 287 785 320 813 336"/><polygon class="ra" points="833 382 841 386 869 370 869 336 841 320 833 324 813 336 813 370 833 382"/><polygon class="rb" points="785 386 813 370 813 336 785 320 757 336 757 370 785 386"/><polygon class="rc" points="730 386 757 370 757 336 730 320 702 336 702 370 730 386"/><polygon class="rd" points="757 336 785 320 785 287 757 270 730 287 730 320 757 336"/><polygon class="re" points="702 336 730 320 730 287 702 270 674 287 674 320 702 336"/><polygon class="rf" points="813 436 833 424 841 420 841 386 833 382 813 370 785 386 785 420 813 436"/><polygon class="rg" points="833 482 841 486 869 470 869 436 841 420 833 424 813 436 813 470 833 482"/><polygon class="rh" points="785 486 813 470 813 436 785 420 757 436 757 470 785 486"/><polygon class="ri" points="730 486 757 470 757 436 730 420 702 436 702 470 730 486"/><polygon class="rj" points="757 436 785 420 785 386 757 370 730 386 730 420 757 436"/><polygon class="rk" points="702 436 730 420 730 386 702 370 674 386 674 420 702 436"/><polygon class="rl" points="813 536 833 524 841 520 841 486 833 482 813 470 785 486 785 520 813 536"/><polygon class="rm" points="833 582 841 586 869 570 869 536 841 520 833 524 813 536 813 570 833 582"/><polygon class="rn" points="785 586 813 570 813 536 785 520 757 536 757 570 785 586"/><polygon class="ro" points="730 586 757 570 757 536 730 520 702 536 702 570 730 586"/><polygon class="rp" points="757 536 785 520 785 486 757 470 730 486 730 520 757 536"/><polygon class="rq" points="702 536 730 520 730 486 702 470 674 486 674 520 702 536"/><polygon class="rr" points="813 636 833 624 841 619 841 586 833 582 813 570 785 586 785 619 813 636"/><polygon class="rs" points="833 682 841 686 869 669 869 636 841 619 833 624 813 636 813 669 833 682"/><polygon class="rt" points="785 686 813 669 813 636 785 619 757 636 757 669 785 686"/><polygon class="ru" points="757 669 757 636 730 619 702 636 702 669 730 686 757 669"/><polygon class="rv" points="757 636 785 619 785 586 757 570 730 586 730 619 757 636"/><polygon class="rw" points="674 686 702 669 702 636 674 619 667 624 646 636 646 669 667 682 674 686"/><polygon class="rx" points="702 636 730 619 730 586 702 570 674 586 674 619 702 636"/><polygon class="ry" points="674 619 674 586 667 582 646 570 619 586 619 619 646 636 667 624 674 619"/><polygon class="rz" points="813 736 833 724 841 719 841 686 833 682 813 669 785 686 785 719 813 736"/><polygon class="sa" points="813 769 813 736 785 719 757 736 757 769 785 786 813 769"/><polygon class="sb" points="757 769 757 736 730 719 702 736 702 769 730 786 757 769"/><polygon class="sc" points="785 686 757 669 730 686 730 719 757 736 785 719 785 686"/><polygon class="sd" points="674 786 702 769 702 736 674 719 667 724 646 736 646 769 667 781 674 786"/><polygon class="se" points="730 686 702 669 674 686 674 719 702 736 730 719 730 686"/><polygon class="sf" points="674 719 674 686 667 682 646 669 619 686 619 719 646 736 667 724 674 719"/><polygon class="sg" points="813 869 813 836 785 819 757 836 757 869 785 886 813 869"/><polygon class="sh" points="757 869 757 836 730 819 702 836 702 869 730 886 757 869"/><polygon class="si" points="785 786 757 769 730 786 730 819 757 836 785 819 785 786"/><polygon class="sj" points="674 886 702 869 702 836 674 819 667 824 646 836 646 869 667 881 674 886"/><polygon class="sk" points="730 786 702 769 674 786 674 819 702 836 730 819 730 786"/><polygon class="sl" points="674 819 674 786 667 781 646 769 619 786 619 819 646 836 667 824 674 819"/><polygon class="sm" points="813 969 813 936 785 919 757 936 757 969 785 986 813 969"/><polygon class="sn" points="757 969 757 936 730 919 702 936 702 969 730 986 757 969"/><polygon class="so" points="785 886 757 869 730 886 730 919 757 936 785 919 785 886"/><polygon class="sp" points="674 986 702 969 702 936 674 919 667 923 646 936 646 969 667 981 674 986"/><polygon class="sq" points="730 886 702 869 674 886 674 919 702 936 730 919 730 886"/><polygon class="sr" points="674 919 674 886 667 881 646 869 619 886 619 919 646 936 667 923 674 919"/><polygon class="ss" points="785 986 757 969 730 986 730 1019 757 1035 785 1019 785 986"/><polygon class="st" points="730 986 702 969 674 986 674 1019 702 1035 730 1019 730 986"/><polygon class="su" points="674 1019 674 986 667 981 646 969 619 986 619 1019 646 1035 667 1023 674 1019"/><polygon class="sv" points="646 37 667 25 674 20 674 0 619 0 619 20 646 37"/><polygon class="sw" points="667 82 674 87 702 70 702 37 674 20 667 25 646 37 646 70 667 82"/><polygon class="sx" points="619 87 646 70 646 37 619 20 591 37 591 70 619 87"/><polygon class="sy" points="563 87 591 70 591 37 563 20 535 37 535 70 563 87"/><polygon class="sz" points="591 37 619 20 619 0 563 0 563 20 591 37"/><polygon class="ta" points="535 37 563 20 563 0 507 0 507 20 535 37"/><polygon class="tb" points="646 137 667 125 674 120 674 87 667 82 646 70 619 87 619 120 646 137"/><polygon class="tc" points="667 182 674 187 702 170 702 137 674 120 667 125 646 137 646 170 667 182"/><polygon class="td" points="619 187 646 170 646 137 619 120 591 137 591 170 619 187"/><polygon class="te" points="563 187 591 170 591 137 563 120 535 137 535 170 563 187"/><polygon class="tf" points="591 137 619 120 619 87 591 70 563 87 563 120 591 137"/><polygon class="tg" points="535 137 563 120 563 87 535 70 507 87 507 120 535 137"/><polygon class="th" points="646 237 667 224 674 220 674 187 667 182 646 170 619 187 619 220 646 237"/><polygon class="ti" points="667 282 674 287 702 270 702 237 674 220 667 224 646 237 646 270 667 282"/><polygon class="tj" points="619 287 646 270 646 237 619 220 591 237 591 270 619 287"/><polygon class="tk" points="563 287 591 270 591 237 563 220 535 237 535 270 563 287"/><polygon class="tl" points="591 237 619 220 619 187 591 170 563 187 563 220 591 237"/><polygon class="tm" points="535 237 563 220 563 187 535 170 507 187 507 220 535 237"/><polygon class="tn" points="646 336 667 324 674 320 674 287 667 282 646 270 619 287 619 320 646 336"/><polygon class="to" points="667 382 674 386 702 370 702 336 674 320 667 324 646 336 646 370 667 382"/><polygon class="tp" points="619 386 646 370 646 336 619 320 591 336 591 370 619 386"/><polygon class="tq" points="563 386 591 370 591 336 563 320 535 336 535 370 563 386"/><polygon class="tr" points="591 336 619 320 619 287 591 270 563 287 563 320 591 336"/><polygon class="ts" points="535 336 563 320 563 287 535 270 507 287 507 320 535 336"/><polygon class="tt" points="646 436 667 424 674 420 674 386 667 382 646 370 619 386 619 420 646 436"/><polygon class="tu" points="667 482 674 486 702 470 702 436 674 420 667 424 646 436 646 470 667 482"/><polygon class="tv" points="619 486 646 470 646 436 619 420 591 436 591 470 619 486"/><polygon class="tw" points="563 486 591 470 591 436 563 420 535 436 535 470 563 486"/><polygon class="tx" points="591 436 619 420 619 386 591 370 563 386 563 420 591 436"/><polygon class="ty" points="507 486 535 470 535 436 507 420 500 424 480 436 480 470 500 482 507 486"/><polygon class="tz" points="535 436 563 420 563 386 535 370 507 386 507 420 535 436"/><polygon class="ua" points="646 536 667 524 674 520 674 486 667 482 646 470 619 486 619 520 646 536"/><polygon class="ub" points="667 582 674 586 702 570 702 536 674 520 667 524 646 536 646 570 667 582"/><polygon class="uc" points="646 570 646 536 619 520 591 536 591 570 619 586 646 570"/><polygon class="ud" points="591 570 591 536 563 520 535 536 535 570 563 586 591 570"/><polygon class="ue" points="591 536 619 520 619 486 591 470 563 486 563 520 591 536"/><polygon class="uf" points="507 586 535 570 535 536 507 520 500 524 480 536 480 570 500 582 507 586"/><polygon class="ug" points="563 486 535 470 507 486 507 520 535 536 563 520 563 486"/><polygon class="uh" points="507 520 507 486 500 482 480 470 452 486 452 520 480 536 500 524 507 520"/><polygon class="ui" points="646 669 646 636 619 619 591 636 591 669 619 686 646 669"/><polygon class="uj" points="591 669 591 636 563 619 535 636 535 669 563 686 591 669"/><polygon class="uk" points="619 586 591 570 563 586 563 619 591 636 619 619 619 586"/><polygon class="ul" points="507 686 535 669 535 636 507 619 500 624 480 636 480 669 500 682 507 686"/><polygon class="um" points="563 586 535 570 507 586 507 619 535 636 563 619 563 586"/><polygon class="un" points="507 619 507 586 500 582 480 570 452 586 452 619 480 636 500 624 507 619"/><polygon class="uo" points="646 769 646 736 619 719 591 736 591 769 619 786 646 769"/><polygon class="up" points="591 769 591 736 563 719 535 736 535 769 563 786 591 769"/><polygon class="uq" points="619 686 591 669 563 686 563 719 591 736 619 719 619 686"/><polygon class="ur" points="507 786 535 769 535 736 507 719 500 724 480 736 480 769 500 781 507 786"/><polygon class="us" points="563 686 535 669 507 686 507 719 535 736 563 719 563 686"/><polygon class="ut" points="507 719 507 686 500 682 480 669 452 686 452 719 480 736 500 724 507 719"/><polygon class="uu" points="646 869 646 836 619 819 591 836 591 869 619 886 646 869"/><polygon class="uv" points="591 869 591 836 563 819 535 836 535 869 563 886 591 869"/><polygon class="uw" points="619 786 591 769 563 786 563 819 591 836 619 819 619 786"/><polygon class="ux" points="507 886 535 869 535 836 507 819 500 824 480 836 480 869 500 881 507 886"/><polygon class="uy" points="563 786 535 769 507 786 507 819 535 836 563 819 563 786"/><polygon class="uz" points="507 819 507 786 500 781 480 769 452 786 452 819 480 836 500 824 507 819"/><polygon class="va" points="646 969 646 936 619 919 591 936 591 969 619 986 646 969"/><polygon class="vb" points="591 969 591 936 563 919 535 936 535 969 563 986 591 969"/><polygon class="vc" points="619 886 591 869 563 886 563 919 591 936 619 919 619 886"/><polygon class="vd" points="507 986 535 969 535 936 507 919 500 923 480 936 480 969 500 981 507 986"/><polygon class="ve" points="563 886 535 869 507 886 507 919 535 936 563 919 563 886"/><polygon class="vf" points="507 919 507 886 500 881 480 869 452 886 452 919 480 936 500 923 507 919"/><polygon class="vg" points="619 986 591 969 563 986 563 1019 591 1035 619 1019 619 986"/><polygon class="vh" points="563 986 535 969 507 986 507 1019 535 1035 563 1019 563 986"/><polygon class="vi" points="507 1019 507 986 500 981 480 969 452 986 452 1019 480 1035 500 1023 507 1019"/><polygon class="vj" points="480 37 500 25 507 20 507 0 452 0 452 20 480 37"/><polygon class="vk" points="500 82 507 87 535 70 535 37 507 20 500 25 480 37 480 70 500 82"/><polygon class="vl" points="452 87 480 70 480 37 452 20 424 37 424 70 452 87"/><polygon class="vm" points="396 87 424 70 424 37 396 20 369 37 369 70 396 87"/><polygon class="vn" points="424 37 452 20 452 0 396 0 396 20 424 37"/><polygon class="vo" points="369 37 396 20 396 0 341 0 341 20 369 37"/><polygon class="vp" points="480 137 500 125 507 120 507 87 500 82 480 70 452 87 452 120 480 137"/><polygon class="vq" points="500 182 507 187 535 170 535 137 507 120 500 125 480 137 480 170 500 182"/><polygon class="vr" points="452 187 480 170 480 137 452 120 424 137 424 170 452 187"/><polygon class="vs" points="396 187 424 170 424 137 396 120 369 137 369 170 396 187"/><polygon class="vt" points="424 137 452 120 452 87 424 70 396 87 396 120 424 137"/><polygon class="vu" points="369 137 396 120 396 87 369 70 341 87 341 120 369 137"/><polygon class="vv" points="480 237 500 224 507 220 507 187 500 182 480 170 452 187 452 220 480 237"/><polygon class="vw" points="500 282 507 287 535 270 535 237 507 220 500 224 480 237 480 270 500 282"/><polygon class="vx" points="452 287 480 270 480 237 452 220 424 237 424 270 452 287"/><polygon class="vy" points="396 287 424 270 424 237 396 220 369 237 369 270 396 287"/><polygon class="vz" points="424 237 452 220 452 187 424 170 396 187 396 220 424 237"/><polygon class="wa" points="369 237 396 220 396 187 369 170 341 187 341 220 369 237"/><polygon class="wb" points="480 336 500 324 507 320 507 287 500 282 480 270 452 287 452 320 480 336"/><polygon class="wc" points="500 382 507 386 535 370 535 336 507 320 500 324 480 336 480 370 500 382"/><polygon class="wd" points="452 386 480 370 480 336 452 320 424 336 424 370 452 386"/><polygon class="we" points="424 370 424 336 396 320 369 336 369 370 396 386 424 370"/><polygon class="wf" points="424 336 452 320 452 287 424 270 396 287 396 320 424 336"/><polygon class="wg" points="341 386 369 370 369 336 341 320 333 324 313 336 313 370 333 382 341 386"/><polygon class="wh" points="369 336 396 320 396 287 369 270 341 287 341 320 369 336"/><polygon class="wi" points="341 320 341 287 333 282 313 270 285 287 285 320 313 336 333 324 341 320"/><polygon class="wj" points="480 436 500 424 507 420 507 386 500 382 480 370 452 386 452 420 480 436"/><polygon class="wk" points="480 470 480 436 452 420 424 436 424 470 452 486 480 470"/><polygon class="wl" points="424 470 424 436 396 420 369 436 369 470 396 486 424 470"/><polygon class="wm" points="452 386 424 370 396 386 396 420 424 436 452 420 452 386"/><polygon class="wn" points="341 486 369 470 369 436 341 420 333 424 313 436 313 470 333 482 341 486"/><polygon class="wo" points="396 386 369 370 341 386 341 420 369 436 396 420 396 386"/><polygon class="wp" points="341 420 341 386 333 382 313 370 285 386 285 420 313 436 333 424 341 420"/><polygon class="wq" points="480 570 480 536 452 520 424 536 424 570 452 586 480 570"/><polygon class="wr" points="424 570 424 536 396 520 369 536 369 570 396 586 424 570"/><polygon class="ws" points="452 486 424 470 396 486 396 520 424 536 452 520 452 486"/><polygon class="wt" points="341 586 369 570 369 536 341 520 333 524 313 536 313 570 333 582 341 586"/><polygon class="wu" points="396 486 369 470 341 486 341 520 369 536 396 520 396 486"/><polygon class="wv" points="341 520 341 486 333 482 313 470 285 486 285 520 313 536 333 524 341 520"/><polygon class="ww" points="480 669 480 636 452 619 424 636 424 669 452 686 480 669"/><polygon class="wx" points="424 669 424 636 396 619 369 636 369 669 396 686 424 669"/><polygon class="wy" points="452 586 424 570 396 586 396 619 424 636 452 619 452 586"/><polygon class="wz" points="341 686 369 669 369 636 341 619 333 624 313 636 313 669 333 682 341 686"/><polygon class="xa" points="396 586 369 570 341 586 341 619 369 636 396 619 396 586"/><polygon class="xb" points="341 619 341 586 333 582 313 570 285 586 285 619 313 636 333 624 341 619"/><polygon class="xc" points="480 769 480 736 452 719 424 736 424 769 452 786 480 769"/><polygon class="xd" points="424 769 424 736 396 719 369 736 369 769 396 786 424 769"/><polygon class="xe" points="452 686 424 669 396 686 396 719 424 736 452 719 452 686"/><polygon class="xf" points="341 786 369 769 369 736 341 719 333 724 313 736 313 769 333 781 341 786"/><polygon class="xg" points="396 686 369 669 341 686 341 719 369 736 396 719 396 686"/><polygon class="xh" points="341 719 341 686 333 682 313 669 285 686 285 719 313 736 333 724 341 719"/><polygon class="xi" points="480 869 480 836 452 819 424 836 424 869 452 886 480 869"/><polygon class="xj" points="424 869 424 836 396 819 369 836 369 869 396 886 424 869"/><polygon class="xk" points="452 786 424 769 396 786 396 819 424 836 452 819 452 786"/><polygon class="xl" points="341 886 369 869 369 836 341 819 333 824 313 836 313 869 333 881 341 886"/><polygon class="xm" points="396 786 369 769 341 786 341 819 369 836 396 819 396 786"/><polygon class="xn" points="341 819 341 786 333 781 313 769 285 786 285 819 313 836 333 824 341 819"/><polygon class="xo" points="480 969 480 936 452 919 424 936 424 969 452 986 480 969"/><polygon class="xp" points="424 969 424 936 396 919 369 936 369 969 396 986 424 969"/><polygon class="xq" points="452 886 424 869 396 886 396 919 424 936 452 919 452 886"/><polygon class="xr" points="341 986 369 969 369 936 341 919 333 923 313 936 313 969 333 981 341 986"/><polygon class="xs" points="396 886 369 869 341 886 341 919 369 936 396 919 396 886"/><polygon class="xt" points="341 919 341 886 333 881 313 869 285 886 285 919 313 936 333 923 341 919"/><polygon class="xu" points="452 986 424 969 396 986 396 1019 424 1035 452 1019 452 986"/><polygon class="xv" points="396 986 369 969 341 986 341 1019 369 1035 396 1019 396 986"/><polygon class="xw" points="341 1019 341 986 333 981 313 969 285 986 285 1019 313 1035 333 1023 341 1019"/><polygon class="xx" points="313 37 333 25 341 20 341 0 285 0 285 20 313 37"/><polygon class="xy" points="333 82 341 87 369 70 369 37 341 20 333 25 313 37 313 70 333 82"/><polygon class="xz" points="285 87 313 70 313 37 285 20 257 37 257 70 285 87"/><polygon class="ya" points="230 87 257 70 257 37 230 20 202 37 202 70 230 87"/><polygon class="yb" points="257 37 285 20 285 0 230 0 230 20 257 37"/><polygon class="yc" points="202 37 230 20 230 0 174 0 174 20 202 37"/><polygon class="yd" points="313 137 333 125 341 120 341 87 333 82 313 70 285 87 285 120 313 137"/><polygon class="ye" points="333 182 341 187 369 170 369 137 341 120 333 125 313 137 313 170 333 182"/><polygon class="yf" points="285 187 313 170 313 137 285 120 257 137 257 170 285 187"/><polygon class="yg" points="230 187 257 170 257 137 230 120 202 137 202 170 230 187"/><polygon class="yh" points="257 137 285 120 285 87 257 70 230 87 230 120 257 137"/><polygon class="yi" points="174 187 202 170 202 137 174 120 167 125 146 137 146 170 167 182 174 187"/><polygon class="yj" points="202 137 230 120 230 87 202 70 174 87 174 120 202 137"/><polygon class="yk" points="313 237 333 224 341 220 341 187 333 182 313 170 285 187 285 220 313 237"/><polygon class="yl" points="333 282 341 287 369 270 369 237 341 220 333 224 313 237 313 270 333 282"/><polygon class="ym" points="313 270 313 237 285 220 257 237 257 270 285 287 313 270"/><polygon class="yn" points="257 270 257 237 230 220 202 237 202 270 230 287 257 270"/><polygon class="yo" points="257 237 285 220 285 187 257 170 230 187 230 220 257 237"/><polygon class="yp" points="174 287 202 270 202 237 174 220 167 224 146 237 146 270 167 282 174 287"/><polygon class="yq" points="230 187 202 170 174 187 174 220 202 237 230 220 230 187"/><polygon class="yr" points="174 220 174 187 167 182 146 170 119 187 119 220 146 237 167 224 174 220"/><polygon class="ys" points="313 370 313 336 285 320 257 336 257 370 285 386 313 370"/><polygon class="yt" points="257 370 257 336 230 320 202 336 202 370 230 386 257 370"/><polygon class="yu" points="285 287 257 270 230 287 230 320 257 336 285 320 285 287"/><polygon class="yv" points="174 386 202 370 202 336 174 320 167 324 146 336 146 370 167 382 174 386"/><polygon class="yw" points="230 287 202 270 174 287 174 320 202 336 230 320 230 287"/><polygon class="yx" points="174 320 174 287 167 282 146 270 119 287 119 320 146 336 167 324 174 320"/><polygon class="yy" points="313 470 313 436 285 420 257 436 257 470 285 486 313 470"/><polygon class="yz" points="257 470 257 436 230 420 202 436 202 470 230 486 257 470"/><polygon class="za" points="285 386 257 370 230 386 230 420 257 436 285 420 285 386"/><polygon class="zb" points="174 486 202 470 202 436 174 420 167 424 146 436 146 470 167 482 174 486"/><polygon class="zc" points="230 386 202 370 174 386 174 420 202 436 230 420 230 386"/><polygon class="zd" points="174 420 174 386 167 382 146 370 119 386 119 420 146 436 167 424 174 420"/><polygon class="ze" points="313 570 313 536 285 520 257 536 257 570 285 586 313 570"/><polygon class="zf" points="257 570 257 536 230 520 202 536 202 570 230 586 257 570"/><polygon class="zg" points="285 486 257 470 230 486 230 520 257 536 285 520 285 486"/><polygon class="zh" points="174 586 202 570 202 536 174 520 167 524 146 536 146 570 167 582 174 586"/><polygon class="zi" points="230 486 202 470 174 486 174 520 202 536 230 520 230 486"/><polygon class="zj" points="174 520 174 486 167 482 146 470 119 486 119 520 146 536 167 524 174 520"/><polygon class="zk" points="313 669 313 636 285 619 257 636 257 669 285 686 313 669"/><polygon class="zl" points="257 669 257 636 230 619 202 636 202 669 230 686 257 669"/><polygon class="zm" points="285 586 257 570 230 586 230 619 257 636 285 619 285 586"/><polygon class="zn" points="174 686 202 669 202 636 174 619 167 624 146 636 146 669 167 682 174 686"/><polygon class="zo" points="230 586 202 570 174 586 174 619 202 636 230 619 230 586"/><polygon class="zp" points="174 619 174 586 167 582 146 570 119 586 119 619 146 636 167 624 174 619"/><polygon class="zq" points="313 769 313 736 285 719 257 736 257 769 285 786 313 769"/><polygon class="zr" points="257 769 257 736 230 719 202 736 202 769 230 786 257 769"/><polygon class="zs" points="285 686 257 669 230 686 230 719 257 736 285 719 285 686"/><polygon class="zt" points="174 786 202 769 202 736 174 719 167 724 146 736 146 769 167 781 174 786"/><polygon class="zu" points="230 686 202 669 174 686 174 719 202 736 230 719 230 686"/><polygon class="zv" points="174 719 174 686 167 682 146 669 119 686 119 719 146 736 167 724 174 719"/><polygon class="zw" points="313 869 313 836 285 819 257 836 257 869 285 886 313 869"/><polygon class="zx" points="257 869 257 836 230 819 202 836 202 869 230 886 257 869"/><polygon class="zy" points="285 786 257 769 230 786 230 819 257 836 285 819 285 786"/><polygon class="zz" points="174 886 202 869 202 836 174 819 167 824 146 836 146 869 167 881 174 886"/><polygon class="aaa" points="230 786 202 769 174 786 174 819 202 836 230 819 230 786"/><polygon class="aab" points="174 819 174 786 167 781 146 769 119 786 119 819 146 836 167 824 174 819"/><polygon class="aac" points="313 969 313 936 285 919 257 936 257 969 285 986 313 969"/><polygon class="aad" points="257 969 257 936 230 919 202 936 202 969 230 986 257 969"/><polygon class="aae" points="285 886 257 869 230 886 230 919 257 936 285 919 285 886"/><polygon class="aaf" points="174 986 202 969 202 936 174 919 167 923 146 936 146 969 167 981 174 986"/><polygon class="aag" points="230 886 202 869 174 886 174 919 202 936 230 919 230 886"/><polygon class="aah" points="174 919 174 886 167 881 146 869 119 886 119 919 146 936 167 923 174 919"/><polygon class="aai" points="285 986 257 969 230 986 230 1019 257 1035 285 1019 285 986"/><polygon class="aaj" points="230 986 202 969 174 986 174 1019 202 1035 230 1019 230 986"/><polygon class="aak" points="174 1019 174 986 167 981 146 969 119 986 119 1019 146 1035 167 1023 174 1019"/><polygon class="aal" points="146 37 167 25 174 20 174 0 119 0 119 20 146 37"/><polygon class="aam" points="167 82 174 87 202 70 202 37 174 20 167 25 146 37 146 70 167 82"/><polygon class="aan" points="119 87 146 70 146 37 119 20 91 37 91 70 119 87"/><polygon class="aao" points="91 70 91 37 63 20 35 37 35 70 63 87 91 70"/><polygon class="aap" points="91 37 119 20 119 0 63 0 63 20 91 37"/><polygon class="aaq" points="35 70 35 37 7 20 0 25 0 82 7 87 35 70"/><polygon class="aar" points="35 37 63 20 63 0 7 0 7 20 35 37"/><polygon class="aas" points="7 0 0 0 0 25 7 20 7 0"/><polygon class="aat" points="146 137 167 125 174 120 174 87 167 82 146 70 119 87 119 120 146 137"/><polygon class="aau" points="146 170 146 137 119 120 91 137 91 170 119 187 146 170"/><polygon class="aav" points="91 170 91 137 63 120 35 137 35 170 63 187 91 170"/><polygon class="aaw" points="119 87 91 70 63 87 63 120 91 137 119 120 119 87"/><polygon class="aax" points="35 170 35 137 7 120 0 125 0 182 7 187 35 170"/><polygon class="aay" points="63 87 35 70 7 87 7 120 35 137 63 120 63 87"/><polygon class="aaz" points="7 87 0 82 0 125 7 120 7 87"/><polygon class="aba" points="146 270 146 237 119 220 91 237 91 270 119 287 146 270"/><polygon class="abb" points="91 270 91 237 63 220 35 237 35 270 63 287 91 270"/><polygon class="abc" points="119 187 91 170 63 187 63 220 91 237 119 220 119 187"/><polygon class="abd" points="35 270 35 237 7 220 0 224 0 282 7 287 35 270"/><polygon class="abe" points="63 187 35 170 7 187 7 220 35 237 63 220 63 187"/><polygon class="abf" points="7 187 0 182 0 224 7 220 7 187"/><polygon class="abg" points="146 370 146 336 119 320 91 336 91 370 119 386 146 370"/><polygon class="abh" points="91 370 91 336 63 320 35 336 35 370 63 386 91 370"/><polygon class="abi" points="119 287 91 270 63 287 63 320 91 336 119 320 119 287"/><polygon class="abj" points="35 370 35 336 7 320 0 324 0 382 7 386 35 370"/><polygon class="abk" points="63 287 35 270 7 287 7 320 35 336 63 320 63 287"/><polygon class="abl" points="7 287 0 282 0 324 7 320 7 287"/><polygon class="abm" points="146 470 146 436 119 420 91 436 91 470 119 486 146 470"/><polygon class="abn" points="91 470 91 436 63 420 35 436 35 470 63 486 91 470"/><polygon class="abo" points="119 386 91 370 63 386 63 420 91 436 119 420 119 386"/><polygon class="abp" points="35 470 35 436 7 420 0 424 0 482 7 486 35 470"/><polygon class="abq" points="63 386 35 370 7 386 7 420 35 436 63 420 63 386"/><polygon class="abr" points="7 386 0 382 0 424 7 420 7 386"/><polygon class="abs" points="146 570 146 536 119 520 91 536 91 570 119 586 146 570"/><polygon class="abt" points="91 570 91 536 63 520 35 536 35 570 63 586 91 570"/><polygon class="abu" points="119 486 91 470 63 486 63 520 91 536 119 520 119 486"/><polygon class="abv" points="35 570 35 536 7 520 0 524 0 582 7 586 35 570"/><polygon class="abw" points="63 486 35 470 7 486 7 520 35 536 63 520 63 486"/><polygon class="abx" points="7 486 0 482 0 524 7 520 7 486"/><polygon class="aby" points="146 669 146 636 119 619 91 636 91 669 119 686 146 669"/><polygon class="abz" points="91 669 91 636 63 619 35 636 35 669 63 686 91 669"/><polygon class="aca" points="119 586 91 570 63 586 63 619 91 636 119 619 119 586"/><polygon class="acb" points="35 669 35 636 7 619 0 624 0 682 7 686 35 669"/><polygon class="acc" points="63 586 35 570 7 586 7 619 35 636 63 619 63 586"/><polygon class="acd" points="7 586 0 582 0 624 7 619 7 586"/><polygon class="ace" points="146 769 146 736 119 719 91 736 91 769 119 786 146 769"/><polygon class="acf" points="91 769 91 736 63 719 35 736 35 769 63 786 91 769"/><polygon class="acg" points="119 686 91 669 63 686 63 719 91 736 119 719 119 686"/><polygon class="ach" points="35 769 35 736 7 719 0 724 0 781 7 786 35 769"/><polygon class="aci" points="63 686 35 669 7 686 7 719 35 736 63 719 63 686"/><polygon class="acj" points="7 686 0 682 0 724 7 719 7 686"/><polygon class="ack" points="146 869 146 836 119 819 91 836 91 869 119 886 146 869"/><polygon class="acl" points="91 869 91 836 63 819 35 836 35 869 63 886 91 869"/><polygon class="acm" points="119 786 91 769 63 786 63 819 91 836 119 819 119 786"/><polygon class="acn" points="35 869 35 836 7 819 0 824 0 881 7 886 35 869"/><polygon class="aco" points="63 786 35 769 7 786 7 819 35 836 63 819 63 786"/><polygon class="acp" points="7 786 0 781 0 824 7 819 7 786"/><polygon class="acq" points="146 969 146 936 119 919 91 936 91 969 119 986 146 969"/><polygon class="acr" points="91 969 91 936 63 919 35 936 35 969 63 986 91 969"/><polygon class="acs" points="119 886 91 869 63 886 63 919 91 936 119 919 119 886"/><polygon class="act" points="35 969 35 936 7 919 0 923 0 981 7 986 35 969"/><polygon class="acu" points="63 886 35 869 7 886 7 919 35 936 63 919 63 886"/><polygon class="acv" points="7 886 0 881 0 923 7 919 7 886"/><polygon class="acw" points="119 986 91 969 63 986 63 1019 91 1035 119 1019 119 986"/><polygon class="acx" points="63 986 35 969 7 986 7 1019 35 1035 63 1019 63 986"/><polygon class="acy" points="7 986 0 981 0 1023 7 1019 7 986"/></g></g></svg>