<svg xmlns="http://www.w3.org/2000/svg" width="2000" height="1000" viewBox="0 0 2000 1000"><defs><style>.a{opacity:0.3;}.b{fill:#ececeb;}.c{fill:#a9a9a8;}.d{fill:#b6b6b6;}.e{fill:#dedede;}.f{fill:#e4e4e3;}.g{fill:#969695;}.h{fill:#949493;}.i{fill:#bcbcbb;}.j{fill:#e9e9e9;}.k{fill:#d8d8d8;}.l{fill:#aaaaa9;}.m{fill:#a0a09f;}.n{fill:#c3c3c2;}.o{fill:#cfcfcf;}.p{fill:#bfbfbf;}.q{fill:#e3e3e2;}.r{fill:#9e9e9d;}.s{fill:#b5b5b4;}.t{fill:#a7a7a6;}.u{fill:#b8b8b7;}.v{fill:#f6f6f6;}.w{fill:#b3b3b2;}.x{fill:#8e8e8d;}.y{fill:#f5f5f5;}.z{fill:#a2a2a1;}.aa{fill:#a1a1a0;}.ab{fill:#b5b5b5;}.ac{fill:#bbbbba;}.ad{fill:#babab9;}.ae{fill:#b7b7b7;}.af{fill:#adadad;}.ag{fill:#dcdcdb;}.ah{fill:#d7d7d7;}.ai{fill:#d6d6d6;}.aj{fill:#ebebea;}.ak{fill:#f1f1f1;}.al{fill:#e1e1e1;}.am{fill:#dbdbda;}.an{fill:#f7f7f7;}.ao{fill:#eaeaea;}.ap{fill:#9b9b9a;}.aq{fill:#a5a5a5;}.ar{fill:#999998;}.as{fill:#989897;}.at{fill:#9d9d9c;}.au{fill:#919190;}.av{fill:#d9d9d9;}.aw{fill:#a5a5a4;}.ax{fill:#aeaeae;}.ay{fill:#ededed;}.az{fill:#dcdcdc;}.ba{fill:#adadac;}.bb{fill:#fbfbfb;}.bc{fill:#c8c8c8;}.bd{fill:#b9b9b8;}.be{fill:#f2f2f2;}.bf{fill:#e4e4e4;}.bg{fill:#9a9a99;}.bh{fill:#e6e6e6;}.bi{fill:#c9c9c8;}.bj{fill:#c5c5c5;}.bk{fill:#f4f4f4;}.bl{fill:#efefef;}.bm{fill:#d5d5d5;}.bn{fill:#f3f3f3;}.bo{fill:#f0f0f0;}.bp{fill:#e5e5e5;}.bq{fill:#c4c4c3;}.br{fill:#9c9c9b;}.bs{fill:#bdbdbc;}.bt{fill:#959594;}.bu{fill:#a6a6a6;}.bv{fill:#9e9e9e;}.bw{fill:#b0b0af;}.bx{fill:#c1c1c0;}.by{fill:#a3a3a2;}.bz{fill:#929291;}.ca{fill:#acacab;}.cb{fill:silver;}.cc{fill:#c5c5c4;}.cd{fill:#c2c2c1;}.ce{fill:#bdbdbd;}.cf{fill:#9f9f9e;}.cg{fill:#e8e8e8;}.ch{fill:#8f8f8e;}.ci{fill:#a4a4a3;}.cj{fill:#939392;}.ck{fill:#afafaf;}.cl{fill:#cecece;}.cm{fill:#f8f8f8;}.cn{fill:#ececec;}.co{fill:#d2d2d1;}.cp{fill:#cbcbca;}.cq{fill:#dadad9;}.cr{fill:#eee;}.cs{fill:#f9f9f9;}.ct{fill:#d1d1d1;}.cu{fill:#ddd;}.cv{fill:#d0d0d0;}.cw{fill:#dfdfdf;}.cx{fill:#fcfcfc;}.cy{fill:#a8a8a7;}.cz{fill:#bebebe;}.da{fill:#b1b1b0;}.db{fill:#ababaa;}.dc{fill:#90908f;}.dd{fill:#b4b4b3;}.de{fill:#d3d3d2;}.df{fill:#e7e7e7;}.dg{fill:#cdcdcd;}.dh{fill:#b2b2b1;}.di{fill:#cacac9;}.dj{fill:#979796;}.dk{fill:#d4d4d4;}.dl{fill:#e0e0e0;}.dm{fill:#c7c7c7;}.dn{fill:#ccc;}.do{fill:#c6c6c6;}.dp{fill:#d4d4d3;}.dq{fill:#e2e2e1;}</style></defs><title>hexagon</title><g class="a"><polyline class="b" points="2006 25 1971 45 1971 86 2006 107 2040 86 2040 45 2006 25"/><polyline class="c" points="1937 25 1903 45 1903 86 1937 107 1971 86 1971 45 1937 25"/><polyline class="d" points="2006 0 1937 0 1937 25 1971 45 2006 25 2006 0"/><polyline class="e" points="1937 0 1869 0 1869 25 1903 45 1937 25 1937 0"/><polyline class="f" points="1971 209 1937 229 1937 270 1971 290 2006 270 2006 229 1971 209"/><polyline class="g" points="2006 147 1971 168 1971 209 2006 229 2040 209 2040 168 2006 147"/><polyline class="h" points="1937 147 1903 168 1903 209 1937 229 1971 209 1971 168 1937 147"/><polyline class="i" points="1971 86 1937 107 1937 147 1971 168 2006 147 2006 107 1971 86"/><polyline class="j" points="1903 86 1869 107 1869 147 1903 168 1937 147 1937 107 1903 86"/><polyline class="k" points="1971 331 1937 352 1937 392 1971 413 2006 392 2006 352 1971 331"/><polyline class="l" points="2006 270 1971 290 1971 331 2006 352 2040 331 2040 290 2006 270"/><polyline class="m" points="1903 331 1869 352 1869 392 1903 413 1937 392 1937 352 1903 331"/><polyline class="n" points="1937 270 1903 290 1903 331 1937 352 1971 331 1971 290 1937 270"/><polyline class="o" points="1903 209 1869 229 1869 270 1903 290 1937 270 1937 229 1903 209"/><polyline class="p" points="1971 454 1937 474 1937 515 1971 535 2006 515 2006 474 1971 454"/><polyline class="q" points="2006 392 1971 413 1971 454 2006 474 2040 454 2040 413 2006 392"/><polyline class="r" points="1903 454 1869 474 1869 515 1903 535 1937 515 1937 474 1903 454"/><polyline class="c" points="1937 392 1903 413 1903 454 1937 474 1971 454 1971 413 1937 392"/><polyline class="s" points="1971 576 1937 597 1937 637 1971 658 2006 637 2006 597 1971 576"/><polyline class="t" points="2006 515 1971 535 1971 576 2006 597 2040 576 2040 535 2006 515"/><polyline class="u" points="1903 576 1869 597 1869 637 1903 658 1937 637 1937 597 1903 576"/><polyline class="n" points="1937 515 1903 535 1903 576 1937 597 1971 576 1971 535 1937 515"/><polyline class="v" points="1971 699 1937 719 1937 760 1971 780 2006 760 2006 719 1971 699"/><polyline class="w" points="2006 637 1971 658 1971 699 2006 719 2040 699 2040 658 2006 637"/><polyline class="x" points="1903 699 1869 719 1869 760 1903 780 1937 760 1937 719 1903 699"/><polyline class="y" points="1937 637 1903 658 1903 699 1937 719 1971 699 1971 658 1937 637"/><polyline class="z" points="1971 821 1937 842 1937 882 1971 903 2006 882 2006 842 1971 821"/><polyline class="aa" points="2006 760 1971 780 1971 821 2006 842 2040 821 2040 780 2006 760"/><polyline class="ab" points="1903 821 1869 842 1869 882 1903 903 1937 882 1937 842 1903 821"/><polyline class="ac" points="1937 760 1903 780 1903 821 1937 842 1971 821 1971 780 1937 760"/><polyline class="ad" points="1971 944 1937 964 1937 1005 1971 1025 2006 1005 2006 964 1971 944"/><polyline class="c" points="2006 882 1971 903 1971 944 2006 964 2040 944 2040 903 2006 882"/><polyline class="l" points="1903 944 1869 964 1869 1005 1903 1025 1937 1005 1937 964 1903 944"/><polyline class="ae" points="1937 882 1903 903 1903 944 1937 964 1971 944 1971 903 1937 882"/><polyline class="af" points="1869 0 1801 0 1801 25 1835 45 1869 25 1869 0"/><polyline class="ag" points="1869 25 1835 45 1835 86 1869 107 1903 86 1903 45 1869 25"/><polyline class="ah" points="1801 25 1767 45 1767 86 1801 107 1835 86 1835 45 1801 25"/><polyline class="y" points="1733 25 1699 45 1699 86 1733 107 1767 86 1767 45 1733 25"/><polyline class="p" points="1801 0 1733 0 1733 25 1767 45 1801 25 1801 0"/><polyline class="e" points="1733 0 1665 0 1665 25 1699 45 1733 25 1733 0"/><polyline class="ai" points="1835 86 1801 107 1801 147 1835 168 1869 147 1869 107 1835 86"/><polyline class="aj" points="1869 147 1835 168 1835 209 1869 229 1903 209 1903 168 1869 147"/><polyline class="ak" points="1801 147 1767 168 1767 209 1801 229 1835 209 1835 168 1801 147"/><polyline class="al" points="1733 147 1699 168 1699 209 1733 229 1767 209 1767 168 1733 147"/><polyline class="am" points="1767 86 1733 107 1733 147 1767 168 1801 147 1801 107 1767 86"/><polyline class="an" points="1699 86 1665 107 1665 147 1699 168 1733 147 1733 107 1699 86"/><polyline class="ao" points="1835 209 1801 229 1801 270 1835 290 1869 270 1869 229 1835 209"/><polyline class="o" points="1869 270 1835 290 1835 331 1869 352 1903 331 1903 290 1869 270"/><polyline class="e" points="1835 331 1801 352 1801 392 1835 413 1869 392 1869 352 1835 331"/><polyline class="ap" points="1801 270 1767 290 1767 331 1801 352 1835 331 1835 290 1801 270"/><polyline class="ad" points="1733 270 1699 290 1699 331 1733 352 1767 331 1767 290 1733 270"/><polyline class="aq" points="1767 209 1733 229 1733 270 1767 290 1801 270 1801 229 1767 209"/><polyline class="ar" points="1699 209 1665 229 1665 270 1699 290 1733 270 1733 229 1699 209"/><polyline class="m" points="1869 392 1835 413 1835 454 1869 474 1903 454 1903 413 1869 392"/><polyline class="as" points="1835 454 1801 474 1801 515 1835 535 1869 515 1869 474 1835 454"/><polyline class="ap" points="1767 454 1733 474 1733 515 1767 535 1801 515 1801 474 1767 454"/><polyline class="ad" points="1801 392 1767 413 1767 454 1801 474 1835 454 1835 413 1801 392"/><polyline class="q" points="1699 454 1665 474 1665 515 1699 535 1733 515 1733 474 1699 454"/><polyline class="at" points="1733 392 1699 413 1699 454 1733 474 1767 454 1767 413 1733 392"/><polyline class="au" points="1767 331 1733 352 1733 392 1767 413 1801 392 1801 352 1767 331"/><polyline class="av" points="1699 331 1665 352 1665 392 1699 413 1733 392 1733 352 1699 331"/><polyline class="aw" points="1869 515 1835 535 1835 576 1869 597 1903 576 1903 535 1869 515"/><polyline class="z" points="1835 576 1801 597 1801 637 1835 658 1869 637 1869 597 1835 576"/><polyline class="ax" points="1767 576 1733 597 1733 637 1767 658 1801 637 1801 597 1767 576"/><polyline class="l" points="1801 515 1767 535 1767 576 1801 597 1835 576 1835 535 1801 515"/><polyline class="av" points="1699 576 1665 597 1665 637 1699 658 1733 637 1733 597 1699 576"/><polyline class="ay" points="1733 515 1699 535 1699 576 1733 597 1767 576 1767 535 1733 515"/><polyline class="az" points="1869 637 1835 658 1835 699 1869 719 1903 699 1903 658 1869 637"/><polyline class="ba" points="1835 699 1801 719 1801 760 1835 780 1869 760 1869 719 1835 699"/><polyline class="bb" points="1767 699 1733 719 1733 760 1767 780 1801 760 1801 719 1767 699"/><polyline class="bc" points="1801 637 1767 658 1767 699 1801 719 1835 699 1835 658 1801 637"/><polyline class="bd" points="1699 699 1665 719 1665 760 1699 780 1733 760 1733 719 1699 699"/><polyline class="be" points="1733 637 1699 658 1699 699 1733 719 1767 699 1767 658 1733 637"/><polyline class="an" points="1869 760 1835 780 1835 821 1869 842 1903 821 1903 780 1869 760"/><polyline class="bf" points="1835 821 1801 842 1801 882 1835 903 1869 882 1869 842 1835 821"/><polyline class="bg" points="1767 821 1733 842 1733 882 1767 903 1801 882 1801 842 1767 821"/><polyline class="bh" points="1801 760 1767 780 1767 821 1801 842 1835 821 1835 780 1801 760"/><polyline class="ak" points="1699 821 1665 842 1665 882 1699 903 1733 882 1733 842 1699 821"/><polyline class="bi" points="1733 760 1699 780 1699 821 1733 842 1767 821 1767 780 1733 760"/><polyline class="n" points="1869 882 1835 903 1835 944 1869 964 1903 944 1903 903 1869 882"/><polyline class="av" points="1835 944 1801 964 1801 1005 1835 1025 1869 1005 1869 964 1835 944"/><polyline class="ag" points="1767 944 1733 964 1733 1005 1767 1025 1801 1005 1801 964 1767 944"/><polyline class="bj" points="1801 882 1767 903 1767 944 1801 964 1835 944 1835 903 1801 882"/><polyline class="am" points="1699 944 1665 964 1665 1005 1699 1025 1733 1005 1733 964 1699 944"/><polyline class="j" points="1733 882 1699 903 1699 944 1733 964 1767 944 1767 903 1733 882"/><polyline class="bk" points="1665 0 1597 0 1597 25 1631 45 1665 25 1665 0"/><polyline class="bl" points="1665 25 1631 45 1631 86 1665 107 1699 86 1699 45 1665 25"/><polyline class="bm" points="1597 25 1563 45 1563 86 1597 107 1631 86 1631 45 1597 25"/><polyline class="bn" points="1528 25 1494 45 1494 86 1528 107 1563 86 1563 45 1528 25"/><polyline class="bo" points="1597 0 1528 0 1528 25 1563 45 1597 25 1597 0"/><polyline class="ak" points="1528 0 1460 0 1460 25 1494 45 1528 25 1528 0"/><polyline class="bp" points="1631 86 1597 107 1597 147 1631 168 1665 147 1665 107 1631 86"/><polyline class="bq" points="1665 147 1631 168 1631 209 1665 229 1699 209 1699 168 1665 147"/><polyline class="ba" points="1597 147 1563 168 1563 209 1597 229 1631 209 1631 168 1597 147"/><polyline class="m" points="1528 147 1494 168 1494 209 1528 229 1563 209 1563 168 1528 147"/><polyline class="br" points="1563 86 1528 107 1528 147 1563 168 1597 147 1597 107 1563 86"/><polyline class="bs" points="1494 86 1460 107 1460 147 1494 168 1528 147 1528 107 1494 86"/><polyline class="af" points="1631 209 1597 229 1597 270 1631 290 1665 270 1665 229 1631 209"/><polyline class="bt" points="1665 270 1631 290 1631 331 1665 352 1699 331 1699 290 1665 270"/><polyline class="bu" points="1597 270 1563 290 1563 331 1597 352 1631 331 1631 290 1597 270"/><polyline class="ab" points="1528 270 1494 290 1494 331 1528 352 1563 331 1563 290 1528 270"/><polyline class="bv" points="1563 209 1528 229 1528 270 1563 290 1597 270 1597 229 1563 209"/><polyline class="bw" points="1494 209 1460 229 1460 270 1494 290 1528 270 1528 229 1494 209"/><polyline class="bx" points="1631 331 1597 352 1597 392 1631 413 1665 392 1665 352 1631 331"/><polyline class="br" points="1665 392 1631 413 1631 454 1665 474 1699 454 1699 413 1665 392"/><polyline class="by" points="1597 392 1563 413 1563 454 1597 474 1631 454 1631 413 1597 392"/><polyline class="bz" points="1528 392 1494 413 1494 454 1528 474 1563 454 1563 413 1528 392"/><polyline class="ca" points="1563 331 1528 352 1528 392 1563 413 1597 392 1597 352 1563 331"/><polyline class="bx" points="1494 331 1460 352 1460 392 1494 413 1528 392 1528 352 1494 331"/><polyline class="cb" points="1631 454 1597 474 1597 515 1631 535 1665 515 1665 474 1631 454"/><polyline class="cc" points="1665 515 1631 535 1631 576 1665 597 1699 576 1699 535 1665 515"/><polyline class="ab" points="1631 576 1597 597 1597 637 1631 658 1665 637 1665 597 1631 576"/><polyline class="cd" points="1563 576 1528 597 1528 637 1563 658 1597 637 1597 597 1563 576"/><polyline class="ce" points="1597 515 1563 535 1563 576 1597 597 1631 576 1631 535 1597 515"/><polyline class="z" points="1528 515 1494 535 1494 576 1528 597 1563 576 1563 535 1528 515"/><polyline class="cc" points="1563 454 1528 474 1528 515 1563 535 1597 515 1597 474 1563 454"/><polyline class="bt" points="1494 454 1460 474 1460 515 1494 535 1528 515 1528 474 1494 454"/><polyline class="g" points="1665 637 1631 658 1631 699 1665 719 1699 699 1699 658 1665 637"/><polyline class="cf" points="1631 699 1597 719 1597 760 1631 780 1665 760 1665 719 1631 699"/><polyline class="bv" points="1563 699 1528 719 1528 760 1563 780 1597 760 1597 719 1563 699"/><polyline class="z" points="1597 637 1563 658 1563 699 1597 719 1631 699 1631 658 1597 637"/><polyline class="m" points="1494 699 1460 719 1460 760 1494 780 1528 760 1528 719 1494 699"/><polyline class="l" points="1528 637 1494 658 1494 699 1528 719 1563 699 1563 658 1528 637"/><polyline class="ce" points="1494 576 1460 597 1460 637 1494 658 1528 637 1528 597 1494 576"/><polyline class="bg" points="1665 760 1631 780 1631 821 1665 842 1699 821 1699 780 1665 760"/><polyline class="cc" points="1631 821 1597 842 1597 882 1631 903 1665 882 1665 842 1631 821"/><polyline class="cc" points="1563 821 1528 842 1528 882 1563 903 1597 882 1597 842 1563 821"/><polyline class="g" points="1597 760 1563 780 1563 821 1597 842 1631 821 1631 780 1597 760"/><polyline class="r" points="1494 821 1460 842 1460 882 1494 903 1528 882 1528 842 1494 821"/><polyline class="be" points="1528 760 1494 780 1494 821 1528 842 1563 821 1563 780 1528 760"/><polyline class="bu" points="1665 882 1631 903 1631 944 1665 964 1699 944 1699 903 1665 882"/><polyline class="ar" points="1631 944 1597 964 1597 1005 1631 1025 1665 1005 1665 964 1631 944"/><polyline class="cg" points="1563 944 1528 964 1528 1005 1563 1025 1597 1005 1597 964 1563 944"/><polyline class="ch" points="1597 882 1563 903 1563 944 1597 964 1631 944 1631 903 1597 882"/><polyline class="bz" points="1494 944 1460 964 1460 1005 1494 1025 1528 1005 1528 964 1494 944"/><polyline class="cc" points="1528 882 1494 903 1494 944 1528 964 1563 944 1563 903 1528 882"/><polyline class="at" points="1460 0 1392 0 1392 25 1426 45 1460 25 1460 0"/><polyline class="bd" points="1460 25 1426 45 1426 86 1460 107 1494 86 1494 45 1460 25"/><polyline class="v" points="1392 25 1358 45 1358 86 1392 107 1426 86 1426 45 1392 25"/><polyline class="ap" points="1324 25 1290 45 1290 86 1324 107 1358 86 1358 45 1324 25"/><polyline class="z" points="1392 0 1324 0 1324 25 1358 45 1392 25 1392 0"/><polyline class="ba" points="1324 0 1256 0 1256 25 1290 45 1324 25 1324 0"/><polyline class="ci" points="1426 86 1392 107 1392 147 1426 168 1460 147 1460 107 1426 86"/><polyline class="c" points="1460 147 1426 168 1426 209 1460 229 1494 209 1494 168 1460 147"/><polyline class="l" points="1392 147 1358 168 1358 209 1392 229 1426 209 1426 168 1392 147"/><polyline class="bg" points="1324 147 1290 168 1290 209 1324 229 1358 209 1358 168 1324 147"/><polyline class="cj" points="1358 86 1324 107 1324 147 1358 168 1392 147 1392 107 1358 86"/><polyline class="ck" points="1290 86 1256 107 1256 147 1290 168 1324 147 1324 107 1290 86"/><polyline class="i" points="1426 209 1392 229 1392 270 1426 290 1460 270 1460 229 1426 209"/><polyline class="bh" points="1460 270 1426 290 1426 331 1460 352 1494 331 1494 290 1460 270"/><polyline class="bm" points="1392 270 1358 290 1358 331 1392 352 1426 331 1426 290 1392 270"/><polyline class="ai" points="1324 270 1290 290 1290 331 1324 352 1358 331 1358 290 1324 270"/><polyline class="bb" points="1358 209 1324 229 1324 270 1358 290 1392 270 1392 229 1358 209"/><polyline class="k" points="1290 209 1256 229 1256 270 1290 290 1324 270 1324 229 1290 209"/><polyline class="cl" points="1426 331 1392 352 1392 392 1426 413 1460 392 1460 352 1426 331"/><polyline class="cm" points="1460 392 1426 413 1426 454 1460 474 1494 454 1494 413 1460 392"/><polyline class="e" points="1392 392 1358 413 1358 454 1392 474 1426 454 1426 413 1392 392"/><polyline class="cn" points="1324 392 1290 413 1290 454 1324 474 1358 454 1358 413 1324 392"/><polyline class="bn" points="1358 331 1324 352 1324 392 1358 413 1392 392 1392 352 1358 331"/><polyline class="bl" points="1290 331 1256 352 1256 392 1290 413 1324 392 1324 352 1290 331"/><polyline class="co" points="1426 454 1392 474 1392 515 1426 535 1460 515 1460 474 1426 454"/><polyline class="bp" points="1460 515 1426 535 1426 576 1460 597 1494 576 1494 535 1460 515"/><polyline class="b" points="1392 515 1358 535 1358 576 1392 597 1426 576 1426 535 1392 515"/><polyline class="bp" points="1324 515 1290 535 1290 576 1324 597 1358 576 1358 535 1324 515"/><polyline class="cp" points="1358 454 1324 474 1324 515 1358 535 1392 515 1392 474 1358 454"/><polyline class="cq" points="1290 454 1256 474 1256 515 1290 535 1324 515 1324 474 1290 454"/><polyline class="cp" points="1426 576 1392 597 1392 637 1426 658 1460 637 1460 597 1426 576"/><polyline class="cr" points="1460 637 1426 658 1426 699 1460 719 1494 699 1494 658 1460 637"/><polyline class="am" points="1426 699 1392 719 1392 760 1426 780 1460 760 1460 719 1426 699"/><polyline class="cs" points="1392 637 1358 658 1358 699 1392 719 1426 699 1426 658 1392 637"/><polyline class="ct" points="1324 637 1290 658 1290 699 1324 719 1358 699 1358 658 1324 637"/><polyline class="cn" points="1358 576 1324 597 1324 637 1358 658 1392 637 1392 597 1358 576"/><polyline class="ct" points="1290 576 1256 597 1256 637 1290 658 1324 637 1324 597 1290 576"/><polyline class="bm" points="1460 760 1426 780 1426 821 1460 842 1494 821 1494 780 1460 760"/><polyline class="v" points="1426 821 1392 842 1392 882 1426 903 1460 882 1460 842 1426 821"/><polyline class="cu" points="1358 821 1324 842 1324 882 1358 903 1392 882 1392 842 1358 821"/><polyline class="bk" points="1392 760 1358 780 1358 821 1392 842 1426 821 1426 780 1392 760"/><polyline class="bh" points="1290 821 1256 842 1256 882 1290 903 1324 882 1324 842 1290 821"/><polyline class="bi" points="1324 760 1290 780 1290 821 1324 842 1358 821 1358 780 1324 760"/><polyline class="bj" points="1358 699 1324 719 1324 760 1358 780 1392 760 1392 719 1358 699"/><polyline class="cu" points="1290 699 1256 719 1256 760 1290 780 1324 760 1324 719 1290 699"/><polyline class="ag" points="1460 882 1426 903 1426 944 1460 964 1494 944 1494 903 1460 882"/><polyline class="al" points="1426 944 1392 964 1392 1005 1426 1025 1460 1005 1460 964 1426 944"/><polyline class="ak" points="1358 944 1324 964 1324 1005 1358 1025 1392 1005 1392 964 1358 944"/><polyline class="ah" points="1392 882 1358 903 1358 944 1392 964 1426 944 1426 903 1392 882"/><polyline class="cv" points="1290 944 1256 964 1256 1005 1290 1025 1324 1005 1324 964 1290 944"/><polyline class="az" points="1324 882 1290 903 1290 944 1324 964 1358 944 1358 903 1324 882"/><polyline class="cw" points="1256 0 1188 0 1188 25 1222 45 1256 25 1256 0"/><polyline class="bi" points="1256 25 1222 45 1222 86 1256 107 1290 86 1290 45 1256 25"/><polyline class="b" points="1188 25 1154 45 1154 86 1188 107 1222 86 1222 45 1188 25"/><polyline class="q" points="1120 25 1086 45 1086 86 1120 107 1154 86 1154 45 1120 25"/><polyline class="cx" points="1188 0 1120 0 1120 25 1154 45 1188 25 1188 0"/><polyline class="bt" points="1120 0 1051 0 1051 25 1086 45 1120 25 1120 0"/><polyline class="as" points="1222 86 1188 107 1188 147 1222 168 1256 147 1256 107 1222 86"/><polyline class="d" points="1256 147 1222 168 1222 209 1256 229 1290 209 1290 168 1256 147"/><polyline class="x" points="1188 147 1154 168 1154 209 1188 229 1222 209 1222 168 1188 147"/><polyline class="bv" points="1120 147 1086 168 1086 209 1120 229 1154 209 1154 168 1120 147"/><polyline class="l" points="1154 86 1120 107 1120 147 1154 168 1188 147 1188 107 1154 86"/><polyline class="bs" points="1086 86 1051 107 1051 147 1086 168 1120 147 1120 107 1086 86"/><polyline class="g" points="1222 209 1188 229 1188 270 1222 290 1256 270 1256 229 1222 209"/><polyline class="l" points="1256 270 1222 290 1222 331 1256 352 1290 331 1290 290 1256 270"/><polyline class="cc" points="1188 270 1154 290 1154 331 1188 352 1222 331 1222 290 1188 270"/><polyline class="l" points="1120 270 1086 290 1086 331 1120 352 1154 331 1154 290 1120 270"/><polyline class="cy" points="1154 209 1120 229 1120 270 1154 290 1188 270 1188 229 1154 209"/><polyline class="aw" points="1086 209 1051 229 1051 270 1086 290 1120 270 1120 229 1086 209"/><polyline class="bg" points="1222 331 1188 352 1188 392 1222 413 1256 392 1256 352 1222 331"/><polyline class="cz" points="1256 392 1222 413 1222 454 1256 474 1290 454 1290 413 1256 392"/><polyline class="t" points="1188 392 1154 413 1154 454 1188 474 1222 454 1222 413 1188 392"/><polyline class="c" points="1120 392 1086 413 1086 454 1120 474 1154 454 1154 413 1120 392"/><polyline class="c" points="1154 331 1120 352 1120 392 1154 413 1188 392 1188 352 1154 331"/><polyline class="c" points="1086 331 1051 352 1051 392 1086 413 1120 392 1120 352 1086 331"/><polyline class="ba" points="1222 454 1188 474 1188 515 1222 535 1256 515 1256 474 1222 454"/><polyline class="at" points="1256 515 1222 535 1222 576 1256 597 1290 576 1290 535 1256 515"/><polyline class="bz" points="1188 515 1154 535 1154 576 1188 597 1222 576 1222 535 1188 515"/><polyline class="ad" points="1120 515 1086 535 1086 576 1120 597 1154 576 1154 535 1120 515"/><polyline class="g" points="1154 454 1120 474 1120 515 1154 535 1188 515 1188 474 1154 454"/><polyline class="ce" points="1086 454 1051 474 1051 515 1086 535 1120 515 1120 474 1086 454"/><polyline class="cz" points="1222 576 1188 597 1188 637 1222 658 1256 637 1256 597 1222 576"/><polyline class="u" points="1256 637 1222 658 1222 699 1256 719 1290 699 1290 658 1256 637"/><polyline class="da" points="1188 637 1154 658 1154 699 1188 719 1222 699 1222 658 1188 637"/><polyline class="cd" points="1120 637 1086 658 1086 699 1120 719 1154 699 1154 658 1120 637"/><polyline class="ci" points="1154 576 1120 597 1120 637 1154 658 1188 637 1188 597 1154 576"/><polyline class="ac" points="1086 576 1051 597 1051 637 1086 658 1120 637 1120 597 1086 576"/><polyline class="db" points="1222 699 1188 719 1188 760 1222 780 1256 760 1256 719 1222 699"/><polyline class="bv" points="1256 760 1222 780 1222 821 1256 842 1290 821 1290 780 1256 760"/><polyline class="n" points="1188 760 1154 780 1154 821 1188 842 1222 821 1222 780 1188 760"/><polyline class="ch" points="1120 760 1086 780 1086 821 1120 842 1154 821 1154 780 1120 760"/><polyline class="g" points="1154 699 1120 719 1120 760 1154 780 1188 760 1188 719 1154 699"/><polyline class="ar" points="1086 699 1051 719 1051 760 1086 780 1120 760 1120 719 1086 699"/><polyline class="g" points="1222 821 1188 842 1188 882 1222 903 1256 882 1256 842 1222 821"/><polyline class="g" points="1256 882 1222 903 1222 944 1256 964 1290 944 1290 903 1256 882"/><polyline class="af" points="1222 944 1188 964 1188 1005 1222 1025 1256 1005 1256 964 1222 944"/><polyline class="v" points="1154 944 1120 964 1120 1005 1154 1025 1188 1005 1188 964 1154 944"/><polyline class="bg" points="1188 882 1154 903 1154 944 1188 964 1222 944 1222 903 1188 882"/><polyline class="u" points="1120 882 1086 903 1086 944 1120 964 1154 944 1154 903 1120 882"/><polyline class="ab" points="1154 821 1120 842 1120 882 1154 903 1188 882 1188 842 1154 821"/><polyline class="ce" points="1086 821 1051 842 1051 882 1086 903 1120 882 1120 842 1086 821"/><polyline class="db" points="1086 944 1051 964 1051 1005 1086 1025 1120 1005 1120 964 1086 944"/><polyline class="ci" points="1051 0 983 0 983 25 1017 45 1051 25 1051 0"/><polyline class="bm" points="1051 25 1017 45 1017 86 1051 107 1086 86 1086 45 1051 25"/><polyline class="v" points="983 25 949 45 949 86 983 107 1017 86 1017 45 983 25"/><polyline class="ag" points="915 25 881 45 881 86 915 107 949 86 949 45 915 25"/><polyline class="ah" points="983 0 915 0 915 25 949 45 983 25 983 0"/><polyline class="j" points="915 0 847 0 847 25 881 45 915 25 915 0"/><polyline class="j" points="1017 86 983 107 983 147 1017 168 1051 147 1051 107 1017 86"/><polyline class="cp" points="1051 147 1017 168 1017 209 1051 229 1086 209 1086 168 1051 147"/><polyline class="cl" points="983 147 949 168 949 209 983 229 1017 209 1017 168 983 147"/><polyline class="bo" points="915 147 881 168 881 209 915 229 949 209 949 168 915 147"/><polyline class="bl" points="949 86 915 107 915 147 949 168 983 147 983 107 949 86"/><polyline class="dc" points="881 86 847 107 847 147 881 168 915 147 915 107 881 86"/><polyline class="cy" points="1017 209 983 229 983 270 1017 290 1051 270 1051 229 1017 209"/><polyline class="ar" points="1051 270 1017 290 1017 331 1051 352 1086 331 1086 290 1051 270"/><polyline class="cf" points="983 270 949 290 949 331 983 352 1017 331 1017 290 983 270"/><polyline class="z" points="915 270 881 290 881 331 915 352 949 331 949 290 915 270"/><polyline class="i" points="949 209 915 229 915 270 949 290 983 270 983 229 949 209"/><polyline class="bg" points="881 209 847 229 847 270 881 290 915 270 915 229 881 209"/><polyline class="ab" points="1017 331 983 352 983 392 1017 413 1051 392 1051 352 1017 331"/><polyline class="aw" points="1051 392 1017 413 1017 454 1051 474 1086 454 1086 413 1051 392"/><polyline class="dc" points="983 392 949 413 949 454 983 474 1017 454 1017 413 983 392"/><polyline class="dd" points="915 392 881 413 881 454 915 474 949 454 949 413 915 392"/><polyline class="cl" points="949 331 915 352 915 392 949 413 983 392 983 352 949 331"/><polyline class="aa" points="881 331 847 352 847 392 881 413 915 392 915 352 881 331"/><polyline class="af" points="1017 454 983 474 983 515 1017 535 1051 515 1051 474 1017 454"/><polyline class="ce" points="1051 515 1017 535 1017 576 1051 597 1086 576 1086 535 1051 515"/><polyline class="ar" points="983 515 949 535 949 576 983 597 1017 576 1017 535 983 515"/><polyline class="cu" points="915 515 881 535 881 576 915 597 949 576 949 535 915 515"/><polyline class="de" points="949 454 915 474 915 515 949 535 983 515 983 474 949 454"/><polyline class="av" points="881 454 847 474 847 515 881 535 915 515 915 474 881 454"/><polyline class="de" points="1017 576 983 597 983 637 1017 658 1051 637 1051 597 1017 576"/><polyline class="e" points="1051 637 1017 658 1017 699 1051 719 1086 699 1086 658 1051 637"/><polyline class="ai" points="983 637 949 658 949 699 983 719 1017 699 1017 658 983 637"/><polyline class="bd" points="915 637 881 658 881 699 915 719 949 699 949 658 915 637"/><polyline class="ai" points="949 576 915 597 915 637 949 658 983 637 983 597 949 576"/><polyline class="az" points="881 576 847 597 847 637 881 658 915 637 915 597 881 576"/><polyline class="df" points="1017 699 983 719 983 760 1017 780 1051 760 1051 719 1017 699"/><polyline class="au" points="1051 760 1017 780 1017 821 1051 842 1086 821 1086 780 1051 760"/><polyline class="an" points="983 760 949 780 949 821 983 842 1017 821 1017 780 983 760"/><polyline class="v" points="915 760 881 780 881 821 915 842 949 821 949 780 915 760"/><polyline class="bl" points="949 699 915 719 915 760 949 780 983 760 983 719 949 699"/><polyline class="bo" points="881 699 847 719 847 760 881 780 915 760 915 719 881 699"/><polyline class="bo" points="1017 821 983 842 983 882 1017 903 1051 882 1051 842 1017 821"/><polyline class="j" points="1051 882 1017 903 1017 944 1051 964 1086 944 1086 903 1051 882"/><polyline class="p" points="983 882 949 903 949 944 983 964 1017 944 1017 903 983 882"/><polyline class="e" points="915 882 881 903 881 944 915 964 949 944 949 903 915 882"/><polyline class="cv" points="949 821 915 842 915 882 949 903 983 882 983 842 949 821"/><polyline class="cn" points="847 882 813 903 813 944 847 964 881 944 881 903 847 882"/><polyline class="ch" points="881 821 847 842 847 882 881 903 915 882 915 842 881 821"/><polyline class="df" points="1017 944 983 964 983 1005 1017 1025 1051 1005 1051 964 1017 944"/><polyline class="az" points="949 944 915 964 915 1005 949 1025 983 1005 983 964 949 944"/><polyline class="cm" points="881 944 847 964 847 1005 881 1025 915 1005 915 964 881 944"/><polyline class="dg" points="813 944 779 964 779 1005 813 1025 847 1005 847 964 813 944"/><polyline class="l" points="847 0 779 0 779 25 813 45 847 25 847 0"/><polyline class="dh" points="847 25 813 45 813 86 847 107 881 86 881 45 847 25"/><polyline class="ca" points="779 25 745 45 745 86 779 107 813 86 813 45 779 25"/><polyline class="dc" points="711 25 677 45 677 86 711 107 745 86 745 45 711 25"/><polyline class="ci" points="779 0 711 0 711 25 745 45 779 25 779 0"/><polyline class="di" points="711 0 643 0 643 25 677 45 711 25 711 0"/><polyline class="ac" points="813 86 779 107 779 147 813 168 847 147 847 107 813 86"/><polyline class="aq" points="847 147 813 168 813 209 847 229 881 209 881 168 847 147"/><polyline class="p" points="779 147 745 168 745 209 779 229 813 209 813 168 779 147"/><polyline class="q" points="711 147 677 168 677 209 711 229 745 209 745 168 711 147"/><polyline class="c" points="745 86 711 107 711 147 745 168 779 147 779 107 745 86"/><polyline class="dj" points="677 86 643 107 643 147 677 168 711 147 711 107 677 86"/><polyline class="ce" points="813 209 779 229 779 270 813 290 847 270 847 229 813 209"/><polyline class="bv" points="847 270 813 290 813 331 847 352 881 331 881 290 847 270"/><polyline class="r" points="779 270 745 290 745 331 779 352 813 331 813 290 779 270"/><polyline class="g" points="711 270 677 290 677 331 711 352 745 331 745 290 711 270"/><polyline class="cq" points="745 209 711 229 711 270 745 290 779 270 779 229 745 209"/><polyline class="x" points="677 209 643 229 643 270 677 290 711 270 711 229 677 209"/><polyline class="ba" points="813 331 779 352 779 392 813 413 847 392 847 352 813 331"/><polyline class="by" points="847 392 813 413 813 454 847 474 881 454 881 413 847 392"/><polyline class="cv" points="779 392 745 413 745 454 779 474 813 454 813 413 779 392"/><polyline class="at" points="711 392 677 413 677 454 711 474 745 454 745 413 711 392"/><polyline class="cd" points="745 331 711 352 711 392 745 413 779 392 779 352 745 331"/><polyline class="x" points="677 331 643 352 643 392 677 413 711 392 711 352 677 331"/><polyline class="cd" points="813 454 779 474 779 515 813 535 847 515 847 474 813 454"/><polyline class="bs" points="847 515 813 535 813 576 847 597 881 576 881 535 847 515"/><polyline class="cy" points="779 515 745 535 745 576 779 597 813 576 813 535 779 515"/><polyline class="f" points="711 515 677 535 677 576 711 597 745 576 745 535 711 515"/><polyline class="ce" points="745 454 711 474 711 515 745 535 779 515 779 474 745 454"/><polyline class="by" points="677 454 643 474 643 515 677 535 711 515 711 474 677 454"/><polyline class="n" points="813 576 779 597 779 637 813 658 847 637 847 597 813 576"/><polyline class="av" points="847 637 813 658 813 699 847 719 881 699 881 658 847 637"/><polyline class="u" points="779 637 745 658 745 699 779 719 813 699 813 658 779 637"/><polyline class="ax" points="711 637 677 658 677 699 711 719 745 699 745 658 711 637"/><polyline class="ap" points="745 576 711 597 711 637 745 658 779 637 779 597 745 576"/><polyline class="x" points="677 576 643 597 643 637 677 658 711 637 711 597 677 576"/><polyline class="cc" points="813 699 779 719 779 760 813 780 847 760 847 719 813 699"/><polyline class="g" points="847 760 813 780 813 821 847 842 881 821 881 780 847 760"/><polyline class="aw" points="779 760 745 780 745 821 779 842 813 821 813 780 779 760"/><polyline class="br" points="711 760 677 780 677 821 711 842 745 821 745 780 711 760"/><polyline class="dj" points="745 699 711 719 711 760 745 780 779 760 779 719 745 699"/><polyline class="bt" points="643 760 608 780 608 821 643 842 677 821 677 780 643 760"/><polyline class="az" points="677 699 643 719 643 760 677 780 711 760 711 719 677 699"/><polyline class="ct" points="608 699 574 719 574 760 608 780 643 760 643 719 608 699"/><polyline class="o" points="813 821 779 842 779 882 813 903 847 882 847 842 813 821"/><polyline class="cp" points="779 882 745 903 745 944 779 964 813 944 813 903 779 882"/><polyline class="am" points="711 882 677 903 677 944 711 964 745 944 745 903 711 882"/><polyline class="q" points="745 821 711 842 711 882 745 903 779 882 779 842 745 821"/><polyline class="bk" points="643 882 608 903 608 944 643 964 677 944 677 903 643 882"/><polyline class="bn" points="677 821 643 842 643 882 677 903 711 882 711 842 677 821"/><polyline class="bo" points="608 821 574 842 574 882 608 903 643 882 643 842 608 821"/><polyline class="an" points="745 944 711 964 711 1005 745 1025 779 1005 779 964 745 944"/><polyline class="bk" points="677 944 643 964 643 1005 677 1025 711 1005 711 964 677 944"/><polyline class="bl" points="608 944 574 964 574 1005 608 1025 643 1005 643 964 608 944"/><polyline class="p" points="643 0 574 0 574 25 608 45 643 25 643 0"/><polyline class="g" points="643 25 608 45 608 86 643 107 677 86 677 45 643 25"/><polyline class="cd" points="574 25 540 45 540 86 574 107 608 86 608 45 574 25"/><polyline class="r" points="506 25 472 45 472 86 506 107 540 86 540 45 506 25"/><polyline class="c" points="574 0 506 0 506 25 540 45 574 25 574 0"/><polyline class="av" points="506 0 438 0 438 25 472 45 506 25 506 0"/><polyline class="bp" points="608 86 574 107 574 147 608 168 643 147 643 107 608 86"/><polyline class="dk" points="643 147 608 168 608 209 643 229 677 209 677 168 643 147"/><polyline class="cc" points="574 147 540 168 540 209 574 229 608 209 608 168 574 147"/><polyline class="cm" points="506 147 472 168 472 209 506 229 540 209 540 168 506 147"/><polyline class="cq" points="540 86 506 107 506 147 540 168 574 147 574 107 540 86"/><polyline class="dl" points="472 86 438 107 438 147 472 168 506 147 506 107 472 86"/><polyline class="bp" points="608 209 574 229 574 270 608 290 643 270 643 229 608 209"/><polyline class="dm" points="643 270 608 290 608 331 643 352 677 331 677 290 643 270"/><polyline class="cw" points="574 270 540 290 540 331 574 352 608 331 608 290 574 270"/><polyline class="s" points="506 270 472 290 472 331 506 352 540 331 540 290 506 270"/><polyline class="df" points="540 209 506 229 506 270 540 290 574 270 574 229 540 209"/><polyline class="av" points="472 209 438 229 438 270 472 290 506 270 506 229 472 209"/><polyline class="co" points="608 331 574 352 574 392 608 413 643 392 643 352 608 331"/><polyline class="dh" points="643 392 608 413 608 454 643 474 677 454 677 413 643 392"/><polyline class="cr" points="574 392 540 413 540 454 574 474 608 454 608 413 574 392"/><polyline class="cm" points="506 392 472 413 472 454 506 474 540 454 540 413 506 392"/><polyline class="cr" points="540 331 506 352 506 392 540 413 574 392 574 352 540 331"/><polyline class="j" points="472 331 438 352 438 392 472 413 506 392 506 352 472 331"/><polyline class="bc" points="608 454 574 474 574 515 608 535 643 515 643 474 608 454"/><polyline class="az" points="643 515 608 535 608 576 643 597 677 576 677 535 643 515"/><polyline class="p" points="574 515 540 535 540 576 574 597 608 576 608 535 574 515"/><polyline class="e" points="506 515 472 535 472 576 506 597 540 576 540 535 506 515"/><polyline class="bo" points="540 454 506 474 506 515 540 535 574 515 574 474 540 454"/><polyline class="cn" points="438 515 404 535 404 576 438 597 472 576 472 535 438 515"/><polyline class="bz" points="472 454 438 474 438 515 472 535 506 515 506 474 472 454"/><polyline class="cs" points="608 576 574 597 574 637 608 658 643 637 643 597 608 576"/><polyline class="bo" points="643 637 608 658 608 699 643 719 677 699 677 658 643 637"/><polyline class="bb" points="574 637 540 658 540 699 574 719 608 699 608 658 574 637"/><polyline class="ai" points="506 637 472 658 472 699 506 719 540 699 540 658 506 637"/><polyline class="ah" points="540 576 506 597 506 637 540 658 574 637 574 597 540 576"/><polyline class="v" points="438 637 404 658 404 699 438 719 472 699 472 658 438 637"/><polyline class="da" points="472 576 438 597 438 637 472 658 506 637 506 597 472 576"/><polyline class="dg" points="404 576 370 597 370 637 404 658 438 637 438 597 404 576"/><polyline class="cx" points="574 760 540 780 540 821 574 842 608 821 608 780 574 760"/><polyline class="j" points="506 760 472 780 472 821 506 842 540 821 540 780 506 760"/><polyline class="e" points="540 699 506 719 506 760 540 780 574 760 574 719 540 699"/><polyline class="dn" points="438 760 404 780 404 821 438 842 472 821 472 780 438 760"/><polyline class="bm" points="472 699 438 719 438 760 472 780 506 760 506 719 472 699"/><polyline class="do" points="404 699 370 719 370 760 404 780 438 760 438 719 404 699"/><polyline class="cp" points="574 882 540 903 540 944 574 964 608 944 608 903 574 882"/><polyline class="dl" points="506 882 472 903 472 944 506 964 540 944 540 903 506 882"/><polyline class="ai" points="540 821 506 842 506 882 540 903 574 882 574 842 540 821"/><polyline class="bg" points="438 882 404 903 404 944 438 964 472 944 472 903 438 882"/><polyline class="o" points="472 821 438 842 438 882 472 903 506 882 506 842 472 821"/><polyline class="av" points="404 821 370 842 370 882 404 903 438 882 438 842 404 821"/><polyline class="co" points="540 944 506 964 506 1005 540 1025 574 1005 574 964 540 944"/><polyline class="bl" points="472 944 438 964 438 1005 472 1025 506 1005 506 964 472 944"/><polyline class="dg" points="404 944 370 964 370 1005 404 1025 438 1005 438 964 404 944"/><polyline class="bs" points="438 0 370 0 370 25 404 45 438 25 438 0"/><polyline class="bq" points="438 25 404 45 404 86 438 107 472 86 472 45 438 25"/><polyline class="cd" points="370 25 336 45 336 86 370 107 404 86 404 45 370 25"/><polyline class="dc" points="302 25 268 45 268 86 302 107 336 86 336 45 302 25"/><polyline class="at" points="370 0 302 0 302 25 336 45 370 25 370 0"/><polyline class="cf" points="302 0 234 0 234 25 268 45 302 25 302 0"/><polyline class="w" points="404 86 370 107 370 147 404 168 438 147 438 107 404 86"/><polyline class="ci" points="438 147 404 168 404 209 438 229 472 209 472 168 438 147"/><polyline class="aq" points="370 147 336 168 336 209 370 229 404 209 404 168 370 147"/><polyline class="bz" points="302 147 268 168 268 209 302 229 336 209 336 168 302 147"/><polyline class="cz" points="336 86 302 107 302 147 336 168 370 147 370 107 336 86"/><polyline class="bq" points="268 86 234 107 234 147 268 168 302 147 302 107 268 86"/><polyline class="bx" points="404 209 370 229 370 270 404 290 438 270 438 229 404 209"/><polyline class="br" points="438 270 404 290 404 331 438 352 472 331 472 290 438 270"/><polyline class="ap" points="370 270 336 290 336 331 370 352 404 331 404 290 370 270"/><polyline class="ce" points="302 270 268 290 268 331 302 352 336 331 336 290 302 270"/><polyline class="ba" points="336 209 302 229 302 270 336 290 370 270 370 229 336 209"/><polyline class="ch" points="268 209 234 229 234 270 268 290 302 270 302 229 268 209"/><polyline class="cr" points="404 331 370 352 370 392 404 413 438 392 438 352 404 331"/><polyline class="bw" points="438 392 404 413 404 454 438 474 472 454 472 413 438 392"/><polyline class="aa" points="370 392 336 413 336 454 370 474 404 454 404 413 370 392"/><polyline class="cc" points="302 392 268 413 268 454 302 474 336 454 336 413 302 392"/><polyline class="cj" points="336 331 302 352 302 392 336 413 370 392 370 352 336 331"/><polyline class="m" points="234 392 200 413 200 454 234 474 268 454 268 413 234 392"/><polyline class="ad" points="268 331 234 352 234 392 268 413 302 392 302 352 268 331"/><polyline class="at" points="200 331 166 352 166 392 200 413 234 392 234 352 200 331"/><polyline class="dc" points="404 454 370 474 370 515 404 535 438 515 438 474 404 454"/><polyline class="cc" points="370 515 336 535 336 576 370 597 404 576 404 535 370 515"/><polyline class="p" points="302 515 268 535 268 576 302 597 336 576 336 535 302 515"/><polyline class="be" points="336 454 302 474 302 515 336 535 370 515 370 474 336 454"/><polyline class="x" points="234 515 200 535 200 576 234 597 268 576 268 535 234 515"/><polyline class="ac" points="268 454 234 474 234 515 268 535 302 515 302 474 268 454"/><polyline class="ch" points="200 454 166 474 166 515 200 535 234 515 234 474 200 454"/><polyline class="cz" points="370 637 336 658 336 699 370 719 404 699 404 658 370 637"/><polyline class="ax" points="302 637 268 658 268 699 302 719 336 699 336 658 302 637"/><polyline class="g" points="336 576 302 597 302 637 336 658 370 637 370 597 336 576"/><polyline class="aw" points="234 637 200 658 200 699 234 719 268 699 268 658 234 637"/><polyline class="aq" points="268 576 234 597 234 637 268 658 302 637 302 597 268 576"/><polyline class="bq" points="200 576 166 597 166 637 200 658 234 637 234 597 200 576"/><polyline class="l" points="370 760 336 780 336 821 370 842 404 821 404 780 370 760"/><polyline class="ai" points="302 760 268 780 268 821 302 842 336 821 336 780 302 760"/><polyline class="l" points="336 699 302 719 302 760 336 780 370 760 370 719 336 699"/><polyline class="w" points="234 760 200 780 200 821 234 842 268 821 268 780 234 760"/><polyline class="g" points="268 699 234 719 234 760 268 780 302 760 302 719 268 699"/><polyline class="z" points="200 699 166 719 166 760 200 780 234 760 234 719 200 699"/><polyline class="cd" points="370 882 336 903 336 944 370 964 404 944 404 903 370 882"/><polyline class="au" points="302 882 268 903 268 944 302 964 336 944 336 903 302 882"/><polyline class="ck" points="336 821 302 842 302 882 336 903 370 882 370 842 336 821"/><polyline class="s" points="234 882 200 903 200 944 234 964 268 944 268 903 234 882"/><polyline class="ap" points="268 821 234 842 234 882 268 903 302 882 302 842 268 821"/><polyline class="x" points="200 821 166 842 166 882 200 903 234 882 234 842 200 821"/><polyline class="n" points="336 944 302 964 302 1005 336 1025 370 1005 370 964 336 944"/><polyline class="aq" points="268 944 234 964 234 1005 268 1025 302 1005 302 964 268 944"/><polyline class="w" points="200 944 166 964 166 1005 200 1025 234 1005 234 964 200 944"/><polyline class="dp" points="234 0 166 0 166 25 200 45 234 25 234 0"/><polyline class="e" points="234 25 200 45 200 86 234 107 268 86 268 45 234 25"/><polyline class="bo" points="166 25 131 45 131 86 166 107 200 86 200 45 166 25"/><polyline class="w" points="97 25 63 45 63 86 97 107 131 86 131 45 97 25"/><polyline class="ax" points="166 0 97 0 97 25 131 45 166 25 166 0"/><polyline class="aa" points="97 0 29 0 29 25 63 45 97 25 97 0"/><polyline class="ac" points="200 86 166 107 166 147 200 168 234 147 234 107 200 86"/><polyline class="cj" points="234 147 200 168 200 209 234 229 268 209 268 168 234 147"/><polyline class="bu" points="166 147 131 168 131 209 166 229 200 209 200 168 166 147"/><polyline class="db" points="97 147 63 168 63 209 97 229 131 209 131 168 97 147"/><polyline class="s" points="131 86 97 107 97 147 131 168 166 147 166 107 131 86"/><polyline class="by" points="29 147 -5 168 -5 209 29 229 63 209 63 168 29 147"/><polyline class="da" points="63 86 29 107 29 147 63 168 97 147 97 107 63 86"/><polyline class="cl" points="200 209 166 229 166 270 200 290 234 270 234 229 200 209"/><polyline class="au" points="234 270 200 290 200 331 234 352 268 331 268 290 234 270"/><polyline class="z" points="166 270 131 290 131 331 166 352 200 331 200 290 166 270"/><polyline class="at" points="97 270 63 290 63 331 97 352 131 331 131 290 97 270"/><polyline class="cj" points="131 209 97 229 97 270 131 290 166 270 166 229 131 209"/><polyline class="bd" points="29 270 -5 290 -5 331 29 352 63 331 63 290 29 270"/><polyline class="ae" points="63 209 29 229 29 270 63 290 97 270 97 229 63 209"/><polyline class="aw" points="-5 209 -39 229 -39 270 -5 290 29 270 29 229 -5 209"/><polyline class="x" points="166 392 131 413 131 454 166 474 200 454 200 413 166 392"/><polyline class="ch" points="97 392 63 413 63 454 97 474 131 454 131 413 97 392"/><polyline class="ck" points="131 331 97 352 97 392 131 413 166 392 166 352 131 331"/><polyline class="dq" points="29 392 -5 413 -5 454 29 474 63 454 63 413 29 392"/><polyline class="br" points="63 331 29 352 29 392 63 413 97 392 97 352 63 331"/><polyline class="x" points="-5 331 -39 352 -39 392 -5 413 29 392 29 352 -5 331"/><polyline class="bv" points="166 515 131 535 131 576 166 597 200 576 200 535 166 515"/><polyline class="au" points="97 515 63 535 63 576 97 597 131 576 131 535 97 515"/><polyline class="bu" points="131 454 97 474 97 515 131 535 166 515 166 474 131 454"/><polyline class="ac" points="29 515 -5 535 -5 576 29 597 63 576 63 535 29 515"/><polyline class="dj" points="63 454 29 474 29 515 63 535 97 515 97 474 63 454"/><polyline class="cz" points="-5 454 -39 474 -39 515 -5 535 29 515 29 474 -5 454"/><polyline class="ch" points="166 637 131 658 131 699 166 719 200 699 200 658 166 637"/><polyline class="cb" points="97 637 63 658 63 699 97 719 131 699 131 658 97 637"/><polyline class="j" points="131 576 97 597 97 637 131 658 166 637 166 597 131 576"/><polyline class="cj" points="29 637 -5 658 -5 699 29 719 63 699 63 658 29 637"/><polyline class="cf" points="63 576 29 597 29 637 63 658 97 637 97 597 63 576"/><polyline class="ac" points="-5 576 -39 597 -39 637 -5 658 29 637 29 597 -5 576"/><polyline class="q" points="166 760 131 780 131 821 166 842 200 821 200 780 166 760"/><polyline class="bd" points="97 760 63 780 63 821 97 842 131 821 131 780 97 760"/><polyline class="au" points="131 699 97 719 97 760 131 780 166 760 166 719 131 699"/><polyline class="h" points="29 760 -5 780 -5 821 29 842 63 821 63 780 29 760"/><polyline class="g" points="63 699 29 719 29 760 63 780 97 760 97 719 63 699"/><polyline class="bw" points="-5 699 -39 719 -39 760 -5 780 29 760 29 719 -5 699"/><polyline class="bu" points="166 882 131 903 131 944 166 964 200 944 200 903 166 882"/><polyline class="k" points="97 882 63 903 63 944 97 964 131 944 131 903 97 882"/><polyline class="z" points="131 821 97 842 97 882 131 903 166 882 166 842 131 821"/><polyline class="by" points="29 882 -5 903 -5 944 29 964 63 944 63 903 29 882"/><polyline class="cf" points="63 821 29 842 29 882 63 903 97 882 97 842 63 821"/><polyline class="be" points="-5 821 -39 842 -39 882 -5 903 29 882 29 842 -5 821"/><polyline class="db" points="131 944 97 964 97 1005 131 1025 166 1005 166 964 131 944"/><polyline class="p" points="63 944 29 964 29 1005 63 1025 97 1005 97 964 63 944"/><polyline class="da" points="-5 944 -39 964 -39 1005 -5 1025 29 1005 29 964 -5 944"/><polyline class="bh" points="29 0 -39 0 -39 25 -5 45 29 25 29 0"/><polyline class="t" points="29 25 -5 45 -5 86 29 107 63 86 63 45 29 25"/><polyline class="bc" points="-5 86 -39 107 -39 147 -5 168 29 147 29 107 -5 86"/></g></svg>