<svg xmlns="http://www.w3.org/2000/svg" width="1300" height="1000" viewBox="0 0 1300 1000"><defs><style>.a{opacity:0.6;}.b{fill:#f8f8f8;}.c{fill:#ddd;}.d{fill:#c8c8c8;}.e{fill:#dbdbda;}.f{fill:#d3d3d2;}.g{fill:#dddddc;}.h{fill:#f2f2f2;}.i{fill:#fdfdfd;}.j{fill:#e6e6e6;}.k{fill:#eee;}.l{fill:#e8e8e7;}.m{fill:#f2f2f1;}.n{fill:#ececec;}.o{fill:#fcfcfc;}.p{fill:#e7e7e7;}.q{fill:#efefef;}.r{fill:#ebebea;}.s{fill:#efefee;}.t{fill:#cacac9;}.u{fill:#d9d9d9;}.v{fill:#d2d2d2;}.w{fill:#d2d2d1;}.x{fill:#d7d7d6;}.y{fill:#e0e0df;}.z{fill:#e0e0e0;}.aa{fill:#d5d5d5;}.ab{fill:#d9d9d8;}.ac{fill:#cfcfce;}.ad{fill:#e8e8e8;}.ae{fill:#fbfbfb;}.af{fill:#e4e4e3;}.ag{fill:#f1f1f1;}.ah{fill:#e2e2e2;}.ai{fill:#e3e3e2;}.aj{fill:#eaeae9;}.ak{fill:#dfdfdf;}.al{fill:#f6f6f6;}.am{fill:#eaeaea;}.an{fill:#dcdcdb;}.ao{fill:#e4e4e4;}.ap{fill:#f7f7f7;}.aq{fill:#dcdcdc;}.ar{fill:#f1f1f0;}.as{fill:#d6d6d6;}.at{fill:#eeeeed;}.au{fill:#cfcfcf;}.av{fill:#cccccb;}.aw{fill:#c9c9c8;}.ax{fill:#dededd;}.ay{fill:#dadada;}.az{fill:#e1e1e0;}.ba{fill:#d5d5d4;}.bb{fill:#d1d1d0;}.bc{fill:#f3f3f3;}.bd{fill:#d4d4d3;}.be{fill:#fafafa;}.bf{fill:#c6c6c5;}.bg{fill:#ebebeb;}.bh{fill:#cbcbca;}.bi{fill:#cdcdcc;}.bj{fill:#c5c5c4;}.bk{fill:#f4f4f4;}.bl{fill:#d0d0cf;}.bm{fill:#ededed;}.bn{fill:#e7e7e6;}.bo{fill:#d6d6d5;}.bp{fill:#cececd;}.bq{fill:#e5e5e4;}.br{fill:#e1e1e1;}.bs{fill:#c7c7c6;}.bt{fill:#f5f5f5;}.bu{fill:#f9f9f9;}.bv{fill:#e3e3e3;}.bw{fill:#d8d8d7;}.bx{fill:#fcfcfb;}.by{fill:#e5e5e5;}.bz{fill:#e9e9e9;}</style></defs><title>hexagon_small</title><g class="a"><polyline class="b" points="1354.77 0 1286.63 0 1286.63 24.88 1320.7 45.31 1354.77 24.88 1354.77 0"/><polyline class="c" points="1320.7 86.18 1286.63 106.63 1286.63 147.36 1320.7 167.79 1354.77 147.36 1354.77 106.63 1320.7 86.18"/><polyline class="d" points="1320.7 453.62 1286.63 474.07 1286.63 514.8 1320.7 535.23 1354.77 514.8 1354.77 474.07 1320.7 453.62"/><polyline class="c" points="1320.7 576.1 1286.63 596.55 1286.63 637.28 1320.7 657.71 1354.77 637.28 1354.77 596.55 1320.7 576.1"/><polyline class="e" points="1286.63 24.88 1252.55 45.31 1252.55 86.18 1286.63 106.63 1320.7 86.18 1320.7 45.31 1286.63 24.88"/><polyline class="f" points="1286.63 147.36 1252.55 167.79 1252.55 208.66 1286.63 229.11 1320.7 208.66 1320.7 167.79 1286.63 147.36"/><polyline class="g" points="1252.55 208.66 1218.48 229.11 1218.48 269.84 1252.55 290.27 1286.63 269.84 1286.63 229.11 1252.55 208.66"/><polyline class="h" points="1286.63 269.84 1252.55 290.27 1252.55 331.14 1286.63 351.59 1320.7 331.14 1320.7 290.27 1286.63 269.84"/><polyline class="i" points="1184.4 208.66 1150.33 229.11 1150.33 269.84 1184.4 290.27 1218.48 269.84 1218.48 229.11 1184.4 208.66"/><polyline class="j" points="1252.55 331.14 1218.48 351.59 1218.48 392.32 1252.55 412.75 1286.63 392.32 1286.63 351.59 1252.55 331.14"/><polyline class="k" points="1218.48 392.32 1184.4 412.75 1184.4 453.62 1218.48 474.07 1252.55 453.62 1252.55 412.75 1218.48 392.32"/><polyline class="l" points="1252.55 453.62 1218.48 474.07 1218.48 514.8 1252.55 535.23 1286.63 514.8 1286.63 474.07 1252.55 453.62"/><polyline class="m" points="1286.63 514.8 1252.55 535.23 1252.55 576.1 1286.63 596.55 1320.7 576.1 1320.7 535.23 1286.63 514.8"/><polyline class="m" points="1150.33 514.8 1116.26 535.23 1116.26 576.1 1150.33 596.55 1184.4 576.1 1184.4 535.23 1150.33 514.8"/><polyline class="n" points="1116.26 453.62 1082.19 474.07 1082.19 514.8 1116.26 535.23 1150.33 514.8 1150.33 474.07 1116.26 453.62"/><polyline class="n" points="1252.55 698.58 1218.48 719.03 1218.48 759.76 1252.55 780.19 1286.63 759.76 1286.63 719.03 1252.55 698.58"/><polyline class="o" points="1218.48 637.28 1184.4 657.71 1184.4 698.58 1218.48 719.03 1252.55 698.58 1252.55 657.71 1218.48 637.28"/><polyline class="p" points="1150.33 637.28 1116.26 657.71 1116.26 698.58 1150.33 719.03 1184.4 698.58 1184.4 657.71 1150.33 637.28"/><polyline class="p" points="1116.26 576.1 1082.19 596.55 1082.19 637.28 1116.26 657.71 1150.33 637.28 1150.33 596.55 1116.26 576.1"/><polyline class="h" points="1116.26 821.06 1082.19 841.51 1082.19 882.24 1116.26 902.67 1150.33 882.24 1150.33 841.51 1116.26 821.06"/><polyline class="q" points="1252.55 943.54 1218.48 963.99 1218.48 1004.72 1252.55 1025.15 1286.63 1004.72 1286.63 963.99 1252.55 943.54"/><polyline class="b" points="1184.4 943.54 1150.33 963.99 1150.33 1004.72 1184.4 1025.15 1218.48 1004.72 1218.48 963.99 1184.4 943.54"/><polyline class="r" points="1218.48 882.24 1184.4 902.67 1184.4 943.54 1218.48 963.99 1252.55 943.54 1252.55 902.67 1218.48 882.24"/><polyline class="s" points="1082.19 0 1014.04 0 1014.04 24.88 1048.11 45.31 1082.19 24.88 1082.19 0"/><polyline class="i" points="1014.04 0 945.89 0 945.89 24.88 979.96 45.31 1014.04 24.88 1014.04 0"/><polyline class="d" points="945.89 0 877.75 0 877.75 24.88 911.82 45.31 945.89 24.88 945.89 0"/><polyline class="t" points="1048.11 86.18 1014.04 106.63 1014.04 147.36 1048.11 167.79 1082.19 147.36 1082.19 106.63 1048.11 86.18"/><polyline class="u" points="1082.19 147.36 1048.11 167.79 1048.11 208.66 1082.19 229.11 1116.26 208.66 1116.26 167.79 1082.19 147.36"/><polyline class="c" points="911.82 86.18 877.75 106.63 877.75 147.36 911.82 167.79 945.89 147.36 945.89 106.63 911.82 86.18"/><polyline class="v" points="979.96 208.66 945.89 229.11 945.89 269.84 979.96 290.27 1014.04 269.84 1014.04 229.11 979.96 208.66"/><polyline class="w" points="1014.04 392.32 979.96 412.75 979.96 453.62 1014.04 474.07 1048.11 453.62 1048.11 412.75 1014.04 392.32"/><polyline class="f" points="945.89 392.32 911.82 412.75 911.82 453.62 945.89 474.07 979.96 453.62 979.96 412.75 945.89 392.32"/><polyline class="f" points="979.96 331.14 945.89 351.59 945.89 392.32 979.96 412.75 1014.04 392.32 1014.04 351.59 979.96 331.14"/><polyline class="f" points="911.82 331.14 877.75 351.59 877.75 392.32 911.82 412.75 945.89 392.32 945.89 351.59 911.82 331.14"/><polyline class="c" points="911.82 453.62 877.75 474.07 877.75 514.8 911.82 535.23 945.89 514.8 945.89 474.07 911.82 453.62"/><polyline class="x" points="1014.04 637.28 979.96 657.71 979.96 698.58 1014.04 719.03 1048.11 698.58 1048.11 657.71 1014.04 637.28"/><polyline class="y" points="945.89 637.28 911.82 657.71 911.82 698.58 945.89 719.03 979.96 698.58 979.96 657.71 945.89 637.28"/><polyline class="z" points="1014.04 759.76 979.96 780.19 979.96 821.06 1014.04 841.51 1048.11 821.06 1048.11 780.19 1014.04 759.76"/><polyline class="aa" points="1048.11 943.54 1014.04 963.99 1014.04 1004.72 1048.11 1025.15 1082.19 1004.72 1082.19 963.99 1048.11 943.54"/><polyline class="u" points="979.96 821.06 945.89 841.51 945.89 882.24 979.96 902.67 1014.04 882.24 1014.04 841.51 979.96 821.06"/><polyline class="c" points="911.82 821.06 877.75 841.51 877.75 882.24 911.82 902.67 945.89 882.24 945.89 841.51 911.82 821.06"/><polyline class="r" points="809.6 0 741.45 0 741.45 24.88 775.52 45.31 809.6 24.88 809.6 0"/><polyline class="j" points="809.6 147.36 775.52 167.79 775.52 208.66 809.6 229.11 843.67 208.66 843.67 167.79 809.6 147.36"/><polyline class="v" points="843.67 208.66 809.6 229.11 809.6 269.84 843.67 290.27 877.75 269.84 877.75 229.11 843.67 208.66"/><polyline class="g" points="775.52 208.66 741.45 229.11 741.45 269.84 775.52 290.27 809.6 269.84 809.6 229.11 775.52 208.66"/><polyline class="u" points="843.67 331.14 809.6 351.59 809.6 392.32 843.67 412.75 877.75 392.32 877.75 351.59 843.67 331.14"/><polyline class="ab" points="741.45 392.32 707.38 412.75 707.38 453.62 741.45 474.07 775.52 453.62 775.52 412.75 741.45 392.32"/><polyline class="j" points="775.52 331.14 741.45 351.59 741.45 392.32 775.52 412.75 809.6 392.32 809.6 351.59 775.52 331.14"/><polyline class="ac" points="707.38 331.14 673.31 351.59 673.31 392.32 707.38 412.75 741.45 392.32 741.45 351.59 707.38 331.14"/><polyline class="aa" points="843.67 453.62 809.6 474.07 809.6 514.8 843.67 535.23 877.75 514.8 877.75 474.07 843.67 453.62"/><polyline class="c" points="877.75 514.8 843.67 535.23 843.67 576.1 877.75 596.55 911.82 576.1 911.82 535.23 877.75 514.8"/><polyline class="ad" points="775.52 453.62 741.45 474.07 741.45 514.8 775.52 535.23 809.6 514.8 809.6 474.07 775.52 453.62"/><polyline class="ad" points="843.67 576.1 809.6 596.55 809.6 637.28 843.67 657.71 877.75 637.28 877.75 596.55 843.67 576.1"/><polyline class="k" points="877.75 637.28 843.67 657.71 843.67 698.58 877.75 719.03 911.82 698.58 911.82 657.71 877.75 637.28"/><polyline class="e" points="741.45 637.28 707.38 657.71 707.38 698.58 741.45 719.03 775.52 698.58 775.52 657.71 741.45 637.28"/><polyline class="ae" points="809.6 759.76 775.52 780.19 775.52 821.06 809.6 841.51 843.67 821.06 843.67 780.19 809.6 759.76"/><polyline class="k" points="741.45 882.24 707.38 902.67 707.38 943.54 741.45 963.99 775.52 943.54 775.52 902.67 741.45 882.24"/><polyline class="af" points="537.01 0 468.87 0 468.87 24.88 502.94 45.31 537.01 24.88 537.01 0"/><polyline class="f" points="571.08 86.18 537.01 106.63 537.01 147.36 571.08 167.79 605.16 147.36 605.16 106.63 571.08 86.18"/><polyline class="t" points="502.94 86.18 468.87 106.63 468.87 147.36 502.94 167.79 537.01 147.36 537.01 106.63 502.94 86.18"/><polyline class="c" points="639.23 208.66 605.16 229.11 605.16 269.84 639.23 290.27 673.31 269.84 673.31 229.11 639.23 208.66"/><polyline class="n" points="571.08 208.66 537.01 229.11 537.01 269.84 571.08 290.27 605.16 269.84 605.16 229.11 571.08 208.66"/><polyline class="y" points="571.08 331.14 537.01 351.59 537.01 392.32 571.08 412.75 605.16 392.32 605.16 351.59 571.08 331.14"/><polyline class="y" points="639.23 453.62 605.16 474.07 605.16 514.8 639.23 535.23 673.31 514.8 673.31 474.07 639.23 453.62"/><polyline class="c" points="673.31 514.8 639.23 535.23 639.23 576.1 673.31 596.55 707.38 576.1 707.38 535.23 673.31 514.8"/><polyline class="v" points="605.16 514.8 571.08 535.23 571.08 576.1 605.16 596.55 639.23 576.1 639.23 535.23 605.16 514.8"/><polyline class="ag" points="537.01 514.8 502.94 535.23 502.94 576.1 537.01 596.55 571.08 576.1 571.08 535.23 537.01 514.8"/><polyline class="c" points="571.08 453.62 537.01 474.07 537.01 514.8 571.08 535.23 605.16 514.8 605.16 474.07 571.08 453.62"/><polyline class="z" points="639.23 576.1 605.16 596.55 605.16 637.28 639.23 657.71 673.31 637.28 673.31 596.55 639.23 576.1"/><polyline class="aa" points="537.01 637.28 502.94 657.71 502.94 698.58 537.01 719.03 571.08 698.58 571.08 657.71 537.01 637.28"/><polyline class="t" points="571.08 698.58 537.01 719.03 537.01 759.76 571.08 780.19 605.16 759.76 605.16 719.03 571.08 698.58"/><polyline class="d" points="468.87 759.76 434.79 780.19 434.79 821.06 468.87 841.51 502.94 821.06 502.94 780.19 468.87 759.76"/><polyline class="p" points="434.79 698.58 400.73 719.03 400.73 759.76 434.79 780.19 468.87 759.76 468.87 719.03 434.79 698.58"/><polyline class="n" points="537.01 882.24 502.94 902.67 502.94 943.54 537.01 963.99 571.08 943.54 571.08 902.67 537.01 882.24"/><polyline class="ae" points="571.08 943.54 537.01 963.99 537.01 1004.72 571.08 1025.15 605.16 1004.72 605.16 963.99 571.08 943.54"/><polyline class="y" points="400.73 24.88 366.64 45.31 366.64 86.18 400.73 106.63 434.79 86.18 434.79 45.31 400.73 24.88"/><polyline class="f" points="400.73 0 332.57 0 332.57 24.88 366.64 45.31 400.73 24.88 400.73 0"/><polyline class="m" points="434.79 86.18 400.73 106.63 400.73 147.36 434.79 167.79 468.87 147.36 468.87 106.63 434.79 86.18"/><polyline class="n" points="366.64 86.18 332.57 106.63 332.57 147.36 366.64 167.79 400.73 147.36 400.73 106.63 366.64 86.18"/><polyline class="q" points="298.5 86.18 264.43 106.63 264.43 147.36 298.5 167.79 332.57 147.36 332.57 106.63 298.5 86.18"/><polyline class="m" points="434.79 208.66 400.73 229.11 400.73 269.84 434.79 290.27 468.87 269.84 468.87 229.11 434.79 208.66"/><polyline class="ah" points="468.87 269.84 434.79 290.27 434.79 331.14 468.87 351.59 502.94 331.14 502.94 290.27 468.87 269.84"/><polyline class="s" points="400.73 269.84 366.64 290.27 366.64 331.14 400.73 351.59 434.79 331.14 434.79 290.27 400.73 269.84"/><polyline class="ab" points="332.57 269.84 298.5 290.27 298.5 331.14 332.57 351.59 366.64 331.14 366.64 290.27 332.57 269.84"/><polyline class="l" points="434.79 331.14 400.73 351.59 400.73 392.32 434.79 412.75 468.87 392.32 468.87 351.59 434.79 331.14"/><polyline class="ai" points="434.79 453.62 400.73 474.07 400.73 514.8 434.79 535.23 468.87 514.8 468.87 474.07 434.79 453.62"/><polyline class="k" points="332.57 514.8 298.5 535.23 298.5 576.1 332.57 596.55 366.64 576.1 366.64 535.23 332.57 514.8"/><polyline class="o" points="434.79 576.1 400.73 596.55 400.73 637.28 434.79 657.71 468.87 637.28 468.87 596.55 434.79 576.1"/><polyline class="i" points="400.73 637.28 366.64 657.71 366.64 698.58 400.73 719.03 434.79 698.58 434.79 657.71 400.73 637.28"/><polyline class="r" points="366.64 576.1 332.57 596.55 332.57 637.28 366.64 657.71 400.73 637.28 400.73 596.55 366.64 576.1"/><polyline class="x" points="298.5 576.1 264.43 596.55 264.43 637.28 298.5 657.71 332.57 637.28 332.57 596.55 298.5 576.1"/><polyline class="i" points="400.73 759.76 366.64 780.19 366.64 821.06 400.73 841.51 434.79 821.06 434.79 780.19 400.73 759.76"/><polyline class="k" points="366.64 698.58 332.57 719.03 332.57 759.76 366.64 780.19 400.73 759.76 400.73 719.03 366.64 698.58"/><polygon class="aj" points="1252.55 290.27 1218.48 269.84 1184.4 290.27 1184.4 331.14 1218.48 351.59 1252.55 331.14 1252.55 290.27"/><polygon class="aj" points="1252.55 780.19 1252.55 821.06 1286.63 841.51 1320.7 821.06 1320.7 780.19 1286.63 759.76 1252.55 780.19"/><polygon class="aj" points="911.82 86.18 911.82 45.31 877.75 24.88 843.67 45.31 843.67 86.18 877.75 106.63 911.82 86.18"/><polygon class="aj" points="264.43 719.03 264.43 759.76 298.5 780.19 332.57 759.76 332.57 719.03 298.5 698.58 264.43 719.03"/><polyline class="ah" points="230.35 698.58 196.28 719.03 196.28 759.76 230.35 780.19 264.43 759.76 264.43 719.03 230.35 698.58"/><polyline class="q" points="332.57 882.24 298.5 902.67 298.5 943.54 332.57 963.99 366.64 943.54 366.64 902.67 332.57 882.24"/><polyline class="l" points="366.64 943.54 332.57 963.99 332.57 1004.72 366.64 1025.15 400.73 1004.72 400.73 963.99 366.64 943.54"/><polyline class="c" points="264.43 0 196.28 0 196.28 24.88 230.35 45.31 264.43 24.88 264.43 0"/><polyline class="y" points="196.28 24.88 162.21 45.31 162.21 86.18 196.28 106.63 230.35 86.18 230.35 45.31 196.28 24.88"/><polygon class="ak" points="1286.63 351.59 1286.63 392.32 1320.7 412.75 1354.77 392.32 1354.77 351.59 1320.7 331.14 1286.63 351.59"/><polygon class="ak" points="264.43 229.11 230.35 208.66 196.28 229.11 196.28 269.84 230.35 290.27 264.43 269.84 264.43 229.11"/><polyline class="c" points="128.13 269.84 94.06 290.27 94.06 331.14 128.13 351.59 162.21 331.14 162.21 290.27 128.13 269.84"/><polygon class="al" points="1252.55 657.71 1252.55 698.58 1286.63 719.03 1320.7 698.58 1320.7 657.71 1286.63 637.28 1252.55 657.71"/><polygon class="al" points="400.73 351.59 366.64 331.14 332.57 351.59 332.57 392.32 366.64 412.75 366.64 453.62 400.73 474.07 434.79 453.62 434.79 412.75 400.73 392.32 400.73 351.59"/><polygon class="al" points="264.43 392.32 264.43 351.59 230.35 331.14 196.28 351.59 196.28 392.32 230.35 412.75 264.43 392.32"/><polyline class="ac" points="196.28 392.32 162.21 412.75 162.21 453.62 196.28 474.07 230.35 453.62 230.35 412.75 196.28 392.32"/><polyline class="aa" points="128.13 637.28 94.06 657.71 94.06 698.58 128.13 719.03 162.21 698.58 162.21 657.71 128.13 637.28"/><polygon class="am" points="1184.4 331.14 1184.4 290.27 1150.33 269.84 1116.26 290.27 1116.26 331.14 1150.33 351.59 1184.4 331.14"/><polygon class="am" points="809.6 596.55 775.52 576.1 741.45 596.55 741.45 637.28 775.52 657.71 775.52 698.58 809.6 719.03 843.67 698.58 843.67 657.71 809.6 637.28 809.6 596.55"/><polygon class="am" points="366.64 698.58 366.64 657.71 332.57 637.28 298.5 657.71 298.5 698.58 332.57 719.03 366.64 698.58"/><polygon class="am" points="332.57 841.51 332.57 882.24 366.64 902.67 400.73 882.24 400.73 841.51 366.64 821.06 332.57 841.51"/><polygon class="am" points="94.06 780.19 94.06 821.06 128.13 841.51 162.21 821.06 162.21 780.19 128.13 759.76 94.06 780.19"/><polyline class="y" points="196.28 882.24 162.21 902.67 162.21 943.54 196.28 963.99 230.35 943.54 230.35 902.67 196.28 882.24"/><polyline class="ab" points="59.99 882.24 25.91 902.67 25.91 943.54 59.99 963.99 94.06 943.54 94.06 902.67 59.99 882.24"/><polyline class="z" points="162.21 943.54 128.13 963.99 128.13 1004.72 162.21 1025.15 196.28 1004.72 196.28 963.99 162.21 943.54"/><polygon class="an" points="911.82 535.23 911.82 576.1 945.89 596.55 979.96 576.1 979.96 535.23 945.89 514.8 911.82 535.23"/><polygon class="an" points="128.13 351.59 94.06 331.14 59.99 351.59 59.99 392.32 94.06 412.75 128.13 392.32 128.13 351.59"/><polygon class="ao" points="1218.48 474.07 1184.4 453.62 1150.33 474.07 1150.33 514.8 1184.4 535.23 1218.48 514.8 1218.48 474.07"/><polygon class="ao" points="1218.48 596.55 1218.48 637.28 1252.55 657.71 1286.63 637.28 1286.63 596.55 1252.55 576.1 1218.48 596.55"/><polygon class="ao" points="911.82 208.66 911.82 167.79 877.75 147.36 843.67 167.79 843.67 208.66 877.75 229.11 911.82 208.66"/><polygon class="ao" points="639.23 902.67 605.16 882.24 571.08 902.67 571.08 943.54 605.16 963.99 639.23 943.54 639.23 902.67"/><polygon class="ao" points="366.64 902.67 366.64 943.54 400.73 963.99 434.79 943.54 434.79 902.67 400.73 882.24 366.64 902.67"/><polyline class="k" points="59.99 24.88 25.91 45.31 25.91 86.18 59.99 106.63 94.06 86.18 94.06 45.31 59.99 24.88"/><polygon class="ap" points="1150.33 351.59 1116.26 331.14 1082.19 351.59 1082.19 392.32 1116.26 412.75 1150.33 392.32 1150.33 351.59"/><polygon class="ap" points="775.52 208.66 775.52 167.79 809.6 147.36 809.6 106.63 775.52 86.18 741.45 106.63 741.45 147.36 707.38 167.79 707.38 208.66 741.45 229.11 775.52 208.66"/><polygon class="ap" points="809.6 719.03 775.52 698.58 741.45 719.03 707.38 698.58 673.31 719.03 673.31 759.76 707.38 780.19 741.45 759.76 775.52 780.19 809.6 759.76 809.6 719.03"/><polygon class="ap" points="809.6 882.24 843.67 902.67 877.75 882.24 877.75 841.51 843.67 821.06 809.6 841.51 809.6 882.24"/><polygon class="ap" points="400.73 882.24 434.79 902.67 468.87 882.24 468.87 841.51 434.79 821.06 400.73 841.51 400.73 882.24"/><polygon class="ap" points="468.87 1004.72 468.87 963.99 434.79 943.54 400.73 963.99 400.73 1004.72 434.79 1025.15 468.87 1004.72"/><polygon class="ap" points="400.73 474.07 366.64 453.62 332.57 474.07 332.57 514.8 366.64 535.23 400.73 514.8 400.73 474.07"/><polygon class="ap" points="434.79 657.71 434.79 698.58 468.87 719.03 502.94 698.58 502.94 657.71 468.87 637.28 434.79 657.71"/><polygon class="ap" points="264.43 963.99 264.43 1004.72 298.5 1025.15 332.57 1004.72 332.57 963.99 298.5 943.54 264.43 963.99"/><polygon class="ap" points="-42.23 45.31 -42.23 86.18 -8.15 106.63 25.91 86.18 25.91 45.31 -8.15 24.88 -42.23 45.31"/><polyline class="j" points="25.91 208.66 -8.15 229.11 -8.15 269.84 25.91 290.27 59.99 269.84 59.99 229.11 25.91 208.66"/><polygon class="aq" points="877.75 596.55 877.75 637.28 911.82 657.71 945.89 637.28 945.89 596.55 911.82 576.1 877.75 596.55"/><polygon class="aq" points="605.16 106.63 605.16 147.36 639.23 167.79 673.31 147.36 673.31 106.63 639.23 86.18 605.16 106.63"/><polygon class="aq" points="59.99 474.07 59.99 514.8 94.06 535.23 128.13 514.8 128.13 474.07 94.06 453.62 59.99 474.07"/><polygon class="aq" points="59.99 106.63 25.91 86.18 -8.15 106.63 -8.15 147.36 25.91 167.79 59.99 147.36 59.99 106.63"/><polygon class="ar" points="911.82 45.31 911.82 86.18 945.89 106.63 979.96 86.18 979.96 45.31 945.89 24.88 911.82 45.31"/><polygon class="ar" points="571.08 208.66 571.08 167.79 537.01 147.36 502.94 167.79 502.94 208.66 537.01 229.11 571.08 208.66"/><polygon class="ar" points="537.01 841.51 537.01 882.24 571.08 902.67 605.16 882.24 605.16 841.51 571.08 821.06 537.01 841.51"/><polygon class="ar" points="-42.23 780.19 -42.23 821.06 -8.15 841.51 25.91 821.06 25.91 780.19 -8.15 759.76 -42.23 780.19"/><polygon class="as" points="1286.63 229.11 1286.63 269.84 1320.7 290.27 1354.77 269.84 1354.77 229.11 1320.7 208.66 1286.63 229.11"/><polygon class="as" points="230.35 412.75 230.35 453.62 264.43 474.07 298.5 453.62 298.5 412.75 264.43 392.32 230.35 412.75"/><polygon class="at" points="1218.48 882.24 1218.48 841.51 1184.4 821.06 1150.33 841.51 1150.33 882.24 1184.4 902.67 1218.48 882.24"/><polygon class="at" points="1150.33 759.76 1150.33 719.03 1116.26 698.58 1082.19 719.03 1082.19 759.76 1116.26 780.19 1150.33 759.76"/><polygon class="at" points="707.38 535.23 707.38 576.1 741.45 596.55 775.52 576.1 775.52 535.23 741.45 514.8 707.38 535.23"/><polygon class="au" points="1218.48 0 1150.33 0 1150.33 24.88 1184.4 45.31 1218.48 24.88 1218.48 0"/><polygon class="au" points="707.38 290.27 707.38 331.14 741.45 351.59 775.52 331.14 775.52 290.27 741.45 269.84 707.38 290.27"/><polygon class="au" points="-8.15 719.03 -8.15 759.76 25.91 780.19 59.99 759.76 59.99 719.03 25.91 698.58 -8.15 719.03"/><polygon class="au" points="25.91 331.14 25.91 290.27 -8.15 269.84 -42.23 290.27 -42.23 331.14 -8.15 351.59 25.91 331.14"/><polygon class="av" points="571.08 780.19 537.01 759.76 502.94 780.19 502.94 821.06 537.01 841.51 571.08 821.06 571.08 780.19"/><polygon class="av" points="298.5 331.14 298.5 290.27 264.43 269.84 230.35 290.27 230.35 331.14 264.43 351.59 298.5 331.14"/><polygon class="aw" points="1082.19 269.84 1082.19 229.11 1048.11 208.66 1014.04 229.11 1014.04 269.84 1048.11 290.27 1082.19 269.84"/><polygon class="aw" points="1014.04 514.8 1014.04 474.07 979.96 453.62 945.89 474.07 945.89 514.8 979.96 535.23 1014.04 514.8"/><polygon class="aw" points="1014.04 719.03 979.96 698.58 945.89 719.03 945.89 759.76 979.96 780.19 1014.04 759.76 1014.04 719.03"/><polygon class="aw" points="1082.19 841.51 1048.11 821.06 1014.04 841.51 1014.04 882.24 1048.11 902.67 1048.11 943.54 1082.19 963.99 1116.26 943.54 1116.26 902.67 1082.19 882.24 1082.19 841.51"/><polygon class="aw" points="502.94 290.27 502.94 331.14 537.01 351.59 571.08 331.14 571.08 290.27 537.01 269.84 502.94 290.27"/><polygon class="aw" points="639.23 780.19 639.23 821.06 673.31 841.51 707.38 821.06 707.38 780.19 673.31 759.76 639.23 780.19"/><polygon class="aw" points="502.94 45.31 468.87 24.88 434.79 45.31 434.79 86.18 468.87 106.63 502.94 86.18 502.94 45.31"/><polygon class="aw" points="128.13 596.55 128.13 637.28 162.21 657.71 196.28 637.28 196.28 596.55 162.21 576.1 128.13 596.55"/><polygon class="aw" points="59.99 719.03 59.99 759.76 94.06 780.19 128.13 759.76 128.13 719.03 94.06 698.58 59.99 719.03"/><polygon class="ax" points="1048.11 412.75 1048.11 453.62 1082.19 474.07 1116.26 453.62 1116.26 412.75 1082.19 392.32 1048.11 412.75"/><polygon class="ax" points="1014.04 596.55 1014.04 637.28 1048.11 657.71 1082.19 637.28 1082.19 596.55 1048.11 576.1 1014.04 596.55"/><polygon class="ax" points="775.52 902.67 775.52 943.54 809.6 963.99 843.67 943.54 843.67 902.67 809.6 882.24 775.52 902.67"/><polygon class="ax" points="571.08 167.79 571.08 208.66 605.16 229.11 639.23 208.66 639.23 167.79 605.16 147.36 571.08 167.79"/><polygon class="ax" points="400.73 24.88 434.79 45.31 468.87 24.88 468.87 0 400.73 0 400.73 24.88"/><polygon class="ax" points="434.79 576.1 434.79 535.23 400.73 514.8 366.64 535.23 366.64 576.1 400.73 596.55 434.79 576.1"/><polygon class="ax" points="196.28 147.36 196.28 106.63 162.21 86.18 128.13 106.63 128.13 147.36 162.21 167.79 196.28 147.36"/><polygon class="ax" points="162.21 576.1 162.21 535.23 128.13 514.8 94.06 535.23 94.06 576.1 128.13 596.55 162.21 576.1"/><polygon class="ax" points="230.35 657.71 196.28 637.28 162.21 657.71 162.21 698.58 196.28 719.03 230.35 698.58 230.35 657.71"/><polygon class="ay" points="1048.11 657.71 1048.11 698.58 1082.19 719.03 1116.26 698.58 1116.26 657.71 1082.19 637.28 1048.11 657.71"/><polygon class="ay" points="911.82 902.67 911.82 943.54 945.89 963.99 979.96 943.54 979.96 902.67 945.89 882.24 911.82 902.67"/><polygon class="ay" points="571.08 657.71 571.08 698.58 605.16 719.03 639.23 698.58 639.23 657.71 605.16 637.28 571.08 657.71"/><polygon class="az" points="230.35 45.31 230.35 86.18 264.43 106.63 298.5 86.18 298.5 45.31 264.43 24.88 230.35 45.31"/><polygon class="az" points="59.99 106.63 59.99 147.36 94.06 167.79 128.13 147.36 128.13 106.63 94.06 86.18 59.99 106.63"/><polygon class="az" points="-8.15 596.55 -8.15 637.28 25.91 657.71 59.99 637.28 59.99 596.55 25.91 576.1 -8.15 596.55"/><polygon class="ba" points="1082.19 24.88 1116.26 45.31 1150.33 24.88 1150.33 0 1082.19 0 1082.19 24.88"/><polygon class="ba" points="1014.04 474.07 1014.04 514.8 1048.11 535.23 1082.19 514.8 1082.19 474.07 1048.11 453.62 1014.04 474.07"/><polygon class="ba" points="639.23 86.18 639.23 45.31 605.16 24.88 571.08 45.31 571.08 86.18 605.16 106.63 639.23 86.18"/><polygon class="ba" points="605.16 351.59 605.16 392.32 639.23 412.75 673.31 392.32 673.31 351.59 639.23 331.14 605.16 351.59"/><polygon class="ba" points="196.28 229.11 162.21 208.66 128.13 229.11 128.13 269.84 162.21 290.27 196.28 269.84 196.28 229.11"/><polygon class="bb" points="877.75 229.11 877.75 269.84 911.82 290.27 945.89 269.84 945.89 229.11 911.82 208.66 877.75 229.11"/><polygon class="bb" points="843.67 412.75 843.67 453.62 877.75 474.07 911.82 453.62 911.82 412.75 877.75 392.32 843.67 412.75"/><polygon class="bb" points="639.23 167.79 639.23 208.66 673.31 229.11 707.38 208.66 707.38 167.79 673.31 147.36 639.23 167.79"/><polygon class="bb" points="571.08 780.19 571.08 821.06 605.16 841.51 639.23 821.06 639.23 780.19 605.16 759.76 571.08 780.19"/><polygon class="bb" points="230.35 208.66 230.35 167.79 196.28 147.36 162.21 167.79 162.21 208.66 196.28 229.11 230.35 208.66"/><polygon class="bb" points="59.99 596.55 59.99 637.28 25.91 657.71 25.91 698.58 59.99 719.03 94.06 698.58 94.06 657.71 128.13 637.28 128.13 596.55 94.06 576.1 59.99 596.55"/><polygon class="bb" points="59.99 963.99 59.99 1004.72 94.06 1025.15 128.13 1004.72 128.13 963.99 94.06 943.54 59.99 963.99"/><polygon class="bb" points="25.91 208.66 25.91 167.79 -8.15 147.36 -42.23 167.79 -42.23 208.66 -8.15 229.11 25.91 208.66"/><polygon class="bb" points="-42.23 902.67 -42.23 943.54 -8.15 963.99 25.91 943.54 25.91 902.67 -8.15 882.24 -42.23 902.67"/><polygon class="bc" points="877.75 759.76 877.75 719.03 843.67 698.58 809.6 719.03 809.6 759.76 843.67 780.19 877.75 759.76"/><polygon class="bc" points="877.75 963.99 843.67 943.54 809.6 963.99 809.6 1004.72 843.67 1025.15 877.75 1004.72 877.75 963.99"/><polygon class="bc" points="332.57 229.11 332.57 269.84 366.64 290.27 400.73 269.84 400.73 229.11 366.64 208.66 332.57 229.11"/><polygon class="bd" points="1184.4 167.79 1184.4 208.66 1218.48 229.11 1252.55 208.66 1252.55 167.79 1218.48 147.36 1184.4 167.79"/><polygon class="bd" points="1014.04 147.36 1014.04 106.63 979.96 86.18 945.89 106.63 945.89 147.36 979.96 167.79 1014.04 147.36"/><polygon class="bd" points="1048.11 290.27 1048.11 331.14 1082.19 351.59 1116.26 331.14 1116.26 290.27 1082.19 269.84 1048.11 290.27"/><polygon class="bd" points="979.96 331.14 979.96 290.27 945.89 269.84 911.82 290.27 911.82 331.14 945.89 351.59 979.96 331.14"/><polygon class="bd" points="1014.04 719.03 1014.04 759.76 1048.11 780.19 1082.19 759.76 1082.19 719.03 1048.11 698.58 1014.04 719.03"/><polygon class="bd" points="945.89 963.99 911.82 943.54 877.75 963.99 877.75 1004.72 911.82 1025.15 945.89 1004.72 945.89 963.99"/><polygon class="bd" points="605.16 24.88 639.23 45.31 673.31 24.88 673.31 0 605.16 0 605.16 24.88"/><polygon class="bd" points="196.28 841.51 230.35 821.06 230.35 780.19 196.28 759.76 196.28 719.03 162.21 698.58 128.13 719.03 128.13 759.76 162.21 780.19 162.21 821.06 196.28 841.51"/><polygon class="be" points="1252.55 86.18 1252.55 45.31 1218.48 24.88 1184.4 45.31 1184.4 86.18 1218.48 106.63 1252.55 86.18"/><polygon class="be" points="1218.48 841.51 1218.48 882.24 1252.55 902.67 1286.63 882.24 1286.63 841.51 1252.55 821.06 1218.48 841.51"/><polygon class="be" points="1014.04 963.99 979.96 943.54 945.89 963.99 945.89 1004.72 979.96 1025.15 1014.04 1004.72 1014.04 963.99"/><polygon class="be" points="843.67 86.18 843.67 45.31 809.6 24.88 775.52 45.31 775.52 86.18 809.6 106.63 843.67 86.18"/><polygon class="be" points="775.52 821.06 775.52 780.19 741.45 759.76 707.38 780.19 707.38 821.06 741.45 841.51 775.52 821.06"/><polygon class="be" points="230.35 657.71 230.35 698.58 264.43 719.03 298.5 698.58 298.5 657.71 264.43 637.28 230.35 657.71"/><polygon class="bf" points="911.82 780.19 911.82 821.06 945.89 841.51 979.96 821.06 979.96 780.19 945.89 759.76 911.82 780.19"/><polygon class="bf" points="741.45 147.36 741.45 106.63 707.38 86.18 673.31 106.63 673.31 147.36 707.38 167.79 741.45 147.36"/><polygon class="bf" points="843.67 453.62 843.67 412.75 809.6 392.32 775.52 412.75 775.52 453.62 809.6 474.07 843.67 453.62"/><polygon class="bf" points="741.45 882.24 741.45 841.51 707.38 821.06 673.31 841.51 673.31 882.24 707.38 902.67 741.45 882.24"/><polygon class="bf" points="502.94 45.31 502.94 86.18 537.01 106.63 571.08 86.18 571.08 45.31 537.01 24.88 502.94 45.31"/><polygon class="bf" points="94.06 45.31 94.06 86.18 128.13 106.63 162.21 86.18 162.21 45.31 128.13 24.88 94.06 45.31"/><polygon class="bf" points="59.99 229.11 59.99 269.84 94.06 290.27 128.13 269.84 128.13 229.11 94.06 208.66 59.99 229.11"/><polygon class="bf" points="196.28 474.07 196.28 514.8 230.35 535.23 264.43 514.8 264.43 474.07 230.35 453.62 196.28 474.07"/><polygon class="bf" points="-8.15 474.07 -8.15 514.8 25.91 535.23 59.99 514.8 59.99 474.07 25.91 453.62 -8.15 474.07"/><polygon class="bf" points="-42.23 657.71 -42.23 698.58 -8.15 719.03 25.91 698.58 25.91 657.71 -8.15 637.28 -42.23 657.71"/><polygon class="bg" points="1082.19 229.11 1082.19 269.84 1116.26 290.27 1150.33 269.84 1150.33 229.11 1116.26 208.66 1082.19 229.11"/><polygon class="bg" points="741.45 514.8 741.45 474.07 707.38 453.62 673.31 474.07 673.31 514.8 707.38 535.23 741.45 514.8"/><polygon class="bg" points="707.38 657.71 673.31 637.28 639.23 657.71 639.23 698.58 673.31 719.03 707.38 698.58 707.38 657.71"/><polygon class="bg" points="264.43 24.88 298.5 45.31 332.57 24.88 332.57 0 264.43 0 264.43 24.88"/><polygon class="bg" points="264.43 229.11 264.43 269.84 298.5 290.27 332.57 269.84 332.57 229.11 298.5 208.66 264.43 229.11"/><polygon class="bg" points="196.28 841.51 196.28 882.24 230.35 902.67 264.43 882.24 264.43 841.51 230.35 821.06 196.28 841.51"/><polygon class="bh" points="1116.26 45.31 1116.26 86.18 1150.33 106.63 1184.4 86.18 1184.4 45.31 1150.33 24.88 1116.26 45.31"/><polygon class="bh" points="1116.26 167.79 1116.26 208.66 1150.33 229.11 1184.4 208.66 1184.4 167.79 1150.33 147.36 1116.26 167.79"/><polygon class="bh" points="1014.04 351.59 1014.04 392.32 1048.11 412.75 1082.19 392.32 1082.19 351.59 1048.11 331.14 1014.04 351.59"/><polygon class="bh" points="877.75 719.03 877.75 759.76 911.82 780.19 945.89 759.76 945.89 719.03 911.82 698.58 877.75 719.03"/><polygon class="bh" points="979.96 902.67 979.96 943.54 1014.04 963.99 1048.11 943.54 1048.11 902.67 1014.04 882.24 979.96 902.67"/><polygon class="bh" points="911.82 331.14 911.82 290.27 877.75 269.84 843.67 290.27 843.67 331.14 877.75 351.59 911.82 331.14"/><polygon class="bh" points="673.31 229.11 673.31 269.84 707.38 290.27 741.45 269.84 741.45 229.11 707.38 208.66 673.31 229.11"/><polygon class="bh" points="775.52 535.23 775.52 576.1 809.6 596.55 843.67 576.1 843.67 535.23 809.6 514.8 775.52 535.23"/><polygon class="bh" points="537.01 596.55 537.01 637.28 571.08 657.71 605.16 637.28 605.16 596.55 571.08 576.1 537.01 596.55"/><polygon class="bh" points="230.35 902.67 230.35 943.54 264.43 963.99 298.5 943.54 298.5 902.67 264.43 882.24 230.35 902.67"/><polygon class="bh" points="230.35 331.14 230.35 290.27 196.28 269.84 162.21 290.27 162.21 331.14 196.28 351.59 230.35 331.14"/><polygon class="bh" points="59.99 841.51 59.99 882.24 94.06 902.67 128.13 882.24 128.13 841.51 94.06 821.06 59.99 841.51"/><polygon class="bi" points="1354.77 882.24 1354.77 841.51 1320.7 821.06 1286.63 841.51 1286.63 882.24 1320.7 902.67 1354.77 882.24"/><polygon class="bi" points="1286.63 24.88 1286.63 0 1218.48 0 1218.48 24.88 1252.55 45.31 1286.63 24.88"/><polygon class="bi" points="911.82 167.79 911.82 208.66 945.89 229.11 979.96 208.66 979.96 167.79 945.89 147.36 911.82 167.79"/><polygon class="bi" points="1048.11 535.23 1048.11 576.1 1082.19 596.55 1116.26 576.1 1116.26 535.23 1082.19 514.8 1048.11 535.23"/><polygon class="bi" points="1048.11 780.19 1048.11 821.06 1082.19 841.51 1116.26 821.06 1116.26 780.19 1082.19 759.76 1048.11 780.19"/><polygon class="bi" points="639.23 290.27 605.16 269.84 571.08 290.27 571.08 331.14 605.16 351.59 639.23 331.14 673.31 351.59 707.38 331.14 707.38 290.27 673.31 269.84 639.23 290.27"/><polygon class="bi" points="502.94 412.75 502.94 453.62 537.01 474.07 571.08 453.62 571.08 412.75 537.01 392.32 502.94 412.75"/><polygon class="bi" points="298.5 45.31 298.5 86.18 332.57 106.63 366.64 86.18 366.64 45.31 332.57 24.88 298.5 45.31"/><polygon class="bi" points="128.13 24.88 162.21 45.31 196.28 24.88 196.28 0 128.13 0 128.13 24.88"/><polygon class="bi" points="-8.15 351.59 -8.15 392.32 25.91 412.75 59.99 392.32 59.99 351.59 25.91 331.14 -8.15 351.59"/><polygon class="bi" points="-42.23 535.23 -42.23 576.1 -8.15 596.55 25.91 576.1 25.91 535.23 -8.15 514.8 -42.23 535.23"/><polygon class="bj" points="979.96 167.79 979.96 208.66 1014.04 229.11 1048.11 208.66 1048.11 167.79 1014.04 147.36 979.96 167.79"/><polygon class="bj" points="537.01 269.84 537.01 229.11 502.94 208.66 468.87 229.11 468.87 269.84 502.94 290.27 537.01 269.84"/><polygon class="bj" points="537.01 392.32 537.01 351.59 502.94 331.14 468.87 351.59 468.87 392.32 502.94 412.75 537.01 392.32"/><polygon class="bj" points="537.01 596.55 502.94 576.1 468.87 596.55 468.87 637.28 502.94 657.71 537.01 637.28 537.01 596.55"/><polygon class="bj" points="25.91 535.23 25.91 576.1 59.99 596.55 94.06 576.1 94.06 535.23 59.99 514.8 25.91 535.23"/><polygon class="bj" points="-8.15 841.51 -8.15 882.24 25.91 902.67 59.99 882.24 59.99 841.51 25.91 821.06 -8.15 841.51"/><polygon class="bj" points="25.91 453.62 25.91 412.75 -8.15 392.32 -42.23 412.75 -42.23 453.62 -8.15 474.07 25.91 453.62"/><polygon class="bk" points="673.31 24.88 707.38 45.31 741.45 24.88 741.45 0 673.31 0 673.31 24.88"/><polygon class="bk" points="877.75 147.36 877.75 106.63 843.67 86.18 809.6 106.63 809.6 147.36 843.67 167.79 877.75 147.36"/><polygon class="bk" points="843.67 902.67 843.67 943.54 877.75 963.99 911.82 943.54 911.82 902.67 877.75 882.24 843.67 902.67"/><polygon class="bk" points="332.57 392.32 332.57 351.59 298.5 331.14 264.43 351.59 264.43 392.32 298.5 412.75 332.57 392.32"/><polygon class="bk" points="298.5 780.19 298.5 821.06 332.57 841.51 366.64 821.06 366.64 780.19 332.57 759.76 298.5 780.19"/><polygon class="bl" points="1218.48 106.63 1218.48 147.36 1252.55 167.79 1286.63 147.36 1286.63 106.63 1252.55 86.18 1218.48 106.63"/><polygon class="bl" points="945.89 596.55 945.89 637.28 979.96 657.71 1014.04 637.28 1014.04 596.55 979.96 576.1 945.89 596.55"/><polygon class="bl" points="877.75 0 809.6 0 809.6 24.88 843.67 45.31 877.75 24.88 877.75 0"/><polygon class="bl" points="537.01 24.88 571.08 45.31 605.16 24.88 605.16 0 537.01 0 537.01 24.88"/><polygon class="bl" points="707.38 453.62 707.38 412.75 673.31 392.32 639.23 412.75 639.23 453.62 673.31 474.07 707.38 453.62"/><polygon class="bl" points="468.87 474.07 468.87 514.8 502.94 535.23 537.01 514.8 537.01 474.07 502.94 453.62 468.87 474.07"/><polygon class="bl" points="230.35 167.79 230.35 208.66 264.43 229.11 298.5 208.66 298.5 167.79 264.43 147.36 230.35 167.79"/><polygon class="bm" points="1252.55 902.67 1252.55 943.54 1286.63 963.99 1320.7 943.54 1320.7 902.67 1286.63 882.24 1252.55 902.67"/><polygon class="bm" points="1116.26 902.67 1116.26 943.54 1150.33 963.99 1184.4 943.54 1184.4 902.67 1150.33 882.24 1116.26 902.67"/><polygon class="bm" points="775.52 86.18 775.52 45.31 741.45 24.88 707.38 45.31 707.38 86.18 741.45 106.63 775.52 86.18"/><polygon class="bm" points="741.45 637.28 741.45 596.55 707.38 576.1 673.31 596.55 673.31 637.28 707.38 657.71 741.45 637.28"/><polygon class="bm" points="809.6 1004.72 809.6 963.99 775.52 943.54 741.45 963.99 741.45 1004.72 775.52 1025.15 809.6 1004.72"/><polygon class="bm" points="468.87 719.03 468.87 759.76 502.94 780.19 537.01 759.76 537.01 719.03 502.94 698.58 468.87 719.03"/><polygon class="bm" points="502.94 576.1 502.94 535.23 468.87 514.8 434.79 535.23 434.79 576.1 468.87 596.55 502.94 576.1"/><polygon class="bn" points="1082.19 963.99 1082.19 1004.72 1116.26 1025.15 1150.33 1004.72 1150.33 963.99 1116.26 943.54 1082.19 963.99"/><polygon class="bn" points="809.6 882.24 809.6 841.51 775.52 821.06 741.45 841.51 741.45 882.24 775.52 902.67 809.6 882.24"/><polygon class="bn" points="639.23 453.62 639.23 412.75 605.16 392.32 571.08 412.75 571.08 453.62 605.16 474.07 639.23 453.62"/><polygon class="bn" points="605.16 841.51 605.16 882.24 639.23 902.67 673.31 882.24 673.31 841.51 639.23 821.06 605.16 841.51"/><polygon class="bn" points="264.43 841.51 264.43 882.24 298.5 902.67 332.57 882.24 332.57 841.51 298.5 821.06 264.43 841.51"/><polygon class="bo" points="1082.19 106.63 1082.19 147.36 1116.26 167.79 1150.33 147.36 1150.33 106.63 1116.26 86.18 1082.19 106.63"/><polygon class="bo" points="128.13 841.51 128.13 882.24 162.21 902.67 196.28 882.24 196.28 841.51 162.21 821.06 128.13 841.51"/><polygon class="bp" points="1286.63 719.03 1286.63 759.76 1320.7 780.19 1354.77 759.76 1354.77 719.03 1320.7 698.58 1286.63 719.03"/><polygon class="bp" points="843.67 331.14 843.67 290.27 809.6 269.84 775.52 290.27 775.52 331.14 809.6 351.59 843.67 331.14"/><polygon class="bp" points="128.13 0 59.99 0 59.99 24.88 94.06 45.31 128.13 24.88 128.13 0"/><polygon class="bp" points="25.91 412.75 25.91 453.62 59.99 474.07 94.06 453.62 94.06 412.75 59.99 392.32 25.91 412.75"/><polygon class="bq" points="230.35 780.19 230.35 821.06 264.43 841.51 298.5 821.06 298.5 780.19 264.43 759.76 230.35 780.19"/><polygon class="br" points="1218.48 759.76 1218.48 719.03 1184.4 698.58 1150.33 719.03 1150.33 759.76 1184.4 780.19 1218.48 759.76"/><polygon class="br" points="979.96 290.27 979.96 331.14 1014.04 351.59 1048.11 331.14 1048.11 290.27 1014.04 269.84 979.96 290.27"/><polygon class="br" points="673.31 719.03 639.23 698.58 605.16 719.03 605.16 759.76 639.23 780.19 673.31 759.76 673.31 719.03"/><polygon class="br" points="434.79 167.79 400.73 147.36 366.64 167.79 366.64 208.66 400.73 229.11 434.79 208.66 434.79 167.79"/><polygon class="br" points="162.21 453.62 162.21 412.75 128.13 392.32 94.06 412.75 94.06 453.62 128.13 474.07 162.21 453.62"/><polygon class="br" points="162.21 535.23 162.21 576.1 196.28 596.55 230.35 576.1 230.35 535.23 196.28 514.8 162.21 535.23"/><polygon class="bs" points="1286.63 963.99 1286.63 1004.72 1320.7 1025.15 1354.77 1004.72 1354.77 963.99 1320.7 943.54 1286.63 963.99"/><polygon class="bs" points="1218.48 147.36 1218.48 106.63 1184.4 86.18 1150.33 106.63 1150.33 147.36 1184.4 167.79 1218.48 147.36"/><polygon class="bs" points="979.96 535.23 979.96 576.1 1014.04 596.55 1048.11 576.1 1048.11 535.23 1014.04 514.8 979.96 535.23"/><polygon class="bs" points="843.67 780.19 843.67 821.06 877.75 841.51 911.82 821.06 911.82 780.19 877.75 759.76 843.67 780.19"/><polygon class="bs" points="332.57 514.8 332.57 474.07 298.5 453.62 264.43 474.07 264.43 514.8 298.5 535.23 332.57 514.8"/><polygon class="bs" points="128.13 351.59 128.13 392.32 162.21 412.75 196.28 392.32 196.28 351.59 162.21 331.14 128.13 351.59"/><polygon class="bs" points="94.06 902.67 94.06 943.54 128.13 963.99 162.21 943.54 162.21 902.67 128.13 882.24 94.06 902.67"/><polygon class="bs" points="94.06 208.66 128.13 229.11 162.21 208.66 162.21 167.79 128.13 147.36 94.06 167.79 59.99 147.36 25.91 167.79 25.91 208.66 59.99 229.11 94.06 208.66"/><polygon class="bs" points="94.06 290.27 59.99 269.84 25.91 290.27 25.91 331.14 59.99 351.59 94.06 331.14 94.06 290.27"/><polygon class="bt" points="1184.4 453.62 1184.4 412.75 1150.33 392.32 1116.26 412.75 1116.26 453.62 1150.33 474.07 1184.4 453.62"/><polygon class="bt" points="1184.4 535.23 1184.4 576.1 1150.33 596.55 1150.33 637.28 1184.4 657.71 1218.48 637.28 1218.48 596.55 1252.55 576.1 1252.55 535.23 1218.48 514.8 1184.4 535.23"/><polygon class="bt" points="979.96 45.31 979.96 86.18 1014.04 106.63 1048.11 86.18 1048.11 45.31 1014.04 24.88 979.96 45.31"/><polygon class="bt" points="707.38 943.54 707.38 902.67 673.31 882.24 639.23 902.67 639.23 943.54 673.31 963.99 707.38 943.54"/><polygon class="bt" points="230.35 535.23 230.35 576.1 264.43 596.55 298.5 576.1 298.5 535.23 264.43 514.8 230.35 535.23"/><polygon class="bu" points="1218.48 392.32 1218.48 351.59 1184.4 331.14 1150.33 351.59 1150.33 392.32 1184.4 412.75 1218.48 392.32"/><polygon class="bu" points="1184.4 780.19 1184.4 821.06 1218.48 841.51 1252.55 821.06 1252.55 780.19 1218.48 759.76 1184.4 780.19"/><polygon class="bu" points="468.87 1004.72 502.94 1025.15 502.94 1066.02 537.01 1086.47 571.08 1066.02 571.08 1025.15 537.01 1004.72 537.01 963.99 502.94 943.54 502.94 902.67 537.01 882.24 537.01 841.51 502.94 821.06 468.87 841.51 468.87 882.24 434.79 902.67 434.79 943.54 468.87 963.99 468.87 1004.72"/><polygon class="bu" points="128.13 474.07 128.13 514.8 162.21 535.23 196.28 514.8 196.28 474.07 162.21 453.62 128.13 474.07"/><polygon class="bv" points="1116.26 780.19 1116.26 821.06 1150.33 841.51 1184.4 821.06 1184.4 780.19 1150.33 759.76 1116.26 780.19"/><polygon class="bv" points="1116.26 45.31 1082.19 24.88 1048.11 45.31 1048.11 86.18 1082.19 106.63 1116.26 86.18 1116.26 45.31"/><polygon class="bw" points="639.23 45.31 639.23 86.18 673.31 106.63 707.38 86.18 707.38 45.31 673.31 24.88 639.23 45.31"/><polygon class="bw" points="434.79 412.75 434.79 453.62 468.87 474.07 502.94 453.62 502.94 412.75 468.87 392.32 434.79 412.75"/><polygon class="bw" points="196.28 106.63 196.28 147.36 230.35 167.79 264.43 147.36 264.43 106.63 230.35 86.18 196.28 106.63"/><polygon class="bw" points="25.91 780.19 25.91 821.06 59.99 841.51 94.06 821.06 94.06 780.19 59.99 759.76 25.91 780.19"/><polygon class="bw" points="-8.15 963.99 -8.15 1004.72 25.91 1025.15 59.99 1004.72 59.99 963.99 25.91 943.54 -8.15 963.99"/><polygon class="bx" points="1286.63 392.32 1252.55 412.75 1252.55 453.62 1286.63 474.07 1320.7 453.62 1320.7 412.75 1286.63 392.32"/><polygon class="bx" points="673.31 963.99 673.31 1004.72 707.38 1025.15 741.45 1004.72 741.45 963.99 707.38 943.54 673.31 963.99"/><polygon class="bx" points="366.64 208.66 366.64 167.79 332.57 147.36 298.5 167.79 298.5 208.66 332.57 229.11 366.64 208.66"/><polygon class="bx" points="366.64 412.75 332.57 392.32 298.5 412.75 298.5 453.62 332.57 474.07 366.64 453.62 366.64 412.75"/><polygon class="by" points="673.31 963.99 639.23 943.54 605.16 963.99 605.16 1004.72 639.23 1025.15 673.31 1004.72 673.31 963.99"/><polygon class="by" points="196.28 596.55 196.28 637.28 230.35 657.71 264.43 637.28 264.43 596.55 230.35 576.1 196.28 596.55"/><polygon class="by" points="196.28 963.99 196.28 1004.72 230.35 1025.15 264.43 1004.72 264.43 963.99 230.35 943.54 196.28 963.99"/><polygon class="bz" points="434.79 167.79 434.79 208.66 468.87 229.11 502.94 208.66 502.94 167.79 468.87 147.36 434.79 167.79"/><polygon class="bz" points="59.99 24.88 59.99 0 -8.15 0 -8.15 24.88 25.91 45.31 59.99 24.88"/></g></svg>