<svg xmlns="http://www.w3.org/2000/svg" width="1800" height="1000" viewBox="0 0 1800 1000"><defs><style>.a{opacity:0.6;}.b{fill:#ebebea;}.c{fill:#eee;}.d{fill:#f8f8f8;}.e{fill:#efefef;}.f{fill:#ececec;}.g{fill:#fbfbfb;}.h{fill:#d5d5d5;}.i{fill:#fdfdfd;}.j{fill:#e3e3e2;}.k{fill:#dbdbda;}.l{fill:#f2f2f2;}.m{fill:#f2f2f1;}.n{fill:#ddd;}.o{fill:#c8c8c8;}.p{fill:#d9d9d9;}.q{fill:#e0e0df;}.r{fill:#d3d3d2;}.s{fill:#dddddc;}.t{fill:#e6e6e6;}.u{fill:#e8e8e7;}.v{fill:#fcfcfc;}.w{fill:#e7e7e7;}.x{fill:#efefee;}.y{fill:#cacac9;}.z{fill:#d2d2d2;}.aa{fill:#d2d2d1;}.ab{fill:#d7d7d6;}.ac{fill:#e0e0e0;}.ad{fill:#d9d9d8;}.ae{fill:#cfcfce;}.af{fill:#e8e8e8;}.ag{fill:#e4e4e3;}.ah{fill:#f1f1f1;}.ai{fill:#e2e2e2;}.aj{fill:#eaeae9;}.ak{fill:#dfdfdf;}.al{fill:#f6f6f6;}.am{fill:#eaeaea;}.an{fill:#dcdcdb;}.ao{fill:#e4e4e4;}.ap{fill:#f7f7f7;}.aq{fill:#dadad9;}.ar{fill:#f0f0f0;}.as{fill:#dcdcdc;}.at{fill:#f1f1f0;}.au{fill:#c8c8c7;}.av{fill:#d6d6d6;}.aw{fill:#eeeeed;}.ax{fill:#cfcfcf;}.ay{fill:#cccccb;}.az{fill:#c9c9c8;}.ba{fill:#dededd;}.bb{fill:#dadada;}.bc{fill:#e1e1e0;}.bd{fill:#d5d5d4;}.be{fill:#d1d1d0;}.bf{fill:#f3f3f3;}.bg{fill:#d4d4d3;}.bh{fill:#fafafa;}.bi{fill:#c6c6c5;}.bj{fill:#ebebeb;}.bk{fill:#cbcbca;}.bl{fill:#dfdfde;}.bm{fill:#cdcdcc;}.bn{fill:#c5c5c4;}.bo{fill:#f4f4f4;}.bp{fill:#d0d0cf;}.bq{fill:#ededed;}.br{fill:#e7e7e6;}.bs{fill:#d6d6d5;}.bt{fill:#cececd;}.bu{fill:#e5e5e4;}.bv{fill:#e1e1e1;}.bw{fill:#c7c7c6;}.bx{fill:#f5f5f5;}.by{fill:#f9f9f9;}.bz{fill:#e3e3e3;}.ca{fill:#d8d8d7;}.cb{fill:#fcfcfb;}.cc{fill:#e5e5e5;}.cd{fill:#e9e9e9;}</style></defs><title>hexagon</title><g class="a"><polyline class="b" points="1801.06 24.88 1766.98 45.31 1766.98 86.18 1801.06 106.63 1835.13 86.18 1835.13 45.31 1801.06 24.88"/><polyline class="c" points="1732.91 0 1664.77 0 1664.77 24.88 1698.84 45.31 1732.91 24.88 1732.91 0"/><polyline class="d" points="1801.06 147.36 1766.98 167.79 1766.98 208.66 1801.06 229.11 1835.13 208.66 1835.13 167.79 1801.06 147.36"/><polyline class="e" points="1732.91 147.36 1698.84 167.79 1698.84 208.66 1732.91 229.11 1766.98 208.66 1766.98 167.79 1732.91 147.36"/><polyline class="f" points="1766.98 86.18 1732.91 106.63 1732.91 147.36 1766.98 167.79 1801.06 147.36 1801.06 106.63 1766.98 86.18"/><polyline class="g" points="1698.84 86.18 1664.77 106.63 1664.77 147.36 1698.84 167.79 1732.91 147.36 1732.91 106.63 1698.84 86.18"/><polyline class="h" points="1766.98 576.1 1732.91 596.55 1732.91 637.28 1766.98 657.71 1801.06 637.28 1801.06 596.55 1766.98 576.1"/><polyline class="i" points="1766.98 698.58 1732.91 719.03 1732.91 759.76 1766.98 780.19 1801.06 759.76 1801.06 719.03 1766.98 698.58"/><polyline class="j" points="1801.06 637.28 1766.98 657.71 1766.98 698.58 1801.06 719.03 1835.13 698.58 1835.13 657.71 1801.06 637.28"/><polyline class="k" points="1698.84 698.58 1664.77 719.03 1664.77 759.76 1698.84 780.19 1732.91 759.76 1732.91 719.03 1698.84 698.58"/><polyline class="l" points="1801.06 759.76 1766.98 780.19 1766.98 821.06 1801.06 841.51 1835.13 821.06 1835.13 780.19 1801.06 759.76"/><polyline class="d" points="1698.84 821.06 1664.77 841.51 1664.77 882.24 1698.84 902.67 1732.91 882.24 1732.91 841.51 1698.84 821.06"/><polyline class="f" points="1698.84 943.54 1664.77 963.99 1664.77 1004.72 1698.84 1025.15 1732.91 1004.72 1732.91 963.99 1698.84 943.54"/><polyline class="d" points="1528.47 0 1460.33 0 1460.33 24.88 1494.4 45.31 1528.47 24.88 1528.47 0"/><polyline class="m" points="1630.69 86.18 1596.63 106.63 1596.63 147.36 1630.69 167.79 1664.77 147.36 1664.77 106.63 1630.69 86.18"/><polyline class="n" points="1494.4 86.18 1460.33 106.63 1460.33 147.36 1494.4 167.79 1528.47 147.36 1528.47 106.63 1494.4 86.18"/><polyline class="h" points="1630.69 208.66 1596.63 229.11 1596.63 269.84 1630.69 290.27 1664.77 269.84 1664.77 229.11 1630.69 208.66"/><polyline class="o" points="1664.77 269.84 1630.69 290.27 1630.69 331.14 1664.77 351.59 1698.84 331.14 1698.84 290.27 1664.77 269.84"/><polyline class="p" points="1528.47 269.84 1494.4 290.27 1494.4 331.14 1528.47 351.59 1562.55 331.14 1562.55 290.27 1528.47 269.84"/><polyline class="p" points="1630.69 576.1 1596.63 596.55 1596.63 637.28 1630.69 657.71 1664.77 637.28 1664.77 596.55 1630.69 576.1"/><polyline class="q" points="1562.55 576.1 1528.47 596.55 1528.47 637.28 1562.55 657.71 1596.63 637.28 1596.63 596.55 1562.55 576.1"/><polyline class="n" points="1596.63 514.8 1562.55 535.23 1562.55 576.1 1596.63 596.55 1630.69 576.1 1630.69 535.23 1596.63 514.8"/><polyline class="o" points="1494.4 453.62 1460.33 474.07 1460.33 514.8 1494.4 535.23 1528.47 514.8 1528.47 474.07 1494.4 453.62"/><polyline class="n" points="1494.4 576.1 1460.33 596.55 1460.33 637.28 1494.4 657.71 1528.47 637.28 1528.47 596.55 1494.4 576.1"/><polyline class="k" points="1460.33 24.88 1426.25 45.31 1426.25 86.18 1460.33 106.63 1494.4 86.18 1494.4 45.31 1460.33 24.88"/><polyline class="r" points="1460.33 147.36 1426.25 167.79 1426.25 208.66 1460.33 229.11 1494.4 208.66 1494.4 167.79 1460.33 147.36"/><polyline class="s" points="1426.25 208.66 1392.18 229.11 1392.18 269.84 1426.25 290.27 1460.33 269.84 1460.33 229.11 1426.25 208.66"/><polyline class="l" points="1460.33 269.84 1426.25 290.27 1426.25 331.14 1460.33 351.59 1494.4 331.14 1494.4 290.27 1460.33 269.84"/><polyline class="i" points="1358.11 208.66 1324.03 229.11 1324.03 269.84 1358.11 290.27 1392.18 269.84 1392.18 229.11 1358.11 208.66"/><polyline class="t" points="1426.25 331.14 1392.18 351.59 1392.18 392.32 1426.25 412.75 1460.33 392.32 1460.33 351.59 1426.25 331.14"/><polyline class="c" points="1392.18 392.32 1358.11 412.75 1358.11 453.62 1392.18 474.07 1426.25 453.62 1426.25 412.75 1392.18 392.32"/><polyline class="u" points="1426.25 453.62 1392.18 474.07 1392.18 514.8 1426.25 535.23 1460.33 514.8 1460.33 474.07 1426.25 453.62"/><polyline class="m" points="1460.33 514.8 1426.25 535.23 1426.25 576.1 1460.33 596.55 1494.4 576.1 1494.4 535.23 1460.33 514.8"/><polyline class="m" points="1324.03 514.8 1289.96 535.23 1289.96 576.1 1324.03 596.55 1358.11 576.1 1358.11 535.23 1324.03 514.8"/><polyline class="f" points="1289.96 453.62 1255.89 474.07 1255.89 514.8 1289.96 535.23 1324.03 514.8 1324.03 474.07 1289.96 453.62"/><polyline class="f" points="1426.25 698.58 1392.18 719.03 1392.18 759.76 1426.25 780.19 1460.33 759.76 1460.33 719.03 1426.25 698.58"/><polyline class="v" points="1392.18 637.28 1358.11 657.71 1358.11 698.58 1392.18 719.03 1426.25 698.58 1426.25 657.71 1392.18 637.28"/><polyline class="w" points="1324.03 637.28 1289.96 657.71 1289.96 698.58 1324.03 719.03 1358.11 698.58 1358.11 657.71 1324.03 637.28"/><polyline class="w" points="1289.96 576.1 1255.89 596.55 1255.89 637.28 1289.96 657.71 1324.03 637.28 1324.03 596.55 1289.96 576.1"/><polyline class="l" points="1289.96 821.06 1255.89 841.51 1255.89 882.24 1289.96 902.67 1324.03 882.24 1324.03 841.51 1289.96 821.06"/><polyline class="e" points="1426.25 943.54 1392.18 963.99 1392.18 1004.72 1426.25 1025.15 1460.33 1004.72 1460.33 963.99 1426.25 943.54"/><polyline class="d" points="1358.11 943.54 1324.03 963.99 1324.03 1004.72 1358.11 1025.15 1392.18 1004.72 1392.18 963.99 1358.11 943.54"/><polyline class="b" points="1392.18 882.24 1358.11 902.67 1358.11 943.54 1392.18 963.99 1426.25 943.54 1426.25 902.67 1392.18 882.24"/><polyline class="x" points="1255.89 0 1187.74 0 1187.74 24.88 1221.81 45.31 1255.89 24.88 1255.89 0"/><polyline class="i" points="1187.74 0 1119.59 0 1119.59 24.88 1153.67 45.31 1187.74 24.88 1187.74 0"/><polyline class="o" points="1119.59 0 1051.45 0 1051.45 24.88 1085.53 45.31 1119.59 24.88 1119.59 0"/><polyline class="y" points="1221.81 86.18 1187.74 106.63 1187.74 147.36 1221.81 167.79 1255.89 147.36 1255.89 106.63 1221.81 86.18"/><polyline class="p" points="1255.89 147.36 1221.81 167.79 1221.81 208.66 1255.89 229.11 1289.96 208.66 1289.96 167.79 1255.89 147.36"/><polyline class="n" points="1085.53 86.18 1051.45 106.63 1051.45 147.36 1085.53 167.79 1119.59 147.36 1119.59 106.63 1085.53 86.18"/><polyline class="z" points="1153.67 208.66 1119.59 229.11 1119.59 269.84 1153.67 290.27 1187.74 269.84 1187.74 229.11 1153.67 208.66"/><polyline class="aa" points="1187.74 392.32 1153.67 412.75 1153.67 453.62 1187.74 474.07 1221.81 453.62 1221.81 412.75 1187.74 392.32"/><polyline class="r" points="1119.59 392.32 1085.53 412.75 1085.53 453.62 1119.59 474.07 1153.67 453.62 1153.67 412.75 1119.59 392.32"/><polyline class="r" points="1153.67 331.14 1119.59 351.59 1119.59 392.32 1153.67 412.75 1187.74 392.32 1187.74 351.59 1153.67 331.14"/><polyline class="r" points="1085.53 331.14 1051.45 351.59 1051.45 392.32 1085.53 412.75 1119.59 392.32 1119.59 351.59 1085.53 331.14"/><polyline class="n" points="1085.53 453.62 1051.45 474.07 1051.45 514.8 1085.53 535.23 1119.59 514.8 1119.59 474.07 1085.53 453.62"/><polyline class="ab" points="1187.74 637.28 1153.67 657.71 1153.67 698.58 1187.74 719.03 1221.81 698.58 1221.81 657.71 1187.74 637.28"/><polyline class="q" points="1119.59 637.28 1085.53 657.71 1085.53 698.58 1119.59 719.03 1153.67 698.58 1153.67 657.71 1119.59 637.28"/><polyline class="ac" points="1187.74 759.76 1153.67 780.19 1153.67 821.06 1187.74 841.51 1221.81 821.06 1221.81 780.19 1187.74 759.76"/><polyline class="h" points="1221.81 943.54 1187.74 963.99 1187.74 1004.72 1221.81 1025.15 1255.89 1004.72 1255.89 963.99 1221.81 943.54"/><polyline class="p" points="1153.67 821.06 1119.59 841.51 1119.59 882.24 1153.67 902.67 1187.74 882.24 1187.74 841.51 1153.67 821.06"/><polyline class="n" points="1085.53 821.06 1051.45 841.51 1051.45 882.24 1085.53 902.67 1119.59 882.24 1119.59 841.51 1085.53 821.06"/><polyline class="b" points="983.31 0 915.15 0 915.15 24.88 949.23 45.31 983.31 24.88 983.31 0"/><polyline class="t" points="983.31 147.36 949.23 167.79 949.23 208.66 983.31 229.11 1017.37 208.66 1017.37 167.79 983.31 147.36"/><polyline class="z" points="1017.37 208.66 983.31 229.11 983.31 269.84 1017.37 290.27 1051.45 269.84 1051.45 229.11 1017.37 208.66"/><polyline class="s" points="949.23 208.66 915.15 229.11 915.15 269.84 949.23 290.27 983.31 269.84 983.31 229.11 949.23 208.66"/><polyline class="p" points="1017.37 331.14 983.31 351.59 983.31 392.32 1017.37 412.75 1051.45 392.32 1051.45 351.59 1017.37 331.14"/><polyline class="ad" points="915.15 392.32 881.09 412.75 881.09 453.62 915.15 474.07 949.23 453.62 949.23 412.75 915.15 392.32"/><polyline class="t" points="949.23 331.14 915.15 351.59 915.15 392.32 949.23 412.75 983.31 392.32 983.31 351.59 949.23 331.14"/><polyline class="ae" points="881.09 331.14 847.01 351.59 847.01 392.32 881.09 412.75 915.15 392.32 915.15 351.59 881.09 331.14"/><polyline class="h" points="1017.37 453.62 983.31 474.07 983.31 514.8 1017.37 535.23 1051.45 514.8 1051.45 474.07 1017.37 453.62"/><polyline class="n" points="1051.45 514.8 1017.37 535.23 1017.37 576.1 1051.45 596.55 1085.53 576.1 1085.53 535.23 1051.45 514.8"/><polyline class="af" points="949.23 453.62 915.15 474.07 915.15 514.8 949.23 535.23 983.31 514.8 983.31 474.07 949.23 453.62"/><polyline class="af" points="1017.37 576.1 983.31 596.55 983.31 637.28 1017.37 657.71 1051.45 637.28 1051.45 596.55 1017.37 576.1"/><polyline class="c" points="1051.45 637.28 1017.37 657.71 1017.37 698.58 1051.45 719.03 1085.53 698.58 1085.53 657.71 1051.45 637.28"/><polyline class="k" points="915.15 637.28 881.09 657.71 881.09 698.58 915.15 719.03 949.23 698.58 949.23 657.71 915.15 637.28"/><polyline class="g" points="983.31 759.76 949.23 780.19 949.23 821.06 983.31 841.51 1017.37 821.06 1017.37 780.19 983.31 759.76"/><polyline class="c" points="915.15 882.24 881.09 902.67 881.09 943.54 915.15 963.99 949.23 943.54 949.23 902.67 915.15 882.24"/><polyline class="ag" points="710.71 0 642.57 0 642.57 24.88 676.65 45.31 710.71 24.88 710.71 0"/><polyline class="r" points="744.79 86.18 710.71 106.63 710.71 147.36 744.79 167.79 778.87 147.36 778.87 106.63 744.79 86.18"/><polyline class="y" points="676.65 86.18 642.57 106.63 642.57 147.36 676.65 167.79 710.71 147.36 710.71 106.63 676.65 86.18"/><polyline class="n" points="812.93 208.66 778.87 229.11 778.87 269.84 812.93 290.27 847.01 269.84 847.01 229.11 812.93 208.66"/><polyline class="f" points="744.79 208.66 710.71 229.11 710.71 269.84 744.79 290.27 778.87 269.84 778.87 229.11 744.79 208.66"/><polyline class="q" points="744.79 331.14 710.71 351.59 710.71 392.32 744.79 412.75 778.87 392.32 778.87 351.59 744.79 331.14"/><polyline class="q" points="812.93 453.62 778.87 474.07 778.87 514.8 812.93 535.23 847.01 514.8 847.01 474.07 812.93 453.62"/><polyline class="n" points="847.01 514.8 812.93 535.23 812.93 576.1 847.01 596.55 881.09 576.1 881.09 535.23 847.01 514.8"/><polyline class="z" points="778.87 514.8 744.79 535.23 744.79 576.1 778.87 596.55 812.93 576.1 812.93 535.23 778.87 514.8"/><polyline class="ah" points="710.71 514.8 676.65 535.23 676.65 576.1 710.71 596.55 744.79 576.1 744.79 535.23 710.71 514.8"/><polyline class="n" points="744.79 453.62 710.71 474.07 710.71 514.8 744.79 535.23 778.87 514.8 778.87 474.07 744.79 453.62"/><polyline class="ac" points="812.93 576.1 778.87 596.55 778.87 637.28 812.93 657.71 847.01 637.28 847.01 596.55 812.93 576.1"/><polyline class="h" points="710.71 637.28 676.65 657.71 676.65 698.58 710.71 719.03 744.79 698.58 744.79 657.71 710.71 637.28"/><polyline class="y" points="744.79 698.58 710.71 719.03 710.71 759.76 744.79 780.19 778.87 759.76 778.87 719.03 744.79 698.58"/><polyline class="o" points="642.57 759.76 608.49 780.19 608.49 821.06 642.57 841.51 676.65 821.06 676.65 780.19 642.57 759.76"/><polyline class="w" points="608.49 698.58 574.43 719.03 574.43 759.76 608.49 780.19 642.57 759.76 642.57 719.03 608.49 698.58"/><polyline class="f" points="710.71 882.24 676.65 902.67 676.65 943.54 710.71 963.99 744.79 943.54 744.79 902.67 710.71 882.24"/><polyline class="g" points="744.79 943.54 710.71 963.99 710.71 1004.72 744.79 1025.15 778.87 1004.72 778.87 963.99 744.79 943.54"/><polyline class="q" points="574.43 24.88 540.35 45.31 540.35 86.18 574.43 106.63 608.49 86.18 608.49 45.31 574.43 24.88"/><polyline class="r" points="574.43 0 506.27 0 506.27 24.88 540.35 45.31 574.43 24.88 574.43 0"/><polyline class="m" points="608.49 86.18 574.43 106.63 574.43 147.36 608.49 167.79 642.57 147.36 642.57 106.63 608.49 86.18"/><polyline class="f" points="540.35 86.18 506.27 106.63 506.27 147.36 540.35 167.79 574.43 147.36 574.43 106.63 540.35 86.18"/><polyline class="e" points="472.21 86.18 438.13 106.63 438.13 147.36 472.21 167.79 506.27 147.36 506.27 106.63 472.21 86.18"/><polyline class="m" points="608.49 208.66 574.43 229.11 574.43 269.84 608.49 290.27 642.57 269.84 642.57 229.11 608.49 208.66"/><polyline class="ai" points="642.57 269.84 608.49 290.27 608.49 331.14 642.57 351.59 676.65 331.14 676.65 290.27 642.57 269.84"/><polyline class="x" points="574.43 269.84 540.35 290.27 540.35 331.14 574.43 351.59 608.49 331.14 608.49 290.27 574.43 269.84"/><polyline class="ad" points="506.27 269.84 472.21 290.27 472.21 331.14 506.27 351.59 540.35 331.14 540.35 290.27 506.27 269.84"/><polyline class="u" points="608.49 331.14 574.43 351.59 574.43 392.32 608.49 412.75 642.57 392.32 642.57 351.59 608.49 331.14"/><polyline class="j" points="608.49 453.62 574.43 474.07 574.43 514.8 608.49 535.23 642.57 514.8 642.57 474.07 608.49 453.62"/><polyline class="c" points="506.27 514.8 472.21 535.23 472.21 576.1 506.27 596.55 540.35 576.1 540.35 535.23 506.27 514.8"/><polyline class="v" points="608.49 576.1 574.43 596.55 574.43 637.28 608.49 657.71 642.57 637.28 642.57 596.55 608.49 576.1"/><polyline class="i" points="574.43 637.28 540.35 657.71 540.35 698.58 574.43 719.03 608.49 698.58 608.49 657.71 574.43 637.28"/><polyline class="b" points="540.35 576.1 506.27 596.55 506.27 637.28 540.35 657.71 574.43 637.28 574.43 596.55 540.35 576.1"/><polyline class="ab" points="472.21 576.1 438.13 596.55 438.13 637.28 472.21 657.71 506.27 637.28 506.27 596.55 472.21 576.1"/><polyline class="i" points="574.43 759.76 540.35 780.19 540.35 821.06 574.43 841.51 608.49 821.06 608.49 780.19 574.43 759.76"/><polyline class="c" points="540.35 698.58 506.27 719.03 506.27 759.76 540.35 780.19 574.43 759.76 574.43 719.03 540.35 698.58"/><polygon class="aj" points="1562.55 45.31 1562.55 86.18 1596.63 106.63 1630.69 86.18 1630.69 45.31 1596.63 24.88 1562.55 45.31"/><polygon class="aj" points="1426.25 290.27 1392.18 269.84 1358.11 290.27 1358.11 331.14 1392.18 351.59 1426.25 331.14 1426.25 290.27"/><polygon class="aj" points="1426.25 780.19 1426.25 821.06 1460.33 841.51 1494.4 821.06 1494.4 780.19 1460.33 759.76 1426.25 780.19"/><polygon class="aj" points="1085.53 86.18 1085.53 45.31 1051.45 24.88 1017.37 45.31 1017.37 86.18 1051.45 106.63 1085.53 86.18"/><polygon class="aj" points="438.13 719.03 438.13 759.76 472.21 780.19 506.27 759.76 506.27 719.03 472.21 698.58 438.13 719.03"/><polyline class="ai" points="404.05 698.58 369.99 719.03 369.99 759.76 404.05 780.19 438.13 759.76 438.13 719.03 404.05 698.58"/><polyline class="e" points="506.27 882.24 472.21 902.67 472.21 943.54 506.27 963.99 540.35 943.54 540.35 902.67 506.27 882.24"/><polyline class="u" points="540.35 943.54 506.27 963.99 506.27 1004.72 540.35 1025.15 574.43 1004.72 574.43 963.99 540.35 943.54"/><polyline class="n" points="438.13 0 369.99 0 369.99 24.88 404.05 45.31 438.13 24.88 438.13 0"/><polyline class="q" points="369.99 24.88 335.91 45.31 335.91 86.18 369.99 106.63 404.05 86.18 404.05 45.31 369.99 24.88"/><polygon class="ak" points="1596.63 351.59 1596.63 392.32 1630.69 412.75 1664.77 392.32 1664.77 351.59 1630.69 331.14 1596.63 351.59"/><polygon class="ak" points="1460.33 351.59 1460.33 392.32 1494.4 412.75 1528.47 392.32 1528.47 351.59 1494.4 331.14 1460.33 351.59"/><polygon class="ak" points="438.13 229.11 404.05 208.66 369.99 229.11 369.99 269.84 404.05 290.27 438.13 269.84 438.13 229.11"/><polyline class="n" points="301.83 269.84 267.77 290.27 267.77 331.14 301.83 351.59 335.91 331.14 335.91 290.27 301.83 269.84"/><polygon class="al" points="1698.84 535.23 1698.84 576.1 1732.91 596.55 1766.98 576.1 1766.98 535.23 1732.91 514.8 1698.84 535.23"/><polygon class="al" points="1426.25 657.71 1426.25 698.58 1460.33 719.03 1494.4 698.58 1494.4 657.71 1460.33 637.28 1426.25 657.71"/><polygon class="al" points="574.43 351.59 540.35 331.14 506.27 351.59 506.27 392.32 540.35 412.75 540.35 453.62 574.43 474.07 608.49 453.62 608.49 412.75 574.43 392.32 574.43 351.59"/><polygon class="al" points="438.13 392.32 438.13 351.59 404.05 331.14 369.99 351.59 369.99 392.32 404.05 412.75 438.13 392.32"/><polyline class="ae" points="369.99 392.32 335.91 412.75 335.91 453.62 369.99 474.07 404.05 453.62 404.05 412.75 369.99 392.32"/><polyline class="h" points="301.83 637.28 267.77 657.71 267.77 698.58 301.83 719.03 335.91 698.58 335.91 657.71 301.83 637.28"/><polygon class="am" points="1358.11 331.14 1358.11 290.27 1324.03 269.84 1289.96 290.27 1289.96 331.14 1324.03 351.59 1358.11 331.14"/><polygon class="am" points="983.31 596.55 949.23 576.1 915.15 596.55 915.15 637.28 949.23 657.71 949.23 698.58 983.31 719.03 1017.37 698.58 1017.37 657.71 983.31 637.28 983.31 596.55"/><polygon class="am" points="540.35 698.58 540.35 657.71 506.27 637.28 472.21 657.71 472.21 698.58 506.27 719.03 540.35 698.58"/><polygon class="am" points="506.27 841.51 506.27 882.24 540.35 902.67 574.43 882.24 574.43 841.51 540.35 821.06 506.27 841.51"/><polygon class="am" points="267.77 780.19 267.77 821.06 301.83 841.51 335.91 821.06 335.91 780.19 301.83 759.76 267.77 780.19"/><polyline class="q" points="369.99 882.24 335.91 902.67 335.91 943.54 369.99 963.99 404.05 943.54 404.05 902.67 369.99 882.24"/><polyline class="ad" points="233.69 882.24 199.61 902.67 199.61 943.54 233.69 963.99 267.77 943.54 267.77 902.67 233.69 882.24"/><polyline class="ac" points="335.91 943.54 301.83 963.99 301.83 1004.72 335.91 1025.15 369.99 1004.72 369.99 963.99 335.91 943.54"/><polygon class="an" points="1766.98 290.27 1732.91 269.84 1698.84 290.27 1698.84 331.14 1732.91 351.59 1766.98 331.14 1766.98 290.27"/><polygon class="an" points="1766.98 412.75 1766.98 453.62 1801.06 474.07 1835.13 453.62 1835.13 412.75 1801.06 392.32 1766.98 412.75"/><polygon class="an" points="1085.53 535.23 1085.53 576.1 1119.59 596.55 1153.67 576.1 1153.67 535.23 1119.59 514.8 1085.53 535.23"/><polygon class="an" points="301.83 351.59 267.77 331.14 233.69 351.59 233.69 392.32 267.77 412.75 301.83 392.32 301.83 351.59"/><polygon class="ao" points="1392.18 474.07 1358.11 453.62 1324.03 474.07 1324.03 514.8 1358.11 535.23 1392.18 514.8 1392.18 474.07"/><polygon class="ao" points="1392.18 596.55 1392.18 637.28 1426.25 657.71 1460.33 637.28 1460.33 596.55 1426.25 576.1 1392.18 596.55"/><polygon class="ao" points="1085.53 208.66 1085.53 167.79 1051.45 147.36 1017.37 167.79 1017.37 208.66 1051.45 229.11 1085.53 208.66"/><polygon class="ao" points="812.93 902.67 778.87 882.24 744.79 902.67 744.79 943.54 778.87 963.99 812.93 943.54 812.93 902.67"/><polygon class="ao" points="540.35 902.67 540.35 943.54 574.43 963.99 608.49 943.54 608.49 902.67 574.43 882.24 540.35 902.67"/><polyline class="c" points="233.69 24.88 199.61 45.31 199.61 86.18 233.69 106.63 267.77 86.18 267.77 45.31 233.69 24.88"/><polygon class="ap" points="1698.84 86.18 1698.84 45.31 1664.77 24.88 1630.69 45.31 1630.69 86.18 1664.77 106.63 1698.84 86.18"/><polygon class="ap" points="1596.63 24.88 1596.63 0 1528.47 0 1528.47 24.88 1562.55 45.31 1596.63 24.88"/><polygon class="ap" points="1324.03 351.59 1289.96 331.14 1255.89 351.59 1255.89 392.32 1289.96 412.75 1324.03 392.32 1324.03 351.59"/><polygon class="ap" points="949.23 208.66 949.23 167.79 983.31 147.36 983.31 106.63 949.23 86.18 915.15 106.63 915.15 147.36 881.09 167.79 881.09 208.66 915.15 229.11 949.23 208.66"/><polygon class="ap" points="983.31 719.03 949.23 698.58 915.15 719.03 881.09 698.58 847.01 719.03 847.01 759.76 881.09 780.19 915.15 759.76 949.23 780.19 983.31 759.76 983.31 719.03"/><polygon class="ap" points="983.31 882.24 1017.37 902.67 1051.45 882.24 1051.45 841.51 1017.37 821.06 983.31 841.51 983.31 882.24"/><polygon class="ap" points="574.43 882.24 608.49 902.67 642.57 882.24 642.57 841.51 608.49 821.06 574.43 841.51 574.43 882.24"/><polygon class="ap" points="642.57 1004.72 642.57 963.99 608.49 943.54 574.43 963.99 574.43 1004.72 608.49 1025.15 642.57 1004.72"/><polygon class="ap" points="574.43 474.07 540.35 453.62 506.27 474.07 506.27 514.8 540.35 535.23 574.43 514.8 574.43 474.07"/><polygon class="ap" points="608.49 657.71 608.49 698.58 642.57 719.03 676.65 698.58 676.65 657.71 642.57 637.28 608.49 657.71"/><polygon class="ap" points="438.13 963.99 438.13 1004.72 472.21 1025.15 506.27 1004.72 506.27 963.99 472.21 943.54 438.13 963.99"/><polygon class="ap" points="131.47 45.31 131.47 86.18 165.55 106.63 199.61 86.18 199.61 45.31 165.55 24.88 131.47 45.31"/><polyline class="h" points="165.55 0 97.39 0 97.39 24.88 131.47 45.31 165.55 24.88 165.55 0"/><polyline class="ae" points="97.39 0 29.25 0 29.25 24.88 63.33 45.31 97.39 24.88 97.39 0"/><polyline class="ad" points="131.47 86.18 97.39 106.63 97.39 147.36 131.47 167.79 165.55 147.36 165.55 106.63 131.47 86.18"/><polyline class="ab" points="63.33 86.18 29.25 106.63 29.25 147.36 63.33 167.79 97.39 147.36 97.39 106.63 63.33 86.18"/><polyline class="t" points="199.61 208.66 165.55 229.11 165.55 269.84 199.61 290.27 233.69 269.84 233.69 229.11 199.61 208.66"/><polyline class="k" points="29.25 269.84 -4.83 290.27 -4.83 331.14 29.25 351.59 63.33 331.14 63.33 290.27 29.25 269.84"/><polyline class="aq" points="63.33 208.66 29.25 229.11 29.25 269.84 63.33 290.27 97.39 269.84 97.39 229.11 63.33 208.66"/><polyline class="ar" points="29.25 392.32 -4.83 412.75 -4.83 453.62 29.25 474.07 63.33 453.62 63.33 412.75 29.25 392.32"/><polyline class="y" points="63.33 453.62 29.25 474.07 29.25 514.8 63.33 535.23 97.39 514.8 97.39 474.07 63.33 453.62"/><polygon class="as" points="1051.45 596.55 1051.45 637.28 1085.53 657.71 1119.59 637.28 1119.59 596.55 1085.53 576.1 1051.45 596.55"/><polygon class="as" points="778.87 106.63 778.87 147.36 812.93 167.79 847.01 147.36 847.01 106.63 812.93 86.18 778.87 106.63"/><polygon class="as" points="233.69 474.07 233.69 514.8 267.77 535.23 301.83 514.8 301.83 474.07 267.77 453.62 233.69 474.07"/><polygon class="as" points="233.69 106.63 199.61 86.18 165.55 106.63 165.55 147.36 199.61 167.79 233.69 147.36 233.69 106.63"/><polygon class="as" points="-4.83 535.23 -4.83 576.1 -38.89 596.55 -38.89 637.28 -4.83 657.71 29.25 637.28 29.25 596.55 63.33 576.1 63.33 535.23 29.25 514.8 -4.83 535.23"/><polygon class="at" points="1664.77 474.07 1664.77 514.8 1698.84 535.23 1732.91 514.8 1732.91 474.07 1698.84 453.62 1664.77 474.07"/><polygon class="at" points="1085.53 45.31 1085.53 86.18 1119.59 106.63 1153.67 86.18 1153.67 45.31 1119.59 24.88 1085.53 45.31"/><polygon class="at" points="744.79 208.66 744.79 167.79 710.71 147.36 676.65 167.79 676.65 208.66 710.71 229.11 744.79 208.66"/><polygon class="at" points="710.71 841.51 710.71 882.24 744.79 902.67 778.87 882.24 778.87 841.51 744.79 821.06 710.71 841.51"/><polygon class="at" points="131.47 780.19 131.47 821.06 165.55 841.51 199.61 821.06 199.61 780.19 165.55 759.76 131.47 780.19"/><polyline class="k" points="97.39 759.76 63.33 780.19 63.33 821.06 97.39 841.51 131.47 821.06 131.47 780.19 97.39 759.76"/><polyline class="au" points="29.25 759.76 -4.83 780.19 -4.83 821.06 29.25 841.51 63.33 821.06 63.33 780.19 29.25 759.76"/><polygon class="av" points="1460.33 229.11 1460.33 269.84 1494.4 290.27 1528.47 269.84 1528.47 229.11 1494.4 208.66 1460.33 229.11"/><polygon class="av" points="404.05 412.75 404.05 453.62 438.13 474.07 472.21 453.62 472.21 412.75 438.13 392.32 404.05 412.75"/><polygon class="av" points="-38.89 719.03 -38.89 759.76 -4.83 780.19 29.25 759.76 29.25 719.03 -4.83 698.58 -38.89 719.03"/><polyline class="ab" points="-4.83 943.54 -38.89 963.99 -38.89 1004.72 -4.83 1025.15 29.25 1004.72 29.25 963.99 -4.83 943.54"/><polygon class="aw" points="1392.18 882.24 1392.18 841.51 1358.11 821.06 1324.03 841.51 1324.03 882.24 1358.11 902.67 1392.18 882.24"/><polygon class="aw" points="1324.03 759.76 1324.03 719.03 1289.96 698.58 1255.89 719.03 1255.89 759.76 1289.96 780.19 1324.03 759.76"/><polygon class="aw" points="881.09 535.23 881.09 576.1 915.15 596.55 949.23 576.1 949.23 535.23 915.15 514.8 881.09 535.23"/><polygon class="ax" points="1562.55 535.23 1528.47 514.8 1494.4 535.23 1494.4 576.1 1528.47 596.55 1562.55 576.1 1562.55 535.23"/><polygon class="ax" points="1562.55 657.71 1562.55 698.58 1596.63 719.03 1630.69 698.58 1630.69 657.71 1596.63 637.28 1562.55 657.71"/><polygon class="ax" points="1392.18 0 1324.03 0 1324.03 24.88 1358.11 45.31 1392.18 24.88 1392.18 0"/><polygon class="ax" points="881.09 290.27 881.09 331.14 915.15 351.59 949.23 331.14 949.23 290.27 915.15 269.84 881.09 290.27"/><polygon class="ax" points="165.55 719.03 165.55 759.76 199.61 780.19 233.69 759.76 233.69 719.03 199.61 698.58 165.55 719.03"/><polygon class="ax" points="199.61 331.14 199.61 290.27 165.55 269.84 131.47 290.27 131.47 331.14 165.55 351.59 199.61 331.14"/><polygon class="ax" points="97.39 841.51 97.39 882.24 131.47 902.67 165.55 882.24 165.55 841.51 131.47 821.06 97.39 841.51"/><polygon class="ay" points="1528.47 106.63 1528.47 147.36 1562.55 167.79 1596.63 147.36 1596.63 106.63 1562.55 86.18 1528.47 106.63"/><polygon class="ay" points="1698.84 453.62 1698.84 412.75 1664.77 392.32 1630.69 412.75 1630.69 453.62 1664.77 474.07 1698.84 453.62"/><polygon class="ay" points="744.79 780.19 710.71 759.76 676.65 780.19 676.65 821.06 710.71 841.51 744.79 821.06 744.79 780.19"/><polygon class="ay" points="472.21 331.14 472.21 290.27 438.13 269.84 404.05 290.27 404.05 331.14 438.13 351.59 472.21 331.14"/><polygon class="ay" points="29.25 351.59 29.25 392.32 63.33 412.75 97.39 392.32 97.39 351.59 63.33 331.14 29.25 351.59"/><polygon class="az" points="1630.69 657.71 1630.69 698.58 1664.77 719.03 1698.84 698.58 1698.84 657.71 1664.77 637.28 1630.69 657.71"/><polygon class="az" points="1562.55 780.19 1562.55 821.06 1596.63 841.51 1630.69 821.06 1630.69 780.19 1596.63 759.76 1562.55 780.19"/><polygon class="az" points="1255.89 269.84 1255.89 229.11 1221.81 208.66 1187.74 229.11 1187.74 269.84 1221.81 290.27 1255.89 269.84"/><polygon class="az" points="1187.74 514.8 1187.74 474.07 1153.67 453.62 1119.59 474.07 1119.59 514.8 1153.67 535.23 1187.74 514.8"/><polygon class="az" points="1187.74 719.03 1153.67 698.58 1119.59 719.03 1119.59 759.76 1153.67 780.19 1187.74 759.76 1187.74 719.03"/><polygon class="az" points="1255.89 841.51 1221.81 821.06 1187.74 841.51 1187.74 882.24 1221.81 902.67 1221.81 943.54 1255.89 963.99 1289.96 943.54 1289.96 902.67 1255.89 882.24 1255.89 841.51"/><polygon class="az" points="676.65 290.27 676.65 331.14 710.71 351.59 744.79 331.14 744.79 290.27 710.71 269.84 676.65 290.27"/><polygon class="az" points="812.93 780.19 812.93 821.06 847.01 841.51 881.09 821.06 881.09 780.19 847.01 759.76 812.93 780.19"/><polygon class="az" points="676.65 45.31 642.57 24.88 608.49 45.31 608.49 86.18 642.57 106.63 676.65 86.18 676.65 45.31"/><polygon class="az" points="301.83 596.55 301.83 637.28 335.91 657.71 369.99 637.28 369.99 596.55 335.91 576.1 301.83 596.55"/><polygon class="az" points="233.69 719.03 233.69 759.76 267.77 780.19 301.83 759.76 301.83 719.03 267.77 698.58 233.69 719.03"/><polygon class="az" points="29.25 719.03 29.25 759.76 63.33 780.19 97.39 759.76 97.39 719.03 63.33 698.58 29.25 719.03"/><polygon class="ba" points="1801.06 0 1732.91 0 1732.91 24.88 1766.98 45.31 1801.06 24.88 1801.06 0"/><polygon class="ba" points="1221.81 412.75 1221.81 453.62 1255.89 474.07 1289.96 453.62 1289.96 412.75 1255.89 392.32 1221.81 412.75"/><polygon class="ba" points="1187.74 596.55 1187.74 637.28 1221.81 657.71 1255.89 637.28 1255.89 596.55 1221.81 576.1 1187.74 596.55"/><polygon class="ba" points="949.23 902.67 949.23 943.54 983.31 963.99 1017.37 943.54 1017.37 902.67 983.31 882.24 949.23 902.67"/><polygon class="ba" points="744.79 167.79 744.79 208.66 778.87 229.11 812.93 208.66 812.93 167.79 778.87 147.36 744.79 167.79"/><polygon class="ba" points="574.43 24.88 608.49 45.31 642.57 24.88 642.57 0 574.43 0 574.43 24.88"/><polygon class="ba" points="608.49 576.1 608.49 535.23 574.43 514.8 540.35 535.23 540.35 576.1 574.43 596.55 608.49 576.1"/><polygon class="ba" points="369.99 147.36 369.99 106.63 335.91 86.18 301.83 106.63 301.83 147.36 335.91 167.79 369.99 147.36"/><polygon class="ba" points="335.91 576.1 335.91 535.23 301.83 514.8 267.77 535.23 267.77 576.1 301.83 596.55 335.91 576.1"/><polygon class="ba" points="404.05 657.71 369.99 637.28 335.91 657.71 335.91 698.58 369.99 719.03 404.05 698.58 404.05 657.71"/><polygon class="ba" points="29.25 474.07 -4.83 453.62 -38.89 474.07 -38.89 514.8 -4.83 535.23 29.25 514.8 29.25 474.07"/><polygon class="ba" points="97.39 963.99 63.33 943.54 29.25 963.99 29.25 1004.72 63.33 1025.15 97.39 1004.72 97.39 963.99"/><polygon class="bb" points="1221.81 657.71 1221.81 698.58 1255.89 719.03 1289.96 698.58 1289.96 657.71 1255.89 637.28 1221.81 657.71"/><polygon class="bb" points="1085.53 902.67 1085.53 943.54 1119.59 963.99 1153.67 943.54 1153.67 902.67 1119.59 882.24 1085.53 902.67"/><polygon class="bb" points="744.79 657.71 744.79 698.58 778.87 719.03 812.93 698.58 812.93 657.71 778.87 637.28 744.79 657.71"/><polygon class="bc" points="1630.69 167.79 1630.69 208.66 1664.77 229.11 1698.84 208.66 1698.84 167.79 1664.77 147.36 1630.69 167.79"/><polygon class="bc" points="404.05 45.31 404.05 86.18 438.13 106.63 472.21 86.18 472.21 45.31 438.13 24.88 404.05 45.31"/><polygon class="bc" points="233.69 106.63 233.69 147.36 267.77 167.79 301.83 147.36 301.83 106.63 267.77 86.18 233.69 106.63"/><polygon class="bc" points="165.55 596.55 165.55 637.28 199.61 657.71 233.69 637.28 233.69 596.55 199.61 576.1 165.55 596.55"/><polygon class="bd" points="1630.69 208.66 1630.69 167.79 1596.63 147.36 1562.55 167.79 1562.55 208.66 1596.63 229.11 1630.69 208.66"/><polygon class="bd" points="1596.63 351.59 1562.55 331.14 1528.47 351.59 1528.47 392.32 1562.55 412.75 1596.63 392.32 1596.63 351.59"/><polygon class="bd" points="1255.89 24.88 1289.96 45.31 1324.03 24.88 1324.03 0 1255.89 0 1255.89 24.88"/><polygon class="bd" points="1187.74 474.07 1187.74 514.8 1221.81 535.23 1255.89 514.8 1255.89 474.07 1221.81 453.62 1187.74 474.07"/><polygon class="bd" points="812.93 86.18 812.93 45.31 778.87 24.88 744.79 45.31 744.79 86.18 778.87 106.63 812.93 86.18"/><polygon class="bd" points="778.87 351.59 778.87 392.32 812.93 412.75 847.01 392.32 847.01 351.59 812.93 331.14 778.87 351.59"/><polygon class="bd" points="369.99 229.11 335.91 208.66 301.83 229.11 301.83 269.84 335.91 290.27 369.99 269.84 369.99 229.11"/><polygon class="be" points="1732.91 229.11 1732.91 269.84 1766.98 290.27 1801.06 269.84 1801.06 229.11 1766.98 208.66 1732.91 229.11"/><polygon class="be" points="1630.69 290.27 1596.63 269.84 1562.55 290.27 1562.55 331.14 1596.63 351.59 1630.69 331.14 1630.69 290.27"/><polygon class="be" points="1630.69 943.54 1664.77 963.99 1698.84 943.54 1698.84 902.67 1664.77 882.24 1630.69 902.67 1630.69 943.54"/><polygon class="be" points="1051.45 229.11 1051.45 269.84 1085.53 290.27 1119.59 269.84 1119.59 229.11 1085.53 208.66 1051.45 229.11"/><polygon class="be" points="1017.37 412.75 1017.37 453.62 1051.45 474.07 1085.53 453.62 1085.53 412.75 1051.45 392.32 1017.37 412.75"/><polygon class="be" points="812.93 167.79 812.93 208.66 847.01 229.11 881.09 208.66 881.09 167.79 847.01 147.36 812.93 167.79"/><polygon class="be" points="744.79 780.19 744.79 821.06 778.87 841.51 812.93 821.06 812.93 780.19 778.87 759.76 744.79 780.19"/><polygon class="be" points="404.05 208.66 404.05 167.79 369.99 147.36 335.91 167.79 335.91 208.66 369.99 229.11 404.05 208.66"/><polygon class="be" points="233.69 596.55 233.69 637.28 199.61 657.71 199.61 698.58 233.69 719.03 267.77 698.58 267.77 657.71 301.83 637.28 301.83 596.55 267.77 576.1 233.69 596.55"/><polygon class="be" points="233.69 963.99 233.69 1004.72 267.77 1025.15 301.83 1004.72 301.83 963.99 267.77 943.54 233.69 963.99"/><polygon class="be" points="199.61 208.66 199.61 167.79 165.55 147.36 131.47 167.79 131.47 208.66 165.55 229.11 199.61 208.66"/><polygon class="be" points="29.25 269.84 29.25 229.11 -4.83 208.66 -38.89 229.11 -38.89 269.84 -4.83 290.27 29.25 269.84"/><polygon class="be" points="165.55 514.8 165.55 474.07 131.47 453.62 97.39 474.07 97.39 514.8 131.47 535.23 165.55 514.8"/><polygon class="be" points="131.47 902.67 131.47 943.54 165.55 963.99 199.61 943.54 199.61 902.67 165.55 882.24 131.47 902.67"/><polygon class="bf" points="1528.47 963.99 1528.47 1004.72 1562.55 1025.15 1596.63 1004.72 1596.63 963.99 1562.55 943.54 1528.47 963.99"/><polygon class="bf" points="1051.45 759.76 1051.45 719.03 1017.37 698.58 983.31 719.03 983.31 759.76 1017.37 780.19 1051.45 759.76"/><polygon class="bf" points="1051.45 963.99 1017.37 943.54 983.31 963.99 983.31 1004.72 1017.37 1025.15 1051.45 1004.72 1051.45 963.99"/><polygon class="bf" points="506.27 229.11 506.27 269.84 540.35 290.27 574.43 269.84 574.43 229.11 540.35 208.66 506.27 229.11"/><polyline class="l" points="29.25 0 -38.89 0 -38.89 24.88 -4.83 45.31 29.25 24.88 29.25 0"/><polyline class="aa" points="29.25 24.88 -4.83 45.31 -4.83 86.18 29.25 106.63 63.33 86.18 63.33 45.31 29.25 24.88"/><polyline class="j" points="-4.83 86.18 -38.89 106.63 -38.89 147.36 -4.83 167.79 29.25 147.36 29.25 106.63 -4.83 86.18"/><polygon class="bg" points="1766.98 535.23 1766.98 576.1 1801.06 596.55 1835.13 576.1 1835.13 535.23 1801.06 514.8 1766.98 535.23"/><polygon class="bg" points="1494.4 657.71 1494.4 698.58 1528.47 719.03 1562.55 698.58 1562.55 657.71 1528.47 637.28 1494.4 657.71"/><polygon class="bg" points="1358.11 167.79 1358.11 208.66 1392.18 229.11 1426.25 208.66 1426.25 167.79 1392.18 147.36 1358.11 167.79"/><polygon class="bg" points="1187.74 147.36 1187.74 106.63 1153.67 86.18 1119.59 106.63 1119.59 147.36 1153.67 167.79 1187.74 147.36"/><polygon class="bg" points="1221.81 290.27 1221.81 331.14 1255.89 351.59 1289.96 331.14 1289.96 290.27 1255.89 269.84 1221.81 290.27"/><polygon class="bg" points="1153.67 331.14 1153.67 290.27 1119.59 269.84 1085.53 290.27 1085.53 331.14 1119.59 351.59 1153.67 331.14"/><polygon class="bg" points="1187.74 719.03 1187.74 759.76 1221.81 780.19 1255.89 759.76 1255.89 719.03 1221.81 698.58 1187.74 719.03"/><polygon class="bg" points="1119.59 963.99 1085.53 943.54 1051.45 963.99 1051.45 1004.72 1085.53 1025.15 1119.59 1004.72 1119.59 963.99"/><polygon class="bg" points="778.87 24.88 812.93 45.31 847.01 24.88 847.01 0 778.87 0 778.87 24.88"/><polygon class="bg" points="369.99 841.51 404.05 821.06 404.05 780.19 369.99 759.76 369.99 719.03 335.91 698.58 301.83 719.03 301.83 759.76 335.91 780.19 335.91 821.06 369.99 841.51"/><polygon class="bg" points="131.47 208.66 131.47 167.79 97.39 147.36 63.33 167.79 63.33 208.66 97.39 229.11 131.47 208.66"/><polygon class="bg" points="97.39 963.99 97.39 1004.72 131.47 1025.15 165.55 1004.72 165.55 963.99 131.47 943.54 97.39 963.99"/><polygon class="bh" points="1698.84 45.31 1698.84 86.18 1732.91 106.63 1766.98 86.18 1766.98 45.31 1732.91 24.88 1698.84 45.31"/><polygon class="bh" points="1426.25 86.18 1426.25 45.31 1392.18 24.88 1358.11 45.31 1358.11 86.18 1392.18 106.63 1426.25 86.18"/><polygon class="bh" points="1392.18 841.51 1392.18 882.24 1426.25 902.67 1460.33 882.24 1460.33 841.51 1426.25 821.06 1392.18 841.51"/><polygon class="bh" points="1187.74 963.99 1153.67 943.54 1119.59 963.99 1119.59 1004.72 1153.67 1025.15 1187.74 1004.72 1187.74 963.99"/><polygon class="bh" points="1017.37 86.18 1017.37 45.31 983.31 24.88 949.23 45.31 949.23 86.18 983.31 106.63 1017.37 86.18"/><polygon class="bh" points="949.23 821.06 949.23 780.19 915.15 759.76 881.09 780.19 881.09 821.06 915.15 841.51 949.23 821.06"/><polygon class="bh" points="404.05 657.71 404.05 698.58 438.13 719.03 472.21 698.58 472.21 657.71 438.13 637.28 404.05 657.71"/><polygon class="bi" points="1630.69 943.54 1630.69 902.67 1596.63 882.24 1562.55 902.67 1562.55 943.54 1596.63 963.99 1630.69 943.54"/><polygon class="bi" points="1085.53 780.19 1085.53 821.06 1119.59 841.51 1153.67 821.06 1153.67 780.19 1119.59 759.76 1085.53 780.19"/><polygon class="bi" points="915.15 147.36 915.15 106.63 881.09 86.18 847.01 106.63 847.01 147.36 881.09 167.79 915.15 147.36"/><polygon class="bi" points="1017.37 453.62 1017.37 412.75 983.31 392.32 949.23 412.75 949.23 453.62 983.31 474.07 1017.37 453.62"/><polygon class="bi" points="915.15 882.24 915.15 841.51 881.09 821.06 847.01 841.51 847.01 882.24 881.09 902.67 915.15 882.24"/><polygon class="bi" points="676.65 45.31 676.65 86.18 710.71 106.63 744.79 86.18 744.79 45.31 710.71 24.88 676.65 45.31"/><polygon class="bi" points="267.77 45.31 267.77 86.18 301.83 106.63 335.91 86.18 335.91 45.31 301.83 24.88 267.77 45.31"/><polygon class="bi" points="233.69 229.11 233.69 269.84 267.77 290.27 301.83 269.84 301.83 229.11 267.77 208.66 233.69 229.11"/><polygon class="bi" points="369.99 474.07 369.99 514.8 404.05 535.23 438.13 514.8 438.13 474.07 404.05 453.62 369.99 474.07"/><polygon class="bi" points="165.55 474.07 165.55 514.8 199.61 535.23 233.69 514.8 233.69 474.07 199.61 453.62 165.55 474.07"/><polygon class="bi" points="131.47 453.62 131.47 412.75 97.39 392.32 63.33 412.75 63.33 453.62 97.39 474.07 131.47 453.62"/><polygon class="bi" points="131.47 657.71 131.47 698.58 165.55 719.03 199.61 698.58 199.61 657.71 165.55 637.28 131.47 657.71"/><polygon class="bj" points="1732.91 392.32 1732.91 351.59 1698.84 331.14 1664.77 351.59 1664.77 392.32 1698.84 412.75 1732.91 392.32"/><polygon class="bj" points="1732.91 637.28 1732.91 596.55 1698.84 576.1 1664.77 596.55 1664.77 637.28 1698.84 657.71 1732.91 637.28"/><polygon class="bj" points="1255.89 229.11 1255.89 269.84 1289.96 290.27 1324.03 269.84 1324.03 229.11 1289.96 208.66 1255.89 229.11"/><polygon class="bj" points="915.15 514.8 915.15 474.07 881.09 453.62 847.01 474.07 847.01 514.8 881.09 535.23 915.15 514.8"/><polygon class="bj" points="881.09 657.71 847.01 637.28 812.93 657.71 812.93 698.58 847.01 719.03 881.09 698.58 881.09 657.71"/><polygon class="bj" points="438.13 24.88 472.21 45.31 506.27 24.88 506.27 0 438.13 0 438.13 24.88"/><polygon class="bj" points="438.13 229.11 438.13 269.84 472.21 290.27 506.27 269.84 506.27 229.11 472.21 208.66 438.13 229.11"/><polygon class="bj" points="369.99 841.51 369.99 882.24 404.05 902.67 438.13 882.24 438.13 841.51 404.05 821.06 369.99 841.51"/><polygon class="bj" points="63.33 902.67 63.33 943.54 97.39 963.99 131.47 943.54 131.47 902.67 97.39 882.24 63.33 902.67"/><polygon class="bk" points="1766.98 290.27 1766.98 331.14 1801.06 351.59 1835.13 331.14 1835.13 290.27 1801.06 269.84 1766.98 290.27"/><polygon class="bk" points="1732.91 269.84 1732.91 229.11 1698.84 208.66 1664.77 229.11 1664.77 269.84 1698.84 290.27 1732.91 269.84"/><polygon class="bk" points="1732.91 474.07 1732.91 514.8 1766.98 535.23 1801.06 514.8 1801.06 474.07 1766.98 453.62 1732.91 474.07"/><polygon class="bk" points="1732.91 841.51 1732.91 882.24 1766.98 902.67 1801.06 882.24 1801.06 841.51 1766.98 821.06 1732.91 841.51"/><polygon class="bk" points="1698.84 780.19 1664.77 759.76 1630.69 780.19 1630.69 821.06 1664.77 841.51 1698.84 821.06 1698.84 780.19"/><polygon class="bk" points="1596.63 963.99 1596.63 1004.72 1630.69 1025.15 1664.77 1004.72 1664.77 963.99 1630.69 943.54 1596.63 963.99"/><polygon class="bk" points="1289.96 45.31 1289.96 86.18 1324.03 106.63 1358.11 86.18 1358.11 45.31 1324.03 24.88 1289.96 45.31"/><polygon class="bk" points="1289.96 167.79 1289.96 208.66 1324.03 229.11 1358.11 208.66 1358.11 167.79 1324.03 147.36 1289.96 167.79"/><polygon class="bk" points="1187.74 351.59 1187.74 392.32 1221.81 412.75 1255.89 392.32 1255.89 351.59 1221.81 331.14 1187.74 351.59"/><polygon class="bk" points="1051.45 719.03 1051.45 759.76 1085.53 780.19 1119.59 759.76 1119.59 719.03 1085.53 698.58 1051.45 719.03"/><polygon class="bk" points="1153.67 902.67 1153.67 943.54 1187.74 963.99 1221.81 943.54 1221.81 902.67 1187.74 882.24 1153.67 902.67"/><polygon class="bk" points="1085.53 331.14 1085.53 290.27 1051.45 269.84 1017.37 290.27 1017.37 331.14 1051.45 351.59 1085.53 331.14"/><polygon class="bk" points="847.01 229.11 847.01 269.84 881.09 290.27 915.15 269.84 915.15 229.11 881.09 208.66 847.01 229.11"/><polygon class="bk" points="949.23 535.23 949.23 576.1 983.31 596.55 1017.37 576.1 1017.37 535.23 983.31 514.8 949.23 535.23"/><polygon class="bk" points="710.71 596.55 710.71 637.28 744.79 657.71 778.87 637.28 778.87 596.55 744.79 576.1 710.71 596.55"/><polygon class="bk" points="404.05 902.67 404.05 943.54 438.13 963.99 472.21 943.54 472.21 902.67 438.13 882.24 404.05 902.67"/><polygon class="bk" points="404.05 331.14 404.05 290.27 369.99 269.84 335.91 290.27 335.91 331.14 369.99 351.59 404.05 331.14"/><polygon class="bk" points="233.69 841.51 233.69 882.24 267.77 902.67 301.83 882.24 301.83 841.51 267.77 821.06 233.69 841.51"/><polygon class="bl" points="1664.77 514.8 1664.77 474.07 1630.69 453.62 1596.63 474.07 1596.63 514.8 1630.69 535.23 1664.77 514.8"/><polygon class="bl" points="63.33 657.71 63.33 698.58 97.39 719.03 131.47 698.58 131.47 657.71 97.39 637.28 63.33 657.71"/><polygon class="bm" points="1698.84 412.75 1698.84 453.62 1732.91 474.07 1766.98 453.62 1766.98 412.75 1732.91 392.32 1698.84 412.75"/><polygon class="bm" points="1528.47 229.11 1528.47 269.84 1562.55 290.27 1596.63 269.84 1596.63 229.11 1562.55 208.66 1528.47 229.11"/><polygon class="bm" points="1528.47 719.03 1528.47 759.76 1562.55 780.19 1596.63 759.76 1596.63 719.03 1562.55 698.58 1528.47 719.03"/><polygon class="bm" points="1528.47 882.24 1528.47 841.51 1494.4 821.06 1460.33 841.51 1460.33 882.24 1494.4 902.67 1528.47 882.24"/><polygon class="bm" points="1460.33 24.88 1460.33 0 1392.18 0 1392.18 24.88 1426.25 45.31 1460.33 24.88"/><polygon class="bm" points="1085.53 167.79 1085.53 208.66 1119.59 229.11 1153.67 208.66 1153.67 167.79 1119.59 147.36 1085.53 167.79"/><polygon class="bm" points="1221.81 535.23 1221.81 576.1 1255.89 596.55 1289.96 576.1 1289.96 535.23 1255.89 514.8 1221.81 535.23"/><polygon class="bm" points="1221.81 780.19 1221.81 821.06 1255.89 841.51 1289.96 821.06 1289.96 780.19 1255.89 759.76 1221.81 780.19"/><polygon class="bm" points="812.93 290.27 778.87 269.84 744.79 290.27 744.79 331.14 778.87 351.59 812.93 331.14 847.01 351.59 881.09 331.14 881.09 290.27 847.01 269.84 812.93 290.27"/><polygon class="bm" points="676.65 412.75 676.65 453.62 710.71 474.07 744.79 453.62 744.79 412.75 710.71 392.32 676.65 412.75"/><polygon class="bm" points="472.21 45.31 472.21 86.18 506.27 106.63 540.35 86.18 540.35 45.31 506.27 24.88 472.21 45.31"/><polygon class="bm" points="301.83 24.88 335.91 45.31 369.99 24.88 369.99 0 301.83 0 301.83 24.88"/><polygon class="bm" points="165.55 351.59 165.55 392.32 199.61 412.75 233.69 392.32 233.69 351.59 199.61 331.14 165.55 351.59"/><polygon class="bm" points="131.47 331.14 131.47 290.27 97.39 269.84 63.33 290.27 63.33 331.14 97.39 351.59 131.47 331.14"/><polygon class="bm" points="131.47 535.23 131.47 576.1 165.55 596.55 199.61 576.1 199.61 535.23 165.55 514.8 131.47 535.23"/><polygon class="bn" points="1153.67 167.79 1153.67 208.66 1187.74 229.11 1221.81 208.66 1221.81 167.79 1187.74 147.36 1153.67 167.79"/><polygon class="bn" points="710.71 269.84 710.71 229.11 676.65 208.66 642.57 229.11 642.57 269.84 676.65 290.27 710.71 269.84"/><polygon class="bn" points="710.71 392.32 710.71 351.59 676.65 331.14 642.57 351.59 642.57 392.32 676.65 412.75 710.71 392.32"/><polygon class="bn" points="710.71 596.55 676.65 576.1 642.57 596.55 642.57 637.28 676.65 657.71 710.71 637.28 710.71 596.55"/><polygon class="bn" points="199.61 535.23 199.61 576.1 233.69 596.55 267.77 576.1 267.77 535.23 233.69 514.8 199.61 535.23"/><polygon class="bn" points="165.55 841.51 165.55 882.24 199.61 902.67 233.69 882.24 233.69 841.51 199.61 821.06 165.55 841.51"/><polygon class="bn" points="199.61 453.62 199.61 412.75 165.55 392.32 131.47 412.75 131.47 453.62 165.55 474.07 199.61 453.62"/><polygon class="bn" points="-38.89 351.59 -38.89 392.32 -4.83 412.75 29.25 392.32 29.25 351.59 -4.83 331.14 -38.89 351.59"/><polygon class="bo" points="1698.84 902.67 1698.84 943.54 1732.91 963.99 1766.98 943.54 1766.98 902.67 1732.91 882.24 1698.84 902.67"/><polygon class="bo" points="847.01 24.88 881.09 45.31 915.15 24.88 915.15 0 847.01 0 847.01 24.88"/><polygon class="bo" points="1051.45 147.36 1051.45 106.63 1017.37 86.18 983.31 106.63 983.31 147.36 1017.37 167.79 1051.45 147.36"/><polygon class="bo" points="1017.37 902.67 1017.37 943.54 1051.45 963.99 1085.53 943.54 1085.53 902.67 1051.45 882.24 1017.37 902.67"/><polygon class="bo" points="506.27 392.32 506.27 351.59 472.21 331.14 438.13 351.59 438.13 392.32 472.21 412.75 506.27 392.32"/><polygon class="bo" points="472.21 780.19 472.21 821.06 506.27 841.51 540.35 821.06 540.35 780.19 506.27 759.76 472.21 780.19"/><polygon class="bo" points="97.39 596.55 97.39 637.28 131.47 657.71 165.55 637.28 165.55 596.55 131.47 576.1 97.39 596.55"/><polygon class="bp" points="1562.55 412.75 1562.55 453.62 1596.63 474.07 1630.69 453.62 1630.69 412.75 1596.63 392.32 1562.55 412.75"/><polygon class="bp" points="1392.18 106.63 1392.18 147.36 1426.25 167.79 1460.33 147.36 1460.33 106.63 1426.25 86.18 1392.18 106.63"/><polygon class="bp" points="1119.59 596.55 1119.59 637.28 1153.67 657.71 1187.74 637.28 1187.74 596.55 1153.67 576.1 1119.59 596.55"/><polygon class="bp" points="1051.45 0 983.31 0 983.31 24.88 1017.37 45.31 1051.45 24.88 1051.45 0"/><polygon class="bp" points="710.71 24.88 744.79 45.31 778.87 24.88 778.87 0 710.71 0 710.71 24.88"/><polygon class="bp" points="881.09 453.62 881.09 412.75 847.01 392.32 812.93 412.75 812.93 453.62 847.01 474.07 881.09 453.62"/><polygon class="bp" points="642.57 474.07 642.57 514.8 676.65 535.23 710.71 514.8 710.71 474.07 676.65 453.62 642.57 474.07"/><polygon class="bp" points="404.05 167.79 404.05 208.66 438.13 229.11 472.21 208.66 472.21 167.79 438.13 147.36 404.05 167.79"/><polygon class="bp" points="63.33 208.66 63.33 167.79 29.25 147.36 -4.83 167.79 -4.83 208.66 29.25 229.11 63.33 208.66"/><polygon class="bp" points="63.33 902.67 29.25 882.24 -4.83 902.67 -4.83 943.54 29.25 963.99 63.33 943.54 63.33 902.67"/><polygon class="bq" points="1732.91 963.99 1732.91 1004.72 1766.98 1025.15 1801.06 1004.72 1801.06 963.99 1766.98 943.54 1732.91 963.99"/><polygon class="bq" points="1426.25 902.67 1426.25 943.54 1460.33 963.99 1494.4 943.54 1494.4 902.67 1460.33 882.24 1426.25 902.67"/><polygon class="bq" points="1289.96 902.67 1289.96 943.54 1324.03 963.99 1358.11 943.54 1358.11 902.67 1324.03 882.24 1289.96 902.67"/><polygon class="bq" points="949.23 86.18 949.23 45.31 915.15 24.88 881.09 45.31 881.09 86.18 915.15 106.63 949.23 86.18"/><polygon class="bq" points="915.15 637.28 915.15 596.55 881.09 576.1 847.01 596.55 847.01 637.28 881.09 657.71 915.15 637.28"/><polygon class="bq" points="983.31 1004.72 983.31 963.99 949.23 943.54 915.15 963.99 915.15 1004.72 949.23 1025.15 983.31 1004.72"/><polygon class="bq" points="642.57 719.03 642.57 759.76 676.65 780.19 710.71 759.76 710.71 719.03 676.65 698.58 642.57 719.03"/><polygon class="bq" points="676.65 576.1 676.65 535.23 642.57 514.8 608.49 535.23 608.49 576.1 642.57 596.55 676.65 576.1"/><polygon class="br" points="1255.89 963.99 1255.89 1004.72 1289.96 1025.15 1324.03 1004.72 1324.03 963.99 1289.96 943.54 1255.89 963.99"/><polygon class="br" points="983.31 882.24 983.31 841.51 949.23 821.06 915.15 841.51 915.15 882.24 949.23 902.67 983.31 882.24"/><polygon class="br" points="812.93 453.62 812.93 412.75 778.87 392.32 744.79 412.75 744.79 453.62 778.87 474.07 812.93 453.62"/><polygon class="br" points="778.87 841.51 778.87 882.24 812.93 902.67 847.01 882.24 847.01 841.51 812.93 821.06 778.87 841.51"/><polygon class="br" points="438.13 841.51 438.13 882.24 472.21 902.67 506.27 882.24 506.27 841.51 472.21 821.06 438.13 841.51"/><polygon class="bs" points="1255.89 106.63 1255.89 147.36 1289.96 167.79 1324.03 147.36 1324.03 106.63 1289.96 86.18 1255.89 106.63"/><polygon class="bs" points="301.83 841.51 301.83 882.24 335.91 902.67 369.99 882.24 369.99 841.51 335.91 821.06 301.83 841.51"/><polygon class="bs" points="97.39 351.59 97.39 392.32 131.47 412.75 165.55 392.32 165.55 351.59 131.47 331.14 97.39 351.59"/><polygon class="bt" points="1494.4 167.79 1494.4 208.66 1528.47 229.11 1562.55 208.66 1562.55 167.79 1528.47 147.36 1494.4 167.79"/><polygon class="bt" points="1596.63 719.03 1596.63 759.76 1630.69 780.19 1664.77 759.76 1664.77 719.03 1630.69 698.58 1596.63 719.03"/><polygon class="bt" points="1460.33 719.03 1460.33 759.76 1494.4 780.19 1528.47 759.76 1528.47 719.03 1494.4 698.58 1460.33 719.03"/><polygon class="bt" points="1017.37 331.14 1017.37 290.27 983.31 269.84 949.23 290.27 949.23 331.14 983.31 351.59 1017.37 331.14"/><polygon class="bt" points="301.83 0 233.69 0 233.69 24.88 267.77 45.31 301.83 24.88 301.83 0"/><polygon class="bt" points="199.61 412.75 199.61 453.62 233.69 474.07 267.77 453.62 267.77 412.75 233.69 392.32 199.61 412.75"/><polygon class="bt" points="97.39 637.28 97.39 596.55 63.33 576.1 29.25 596.55 29.25 637.28 63.33 657.71 97.39 637.28"/><polygon class="bt" points="97.39 882.24 97.39 841.51 63.33 821.06 29.25 841.51 29.25 882.24 63.33 902.67 97.39 882.24"/><polygon class="bu" points="404.05 780.19 404.05 821.06 438.13 841.51 472.21 821.06 472.21 780.19 438.13 759.76 404.05 780.19"/><polygon class="bv" points="1766.98 902.67 1766.98 943.54 1801.06 963.99 1835.13 943.54 1835.13 902.67 1801.06 882.24 1766.98 902.67"/><polygon class="bv" points="1630.69 535.23 1630.69 576.1 1664.77 596.55 1698.84 576.1 1698.84 535.23 1664.77 514.8 1630.69 535.23"/><polygon class="bv" points="1596.63 514.8 1596.63 474.07 1562.55 453.62 1528.47 474.07 1528.47 514.8 1562.55 535.23 1596.63 514.8"/><polygon class="bv" points="1596.63 841.51 1562.55 821.06 1528.47 841.51 1528.47 882.24 1494.4 902.67 1494.4 943.54 1528.47 963.99 1562.55 943.54 1562.55 902.67 1596.63 882.24 1630.69 902.67 1664.77 882.24 1664.77 841.51 1630.69 821.06 1596.63 841.51"/><polygon class="bv" points="1392.18 759.76 1392.18 719.03 1358.11 698.58 1324.03 719.03 1324.03 759.76 1358.11 780.19 1392.18 759.76"/><polygon class="bv" points="1153.67 290.27 1153.67 331.14 1187.74 351.59 1221.81 331.14 1221.81 290.27 1187.74 269.84 1153.67 290.27"/><polygon class="bv" points="847.01 719.03 812.93 698.58 778.87 719.03 778.87 759.76 812.93 780.19 847.01 759.76 847.01 719.03"/><polygon class="bv" points="608.49 167.79 574.43 147.36 540.35 167.79 540.35 208.66 574.43 229.11 608.49 208.66 608.49 167.79"/><polygon class="bv" points="335.91 453.62 335.91 412.75 301.83 392.32 267.77 412.75 267.77 453.62 301.83 474.07 335.91 453.62"/><polygon class="bv" points="335.91 535.23 335.91 576.1 369.99 596.55 404.05 576.1 404.05 535.23 369.99 514.8 335.91 535.23"/><polygon class="bw" points="1801.06 392.32 1801.06 351.59 1766.98 331.14 1732.91 351.59 1732.91 392.32 1766.98 412.75 1801.06 392.32"/><polygon class="bw" points="1562.55 412.75 1528.47 392.32 1494.4 412.75 1494.4 453.62 1528.47 474.07 1562.55 453.62 1562.55 412.75"/><polygon class="bw" points="1460.33 963.99 1460.33 1004.72 1494.4 1025.15 1528.47 1004.72 1528.47 963.99 1494.4 943.54 1460.33 963.99"/><polygon class="bw" points="1392.18 147.36 1392.18 106.63 1358.11 86.18 1324.03 106.63 1324.03 147.36 1358.11 167.79 1392.18 147.36"/><polygon class="bw" points="1153.67 535.23 1153.67 576.1 1187.74 596.55 1221.81 576.1 1221.81 535.23 1187.74 514.8 1153.67 535.23"/><polygon class="bw" points="1017.37 780.19 1017.37 821.06 1051.45 841.51 1085.53 821.06 1085.53 780.19 1051.45 759.76 1017.37 780.19"/><polygon class="bw" points="506.27 514.8 506.27 474.07 472.21 453.62 438.13 474.07 438.13 514.8 472.21 535.23 506.27 514.8"/><polygon class="bw" points="301.83 351.59 301.83 392.32 335.91 412.75 369.99 392.32 369.99 351.59 335.91 331.14 301.83 351.59"/><polygon class="bw" points="267.77 902.67 267.77 943.54 301.83 963.99 335.91 943.54 335.91 902.67 301.83 882.24 267.77 902.67"/><polygon class="bw" points="267.77 208.66 301.83 229.11 335.91 208.66 335.91 167.79 301.83 147.36 267.77 167.79 233.69 147.36 199.61 167.79 199.61 208.66 233.69 229.11 267.77 208.66"/><polygon class="bw" points="267.77 290.27 233.69 269.84 199.61 290.27 199.61 331.14 233.69 351.59 267.77 331.14 267.77 290.27"/><polygon class="bw" points="165.55 269.84 165.55 229.11 131.47 208.66 97.39 229.11 97.39 269.84 131.47 290.27 165.55 269.84"/><polygon class="bw" points="131.47 576.1 131.47 535.23 97.39 514.8 63.33 535.23 63.33 576.1 97.39 596.55 131.47 576.1"/><polygon class="bw" points="-4.83 657.71 -4.83 698.58 29.25 719.03 63.33 698.58 63.33 657.71 29.25 637.28 -4.83 657.71"/><polygon class="bw" points="165.55 719.03 131.47 698.58 97.39 719.03 97.39 759.76 131.47 780.19 165.55 759.76 165.55 719.03"/><polygon class="bx" points="1358.11 453.62 1358.11 412.75 1324.03 392.32 1289.96 412.75 1289.96 453.62 1324.03 474.07 1358.11 453.62"/><polygon class="bx" points="1358.11 535.23 1358.11 576.1 1324.03 596.55 1324.03 637.28 1358.11 657.71 1392.18 637.28 1392.18 596.55 1426.25 576.1 1426.25 535.23 1392.18 514.8 1358.11 535.23"/><polygon class="bx" points="1153.67 45.31 1153.67 86.18 1187.74 106.63 1221.81 86.18 1221.81 45.31 1187.74 24.88 1153.67 45.31"/><polygon class="bx" points="881.09 943.54 881.09 902.67 847.01 882.24 812.93 902.67 812.93 943.54 847.01 963.99 881.09 943.54"/><polygon class="bx" points="404.05 535.23 404.05 576.1 438.13 596.55 472.21 576.1 472.21 535.23 438.13 514.8 404.05 535.23"/><polygon class="by" points="1698.84 657.71 1698.84 698.58 1732.91 719.03 1766.98 698.58 1766.98 657.71 1732.91 637.28 1698.84 657.71"/><polygon class="by" points="1596.63 24.88 1630.69 45.31 1664.77 24.88 1664.77 0 1596.63 0 1596.63 24.88"/><polygon class="by" points="1494.4 45.31 1494.4 86.18 1528.47 106.63 1562.55 86.18 1562.55 45.31 1528.47 24.88 1494.4 45.31"/><polygon class="by" points="1494.4 780.19 1494.4 821.06 1528.47 841.51 1562.55 821.06 1562.55 780.19 1528.47 759.76 1494.4 780.19"/><polygon class="by" points="1392.18 392.32 1392.18 351.59 1358.11 331.14 1324.03 351.59 1324.03 392.32 1358.11 412.75 1392.18 392.32"/><polygon class="by" points="1358.11 780.19 1358.11 821.06 1392.18 841.51 1426.25 821.06 1426.25 780.19 1392.18 759.76 1358.11 780.19"/><polygon class="by" points="642.57 1004.72 676.65 1025.15 676.65 1066.02 710.71 1086.47 744.79 1066.02 744.79 1025.15 710.71 1004.72 710.71 963.99 676.65 943.54 676.65 902.67 710.71 882.24 710.71 841.51 676.65 821.06 642.57 841.51 642.57 882.24 608.49 902.67 608.49 943.54 642.57 963.99 642.57 1004.72"/><polygon class="by" points="301.83 474.07 301.83 514.8 335.91 535.23 369.99 514.8 369.99 474.07 335.91 453.62 301.83 474.07"/><polygon class="by" points="-38.89 841.51 -38.89 882.24 -4.83 902.67 29.25 882.24 29.25 841.51 -4.83 821.06 -38.89 841.51"/><polygon class="bz" points="1698.84 780.19 1698.84 821.06 1732.91 841.51 1766.98 821.06 1766.98 780.19 1732.91 759.76 1698.84 780.19"/><polygon class="bz" points="1289.96 780.19 1289.96 821.06 1324.03 841.51 1358.11 821.06 1358.11 780.19 1324.03 759.76 1289.96 780.19"/><polygon class="bz" points="1289.96 45.31 1255.89 24.88 1221.81 45.31 1221.81 86.18 1255.89 106.63 1289.96 86.18 1289.96 45.31"/><polygon class="ca" points="812.93 45.31 812.93 86.18 847.01 106.63 881.09 86.18 881.09 45.31 847.01 24.88 812.93 45.31"/><polygon class="ca" points="608.49 412.75 608.49 453.62 642.57 474.07 676.65 453.62 676.65 412.75 642.57 392.32 608.49 412.75"/><polygon class="ca" points="369.99 106.63 369.99 147.36 404.05 167.79 438.13 147.36 438.13 106.63 404.05 86.18 369.99 106.63"/><polygon class="ca" points="199.61 780.19 199.61 821.06 233.69 841.51 267.77 821.06 267.77 780.19 233.69 759.76 199.61 780.19"/><polygon class="ca" points="165.55 963.99 165.55 1004.72 199.61 1025.15 233.69 1004.72 233.69 963.99 199.61 943.54 165.55 963.99"/><polygon class="ca" points="63.33 45.31 63.33 86.18 97.39 106.63 131.47 86.18 131.47 45.31 97.39 24.88 63.33 45.31"/><polygon class="cb" points="1460.33 392.32 1426.25 412.75 1426.25 453.62 1460.33 474.07 1494.4 453.62 1494.4 412.75 1460.33 392.32"/><polygon class="cb" points="847.01 963.99 847.01 1004.72 881.09 1025.15 915.15 1004.72 915.15 963.99 881.09 943.54 847.01 963.99"/><polygon class="cb" points="540.35 208.66 540.35 167.79 506.27 147.36 472.21 167.79 472.21 208.66 506.27 229.11 540.35 208.66"/><polygon class="cb" points="540.35 412.75 506.27 392.32 472.21 412.75 472.21 453.62 506.27 474.07 540.35 453.62 540.35 412.75"/><polygon class="cc" points="847.01 963.99 812.93 943.54 778.87 963.99 778.87 1004.72 812.93 1025.15 847.01 1004.72 847.01 963.99"/><polygon class="cc" points="369.99 596.55 369.99 637.28 404.05 657.71 438.13 637.28 438.13 596.55 404.05 576.1 369.99 596.55"/><polygon class="cc" points="369.99 963.99 369.99 1004.72 404.05 1025.15 438.13 1004.72 438.13 963.99 404.05 943.54 369.99 963.99"/><polygon class="cd" points="608.49 167.79 608.49 208.66 642.57 229.11 676.65 208.66 676.65 167.79 642.57 147.36 608.49 167.79"/><polygon class="cd" points="233.69 24.88 233.69 0 165.55 0 165.55 24.88 199.61 45.31 233.69 24.88"/></g></svg>