<svg xmlns="http://www.w3.org/2000/svg" width="158.63" height="40.68" viewBox="0 0 158.63 40.68"><defs><style>.a{fill:#0070c0;}</style></defs><title>logo</title><path class="a" d="M21.14,48.11H16.41l.67-9.36H12.86q-1.56,0-2.84,0a6.43,6.43,0,0,1-2.16-.4,5.69,5.69,0,0,1-2.47-1.74,5,5,0,0,1-1-3.3q0-.76,0-1.38t.14-1.38l.84-10.08a6.39,6.39,0,0,1,1.54-3.75,5.88,5.88,0,0,1,3.32-1.87,9.67,9.67,0,0,1,2-.2H14.9q1.56,0,2.81,0a6.4,6.4,0,0,1,2.14.4,5.69,5.69,0,0,1,2.47,1.74,5,5,0,0,1,1,3.3q0,.76,0,1.38t-.14,1.38ZM18.46,22.46q0-.4.07-.72t0-.67a1.79,1.79,0,0,0-1.34-1.92,4,4,0,0,0-.94-.15H13.43a8.27,8.27,0,0,0-1.14.09,2.27,2.27,0,0,0-1.56.73A2.79,2.79,0,0,0,10,21.49l-.78,9.46q0,.31-.07.69v.65a1.75,1.75,0,0,0,1.23,1.88,5,5,0,0,0,1.25.15h2.61a8.18,8.18,0,0,0,1.14-.09A2.38,2.38,0,0,0,17,33.53,2.49,2.49,0,0,0,17.63,32Z" transform="translate(-4.37 -7.43)"/><path class="a" d="M40.86,14.57h4.73L44,32.91a6.4,6.4,0,0,1-1.55,3.75,5.88,5.88,0,0,1-3.32,1.87,9.46,9.46,0,0,1-1.94.2H34.52q-1.56,0-2.84,0a6.43,6.43,0,0,1-2.16-.4,5.69,5.69,0,0,1-2.43-1.71,5,5,0,0,1-1-3.3q0-.76,0-1.38t.14-1.38l1.38-15.92h4.77l-1.5,16.37q0,.31-.07.69v.65a2.2,2.2,0,0,0,.36,1.25,1.52,1.52,0,0,0,1,.67,8.22,8.22,0,0,0,1.21.11h2.48a8.92,8.92,0,0,0,1.27-.09,2.38,2.38,0,0,0,1.56-.69A2.49,2.49,0,0,0,39.38,32Z" transform="translate(-4.37 -7.43)"/><path class="a" d="M56.94,14.57q1.56,0,2.81,0a6.4,6.4,0,0,1,2.14.4,5.69,5.69,0,0,1,2.47,1.74,5,5,0,0,1,1,3.3q0,.76,0,1.38t-.15,1.38l-.89,10.08a6.4,6.4,0,0,1-1.54,3.75,5.88,5.88,0,0,1-3.32,1.87,9.46,9.46,0,0,1-1.92.19H54.85q-1.56,0-2.84,0a6.43,6.43,0,0,1-2.16-.4,5.69,5.69,0,0,1-2.47-1.74,5,5,0,0,1-1-3.3q0-1.21.09-2.27l.18-2.08a6.31,6.31,0,0,1,1.56-3.75,6,6,0,0,1,3.33-1.81,9.45,9.45,0,0,1,1.63-.18q1,0,3.55,0h2.41a1.59,1.59,0,0,0,.94-.31,1.35,1.35,0,0,0,.51-1q0-.31.07-.57v-.47a1.54,1.54,0,0,0-1.25-1.6A4.58,4.58,0,0,0,58.25,19H50.39l.4-4.42Zm3.12,12.94H54.69a8.4,8.4,0,0,0-1.18.09,2.27,2.27,0,0,0-1.56.76,2.89,2.89,0,0,0-.67,1.71,20,20,0,0,0-.14,2.18,1.79,1.79,0,0,0,1.35,1.92,4.45,4.45,0,0,0,1.14.15h2.79a7.58,7.58,0,0,0,1-.09A2.38,2.38,0,0,0,59,33.53,2.49,2.49,0,0,0,59.7,32Z" transform="translate(-4.37 -7.43)"/><path class="a" d="M82,22.6q0-.4.07-.78a5.92,5.92,0,0,0,0-.73,1.79,1.79,0,0,0-1.34-1.92,4,4,0,0,0-1-.15H76.91a8.27,8.27,0,0,0-1.14.09,2.43,2.43,0,0,0-2.23,2.54L72.07,38.78H67.34L68.9,20.62a6.61,6.61,0,0,1,1.54-3.92,5.88,5.88,0,0,1,3.32-1.87,9.67,9.67,0,0,1,2-.2h2.68q1.56,0,2.81,0a6.4,6.4,0,0,1,2.14.4,5.69,5.69,0,0,1,2.47,1.74,5,5,0,0,1,1,3.3q0,.76,0,1.54t-.14,1.54L85.27,38.81H80.53Z" transform="translate(-4.37 -7.43)"/><path class="a" d="M91.87,7.5h4.73l-.74,7.07h6.43l-.4,4.37H95.5l-1.07,12q0,.31-.07.69v.65a1.75,1.75,0,0,0,1.25,1.87,3.12,3.12,0,0,0,.89.11l1.47,0h2.59l-.4,4.42H98.35q-1,0-2.08,0t-1.89-.14a5.12,5.12,0,0,1-1.31-.27,5.69,5.69,0,0,1-2.47-1.74,5,5,0,0,1-1-3.3q0-.76,0-1.38t.14-1.38Z" transform="translate(-4.37 -7.43)"/><path class="a" d="M111.32,38.75q-1.56,0-2.81,0a6.36,6.36,0,0,1-2.14-.4,5.69,5.69,0,0,1-2.47-1.74,5,5,0,0,1-1-3.3q0-.76,0-1.38t.14-1.38L104,20.42a6.39,6.39,0,0,1,1.54-3.75,5.88,5.88,0,0,1,3.32-1.87,9.55,9.55,0,0,1,1.94-.2h2.66q1.56,0,2.84,0a6.46,6.46,0,0,1,2.16.4,5.69,5.69,0,0,1,2.49,1.71,5,5,0,0,1,1,3.3q0,.76-.11,2t-.24,2.37A6.4,6.4,0,0,1,120,28.13,5.88,5.88,0,0,1,116.69,30a3.16,3.16,0,0,1-.69.11l-1,.07q-.57,0-1.43,0h-5.78l-.09.76q0,.49-.07.92v.65a1.54,1.54,0,0,0,1.24,1.62,4.55,4.55,0,0,0,1.14.15h8.09l-.4,4.42Zm-3.12-12.94h5.32a8.31,8.31,0,0,0,1.18-.09,2.27,2.27,0,0,0,1.56-.76,2.9,2.9,0,0,0,.67-1.71q.09-.63.14-1.18t0-1a1.79,1.79,0,0,0-1.33-1.91,4.49,4.49,0,0,0-1.14-.15h-2.79a7.67,7.67,0,0,0-1,.09,2.38,2.38,0,0,0-1.56.69,2.48,2.48,0,0,0-.67,1.54Z" transform="translate(-4.37 -7.43)"/><path class="a" d="M141.3,32.91a6.4,6.4,0,0,1-1.54,3.75,5.88,5.88,0,0,1-3.32,1.87,9.46,9.46,0,0,1-1.94.2h-2.66q-1.56,0-2.84,0a6.43,6.43,0,0,1-2.16-.4,5.69,5.69,0,0,1-2.47-1.74,5,5,0,0,1-1-3.3q0-.76,0-1.38t.14-1.38l.85-10.08a6.39,6.39,0,0,1,1.54-3.75,5.88,5.88,0,0,1,3.32-1.87,9.67,9.67,0,0,1,2-.2h7l.63-7.14h4.73Zm-3.84-10.44q0-.4.07-.72a5,5,0,0,0,0-.67,1.79,1.79,0,0,0-1.34-1.92,4,4,0,0,0-1-.15H132.4a8.27,8.27,0,0,0-1.14.09,2.27,2.27,0,0,0-1.56.73A2.79,2.79,0,0,0,129,21.5l-.8,9.46q0,.31-.07.67v.63a1.79,1.79,0,0,0,1.33,1.91,4.45,4.45,0,0,0,1.14.15h2.79a7.58,7.58,0,0,0,1-.09,2.38,2.38,0,0,0,1.56-.69,2.49,2.49,0,0,0,.67-1.54Z" transform="translate(-4.37 -7.43)"/><path class="a" d="M154.54,14.57q1.56,0,2.81,0a6.4,6.4,0,0,1,2.14.4A5.69,5.69,0,0,1,162,16.76a5,5,0,0,1,1,3.3q0,.76,0,1.38t-.14,1.38l-.89,10.08a6.4,6.4,0,0,1-1.54,3.75,5.88,5.88,0,0,1-3.32,1.87,9.46,9.46,0,0,1-1.94.2h-2.66q-1.56,0-2.84,0a6.43,6.43,0,0,1-2.16-.4A5.69,5.69,0,0,1,145,36.53a5,5,0,0,1-1-3.3q0-1.21.09-2.27l.18-2.08a6.31,6.31,0,0,1,1.56-3.75,6,6,0,0,1,3.34-1.87,9.45,9.45,0,0,1,1.63-.18q1,0,3.55,0h2.41a1.59,1.59,0,0,0,.92-.29,1.35,1.35,0,0,0,.51-1q0-.31.07-.57a2.39,2.39,0,0,0,0-.47,1.54,1.54,0,0,0-1.25-1.6,4.58,4.58,0,0,0-1.14-.15H148l.4-4.42Zm3.12,12.94h-5.37a8.4,8.4,0,0,0-1.18.09,2.27,2.27,0,0,0-1.56.76,2.89,2.89,0,0,0-.67,1.71,19.94,19.94,0,0,0-.14,2.18,1.79,1.79,0,0,0,1.35,1.92,4.45,4.45,0,0,0,1.14.15H154a7.58,7.58,0,0,0,1-.09,2.38,2.38,0,0,0,1.56-.69,2.49,2.49,0,0,0,.67-1.54Z" transform="translate(-4.37 -7.43)"/></svg>