<svg xmlns="http://www.w3.org/2000/svg" width="261.07" height="69.11" viewBox="0 0 261.07 69.11"><defs><style>.a{fill:#0070c0;}</style></defs><title>logo</title><path class="a" d="M27.84,72.79H20.07l1.1-15.41h-7c-1.72,0-3.28,0-4.68-.07A10.55,10.55,0,0,1,6,56.64a9.37,9.37,0,0,1-4.07-2.86A8.23,8.23,0,0,1,.25,48.35c0-.83,0-1.59.08-2.28s.12-1.44.22-2.27L1.93,27.21A10.51,10.51,0,0,1,4.46,21,9.67,9.67,0,0,1,9.93,18a15.88,15.88,0,0,1,3.23-.33h4.41c1.71,0,3.25,0,4.62.08a10.62,10.62,0,0,1,3.53.66,9.31,9.31,0,0,1,4.07,2.87,8.25,8.25,0,0,1,1.65,5.42c0,.83,0,1.59-.08,2.28s-.12,1.44-.22,2.27ZM23.43,30.58c.05-.45.09-.84.12-1.18s0-.71,0-1.1a3,3,0,0,0-2.2-3.15,6.35,6.35,0,0,0-1.55-.25H15.15a13.08,13.08,0,0,0-1.87.14,3.76,3.76,0,0,0-2.57,1.21A4.59,4.59,0,0,0,9.54,29L8.25,44.53q-.08.51-.12,1.14v1.07a2.89,2.89,0,0,0,2,3.09,8.48,8.48,0,0,0,2.06.25h4.3a14.58,14.58,0,0,0,1.87-.15A3.93,3.93,0,0,0,21,48.79a4,4,0,0,0,1.11-2.54Z" transform="translate(-0.24 -5.84)"/><path class="a" d="M60.29,17.59h7.79L65.43,47.76a10.53,10.53,0,0,1-2.55,6.17A9.7,9.7,0,0,1,57.42,57a16.28,16.28,0,0,1-3.19.32H49.86c-1.72,0-3.28,0-4.68-.07a10.55,10.55,0,0,1-3.56-.67,9.34,9.34,0,0,1-4-2.81A8.21,8.21,0,0,1,36,48.35c0-.83,0-1.59.07-2.28s.13-1.44.23-2.27l2.27-26.21h7.85L43.92,44.53c-.05.34-.09.72-.11,1.14v1.07a3.59,3.59,0,0,0,.59,2.06A2.5,2.5,0,0,0,46,49.9a13.14,13.14,0,0,0,2,.19h4.08a14.83,14.83,0,0,0,2.1-.15,3.93,3.93,0,0,0,2.57-1.14,4.15,4.15,0,0,0,1.11-2.54Z" transform="translate(-0.24 -5.84)"/><path class="a" d="M86.77,17.59c1.71,0,3.25,0,4.62.07a10.62,10.62,0,0,1,3.53.66A9.31,9.31,0,0,1,99,21.19a8.22,8.22,0,0,1,1.65,5.43c0,.83,0,1.59-.08,2.27s-.13,1.45-.24,2.28L98.85,47.76a10.45,10.45,0,0,1-2.54,6.17A9.7,9.7,0,0,1,90.85,57a15.28,15.28,0,0,1-3.17.3H83.31c-1.71,0-3.27,0-4.68-.07a10.78,10.78,0,0,1-3.55-.66A9.31,9.31,0,0,1,71,53.71a8.22,8.22,0,0,1-1.65-5.43c0-1.32,0-2.57.15-3.74s.2-2.31.29-3.42A10.35,10.35,0,0,1,72.37,35a9.88,9.88,0,0,1,5.49-3,16,16,0,0,1,2.67-.29c1.15-.05,3.1-.08,5.84-.08h4a2.57,2.57,0,0,0,1.56-.5,2.25,2.25,0,0,0,.84-1.65c.05-.34.09-.65.11-.93v-.77a2.54,2.54,0,0,0-2.06-2.64,7.39,7.39,0,0,0-1.87-.25H76l.66-7.28ZM91.9,38.88H83.06a12.81,12.81,0,0,0-2,.15,3.75,3.75,0,0,0-2.57,1.24,4.75,4.75,0,0,0-1.1,2.81,33.11,33.11,0,0,0-.23,3.59,3,3,0,0,0,2.22,3.16,7.39,7.39,0,0,0,1.87.25h4.6a12.48,12.48,0,0,0,1.72-.15,3.93,3.93,0,0,0,2.57-1.14,4.15,4.15,0,0,0,1.11-2.54Z" transform="translate(-0.24 -5.84)"/><path class="a" d="M128,30.8c0-.44.08-.87.11-1.28s0-.82,0-1.21a2.94,2.94,0,0,0-2.2-3.15,6.6,6.6,0,0,0-1.58-.26h-4.66a14.58,14.58,0,0,0-1.87.15c-2.21.25-3.43,1.64-3.67,4.19l-2.43,28.19h-7.78l2.57-29.89A10.84,10.84,0,0,1,109,21.09,9.64,9.64,0,0,1,114.45,18a16,16,0,0,1,3.23-.33h4.41c1.71,0,3.26,0,4.62.07a10.63,10.63,0,0,1,3.53.67,9.37,9.37,0,0,1,4.07,2.86A8.22,8.22,0,0,1,136,26.71c0,.83,0,1.68-.08,2.54s-.12,1.7-.22,2.53l-2.27,25.7h-7.8Z" transform="translate(-0.24 -5.84)"/><path class="a" d="M144.24,6H152l-1.23,11.64h10.58l-.67,7.19H150.21l-1.76,19.75c0,.34-.08.72-.11,1.14v1.07a2.89,2.89,0,0,0,2.06,3.08,5.59,5.59,0,0,0,1.47.19l2.42.07h4.26l-.66,7.27h-3c-1.15,0-2.29,0-3.42-.07s-2.16-.13-3.11-.23a8.29,8.29,0,0,1-2.16-.44,9.37,9.37,0,0,1-4.07-2.86,8.23,8.23,0,0,1-1.66-5.43c0-.83,0-1.59.07-2.27s.13-1.45.23-2.28Z" transform="translate(-0.24 -5.84)"/><path class="a" d="M176.25,57.38c-1.72,0-3.26,0-4.62-.07a10.63,10.63,0,0,1-3.53-.67A9.37,9.37,0,0,1,164,53.78a8.22,8.22,0,0,1-1.65-5.43c0-.83,0-1.59.07-2.28s.13-1.44.23-2.27l1.47-16.59A10.51,10.51,0,0,1,166.68,21,9.67,9.67,0,0,1,172.15,18a15.56,15.56,0,0,1,3.19-.33h4.37c1.72,0,3.28,0,4.68.08a10.54,10.54,0,0,1,3.56.66A9.36,9.36,0,0,1,192,21.18a8.27,8.27,0,0,1,1.65,5.43c0,.83-.07,1.9-.19,3.23s-.26,2.62-.4,3.89a10.58,10.58,0,0,1-2.54,6.17A9.69,9.69,0,0,1,185.09,43a5.42,5.42,0,0,1-1.14.18l-1.58.12c-.62,0-1.41.07-2.35.07h-9.51l-.15,1.25c-.05.53-.08,1-.11,1.5v1.07a2.55,2.55,0,0,0,2,2.66,7.39,7.39,0,0,0,1.87.25h13.32l-.66,7.27Zm-5.14-21.29h8.76a14.23,14.23,0,0,0,1.95-.15,3.74,3.74,0,0,0,2.57-1.25,4.8,4.8,0,0,0,1.11-2.8c.1-.69.17-1.34.22-1.95s.08-1.16.08-1.65a3,3,0,0,0-2.18-3.14,7,7,0,0,0-1.88-.25h-4.59a14.08,14.08,0,0,0-1.72.14,3.94,3.94,0,0,0-2.58,1.15,4.06,4.06,0,0,0-1.1,2.53Z" transform="translate(-0.24 -5.84)"/><path class="a" d="M225.59,47.76a10.45,10.45,0,0,1-2.54,6.17A9.7,9.7,0,0,1,217.59,57a16.28,16.28,0,0,1-3.19.32H210c-1.72,0-3.28,0-4.68-.07a10.55,10.55,0,0,1-3.56-.67,9.37,9.37,0,0,1-4.07-2.86,8.22,8.22,0,0,1-1.65-5.43c0-.83,0-1.59.08-2.27s.12-1.45.22-2.28l1.4-16.59A10.51,10.51,0,0,1,200.3,21a9.69,9.69,0,0,1,5.47-3.08,15.19,15.19,0,0,1,3.23-.32h11.45l1-11.75h7.79Zm-6.32-17.18c0-.45.09-.84.12-1.18a10.26,10.26,0,0,0,0-1.11,3,3,0,0,0-2.2-3.15,6.13,6.13,0,0,0-1.59-.25h-4.66a11.79,11.79,0,0,0-1.87.15,3.71,3.71,0,0,0-2.57,1.2A4.66,4.66,0,0,0,205.39,29l-1.32,15.57c0,.34-.08.71-.11,1.1v1a3,3,0,0,0,2.18,3.14,7.39,7.39,0,0,0,1.87.25h4.6a12.35,12.35,0,0,0,1.72-.15,4,4,0,0,0,2.58-1.14,4.08,4.08,0,0,0,1.1-2.54Z" transform="translate(-0.24 -5.84)"/><path class="a" d="M247.38,17.59c1.71,0,3.26,0,4.62.07a10.62,10.62,0,0,1,3.53.66,9.31,9.31,0,0,1,4.07,2.87,8.28,8.28,0,0,1,1.7,5.43c0,.83,0,1.59-.08,2.27s-.12,1.45-.22,2.28l-1.47,16.59A10.58,10.58,0,0,1,257,53.93,9.69,9.69,0,0,1,251.52,57a16.2,16.2,0,0,1-3.19.32H244c-1.71,0-3.27,0-4.68-.07a10.54,10.54,0,0,1-3.55-.67,9.37,9.37,0,0,1-4.07-2.86A8.22,8.22,0,0,1,230,48.3c0-1.32.05-2.57.15-3.74s.19-2.31.29-3.42A10.4,10.4,0,0,1,233,35a9.82,9.82,0,0,1,5.5-3.07,14.27,14.27,0,0,1,2.68-.29c1.15-.05,3.1-.08,5.84-.08h4a2.63,2.63,0,0,0,1.51-.48,2.24,2.24,0,0,0,.84-1.64c.05-.35.09-.66.11-.94a3.3,3.3,0,0,0,0-.77,2.54,2.54,0,0,0-2.06-2.64,7.87,7.87,0,0,0-1.87-.25H236.59l.66-7.27Zm5.14,21.29h-8.85a12.58,12.58,0,0,0-1.94.15,3.76,3.76,0,0,0-2.58,1.24,4.75,4.75,0,0,0-1.1,2.81,33.11,33.11,0,0,0-.23,3.59A3,3,0,0,0,240,49.83a7.39,7.39,0,0,0,1.87.25h4.6a12.48,12.48,0,0,0,1.72-.15,3.93,3.93,0,0,0,2.57-1.14,4.09,4.09,0,0,0,1.11-2.54Z" transform="translate(-0.24 -5.84)"/><path class="a" d="M40.26,71A1.62,1.62,0,0,1,39.94,72a1.35,1.35,0,0,1-.82.51l-.33.06.31,1.57H38l-.21-1.51h-2l-.33-.05a1.41,1.41,0,0,1-.83-.52,1.72,1.72,0,0,1-.32-1V64.68a1.74,1.74,0,0,1,.32-1.06,1.4,1.4,0,0,1,.83-.51,5.16,5.16,0,0,1,.78-.08h2a5.16,5.16,0,0,1,.79.08,1.35,1.35,0,0,1,.82.51,1.62,1.62,0,0,1,.32,1.06Zm-2.95.74h1.16a.94.94,0,0,0,.58-.28,1.06,1.06,0,0,0,.17-.67V64.92a1,1,0,0,0-.17-.66.94.94,0,0,0-.58-.28H36.18a.89.89,0,0,0-.57.28,1,1,0,0,0-.18.66v5.8a1,1,0,0,0,.18.66.89.89,0,0,0,.57.28h.55Z" transform="translate(-0.24 -5.84)"/><path class="a" d="M47.82,65.21v5.91a1.55,1.55,0,0,1-1.06,1.43,2.47,2.47,0,0,1-.7.13H44.31a2.47,2.47,0,0,1-.7-.13,1.75,1.75,0,0,1-.71-.49,1.69,1.69,0,0,1-.35-.94V65.21h1v5.6a.86.86,0,0,0,.64.86,1.55,1.55,0,0,0,.43.07h1.19a1.42,1.42,0,0,0,.42-.07.87.87,0,0,0,.65-.86v-5.6Z" transform="translate(-0.24 -5.84)"/><path class="a" d="M52.53,65.21h.87a3.21,3.21,0,0,1,.7.13,1.65,1.65,0,0,1,.72.5,1.69,1.69,0,0,1,.35.94V71a1.57,1.57,0,0,1-1.07,1.43,2.78,2.78,0,0,1-.71.13H51.65a2.87,2.87,0,0,1-.71-.13,1.62,1.62,0,0,1-.71-.5,1.75,1.75,0,0,1-.36-.93V69.54a1.78,1.78,0,0,1,.36-.94,1.52,1.52,0,0,1,.71-.49,3,3,0,0,1,.72-.14h1.86a.72.72,0,0,0,.47-.14.59.59,0,0,0,.2-.53v-.25a.88.88,0,0,0-.17-.57,1,1,0,0,0-.48-.29,1.55,1.55,0,0,0-.43-.07H50.78v-.93Zm0,3.75h-.62a1.72,1.72,0,0,0-.44.06.86.86,0,0,0-.46.31,1.28,1.28,0,0,0-.18.79v.5a1.13,1.13,0,0,0,0,.26,1.11,1.11,0,0,0,.17.53.81.81,0,0,0,.46.3,1.54,1.54,0,0,0,.43.06H53.1a1.54,1.54,0,0,0,.43-.06.84.84,0,0,0,.65-.81v-2Z" transform="translate(-0.24 -5.84)"/><path class="a" d="M61.69,72.62V67a.85.85,0,0,0-.64-.86,2,2,0,0,0-.42-.07H59.4a2,2,0,0,0-.42.07.87.87,0,0,0-.65.86v5.6h-1V66.71a1.72,1.72,0,0,1,.36-.93,1.62,1.62,0,0,1,.71-.5,2.4,2.4,0,0,1,.7-.13h1.74a2.47,2.47,0,0,1,.71.13,1.68,1.68,0,0,1,.71.5,1.64,1.64,0,0,1,.35.93v5.91Z" transform="translate(-0.24 -5.84)"/><path class="a" d="M67.56,72.62h-.87a3.32,3.32,0,0,1-.7-.13,1.62,1.62,0,0,1-.71-.5,1.78,1.78,0,0,1-.36-.94V63.72h1v1.5h2v.89h-2.1v4.65a.86.86,0,0,0,.65.86,1.25,1.25,0,0,0,.43.07h1v.89Z" transform="translate(-0.24 -5.84)"/><path class="a" d="M70.92,64.24h-1V63.3h1Zm0,8.38h-1V65.21h1Z" transform="translate(-0.24 -5.84)"/><path class="a" d="M75.83,72.62H75a3.42,3.42,0,0,1-.71-.13,1.58,1.58,0,0,1-1.06-1.44V63.72h.92v1.5h2.11v.89H74.11v4.65a.86.86,0,0,0,.65.86,1.25,1.25,0,0,0,.43.07h1v.89Z" transform="translate(-0.24 -5.84)"/><path class="a" d="M80.67,65.21h.87a3.45,3.45,0,0,1,.7.13,1.62,1.62,0,0,1,.71.5,1.69,1.69,0,0,1,.35.94V71A1.66,1.66,0,0,1,83,72a1.62,1.62,0,0,1-.71.5,2.87,2.87,0,0,1-.71.13H79.79a2.86,2.86,0,0,1-.72-.13A1.58,1.58,0,0,1,78,71a2.28,2.28,0,0,1,0-.37v-.73a2.54,2.54,0,0,1,0-.39,1.69,1.69,0,0,1,.35-.94,1.57,1.57,0,0,1,.71-.49A3,3,0,0,1,79.8,68h1.89a.72.72,0,0,0,.47-.14.59.59,0,0,0,.2-.53v-.25a.88.88,0,0,0-.17-.57,1,1,0,0,0-.48-.29,1.55,1.55,0,0,0-.43-.07H78.92v-.93Zm0,3.75h-.62a1.61,1.61,0,0,0-.44.06.89.89,0,0,0-.47.31,1.05,1.05,0,0,0-.18.54v1a1.11,1.11,0,0,0,.17.53.85.85,0,0,0,.46.3,1.54,1.54,0,0,0,.43.06h1.22a1.59,1.59,0,0,0,.43-.06.85.85,0,0,0,.64-.81v-2Z" transform="translate(-0.24 -5.84)"/><path class="a" d="M88.15,72.62h-.87a3.32,3.32,0,0,1-.7-.13,1.62,1.62,0,0,1-.71-.5,1.78,1.78,0,0,1-.36-.94V63.72h1v1.5h2.1v.89H86.42v4.65a.86.86,0,0,0,.65.86,1.25,1.25,0,0,0,.43.07h1v.89Z" transform="translate(-0.24 -5.84)"/><path class="a" d="M91.5,64.24h-1V63.3h1Zm0,8.38h-1V65.21h1Z" transform="translate(-0.24 -5.84)"/><path class="a" d="M96.05,72.67a1.35,1.35,0,0,1-1-.32,1.82,1.82,0,0,1-.48-1l-1.13-6.08h1l1,5.9a1.09,1.09,0,0,0,.21.55.73.73,0,0,0,.55.16h.09a.68.68,0,0,0,.53-.16,1.21,1.21,0,0,0,.22-.55l1.18-5.9h1L98,71.3a2,2,0,0,1-.49,1,1.33,1.33,0,0,1-.94.32Z" transform="translate(-0.24 -5.84)"/><path class="a" d="M105.55,72.62h-2.74a3.21,3.21,0,0,1-.7-.13,1.56,1.56,0,0,1-.71-.5,1.71,1.71,0,0,1-.36-.94V66.77a1.71,1.71,0,0,1,.36-.94,1.47,1.47,0,0,1,.71-.49,2.88,2.88,0,0,1,.71-.14h1.74a2.88,2.88,0,0,1,.71.14,1.52,1.52,0,0,1,.71.49,1.71,1.71,0,0,1,.36.94,2.16,2.16,0,0,1,0,.36v.73a2.67,2.67,0,0,1,0,.4,1.68,1.68,0,0,1-.36.93,1.62,1.62,0,0,1-.71.5,3,3,0,0,1-.72.13H102v1a.82.82,0,0,0,.64.86,1.61,1.61,0,0,0,.43.07h2.51Zm-1.87-3.75h.62a1.67,1.67,0,0,0,.44-.06.86.86,0,0,0,.46-.31,1.28,1.28,0,0,0,.18-.79v-.5a1.13,1.13,0,0,0,0-.26,1,1,0,0,0-.17-.53.82.82,0,0,0-.45-.3,1.59,1.59,0,0,0-.43-.06h-1.2a1.54,1.54,0,0,0-.43.06.84.84,0,0,0-.65.81v2Z" transform="translate(-0.24 -5.84)"/><path class="a" d="M117.17,72.62V68.87h-3.8v3.75h-1V64.68a1.62,1.62,0,0,1,.32-1.06,1.35,1.35,0,0,1,.82-.51,5.16,5.16,0,0,1,.79-.08h2a5.16,5.16,0,0,1,.78.08,1.4,1.4,0,0,1,.83.51,1.67,1.67,0,0,1,.31,1.06v7.94Zm-3.8-4.68h3.8v-3a1,1,0,0,0-.18-.66.91.91,0,0,0-.57-.28h-2.3a.91.91,0,0,0-.57.28,1,1,0,0,0-.17.66Z" transform="translate(-0.24 -5.84)"/><path class="a" d="M124.84,72.62V67a.87.87,0,0,0-.65-.86,1.84,1.84,0,0,0-.42-.07h-1.19a2,2,0,0,0-.43.07.86.86,0,0,0-.64.86v5.6h-1V66.71a1.64,1.64,0,0,1,.35-.93,1.62,1.62,0,0,1,.71-.5,2.47,2.47,0,0,1,.7-.13H124a2.47,2.47,0,0,1,.7.13,1.62,1.62,0,0,1,.71.5,1.64,1.64,0,0,1,.35.93v5.91Z" transform="translate(-0.24 -5.84)"/><path class="a" d="M130.54,65.21h.87a3.21,3.21,0,0,1,.7.13,1.56,1.56,0,0,1,.71.5,1.71,1.71,0,0,1,.36.94V71a1.68,1.68,0,0,1-.36.93,1.56,1.56,0,0,1-.71.5,2.87,2.87,0,0,1-.71.13h-1.74a2.87,2.87,0,0,1-.71-.13,1.62,1.62,0,0,1-.71-.5,1.68,1.68,0,0,1-.36-.93,2.28,2.28,0,0,1,0-.37v-.73a2.54,2.54,0,0,1,0-.39,1.71,1.71,0,0,1,.36-.94,1.52,1.52,0,0,1,.71-.49,2.87,2.87,0,0,1,.72-.14h1.9a.72.72,0,0,0,.47-.14.58.58,0,0,0,.19-.53v-.25a.82.82,0,0,0-.16-.57,1,1,0,0,0-.48-.29,1.61,1.61,0,0,0-.43-.07h-2.37v-.93Zm0,3.75h-.62a1.67,1.67,0,0,0-.44.06.93.93,0,0,0-.47.31,1.14,1.14,0,0,0-.17.54,1,1,0,0,0,0,.25v.5a1.13,1.13,0,0,0,0,.26.93.93,0,0,0,.17.53.82.82,0,0,0,.45.3,1.59,1.59,0,0,0,.43.06h1.22a1.54,1.54,0,0,0,.43-.06.86.86,0,0,0,.65-.81v-2Z" transform="translate(-0.24 -5.84)"/><path class="a" d="M135.33,63h1v7.79a.94.94,0,0,0,.68.86,1.36,1.36,0,0,0,.29.06h.34v.93H137a1.93,1.93,0,0,1-.53-.11,1.62,1.62,0,0,1-.73-.5,1.69,1.69,0,0,1-.35-.94v-.89Z" transform="translate(-0.24 -5.84)"/><path class="a" d="M142.13,74.05h.6a1.31,1.31,0,0,0,.44-.07.85.85,0,0,0,.64-.86v-.5h-2.56a3.42,3.42,0,0,1-.71-.13,1.58,1.58,0,0,1-1.06-1.44V65.21h1v5.55a.86.86,0,0,0,.65.86,1.16,1.16,0,0,0,.42.07h1.2a1.23,1.23,0,0,0,.42-.07.84.84,0,0,0,.64-.86V65.21h1v8.17a1.78,1.78,0,0,1-.36.94,1.62,1.62,0,0,1-.71.5,2.79,2.79,0,0,1-.7.13h-2.57v-.89Z" transform="translate(-0.24 -5.84)"/><path class="a" d="M149.08,71.72H150a.76.76,0,0,0,.64-.39,1.44,1.44,0,0,0,.15-.71v-.27a1,1,0,0,0-.24-.75,1.14,1.14,0,0,0-.8-.22h-1A1.54,1.54,0,0,1,147,68.25a2.5,2.5,0,0,1-.06-.38V67a2.16,2.16,0,0,1,0-.36,1.46,1.46,0,0,1,.72-1.08,3,3,0,0,1,1.42-.29h2.13v.89h-1.95a5,5,0,0,0-.55,0,.92.92,0,0,0-.64.32,1.15,1.15,0,0,0-.2.7v.36a1.41,1.41,0,0,0,.11.57.62.62,0,0,0,.44.31,1.5,1.5,0,0,0,.37,0h1.12a1.58,1.58,0,0,1,1.85,1.26,1.42,1.42,0,0,1,0,.46v.59a2,2,0,0,1-.21,1,1.55,1.55,0,0,1-.59.6,1.68,1.68,0,0,1-.69.21q-.44,0-.87,0h-2.32v-.94Z" transform="translate(-0.24 -5.84)"/><path class="a" d="M154.79,64.24h-1V63.3h1Zm0,8.38h-1V65.21h1Z" transform="translate(-0.24 -5.84)"/><path class="a" d="M159.06,71.72H160a.76.76,0,0,0,.65-.39,1.71,1.71,0,0,0,.15-.71v-.27a1,1,0,0,0-.24-.75,1.15,1.15,0,0,0-.8-.22h-1A1.54,1.54,0,0,1,157,68.25a2.53,2.53,0,0,1-.07-.38V66.63a1.49,1.49,0,0,1,.72-1.08,3.08,3.08,0,0,1,1.43-.29h2.13v.89h-1.92a5,5,0,0,0-.55,0,.94.94,0,0,0-.64.32,1.08,1.08,0,0,0-.19.7v.36a1.26,1.26,0,0,0,.11.57.6.6,0,0,0,.43.31,1.57,1.57,0,0,0,.37,0h1.12a1.58,1.58,0,0,1,1.8,1.32,1.42,1.42,0,0,1,0,.41v.59a2,2,0,0,1-.21,1,1.55,1.55,0,0,1-.59.6,1.73,1.73,0,0,1-.69.21h-3.2v-.94Z" transform="translate(-0.24 -5.84)"/><path class="a" d="M170.19,72.64h-.87a2.88,2.88,0,0,1-.71-.14,1.52,1.52,0,0,1-.71-.49,1.69,1.69,0,0,1-.35-.94V66.75a1.69,1.69,0,0,1,.35-.94,1.6,1.6,0,0,1,.71-.49,2.47,2.47,0,0,1,.71-.13h1.74a2.48,2.48,0,0,1,.72.13,1.66,1.66,0,0,1,.71.49,1.69,1.69,0,0,1,.35.94v4.32a1.69,1.69,0,0,1-.35.94,1.57,1.57,0,0,1-.71.49,2.87,2.87,0,0,1-.72.14Zm0-6.56h-.61a2,2,0,0,0-.43.07.87.87,0,0,0-.65.86v3.75a.86.86,0,0,0,.65.86,1.25,1.25,0,0,0,.43.07h1.21a1.25,1.25,0,0,0,.43-.07.86.86,0,0,0,.65-.86V67a.87.87,0,0,0-.65-.86,1.54,1.54,0,0,0-.43-.06Z" transform="translate(-0.24 -5.84)"/><path class="a" d="M178.46,67.76H176v4.87h-1v-8a1.71,1.71,0,0,1,.36-.94,1.56,1.56,0,0,1,.71-.5,3.32,3.32,0,0,1,.7-.13h1.59v.89H177.1a1.61,1.61,0,0,0-.43.07.85.85,0,0,0-.64.86v2h2.41Z" transform="translate(-0.24 -5.84)"/><path class="a" d="M183.54,63h5.38V64h-2.17v8.66h-1V64h-2.17Z" transform="translate(-0.24 -5.84)"/><path class="a" d="M194.15,72.62h-2.74a3.32,3.32,0,0,1-.7-.13A1.62,1.62,0,0,1,190,72a1.71,1.71,0,0,1-.36-.94V66.77a1.71,1.71,0,0,1,.36-.94,1.52,1.52,0,0,1,.71-.49,2.88,2.88,0,0,1,.71-.14h1.74a2.88,2.88,0,0,1,.71.14,1.47,1.47,0,0,1,.71.49,1.71,1.71,0,0,1,.36.94,2.16,2.16,0,0,1,0,.36v.73a2.67,2.67,0,0,1,0,.4,1.68,1.68,0,0,1-.36.93,1.56,1.56,0,0,1-.71.5,2.86,2.86,0,0,1-.72.13h-2.57v1a.82.82,0,0,0,.64.86,1.61,1.61,0,0,0,.43.07h2.51Zm-1.87-3.75h.62a1.61,1.61,0,0,0,.44-.06.89.89,0,0,0,.47-.31A1.16,1.16,0,0,0,194,68V67a1.14,1.14,0,0,0-.17-.53.88.88,0,0,0-.46-.3,1.59,1.59,0,0,0-.43-.06h-1.22a1.54,1.54,0,0,0-.43.06.86.86,0,0,0-.65.81v2Z" transform="translate(-0.24 -5.84)"/><path class="a" d="M197.47,69.83a2.83,2.83,0,0,1,.33-.62,1,1,0,0,1,.55-.36h0a.85.85,0,0,1-.55-.37,2.86,2.86,0,0,1-.35-.75l-.86-2.5h1.06l.81,2.49a1.54,1.54,0,0,0,.24.5.61.61,0,0,0,.48.19h.08a.59.59,0,0,0,.47-.19,1.8,1.8,0,0,0,.25-.5l.83-2.49h1l-.86,2.5a3.34,3.34,0,0,1-.35.74.83.83,0,0,1-.55.38h0a1,1,0,0,1,.54.36,2.91,2.91,0,0,1,.35.62l1.09,2.81H201L200,70a1.32,1.32,0,0,0-.29-.5.63.63,0,0,0-.45-.18h-.08a.65.65,0,0,0-.46.18,1.1,1.1,0,0,0-.29.5l-1,2.62H196.4Z" transform="translate(-0.24 -5.84)"/><path class="a" d="M206.47,72.62h-.87a3.21,3.21,0,0,1-.7-.13,1.56,1.56,0,0,1-.71-.5,1.71,1.71,0,0,1-.36-.94V63.72h1v1.5h2.11v.89h-2.11v4.65a.86.86,0,0,0,.65.86,1.25,1.25,0,0,0,.43.07h1v.89Z" transform="translate(-0.24 -5.84)"/><path class="a" d="M214.2,65.21v5.91a1.77,1.77,0,0,1-.35.94,1.72,1.72,0,0,1-.72.49,2.34,2.34,0,0,1-.7.13h-1.74a2.4,2.4,0,0,1-.7-.13,1.68,1.68,0,0,1-.71-.49,1.71,1.71,0,0,1-.36-.94V65.21h.9v5.6a.87.87,0,0,0,.65.86,1.42,1.42,0,0,0,.42.07h1.2a1.54,1.54,0,0,0,.42-.07.85.85,0,0,0,.64-.86v-5.6Z" transform="translate(-0.24 -5.84)"/><path class="a" d="M218.91,65.21h.87a3.32,3.32,0,0,1,.7.13,1.62,1.62,0,0,1,.71.5,1.71,1.71,0,0,1,.36.94V71a1.68,1.68,0,0,1-.36.93,1.62,1.62,0,0,1-.71.5,2.87,2.87,0,0,1-.71.13H218a2.87,2.87,0,0,1-.71-.13,1.56,1.56,0,0,1-.71-.5,1.68,1.68,0,0,1-.36-.93,2.28,2.28,0,0,1,0-.37v-.73a2.54,2.54,0,0,1,0-.39,1.71,1.71,0,0,1,.36-.94,1.47,1.47,0,0,1,.71-.49A2.87,2.87,0,0,1,218,68h1.9a.74.74,0,0,0,.47-.14.58.58,0,0,0,.19-.53v-.25a.78.78,0,0,0-.17-.57,1,1,0,0,0-.47-.29,1.61,1.61,0,0,0-.43-.07h-2.37v-.93Zm0,3.75h-.67a1.67,1.67,0,0,0-.44.06.86.86,0,0,0-.46.31,1.28,1.28,0,0,0-.18.79v.5a1.13,1.13,0,0,0,0,.26,1,1,0,0,0,.17.53.81.81,0,0,0,.46.3,1.49,1.49,0,0,0,.43.06h1.21a1.54,1.54,0,0,0,.43-.06.86.86,0,0,0,.65-.81v-2Z" transform="translate(-0.24 -5.84)"/><path class="a" d="M223.7,63h1v7.79a.94.94,0,0,0,.68.86,1.36,1.36,0,0,0,.29.06H226v.93h-.64a2.08,2.08,0,0,1-.54-.11,1.74,1.74,0,0,1-.73-.5,1.76,1.76,0,0,1-.34-.94v-.89Z" transform="translate(-0.24 -5.84)"/><path class="a" d="M231.69,72.62V64.68a1.74,1.74,0,0,1,.32-1.06,1.38,1.38,0,0,1,.82-.51,5.29,5.29,0,0,1,.79-.08h2a5.29,5.29,0,0,1,.79.08,1.35,1.35,0,0,1,.82.51,1.68,1.68,0,0,1,.32,1.06V71a1.68,1.68,0,0,1-.32,1.06,1.35,1.35,0,0,1-.82.51l-.34,0h-4.39Zm1-.94h3.05a.89.89,0,0,0,.57-.28,1,1,0,0,0,.18-.66V64.92a1,1,0,0,0-.18-.66.89.89,0,0,0-.57-.28h-2.29a.89.89,0,0,0-.57.28,1,1,0,0,0-.18.66Z" transform="translate(-0.24 -5.84)"/><path class="a" d="M242.27,65.21h.87a3.32,3.32,0,0,1,.7.13,1.62,1.62,0,0,1,.71.5,1.71,1.71,0,0,1,.36.94V71a1.68,1.68,0,0,1-.36.93,1.62,1.62,0,0,1-.71.5,2.87,2.87,0,0,1-.71.13h-1.74a2.87,2.87,0,0,1-.71-.13A1.56,1.56,0,0,1,240,72a1.68,1.68,0,0,1-.36-.93,2.28,2.28,0,0,1,0-.37v-.73a2.54,2.54,0,0,1,0-.39,1.71,1.71,0,0,1,.36-.94,1.47,1.47,0,0,1,.71-.49,2.87,2.87,0,0,1,.72-.14h1.9a.74.74,0,0,0,.47-.14.58.58,0,0,0,.19-.53v-.25a.78.78,0,0,0-.17-.57,1,1,0,0,0-.47-.29,1.61,1.61,0,0,0-.43-.07h-2.37v-.93Zm0,3.75h-.63a1.61,1.61,0,0,0-.44.06.93.93,0,0,0-.47.31,1.35,1.35,0,0,0-.17.79v.5a1.13,1.13,0,0,0,0,.26,1,1,0,0,0,.15.47.77.77,0,0,0,.45.3,1.29,1.29,0,0,0,.43.07h1.22a1.25,1.25,0,0,0,.43-.07.85.85,0,0,0,.65-.8v-2Z" transform="translate(-0.24 -5.84)"/><path class="a" d="M249.72,72.62h-.87a3.21,3.21,0,0,1-.7-.13,1.65,1.65,0,0,1-.72-.5,1.77,1.77,0,0,1-.35-.94V63.72h1v1.5h2.11v.89h-2.11v4.65a.86.86,0,0,0,.65.86,1.25,1.25,0,0,0,.43.07h1v.89Z" transform="translate(-0.24 -5.84)"/><path class="a" d="M254.56,65.21h.87a3.32,3.32,0,0,1,.7.13,1.62,1.62,0,0,1,.71.5,1.78,1.78,0,0,1,.36.94V71a1.75,1.75,0,0,1-.36.93,1.62,1.62,0,0,1-.71.5,2.87,2.87,0,0,1-.71.13h-1.74a2.87,2.87,0,0,1-.71-.13A1.57,1.57,0,0,1,251.9,71a2.28,2.28,0,0,1,0-.37v-.73a2.54,2.54,0,0,1,0-.39,1.69,1.69,0,0,1,.35-.94,1.55,1.55,0,0,1,.72-.49,2.87,2.87,0,0,1,.72-.14h1.9a.7.7,0,0,0,.46-.14.59.59,0,0,0,.2-.53v-.25a.88.88,0,0,0-.17-.57,1,1,0,0,0-.47-.29,1.62,1.62,0,0,0-.44-.07h-2.36v-.93Zm0,3.75h-.62a1.61,1.61,0,0,0-.44.06.89.89,0,0,0-.47.31,1.05,1.05,0,0,0-.18.54v1a1.11,1.11,0,0,0,.17.53.88.88,0,0,0,.46.3,1.59,1.59,0,0,0,.43.06h1.22a1.59,1.59,0,0,0,.43-.06.85.85,0,0,0,.64-.81v-2Z" transform="translate(-0.24 -5.84)"/></svg>