<svg xmlns="http://www.w3.org/2000/svg" width="168.99" height="43.33" viewBox="0 0 168.99 43.33"><defs><style>.a{fill:#0070c0;}</style></defs><title>logo-small</title><path class="a" d="M23.06,49H18l.71-10h-4.5q-1.67,0-3,0a6.85,6.85,0,0,1-2.3-.43,6.06,6.06,0,0,1-2.64-1.85A5.33,5.33,0,0,1,5.2,33.22q0-.81,0-1.47t.15-1.47l.89-10.74a6.8,6.8,0,0,1,1.64-4,6.26,6.26,0,0,1,3.54-2,10.3,10.3,0,0,1,2.09-.21h2.85q1.66,0,3,0a6.82,6.82,0,0,1,2.28.43,6.06,6.06,0,0,1,2.64,1.85,5.33,5.33,0,0,1,1.07,3.51q0,.81,0,1.47t-.15,1.47ZM20.2,21.71q0-.43.07-.76t0-.71a1.91,1.91,0,0,0-1.42-2,4.2,4.2,0,0,0-1-.16h-3a8.81,8.81,0,0,0-1.21.1,2.42,2.42,0,0,0-1.67.78,3,3,0,0,0-.76,1.76l-.84,10.07q0,.33-.07.74v.69a1.87,1.87,0,0,0,1.31,2,5.35,5.35,0,0,0,1.33.16h2.78a8.71,8.71,0,0,0,1.21-.1,2.54,2.54,0,0,0,1.67-.74,2.65,2.65,0,0,0,.71-1.64Z" transform="translate(-5.19 -5.7)"/><path class="a" d="M44.06,13.31h5L47.39,32.84a6.82,6.82,0,0,1-1.65,4,6.26,6.26,0,0,1-3.54,2,10.08,10.08,0,0,1-2.07.21H37.31q-1.67,0-3,0a6.85,6.85,0,0,1-2.3-.43,6.06,6.06,0,0,1-2.59-1.82,5.33,5.33,0,0,1-1.07-3.51q0-.81,0-1.47t.15-1.47l1.47-17h5.08l-1.6,17.44q0,.33-.07.74v.69a2.34,2.34,0,0,0,.38,1.33,1.62,1.62,0,0,0,1,.71,8.76,8.76,0,0,0,1.28.12h2.64a9.5,9.5,0,0,0,1.36-.1,2.54,2.54,0,0,0,1.67-.74,2.65,2.65,0,0,0,.71-1.64Z" transform="translate(-5.19 -5.7)"/><path class="a" d="M61.2,13.31q1.66,0,3,0a6.82,6.82,0,0,1,2.28.43,6.06,6.06,0,0,1,2.64,1.85,5.33,5.33,0,0,1,1.07,3.51q0,.81,0,1.47T70,22.1L69,32.84a6.82,6.82,0,0,1-1.64,4,6.26,6.26,0,0,1-3.54,2,10.08,10.08,0,0,1-2,.2H59q-1.67,0-3,0a6.85,6.85,0,0,1-2.3-.43A6.06,6.06,0,0,1,51,36.69a5.33,5.33,0,0,1-1.07-3.51q0-1.28.1-2.42l.19-2.21a6.72,6.72,0,0,1,1.67-4,6.38,6.38,0,0,1,3.55-1.93,10.06,10.06,0,0,1,1.73-.19q1.11,0,3.78,0h2.57a1.69,1.69,0,0,0,1-.33A1.44,1.44,0,0,0,65.06,21q0-.33.07-.61v-.5a1.64,1.64,0,0,0-1.33-1.71A4.88,4.88,0,0,0,62.59,18H54.22l.43-4.71Zm3.32,13.78H58.8a9,9,0,0,0-1.26.1,2.42,2.42,0,0,0-1.67.81,3.08,3.08,0,0,0-.71,1.82A21.28,21.28,0,0,0,55,32.13a1.91,1.91,0,0,0,1.44,2,4.74,4.74,0,0,0,1.21.16h3a8.07,8.07,0,0,0,1.11-.1,2.54,2.54,0,0,0,1.67-.74,2.65,2.65,0,0,0,.71-1.64Z" transform="translate(-5.19 -5.7)"/><path class="a" d="M87.86,21.86q0-.43.07-.83a6.31,6.31,0,0,0,0-.78,1.91,1.91,0,0,0-1.42-2,4.2,4.2,0,0,0-1-.16h-3a8.81,8.81,0,0,0-1.21.1q-2.14.24-2.37,2.71L77.31,39.09h-5l1.67-19.34a7,7,0,0,1,1.64-4.18,6.26,6.26,0,0,1,3.54-2,10.3,10.3,0,0,1,2.09-.21h2.85q1.67,0,3,0a6.82,6.82,0,0,1,2.28.43A6.06,6.06,0,0,1,92,15.7,5.33,5.33,0,0,1,93,19.21q0,.81,0,1.64t-.15,1.64L91.37,39.13h-5Z" transform="translate(-5.19 -5.7)"/><path class="a" d="M98.4,5.78h5l-.79,7.53h6.85L109.06,18h-6.79l-1.14,12.78q0,.33-.07.74v.69a1.87,1.87,0,0,0,1.33,2,3.32,3.32,0,0,0,1,.12l1.57,0h2.76L107.23,39h-1.93q-1.11,0-2.21,0t-2-.15a5.45,5.45,0,0,1-1.4-.28A6.06,6.06,0,0,1,97,36.71,5.33,5.33,0,0,1,96,33.2q0-.81,0-1.47t.15-1.47Z" transform="translate(-5.19 -5.7)"/><path class="a" d="M119.12,39.06q-1.67,0-3,0a6.78,6.78,0,0,1-2.28-.43,6.06,6.06,0,0,1-2.64-1.85,5.33,5.33,0,0,1-1.07-3.51q0-.81,0-1.47t.15-1.47l1-10.74a6.8,6.8,0,0,1,1.64-4,6.26,6.26,0,0,1,3.54-2,10.18,10.18,0,0,1,2.07-.21h2.83q1.67,0,3,0a6.88,6.88,0,0,1,2.3.43,6.06,6.06,0,0,1,2.65,1.82,5.33,5.33,0,0,1,1.07,3.51q0,.81-.12,2.09T130,23.76a6.82,6.82,0,0,1-1.64,4,6.26,6.26,0,0,1-3.54,2,3.37,3.37,0,0,1-.74.12l-1,.07q-.61,0-1.52,0h-6.16l-.1.81q0,.52-.07,1v.69a1.64,1.64,0,0,0,1.32,1.72,4.85,4.85,0,0,0,1.21.16h8.62L126,39Zm-3.33-13.78h5.67a8.85,8.85,0,0,0,1.26-.1,2.42,2.42,0,0,0,1.67-.81,3.09,3.09,0,0,0,.71-1.82q.1-.67.15-1.26t0-1.07a1.91,1.91,0,0,0-1.41-2,4.78,4.78,0,0,0-1.21-.16h-3a8.17,8.17,0,0,0-1.11.1,2.54,2.54,0,0,0-1.67.74,2.64,2.64,0,0,0-.71,1.64Z" transform="translate(-5.19 -5.7)"/><path class="a" d="M151.06,32.84a6.82,6.82,0,0,1-1.64,4,6.26,6.26,0,0,1-3.54,2,10.07,10.07,0,0,1-2.07.21H141q-1.67,0-3,0a6.85,6.85,0,0,1-2.3-.43A6.06,6.06,0,0,1,133,36.7,5.33,5.33,0,0,1,132,33.19q0-.81,0-1.47t.15-1.47L133,19.5a6.8,6.8,0,0,1,1.64-4,6.26,6.26,0,0,1,3.54-2,10.3,10.3,0,0,1,2.09-.21h7.42l.67-7.6h5ZM147,21.71q0-.43.07-.76a5.27,5.27,0,0,0,0-.71,1.91,1.91,0,0,0-1.42-2,4.2,4.2,0,0,0-1-.16h-3a8.81,8.81,0,0,0-1.21.1,2.42,2.42,0,0,0-1.67.78,3,3,0,0,0-.71,1.78l-.85,10.07q0,.33-.07.71v.67a1.91,1.91,0,0,0,1.41,2,4.74,4.74,0,0,0,1.21.16h3a8.07,8.07,0,0,0,1.11-.1,2.54,2.54,0,0,0,1.67-.74,2.65,2.65,0,0,0,.71-1.64Z" transform="translate(-5.19 -5.7)"/><path class="a" d="M165.16,13.31q1.67,0,3,0a6.82,6.82,0,0,1,2.28.43,6.06,6.06,0,0,1,2.64,1.85,5.33,5.33,0,0,1,1.1,3.51q0,.81,0,1.47T174,22.1l-1,10.74a6.82,6.82,0,0,1-1.64,4,6.26,6.26,0,0,1-3.54,2,10.08,10.08,0,0,1-2.07.21H163q-1.67,0-3,0a6.85,6.85,0,0,1-2.3-.43A6.06,6.06,0,0,1,155,36.7a5.33,5.33,0,0,1-1.07-3.51q0-1.28.1-2.42l.19-2.21a6.72,6.72,0,0,1,1.67-4,6.38,6.38,0,0,1,3.56-2,10.06,10.06,0,0,1,1.73-.19q1.11,0,3.78,0h2.56a1.69,1.69,0,0,0,1-.31A1.44,1.44,0,0,0,169,21q0-.33.07-.61a2.55,2.55,0,0,0,0-.5,1.64,1.64,0,0,0-1.33-1.71,4.88,4.88,0,0,0-1.21-.16h-8.38l.43-4.71Zm3.33,13.78h-5.72a9,9,0,0,0-1.26.1,2.42,2.42,0,0,0-1.67.81,3.08,3.08,0,0,0-.71,1.82,21.24,21.24,0,0,0-.15,2.33,1.91,1.91,0,0,0,1.44,2,4.74,4.74,0,0,0,1.21.16h3a8.07,8.07,0,0,0,1.11-.1,2.54,2.54,0,0,0,1.67-.74,2.65,2.65,0,0,0,.71-1.64Z" transform="translate(-5.19 -5.7)"/></svg>