<svg xmlns="http://www.w3.org/2000/svg" width="1800" height="700" viewBox="0 0 1800 700"><defs><style>.a{fill:#565656;}</style></defs><title>network</title><path class="a" d="M0,792.86v1.83l39.34,6.47v0a5.74,5.74,0,1,0,10.89-2.54l187.7-132.73,7.31,2.15a5.73,5.73,0,0,0,8.74,5.59l52.95,60.52-19.33,43a5.74,5.74,0,1,0,3,9.16l120.88,70a5.74,5.74,0,1,0,10.82.3l189.55-96.3a5.74,5.74,0,0,0,9.62-6.21l91.45-74.91a5.73,5.73,0,0,0,9.55-4.11l191.72-28.9a5.74,5.74,0,0,0,11.21-1.67l88-12.87a5.74,5.74,0,0,0,10.66.75l121.18,35.65a5.74,5.74,0,1,0,9.23-3.78l39.37-70.94L1398.48,710a5.74,5.74,0,0,0,10.31,5l102,40.49a5.72,5.72,0,0,0,5.46,7.1l9.35,108.53a5.75,5.75,0,1,0,7,4.48l231.37-84a5.74,5.74,0,0,0,10.52-1.11l25.48,4.19v-1.83l-25.23-4.15a5.71,5.71,0,0,0-1.17-3.35l12-16.15,14.39,8v-2.07l-13.3-7.38,13.3-17.87v-3l-14.89,20-20.34-11.29L1749.25,656l50.75-7.65V646.5l-51,7.69-2.56-16.47a5.75,5.75,0,0,0,3.73-3.79l49.86,8.21v-1.83l-49.62-8.17a5.74,5.74,0,0,0-.18-1.3l24.13-10.4a5.73,5.73,0,0,0,9.34.5L1800,632.12v-2.19l-15.44-10.57a5.73,5.73,0,0,0-5.38-7.74,5.8,5.8,0,0,0-.6,0l-14.65-54.46,36.07-12v-1.9l-36.54,12.2L1745,486.8l38.32-70.46,16.68,9.51v-2.08l-15.82-9,3.26-6,12.56,4.83v-1.93l-11.69-4.5,11.69-21.5V381.9l-13.39,24.62-47.55-18.3a5.37,5.37,0,0,0,0-1.9l61-25.44v-2l-61.55,25.68a5.75,5.75,0,0,0-3.46-2.79l8.62-68.8a5.73,5.73,0,0,0,4.81-8.55L1800,266.34v-2.25L1747.41,303l43-71.54,4,1.87a5.72,5.72,0,0,0,5.56,7.17V229a5.73,5.73,0,0,0-4.84,2.66l-3.78-1.77,8.62-14.33v-3.5l-10.27,17.07-73.26-34.23,43.11-66.32a5.73,5.73,0,0,0,7-1.9L1800,146.9v-2.11l-32.61-19.72a5.71,5.71,0,0,0,.25-1.29l32.37-3.07V118.9L1767.49,122a5.75,5.75,0,0,0-3.68-4.06l15.26-84.74h.12a5.74,5.74,0,0,0,5.74-5.74c0-.08,0-.17,0-.25L1800,23.55V21.69l-15.45,3.74a5.74,5.74,0,0,0-5.37-3.73l-.5,0L1750.79-90.18l15-16.23a5.72,5.72,0,0,0,3.2,1,5.72,5.72,0,0,0,2-.35L1800-30V-35l-27.41-71.63a5.75,5.75,0,0,0,1.94-2.84l25.48,4.19v-1.83l-25.23-4.15a5.73,5.73,0,0,0-.24-1.51c-.67-2.25-2.25-3.92-5.48-4.1l-3.93-25.25L1800-122.81v-2.07l-35.23-19.55L1749.25-244l50.75-7.65v-1.83l-51,7.69-2.56-16.47a5.75,5.75,0,0,0,3.73-3.79l49.86,8.21v-1.83l-49.62-8.17a5.74,5.74,0,0,0-.18-1.3l24.13-10.4a5.73,5.73,0,0,0,4.85,2.67,5.73,5.73,0,0,0,4.49-2.17L1800-267.89v-2.19l-15.44-10.57a5.72,5.72,0,0,0,.36-2,5.74,5.74,0,0,0-5.74-5.74,5.74,5.74,0,0,0-5.74,5.74,5.74,5.74,0,0,0,.18,1.41l-24.13,10.4a5.73,5.73,0,0,0-4.85-2.67,5.71,5.71,0,0,0-3.35,1.09l-44.14-44.41a5.71,5.71,0,0,0,1.11-3.38,5.75,5.75,0,0,0-5.74-5.74,5.74,5.74,0,0,0-5.47,4L1571-339.55a5.74,5.74,0,0,0-5.74-5.7,5.74,5.74,0,0,0-5.74,5.74,5.75,5.75,0,0,0,3.51,5.29l-19.32,78.11L1434.2-283.48c0-.17,0-.33,0-.5a5.74,5.74,0,0,0-5.74-5.74,5.74,5.74,0,0,0-5.74,5.74,5.74,5.74,0,0,0,3.47,5.28l-21.61,85.17a5.76,5.76,0,0,0-.81-.06,5.74,5.74,0,0,0-5.74,5.74,5.74,5.74,0,0,0,3.34,5.21L1362.31-65.75,1321.44-45a5.73,5.73,0,0,0-4.64-2.37,5.73,5.73,0,0,0-4.46,2.12l-120.88-70a5.72,5.72,0,0,0,.39-2.06,5.74,5.74,0,0,0-5.74-5.74,5.74,5.74,0,0,0-5.74,5.74,5.72,5.72,0,0,0,.46,2.26L1078.39-50.65,950.71-97.71a5.77,5.77,0,0,0,.11-1.11,5.74,5.74,0,0,0-5.74-5.74,5.73,5.73,0,0,0-4.52,2.2L722.21-223.53a5.74,5.74,0,0,0,.22-1.55,5.74,5.74,0,0,0-5.74-5.74,5.74,5.74,0,0,0-5.74,5.74,5.71,5.71,0,0,0,.79,2.89l-17,13.92L682.9-241a5.74,5.74,0,0,0,3-5,5.74,5.74,0,0,0-5.74-5.74,5.74,5.74,0,0,0-5.28,3.49L534.2-283.48c0-.17,0-.33,0-.5a5.74,5.74,0,0,0-5.74-5.74,5.74,5.74,0,0,0-5.74,5.74,5.72,5.72,0,0,0,1.57,3.94l-97,125.87L396.11-168,373.35-301.07a5.74,5.74,0,0,0,3.81-5.4,5.74,5.74,0,0,0-5.74-5.74,5.74,5.74,0,0,0-5.74,5.74,5.73,5.73,0,0,0,2.41,4.67L322.53-200.51l-66.06-29.23a5.73,5.73,0,0,0,.2-1.47,5.74,5.74,0,0,0-5.74-5.74,5.74,5.74,0,0,0-5.18,3.28L124.57-269.32a5.78,5.78,0,0,0,.05-.73,5.74,5.74,0,0,0-5.74-5.74,5.74,5.74,0,0,0-5.74,5.67l-88,12.87a5.75,5.75,0,0,0-5.48-4,5.72,5.72,0,0,0-4.17,1.8L0-270.08v2.19L14.43-258a5.74,5.74,0,0,0-.26.64L0-259.7v1.83l13.82,2.28L0-253.51v1.83l14.15-2.13a5.75,5.75,0,0,0,5.47,4,5.71,5.71,0,0,0,2.7-.68l55.53,73.32L46.49-104.39a5.74,5.74,0,0,0-1.41-.18,5.73,5.73,0,0,0-4.52,2.2L0-124.88v2.07l39.69,22-.05.15L0-107.15v1.83l39.34,6.47v0a5.74,5.74,0,0,0,5.24,5.72L51.74,9.18l-31.86,7.7L0-35V-30L18.1,17.31,0,21.69v1.86L18.75,19,54.5,112.41a5.73,5.73,0,0,0-.24,1.34L0,118.9v1.81l54.43-5.17a5.74,5.74,0,0,0,1.86,3L29.68,162.73,0,144.79v2.11l28.75,17.38L0,212.07v3.5l30.29-50.36,53.19,32.16a5.72,5.72,0,0,0,.22,4.81L30.35,241.64l-24.63-6.4c0-.16,0-.33,0-.49A5.74,5.74,0,0,0,0,229H0v11.49H0a5.73,5.73,0,0,0,4.52-2.2L21.71,248,0,264.09v2.25L23.43,249l35.14,19.94L52.21,284a5.74,5.74,0,0,0-4.53,10.19L16.16,352.18,0,358.93v2l14.78-6.17L0,381.9v3.78l17.44-32.07,79.07-33,42.53,28-28.78,60-24.68-25.3a5.74,5.74,0,1,0-6.48,2l-9.44,53.17L0,411.67v1.93l69.33,26.68-3.71,20.89L0,423.77v2.08l65.29,37.22-10.13,57h-.1a5.71,5.71,0,0,0-5.66,6.68L0,543.26v1.9l50-16.69a5.76,5.76,0,0,0,2.6,2.52L20.38,638.77a5.65,5.65,0,0,0-4.92,1.74L0,629.93v2.19L14.43,642a5.67,5.67,0,0,0-.26.64L0,640.31v1.83l13.82,2.28L0,646.5v1.83l14.15-2.13a5.74,5.74,0,0,0,11.21-1.67l57-8.33L0,746.86v3L84.9,635.83l28.49-4.16a5.75,5.75,0,0,0,2.41,3.13L46.49,795.62a5.7,5.7,0,0,0-5.93,2L0,775.13v2.07l39.69,22-.05.15ZM237.6,663.94l-113-33.26a5.74,5.74,0,0,0-7.89-6l-10.59-17.28,63.25-85,86.85,49.5-5.26,82.63ZM422.26-43.38l39.23-19.93-13.37,40-26-16.08a5.72,5.72,0,0,0,.44-2.21A5.73,5.73,0,0,0,422.26-43.38Zm87.21-145.3,77.2-25.52,42.18,49.56-10,16.28a5.71,5.71,0,0,0-2.44-.55,5.73,5.73,0,0,0-4.88,2.72L509.43-186.71a5.77,5.77,0,0,0,.11-1.14A5.76,5.76,0,0,0,509.48-188.68Zm212-33.21,218.23,121.1-.05.15L874.77-111.3a5.74,5.74,0,0,0-5.74-5.62,5.74,5.74,0,0,0-5.74,5.74,5.76,5.76,0,0,0,.1,1.08L805.31-89l-84.8-131.79A5.77,5.77,0,0,0,721.46-221.89ZM1283.92,23.8,1335.65,14l-16.42,49.11L1299.91,59,1281.84,28.4a5.73,5.73,0,0,0,2.08-4.43C1283.93,23.91,1283.92,23.86,1283.92,23.8Zm125.56-212.48,77.2-25.52,36.14,42.46-5.66,22.9a5.77,5.77,0,0,0-.77-.06,5.73,5.73,0,0,0-4.88,2.72l-102.07-40.52a5.78,5.78,0,0,0,.11-1.14A5.76,5.76,0,0,0,1409.48-188.68Zm165-56.45L1540-233.74l5-20.17,29.41,7.36c0,.16,0,.33,0,.5A5.76,5.76,0,0,0,1574.46-245.13Zm.56,1.71a5.76,5.76,0,0,0,1.36,1.71l-46.53,75.45-5.07-6,14.71-59.46ZM1672.66-5.9l49.58-53.48,53.12,82.55a5.75,5.75,0,0,0-1.42,1.93L1673.86-1.77a5.78,5.78,0,0,0,0-.59A5.71,5.71,0,0,0,1672.66-5.9ZM1697,122.44a5.73,5.73,0,0,0-10.31-2.46l-26.6-13.46,3.58-43.45,93,58a5.71,5.71,0,0,0-.38,1.34Zm41.64,181.7a5.71,5.71,0,0,0-.86,2.19l-41.44-.47L1682.65,255a5.74,5.74,0,0,0,1.24-.75Zm-9.49,87-7.39,9.18-4.16-15.48,10.08,2.15c0,.1,0,.2,0,.3A5.72,5.72,0,0,0,1729.14,391.18Zm15.8,172.36,28.54,46.3-39.3-42.7Zm-12.1,2.14-19.32-21,9.28-17.06L1744,562Zm7.36,70.21L1720,658.56l-97.82,14.75a5.74,5.74,0,0,0-5.07-4.11L1609,568.05l77.8,11.8a5.74,5.74,0,0,0,9.1,4.61L1740,628.88a5.73,5.73,0,0,0,.19,7Zm-128.47,41.92-91.4,74.87,0,0,57.61-93.41a5.74,5.74,0,0,0,4.45-10.59l20.22-81.58,4.56.69,8.19,101.57a5.73,5.73,0,0,0-3.6,8.47Zm-179-65.63L1481,552.26l27.22,3,42.69,59.53-7.21,29.17L1434.2,616.53c0-.17,0-.33,0-.5A5.72,5.72,0,0,0,1432.74,612.18ZM949.4,526.76l-85.94,28.7L845,486.8l38.32-70.46,82,46.72-10.13,57h-.1a5.71,5.71,0,0,0-5.66,6.68Zm-75.78,92-24.13,10.4a5.73,5.73,0,0,0-8.2-1.58l-44.14-44.41a5.71,5.71,0,0,0,1.11-3.38,5.78,5.78,0,0,0,0-.66l34.08-11.38,42.38,46a5.68,5.68,0,0,0-1.06,5ZM708.83,566.2l-1.48-18.33,6.88-27.77,38-32.25a5.73,5.73,0,0,0,6.91.43L811.31,545,795.14,574.7a5.74,5.74,0,0,0-8.09,3.37ZM373.35,598.94a5.74,5.74,0,1,0-5.26-.73l-12.67,28.16-34.08-19.43,63.8-45.11,137.73,53a5.74,5.74,0,0,0,3.35,6.47L504.6,706.48a5.66,5.66,0,0,0-5.19,2l-118.94-67.8Zm5.1,40.56L357,627.27,369.7,599a5.74,5.74,0,0,0,1.71.26h.16ZM413.14-37.18,380.28,18.63a5.7,5.7,0,0,0-4.44.1L339.39-37.2l25.69-33.32,46.36,26.85a5.72,5.72,0,0,0-.39,2.06A5.73,5.73,0,0,0,413.14-37.18Zm-29.22,61L435.65,14,419.23,63.07,399.91,59,381.84,28.4A5.73,5.73,0,0,0,383.93,24C383.93,23.91,383.92,23.86,383.92,23.8ZM488.72,3.88l38.8,24,1.89,16.75L428,64.92l-7-1.48,16.68-49.87Zm-50.38,7.74,10.77-32.21L486.44,2.47Zm77.38-104.5-2.4-21.24,23.63,10.45Zm23.36-9.84,83.34,36.88,3.18,37a5.74,5.74,0,0,0-4.36,5.57c0,.06,0,.11,0,.17L525.63-5l-9.7-86Zm83.17,34.82-81.09-35.88,70.66-35.9a5.73,5.73,0,0,0,4.45,2.26Zm253.1,91.07a5.75,5.75,0,0,0-1.42,1.93L773.86-1.77a5.83,5.83,0,0,0,0-.59,5.71,5.71,0,0,0-1.23-3.55l49.58-53.48Zm-69-110.63L864-108.4a5.74,5.74,0,0,0,.51.76l-42,45.32ZM773.39,0,873.46,26.85a5.73,5.73,0,0,0,3.82,6L862,117.6h-.12a5.71,5.71,0,0,0-2.67.66l-87-116.61A5.75,5.75,0,0,0,773.39,0Zm181,115.57a5.74,5.74,0,0,0,1.86,3l-26.61,44.23-62.29-37.66a5.72,5.72,0,0,0,.25-1.29Zm179.18-9.79L1305.1,71.36l7.25,12.28-12.55,37.52-198.21,49.36-3-1.21,27.64-57.83a5.74,5.74,0,0,0,7.37-5.51C1133.63,105.9,1133.62,105.83,1133.61,105.75ZM1429.47,29l19,11.72-17.26,3.46Zm89.46-177.6,5.32-21.5,4.6,5.41Zm11.15-14.64,4,4.64-13.71,11.23,0,0Zm-8,20a5.72,5.72,0,0,0-.69-2.73l13.78-11.29,53.64,63-58.76,66a5.7,5.7,0,0,0-2.68-.89l-9.35-108.62A5.74,5.74,0,0,0,1522.12-143.16Zm99.34-78.73,54.31,30.14-21.22,23.83-34-52.89A5.77,5.77,0,0,0,1621.46-221.89Zm60.22,31.35-3.06-1.7,3.49-3.92Zm-.15,2-4.29,55.9-21.68-33.69,21.82-24.51ZM1687,127.06,1657.13,162a5.71,5.71,0,0,0-1.57-.71l4.36-52.82,25.94,13.13a5.73,5.73,0,0,0,1.1,5.48Zm8.18,447.64a5.74,5.74,0,0,0-8.09,3.37l-78.22-11.86-1.48-18.33,6.88-27.77,38-32.25a5.73,5.73,0,0,0,6.91.43L1711.31,545Zm-366.7-40.82c0-.16,0-.31,0-.46l127.05-37.77-11.76,50.76Zm-186.82-29.22-60.28-23.2-21.77-22.32L1133.84,411l31.29,20.59-4.32,67.84Zm19.07-3.36-.66,10.44-15.57-6Zm-76.33-16.75,54.33,20.91-21.81,6a5.73,5.73,0,0,0-8.54-2.32ZM796.61,575.77l16-29.41L831,566.31l-33.23,11.09A5.76,5.76,0,0,0,796.61,575.77ZM705.7,527.35l6.18-5.25-5,20.11Zm-.18-2.22-4-49,20.92,3.2-9.87,39.81ZM532.74,612.18,581,552.26l27.22,3,42.69,59.53-7.21,29.17L534.2,616.53c0-.16,0-.33,0-.5A5.72,5.72,0,0,0,532.74,612.18Zm-340.93-120,2.76-3.71,44.1,17-21.81,6a5.73,5.73,0,0,0-8.54-2.32Zm-1.28-1.31-6.18-6.34,8.47,3.26Zm5.16-3.91,50.52-67.87,18.91,12.44-4.32,67.84-19.19,5.26ZM174,289.68a5.75,5.75,0,0,0-4-5.48l.75-4.19,96.06,25c0,.18,0,.37,0,.55a5.72,5.72,0,0,0,1.63,4L254.68,328l-95-18.3,7-14.51a5.74,5.74,0,0,0,7.38-5.5ZM97.39,198.32l96.88-24.13-7.85,16.43a5.73,5.73,0,0,0-7.33,4.8Zm100.44-27.38.78.32-1.05.26ZM219.37,9.67l10.3,13.6L161.5,8.95l1.75-4.65ZM163.91,2.54l16.62-44.16L217.89,7.71Zm57.9,7.36,73.56,7L282,34.26,232.37,23.83ZM529.47,29l19,11.72-17.26,3.46ZM631.32-19.56l53,33.09L580.85,34.28l43.25-52.65a5.71,5.71,0,0,0,2.9.79A5.72,5.72,0,0,0,631.32-19.56Zm1.15-2L762.41-2.3c0,.06,0,.11,0,.17L686.9,13l-54.61-34.1Q632.39-21.34,632.47-21.6ZM985.94,194.56a5.77,5.77,0,0,0-1.52,1.26l-53.2-32.16,26.21-43.57ZM1331,115.25l32.55,55.15-87.23,35.52a5.76,5.76,0,0,0-2.25-2.12l27.13-81.14Zm-29.12,5.39,11.68-34.94L1330,113.63Zm229.44-140.2,53,33.09L1480.85,34.28l43.25-52.65a5.71,5.71,0,0,0,2.9.79A5.72,5.72,0,0,0,1531.32-19.56ZM1665.38-7.38l-.21.13-42.44-49.86L1644.55-65Zm-19.13-58.27,26.59-9.65-5.16,67.24a5.74,5.74,0,0,0-.61.08Zm17.55,59.57a5.73,5.73,0,0,0-1.12,2l-129.94-19.3a5.77,5.77,0,0,0-.1-1l88.29-32ZM1663.51,1l-36.7,36.91L1589.13,14.4,1662.77-.36A5.72,5.72,0,0,0,1663.51,1Zm-131-22.62L1662.41-2.3c0,.06,0,.11,0,.17L1586.9,13l-54.61-34.1Q1532.39-21.34,1532.47-21.6Zm54.08,36.52,39,24.32-67,67.39-90.94-56.17,11.48-14Zm67.21,146.15a5.72,5.72,0,0,0-4,1.91l-54.14-33.44L1615,91a5.73,5.73,0,0,0,6.39-2.11l36.83,18.64Zm-5,3.43a5.71,5.71,0,0,0,.37,5.3l-30.62,25.08-35.24-30.11a5.72,5.72,0,0,0-1.54-7.65l13.06-26Zm1.47,319a5.71,5.71,0,0,0,.84,2.94L1615,517.1l9.3-37.54Zm-44.53,43.82,6.18-5.25-5,20.1Zm-.18-2.22-4-49,20.92,3.2-9.87,39.81Zm-62.95-58.07a5.78,5.78,0,0,0,.06.77l-78.21,23.25-4.59-6.39L1494,337.13l24.5,5.23,27.71,119.34A5.74,5.74,0,0,0,1542.57,467.06Zm1.53,3.9-49.77,61.83-28.8-40.15,77.62-23.08A5.74,5.74,0,0,0,1544.1,471Zm-231.47-16a5.71,5.71,0,0,0-3.32-1.06,5.78,5.78,0,0,0-.69,0l-14.22-41.74,27.78-50.06,49.91,9.62c0,.06,0,.12,0,.19a5.74,5.74,0,0,0,8.31,5.13l3.55,5Zm-9,5.31-42.33,11.61,31.94-57.55,13.67,40.11a5.72,5.72,0,0,0-3.28,5.83Zm-140-70.72-29.76,19.3-25-16.43,20-26.82,34.58,19.62a5.69,5.69,0,0,0,.13,4.34Zm1,1.51a5.73,5.73,0,0,0,3,1.76l-2.34,36.69-29.76-19.58Zm-155.16,19.32L991.85,447l-20.48-7.88,9.5-53.51h.1a5.71,5.71,0,0,0,3.31-1.06Zm-23.85-27a5.74,5.74,0,1,0-6.48,2l-9.44,53.17-81.35-31.31,29.13-53.57,79.07-33,42.53,28-28.78,60ZM654.06,467a5.72,5.72,0,0,0-2-4.28L693.21,395l6.37,79ZM428.43,533.88c0-.16,0-.31,0-.46l127.05-37.77L543.69,546.4ZM351.31,486.1,341,479.29l16.66-4.57Zm8.75-12,44-12.07a5.74,5.74,0,1,0,9.84-5.79L485,383.49l12.22,17L424.71,528.78a5.71,5.71,0,0,0-6.24,1.51l-65.65-43.2ZM190.5,195.48l40.22-11.21,64.38,26.09-22.26,89.45h-.28a5.71,5.71,0,0,0-2.36.51L189.06,200a5.72,5.72,0,0,0,1.48-3.84A5.78,5.78,0,0,0,190.5,195.48ZM787,127.06,757.13,162a5.71,5.71,0,0,0-1.57-.71l4.36-52.82,25.94,13.13a5.73,5.73,0,0,0,1.1,5.48ZM897.26,239.8a5.74,5.74,0,0,0,6.39-.62,5.77,5.77,0,0,0,.78-.78l.08-.11L921.71,248l-74.3,55,43-71.54,4,1.87a5.71,5.71,0,0,0,2.82,6.47Zm56.65,44.85,6.24-14.8,55.17,31.3-58.41-11.26c0-.06,0-.12,0-.19A5.74,5.74,0,0,0,953.91,284.65Zm-2.74,10.79a5.72,5.72,0,0,0,4.24-1.88l39.29,25.85-75.88,31.66,30.44-56A5.72,5.72,0,0,0,951.17,295.44Zm5.23-3.38c.06-.13.11-.27.16-.4l63.67,12.27,4.91,2.79-28.44,11.87Zm70.85,13.77-1.48-.84,2.39.46Zm-.12,2,24.73,14-12,25.09-41.31-27.18Zm26.31,14.92,73.87,41.9-19.95,26.73-66-43.43Zm-24.2-15.8,2.13-.89,25.7,5-4.42,9.21Zm5.14-2.15,29-12.12a5.77,5.77,0,0,0,1.62,1.71l-7.16,14.94Zm33.87-20.87a5.71,5.71,0,0,0-2.53.61l-6.78-7.62,10.09,2.62Zm-4,1.67a5.7,5.7,0,0,0-1.52,5.42l-31.55,13.16-10.31-2-60-34,6.36-15.08,88.58,23Zm-96.32-34.2,19.52-46.3a5.67,5.67,0,0,0,4.46-.74l61.73,69.32Zm17.85-47L966.16,251l-33.56-8.72,52.19-38.6A5.76,5.76,0,0,0,985.77,204.4Zm-20.33,48.23-6.17,14.64L925,247.84l5.72-4.23Zm-42.15-5.77-16.88-9.58L928.49,243Zm-77.45,55.22a5.71,5.71,0,0,0-6,.72l-54.74-49.9a5.73,5.73,0,0,0-1.32-7.72l31.7-48.76,73.32,34.26Zm-49.52,3.77L782.65,255a5.73,5.73,0,0,0,1.24-.75l54.74,49.9a5.7,5.7,0,0,0-.86,2.19ZM558.43,482.74l-59-82.32,39.68-70.14a5.72,5.72,0,0,0,7.36-3.31l45.82,9.79Zm.86,4.29,3.3,4.6L557.91,493ZM412.63,454.93a5.71,5.71,0,0,0-3.32-1.06,5.77,5.77,0,0,0-.69,0l-14.22-41.74,27.78-50.06,49.91,9.62c0,.06,0,.12,0,.19a5.74,5.74,0,0,0,8.31,5.13l3.55,5ZM481.88,376a5.74,5.74,0,1,0-9.43-6l-49.33-9.51,10-18a5.73,5.73,0,0,0,7.7-5.39,5.78,5.78,0,0,0-.07-.85l56-17.77,38.63,6.4s0,0,0,0a5.71,5.71,0,0,0,1.14,3.42l-51.22,52.37ZM328.75,284a5.72,5.72,0,0,0-5.7,6.41l-22.4,6.32,5.1-82,22.57,9.15,23.44,68.78-17.26-2.86s0,0,0,0A5.74,5.74,0,0,0,328.75,284Zm-24.66-71.9-6.86-2.78,9.38-37.68Zm4.58-44.57.42-.06,18.45,54.13-21.68-8.79Zm2.23-.36,49.21,67.63-30.35-12.3Zm-15.36,41.47-62-25.11,69.33-19.32a5.76,5.76,0,0,0,3,2.9ZM304,214,298.8,297.2l-21,5.93a5.75,5.75,0,0,0-3.16-3L296.79,211Zm26.55,10.76,31.59,12.8,47,64.59-55.34-9.18Zm34.76,14.08,87.33,35.39-10,33.48-31-5.14Zm3.42-35-46.56-61.47,77-19.17-26.77,80a5.63,5.63,0,0,0-3.65.59Zm8.3,3.76L464.47,172l9.7,16.44a5.74,5.74,0,0,0,1.17,9.6l-19.42,65.06-79.28-51.83a5.66,5.66,0,0,0,.35-3.65ZM539.88,91.75l88.34,45.32-8.66,8.71-52.87-13.54c0-.18,0-.35,0-.53a5.74,5.74,0,0,0-7.86-5.34L538.92,92.78A5.77,5.77,0,0,0,539.88,91.75Zm138.48,75.76a5.72,5.72,0,0,0,3.72-1.37l35,29.9-20.84,17.07a5.72,5.72,0,0,0-8.07.44l-81-52.78,12.91-13,52.53,13.45c0,.18,0,.35,0,.53A5.74,5.74,0,0,0,678.36,167.51Zm75.65,5a5.74,5.74,0,0,0,4.8-2.59l26.43,12.35L779.82,244a5.71,5.71,0,0,0-2.7.94l-57.23-48.91,30.4-24.89A5.72,5.72,0,0,0,754,172.55Zm-9.56,134.53-27.55,45.38-26.26-42.58a5.73,5.73,0,0,0,1.91-3.38Zm-51.87-2.39a5.7,5.7,0,0,0-.35-1.29l83.66-50a5.77,5.77,0,0,0,.69.7l-31,51.15ZM778,255.29l-12.45,50.22-17.92-.2Zm1.81.19.49,0a5.81,5.81,0,0,0,.6,0l13.55,50.37-27-.31Zm-4-9.26a5.72,5.72,0,0,0-.82,5.68l-83.66,50a5.74,5.74,0,0,0-3.2-1.93l4.85-76.8a5.73,5.73,0,0,0,4.41-8.61l21.09-17.27Zm-94.62,59.16-67.3,8.94-6.05-26.07a5.76,5.76,0,0,0,3.06-2.93l70.33,19.56C681.18,305,681.17,305.21,681.17,305.38ZM546.58,323.26a5.74,5.74,0,0,0-9.49-2.48l-14.17-10.64,77.6-24.64a5.76,5.76,0,0,0,3,2.74l-6.56,28.32Zm-107.44,9.8a5.75,5.75,0,0,0-1.84-1.26l6.6-22.1,22.73,3.77Zm30-19.17,23.63,3.92-52.54,16.68Zm2.08-1.48,22.44-16a5.73,5.73,0,0,0,8.08.1l17.27,13-22.46,7.13Zm216.1-92.35-78.22,58.29a5.72,5.72,0,0,0-7.67.68l-29.13-19.48a5.73,5.73,0,0,0-2.91-7.66l18.55-68a5.73,5.73,0,0,0,6.37-5.71,5.71,5.71,0,0,0-1.11-3.38l12.69-12.77,81.27,53a5.72,5.72,0,0,0,.16,5ZM600,283.78l-78.83,25-18.29-13.74a5.73,5.73,0,0,0,.39-4.45l59.22-30.11a5.73,5.73,0,0,0,8.85.53l29.13,19.48a5.57,5.57,0,0,0-.46,3.25Zm4.38-122.71-12.43,12.5a5.74,5.74,0,1,0-5.72,9.89l-18.56,68-.39,0L545.8,138.86l10.26-4.18a5.73,5.73,0,0,0,9.16.88Zm-38.15-27,0-.06,51.84,13.28-12.43,12.5Zm-4.58,124.86L502.42,289a5.73,5.73,0,0,0-4.64-2.37h-.06l-17.87-88.43a5.74,5.74,0,0,0,2.1-1.36l80.42,57a5.73,5.73,0,0,0-.73,5Zm-84.55-60.37a5.76,5.76,0,0,0,.76.06h.24L495.93,287a5.73,5.73,0,0,0-1.87,1.06l-36.55-23.9ZM520.8,310.81,536,322.22a5.7,5.7,0,0,0-.37.87l-35.14-5.83Zm84.45-22.16.4,0,.4,0,6,25.91-13.23,1.76Zm6.1-5.07a5.68,5.68,0,0,0-1-3.92l78-58.15a5.73,5.73,0,0,0,2.75,1.49l-4.85,76.81a5.74,5.74,0,0,0-4.62,3.32Zm78.7,72.22-13.52-2.89,9.93-41.64ZM621.59,146.3l8.32-8.37,40.87,21Zm-64.29-19a5.71,5.71,0,0,0-1.92,5.72l-9.93,4L537.2,93.76l.17-.06Zm8.17,124.35a5.72,5.72,0,0,0-1.84.94L483,195.39a5.74,5.74,0,0,0-7.25-7.88l-9.57-16.22,77.93-31.74ZM457,265.92l32.54,21.28-34.7-14.06Zm35.45,24.4a5.69,5.69,0,0,0,.21,4.62l-23.92,17-24.29-4,9.88-33.09Zm-50.31,19.09-6.56,22-.5,0a5.72,5.72,0,0,0-2.13.41l-19.75-27.15Zm94.78,21.07-38.65,68.33-11.92-16.62Zm9.92-5.28c0-.05,0-.1,0-.15l49.68-6.6L592.66,335Zm51.6-7,14.07-1.87,5.6,24.1-23.65-5.05Zm15.87-2.11,67.13-8.92a5.76,5.76,0,0,0,3.31,3.67l-9.94,41.7L620,340.84Zm61.84,38.58,14.09,3L693,391.9l-42.35,69.78Zm15.93,3.4,19,4.06-16.47,27.14Zm-.15-1.88-3.64-45.09a5.71,5.71,0,0,0,.85-.27l26.74,43.37-3.82,6.3Zm25-.27,4,6.47-7-1.5Zm1.05-1.73,28.58-47.09,18.56.21-15.19,61.28-26.57-5.68Zm49-46.86,28,.32,20.13,74.85L751.69,369Zm15.22-63a5.69,5.69,0,0,0-.56-.16L787,183.12l26.84,12.54Zm-22.63-76a5.7,5.7,0,0,0-1.08-5.12l29.86-35a5.7,5.7,0,0,0,1.6.67l-4.52,51.49Zm-5.78-7.24a5.72,5.72,0,0,0-4,1.91l-54.14-33.44L715,91a5.73,5.73,0,0,0,6.39-2.11l36.83,18.64Zm-5,3.43a5.71,5.71,0,0,0,.36,5.3l-30.62,25.08-35.24-30.11a5.72,5.72,0,0,0-1.54-7.65l13.06-26Zm-68.64-8.2a5.73,5.73,0,0,0-6.37,2.08l-42.48-21.79,27.52-27.67,34.47,21.29Zm-50.54-20.57L540.71,90.14a5.72,5.72,0,0,0-1.16-5.59L566.4,51.86l90.79,56.08ZM564.85,50.9l-26.7,32.5a5.7,5.7,0,0,0-2.64-.78L531.39,46l19.31-3.87Zm-11.56-9.26L576.24,37,566,49.5Zm-18,52.46h.17l8.32,43.65-78.51,32L432.83,114.8,530,90.61A5.75,5.75,0,0,0,535.25,94.1Zm-71.71,76.3-87.23,35.52a5.76,5.76,0,0,0-2.25-2.12l27.13-81.14,29.8-7.42Zm-61.67-49.76L413.56,85.7,430,113.63Zm10.47-37L399.8,121.16,321,140.79,286.4,95.17l118.7-23.8ZM407,71l10.3-2.06-4.17,12.46ZM367.27,204.93a5.74,5.74,0,1,0,8.39,7.83l79.74,52.13-2.26,7.57L363.28,236l-51.08-70.21a5.74,5.74,0,1,0-9.81-4.06,5.8,5.8,0,0,0,0,.65l-71.59,19.94-26.4-10.7,115.8-28.84ZM272.56,311.28a5.79,5.79,0,0,0,.6,0l5.74,21.41-22.26-4.29,13.25-17.75A5.71,5.71,0,0,0,272.56,311.28Zm2.34-.5a5.7,5.7,0,0,0,3.36-5.91l20.42-5.76L296.39,336l-15.52-3Zm21.38,27.07-2.65,42.72L281.39,335Zm1.79.34,11.6,2.23-14.2,39.75Zm.11-1.82,2.35-37.79,23-6.49a5.76,5.76,0,0,0,2.45,2.63l-15.72,44Zm29.52-41a5.72,5.72,0,0,0,6.5-3.82l18.21,3,19.07,56-59.41-11.45Zm26.74-.47,56.19,9.32,20.73,28.5a5.74,5.74,0,0,0,.14,8.92l-10.26,18.49-47.72-9.2Zm65.89,66.89-26.7,48.11-19.42-57Zm-13.43,92.66a5.74,5.74,0,0,0-3.32,5.2,5.81,5.81,0,0,0,0,.63l-42.33,11.61,31.94-57.55Zm91.52-52.26,59.48,82.93-2,8.53-128,38.07a5.76,5.76,0,0,0-1.6-2Zm59,92.89,6.27-1.86,29.45,41.07-13,16.11-34.69-3.77Zm36.81,40.73,12.54,17.48-24.46-2.66Zm-28.71-43.13,77.62-23.08a5.75,5.75,0,0,0,1,1.39l-49.77,61.83Zm77-25.58a5.75,5.75,0,0,0,.06.77l-78.21,23.25-4.59-6.39L594,337.13l24.5,5.23,27.71,119.35A5.74,5.74,0,0,0,642.57,467.06Zm-22.1-124.28,53.88,11.51L648.84,461.34l-.52,0-.32,0Zm74.34,49.56,18.1-29.81,9.31,2,20.48,33.22-19.78,79.8-21.51-3.29ZM724.66,365l24.83,5.3-6.18,24.94Zm26.59,5.68,64.35,13.74,4.75,17.64L779.1,453.33l-34.46-55.9Zm69.67,33.54,22.14,82.31L822.69,524,780.1,455Zm-3.34-19.38L827.67,387c0,.1,0,.2,0,.3a5.72,5.72,0,0,0,1.49,3.85l-7.39,9.18Zm10.46.39-11-2.35-20.24-75.26,40.94.46a5.74,5.74,0,0,0,4.07,4.67l-8.62,68.8A5.74,5.74,0,0,0,828,385.27ZM843.62,313a5.73,5.73,0,0,0,4.81-8.55l75-55.47,35.15,19.94L952.21,284a5.74,5.74,0,0,0-4.53,10.19l-31.51,57.94-77.71,32.43a5.75,5.75,0,0,0-3.45-2.79ZM839,386.32l75.74-31.6-28.17,51.8-47.55-18.3a5.37,5.37,0,0,0,0-1.9Zm201.53-36.72,65.71,43.24L1058,457.54,1011.61,410Zm67.23,44.23,24.4,16.05-70.5,45.71Zm-53.57-72.7,4.68-9.75,94.58,18.23-25.08,33.6Zm5.48-11.44,7-14.51a5.74,5.74,0,0,0,3.37-11l.75-4.19,96.06,25c0,.18,0,.37,0,.55a5.72,5.72,0,0,0,1.63,4L1154.68,328Zm30.8-114.22,40.22-11.21,64.38,26.09-22.26,89.45h-.28a5.71,5.71,0,0,0-2.36.51L1089.06,200a5.72,5.72,0,0,0,1.48-3.84A5.8,5.8,0,0,0,1090.5,195.48ZM1277,207.6,1364.47,172l9.7,16.44a5.74,5.74,0,0,0,1.17,9.6l-19.42,65.06-79.28-51.83a5.67,5.67,0,0,0,.35-3.65Zm301.36-40.08a5.72,5.72,0,0,0,3.72-1.37l35,29.9-20.84,17.07a5.72,5.72,0,0,0-8.07.44l-81-52.78,12.91-13,52.53,13.45c0,.18,0,.35,0,.53A5.74,5.74,0,0,0,1578.36,167.51ZM1554.06,467a5.72,5.72,0,0,0-2-4.28L1593.21,395l6.37,79ZM1335,331.35a5.72,5.72,0,0,0-2.13.41l-19.75-27.15,28.94,4.8-6.56,22Zm8.85-21.64,22.73,3.77-27.49,19.59a5.75,5.75,0,0,0-1.84-1.26Zm25.25,4.19,23.63,3.92-52.54,16.68Zm2.08-1.48,22.44-16a5.73,5.73,0,0,0,8.08.1l17.27,13-22.46,7.13Zm216.1-92.35-78.22,58.29a5.72,5.72,0,0,0-7.67.68l-29.13-19.48a5.73,5.73,0,0,0-2.91-7.66l18.55-68a5.82,5.82,0,0,0,.62,0,5.74,5.74,0,0,0,4.64-9.13l12.69-12.77,81.27,53a5.72,5.72,0,0,0,.16,5Zm-6.16,85.32-67.3,8.94-6.05-26.07a5.76,5.76,0,0,0,3.06-2.93l70.33,19.56C1581.18,305,1581.17,305.21,1581.17,305.38Zm-75.52-16.71.4,0,6,25.91-13.23,1.76,6.41-27.67Zm-5.67-4.89-78.83,25-18.29-13.74a5.73,5.73,0,0,0,.39-4.45l59.22-30.11a5.73,5.73,0,0,0,8.85.53l29.13,19.48a5.56,5.56,0,0,0-.46,3.25Zm4.38-122.71-12.43,12.5a5.74,5.74,0,1,0-5.72,9.89l-18.56,68-.39,0L1445.8,138.86l10.26-4.18a5.73,5.73,0,0,0,9.16.88Zm-38.15-27,0-.06,51.84,13.28-12.43,12.5Zm-4.58,124.86L1402.42,289a5.73,5.73,0,0,0-4.64-2.37h-.06l-17.87-88.43a5.74,5.74,0,0,0,2.1-1.36l80.42,57a5.73,5.73,0,0,0-.73,5Zm-84.55-60.37a5.78,5.78,0,0,0,.76.06h.24L1395.93,287a5.73,5.73,0,0,0-1.87,1.06l-36.55-23.9Zm43.72,112.28L1436,322.22a5.7,5.7,0,0,0-.37.87l-35.14-5.83Zm16.28,10-14.17-10.64,77.6-24.64a5.76,5.76,0,0,0,3,2.74l-6.56,28.32-50.35,6.69a5.74,5.74,0,0,0-9.49-2.48Zm9.73,4.27,49.68-6.6L1492.66,335l-45.86-9.79C1446.81,325.15,1446.81,325.1,1446.81,325.05Zm51.6-6.86,14.07-1.87,5.6,24.1-23.65-5.05Zm15.87-2.11,67.13-8.92a5.75,5.75,0,0,0,3.31,3.67l-9.94,41.7L1520,340.84Zm75.78,39.71-13.52-2.89,9.93-41.64Zm-13.93-1.13,14.09,3L1593,391.9l-42.35,69.78Zm15.93,3.4,19,4.06-16.47,27.14Zm-.15-1.88-3.64-45.09a5.7,5.7,0,0,0,.85-.27l26.74,43.37-3.82,6.3Zm-5.59-56.38a5.74,5.74,0,0,0-4.62,3.32l-70.33-19.56a5.8,5.8,0,0,0,0-.65,5.71,5.71,0,0,0-1-3.27l78-58.15a5.73,5.73,0,0,0,2.75,1.49ZM1521.59,146.3l8.32-8.37,40.87,21Zm-82-61.74,26.85-32.69,90.79,56.08-27.62,27.78-88.85-45.58a5.72,5.72,0,0,0-1.16-5.59Zm.34,7.19,88.34,45.32-8.66,8.71-52.87-13.54c0-.18,0-.35,0-.53a5.74,5.74,0,0,0-7.86-5.34l-19.93-33.59A5.77,5.77,0,0,0,1439.88,91.75Zm17.42,35.54a5.71,5.71,0,0,0-1.92,5.72l-9.93,4-8.25-43.29.17-.06Zm8.17,124.35a5.72,5.72,0,0,0-1.84.94L1383,195.39a5.74,5.74,0,0,0-7.25-7.88l-9.57-16.22,77.93-31.74ZM1357,265.92l32.54,21.28-34.7-14.06Zm35.45,24.4a5.69,5.69,0,0,0,.21,4.62l-23.92,17-24.29-4,9.88-33.09Zm-49.79,17.35-31-5.14-46.37-63.73,87.33,35.39Zm-33.51-5.56-55.34-9.18-23.25-68.22,31.59,12.8ZM1228.75,284a5.72,5.72,0,0,0-5.7,6.41l-22.4,6.32,5.1-82,22.57,9.15,23.44,68.78-17.26-2.86s0,0,0,0A5.74,5.74,0,0,0,1228.75,284ZM1209.1,167.43l18.45,54.13-21.68-8.79,2.81-45.28Zm-5,44.63-6.86-2.78,9.38-37.68ZM1204,214l-5.17,83.25-21,5.93a5.75,5.75,0,0,0-3.16-3L1196.79,211Zm25.78,8.5-18.85-55.33,49.21,67.63Zm-34.21-13.86-62-25.11,69.33-19.32a5.76,5.76,0,0,0,3,2.9Zm-110.85-6.72h.1a5.71,5.71,0,0,0,2.86-.77l81,100.2a5.75,5.75,0,0,0-1.39,1.93l-96.2-25Zm85.2,108.76a5.71,5.71,0,0,0,2.67.66,5.79,5.79,0,0,0,.6,0l5.74,21.41-22.26-4.29Zm5,.16a5.7,5.7,0,0,0,3.36-5.91l20.42-5.76L1196.39,336l-15.52-3Zm21.38,27.07-2.65,42.72L1181.39,335Zm1.79.34,11.6,2.23-14.2,39.75Zm.11-1.82,2.35-37.79,23-6.49a5.76,5.76,0,0,0,2.45,2.63l-15.72,44Zm29.52-41a5.72,5.72,0,0,0,6.5-3.82l18.21,3,19.07,56-59.41-11.45Zm26.74-.47,56.19,9.32,20.73,28.5a5.74,5.74,0,0,0,.15,8.92l-10.26,18.49-47.72-9.2Zm65.89,66.89-26.7,48.11-19.42-57ZM1381.88,376a5.74,5.74,0,1,0-9.43-6l-49.33-9.51,10-18a5.71,5.71,0,0,0,7.63-6.25l56-17.77,38.62,6.4s0,0,0,0a5.71,5.71,0,0,0,1.14,3.42l-51.22,52.37Zm55-45.52-38.65,68.33-11.92-16.62Zm2.19-.2a5.72,5.72,0,0,0,7.36-3.31l45.83,9.79-33.82,146-59-82.32ZM1459.29,487l3.3,4.6-4.68,1.39Zm61.18-144.25,53.88,11.51-25.52,107.05-.52,0-.32,0Zm33.32,126,45.94,7,4.09,50.75L1569,556.15a5.72,5.72,0,0,0-3.74-1.39h-.12l-14.83-82.32A5.75,5.75,0,0,0,1553.79,468.8Zm69.13,8.74-21.51-3.29-6.6-81.91,18.1-29.81,9.31,2,20.48,33.22Zm-9-116.64,3-5,4,6.47Zm3-8.43-26.26-42.58a5.73,5.73,0,0,0,1.91-3.38l51.89.59Zm-24.32-47.77a5.7,5.7,0,0,0-.35-1.29l83.66-50a5.77,5.77,0,0,0,.69.7l-31,51.15Zm82.39-52.8-83.66,50a5.74,5.74,0,0,0-3.2-1.93l4.85-76.8a5.73,5.73,0,0,0,4.41-8.61l21.09-17.27,57.32,49a5.71,5.71,0,0,0-.82,5.68Zm-94.87-95.59a5.73,5.73,0,0,0-6.37,2.08l-42.48-21.79,27.52-27.67,34.47,21.29ZM1466,49.5l-12.71-7.85,22.94-4.6Zm-1.16,1.41-26.7,32.5a5.7,5.7,0,0,0-2.64-.78L1431.39,46l19.31-3.87Zm-29.6,43.2h.17l8.32,43.65-78.51,32-32.41-54.92L1430,90.61A5.74,5.74,0,0,0,1435.25,94.1Zm-162.9,109.13a5.74,5.74,0,1,0,3.31,9.52l79.74,52.13-2.26,7.57L1263.28,236l-51.08-70.21a5.75,5.75,0,1,0-9.77-3.4l-71.59,19.94-26.4-10.7,194.69-48.48ZM1128,183.16l-38,10.58a5.76,5.76,0,0,0-2-2.34l8.49-17.77,4.91-1.22Zm-41.56,7.46a5.73,5.73,0,0,0-7.33,4.8l-81.71,2.9,96.88-24.13Zm-91.92,9.61,84.66-3a5.75,5.75,0,0,0,3.75,4.32l-13.57,76.22-12.57-3.27-63.52-71.34A5.72,5.72,0,0,0,994.5,200.23Zm-11-2.86a5.72,5.72,0,0,0,.22,4.81l-53.36,39.47-24.63-6.4c0-.16,0-.33,0-.49a5.74,5.74,0,0,0-10.59-3.08l-3.78-1.77,38.92-64.69Zm-93.75,31.76L816.47,194.9l43.11-66.32a5.73,5.73,0,0,0,7-1.9l62.18,37.59Zm-74.92-35L787.15,181.2l4.58-52.14a5.74,5.74,0,0,0,5.26-4.82h59.25a5.72,5.72,0,0,0,1.82,3.36Zm41.43-71.69H797A5.73,5.73,0,0,0,786.68,120l-26.6-13.46,3.58-43.45,93,58A5.7,5.7,0,0,0,856.25,122.44Zm-97.91-16.8L722.16,87.33a5.74,5.74,0,1,0-8.82,2.9L694,128.59l-34-21,67-67.38L761.94,62Zm-99.84,1L567.56,50.45l11.48-14L686.55,14.92l39,24.32ZM578,34.84l-27,5.42L529.21,26.77,525.84-3.18l95.76-18.2a5.73,5.73,0,0,0,1.1,1.86Zm-44.33,48a5.75,5.75,0,0,0-3.83,3.48L432.52,65.86l97.09-19.47Zm-4.2,5.25c0,.09,0,.19,0,.28s0,.33,0,.49l-97.67,24.32L414.32,83.44l5-14.92L428,66.76ZM420,66.54l.46-1.37,3.11.65Zm-2,.41L406,69.34l-4.85-8.22,17.5,3.67Zm-13.8,2.77L285.19,93.57,262.09,63.08l20.67-26.82,116,24.36ZM280.8,35.85,261,61.59,234,26ZM283.22,94l-50,10a5.74,5.74,0,0,0-1.2-1.94L261,64.56Zm-49.59,12c0-.08,0-.15,0-.23l50.82-10.19,34.62,45.71L201.59,170.52l-3-1.21,27.64-57.83a5.74,5.74,0,0,0,7.37-5.51Zm-32.17,66.43L228,183.16l-38,10.58a5.76,5.76,0,0,0-2-2.34l8.49-17.77Zm-16.76,29.46h.1a5.71,5.71,0,0,0,2.86-.77l81,100.2a5.75,5.75,0,0,0-1.39,1.93l-96.2-25ZM279.42,334.6l12.46,46.46a5.74,5.74,0,1,0,5.1.2l14.47-40.49,60.7,11.7L392.44,412l-33.59,60.52L338.95,478l-72-47.35,2.4-37.72a5.74,5.74,0,1,0-5-9.3L230,364.1,255.45,330Zm-12.56,98.1,69.77,45.91-74,20.29Zm-1.6-3.22-18-11.82,18.9-25.39a5.7,5.7,0,0,0,1.4.51Zm-.51-38.28-19,25.47-10.29-6.77L264.59,391Zm-4.06,110.1L260,511.74l-15.57-6Zm1,13,61,23.46-29.48,53.1-35.08-20Zm.12-1.89.74-11.63,76.11-20.87,11.79,7.76-26.92,48.49Zm90.15-23.74,65.53,43.12a5.7,5.7,0,0,0,.08,4.9l-32.67,23.1-59.67-23Zm66.66,49.49a5.74,5.74,0,0,0,9.64-2.5l115,12.5-14.4,62.14-.4,0a5.74,5.74,0,0,0-5,2.87L386.91,560.58Zm126.49,10.19L578.84,552l-47.51,59a5.71,5.71,0,0,0-.69-.34ZM674.46,654.88,640,666.27l5-20.17,29.41,7.36c0,.16,0,.33,0,.5A5.75,5.75,0,0,0,674.46,654.88Zm-29-10.53,6.85-27.68,23.81,33.2a5.75,5.75,0,0,0-1.25,1.83Zm-34.82-88.87,48.9,5.31a5.74,5.74,0,0,0,3.49,5l-11.54,46.64ZM659.7,559l-50.51-5.49-13.77-19.2,50.1-62.23a5.71,5.71,0,0,0,2.79.73h.2l14.83,82.29A5.75,5.75,0,0,0,659.7,559Zm-9.41-86.55a5.75,5.75,0,0,0,3.5-3.65l45.94,7,4.09,50.75L669,556.15a5.72,5.72,0,0,0-3.74-1.39h-.12Zm74,7.12,25.94,4a5.71,5.71,0,0,0,.84,2.94L715,517.1Zm26.21,2.18-25.78-3.94L744,399.88l33.87,54.93-19.08,23.7a5.74,5.74,0,0,0-8.32,3.23Zm9.73-2.1,18.68-23.2,42.8,69.41-9.48,17.43-51.76-56.23a5.72,5.72,0,0,0-.25-7.41Zm53.29,65,9.28-17.06L844,562l-11.13,3.72Zm31.42,18.86,28.55,46.3-39.3-42.7ZM823.79,525.8l20-36.7,18,66.93-16,5.35Zm-1.46-123.28,8.21-10.2a5.73,5.73,0,0,0,7.59-1.73l43.62,24.86-37.43,68.83Zm22.76-10,40.65,15.64-3.12,5.74Zm42.35,16.3,81.9,31.52-3.71,20.89-81.44-46.42ZM967,464l13.15,7.5-23,48Zm.34-1.89L971.05,441l20,7.7-10.18,21.23Zm25.47-12.83,49.36,19-29.94,19.41-29.71-16.94Zm.78-1.63,17.24-35.94,45.95,47.1L1044,467.09Zm60.68,14.93-4.88,6.55-3.27-1.26Zm4-2.29,19.11,19.59-26.21-10.09Zm108.68-27.62,69.77,45.91-74,20.29Zm.13-2.07,2.4-37.72a5.74,5.74,0,1,0-5-9.3L1130,364.1,1155.45,330l24,4.62,12.46,46.46a5.74,5.74,0,1,0,5.1.2l14.47-40.49,60.7,11.7L1292.44,412l-33.59,60.52-19.9,5.46Zm90.63,44.1-6.32,11.38L1241,479.29Zm2.44-.67,44-12.07a5.74,5.74,0,1,0,9.84-5.79l71.11-72.7,12.22,17-72.55,128.25a5.71,5.71,0,0,0-6.24,1.51l-65.65-43.2Zm138.36-71.9,59.48,82.93-2,8.53-128,38.07a5.76,5.76,0,0,0-1.6-2Zm59,92.89,6.27-1.86,29.45,41.07-13,16.11-34.69-3.77Zm36.81,40.73,12.54,17.48-24.46-2.66Zm1.17-1.46,50.1-62.23a5.71,5.71,0,0,0,2.79.73h.2l14.83,82.29a5.75,5.75,0,0,0-3.64,3.91l-50.51-5.49Zm64.08,26.48a5.74,5.74,0,0,0,3.49,5l-11.54,46.64-40.85-57Zm-6.66,53.58,11.91-48.14.48,0a5.75,5.75,0,0,0,5.47-4l30.09,4.56-20.18,81.43-.49,0a5.71,5.71,0,0,0-2.57.61Zm23.24,35.51a5.76,5.76,0,0,0-1.25,1.83l-29.41-7.36,6.85-27.68ZM1571,560.46a5.71,5.71,0,0,0-.84-2.94L1604,528.79l1.53,18.93-4.3,17.33Zm35-7.08,1,12.54-4-.6Zm54.48-66.33a5.72,5.72,0,0,0-.25-7.41l18.68-23.2,42.8,69.41-9.48,17.43Zm-1.65-8.54a5.74,5.74,0,0,0-8.32,3.23l-25.78-3.94L1644,399.88l33.87,54.93Zm-15.51-83.24L1624.66,365l24.83,5.3Zm-20-32.37-5.38-8.72,28.58-47.09,18.56.21-15.19,61.28Zm24.29-57.6,30.36-50-12.45,50.22Zm32.18-49.83.49,0a5.81,5.81,0,0,0,.6,0l13.55,50.37-27-.31Zm0-11.44a5.71,5.71,0,0,0-2.7.94l-57.23-48.91,30.4-24.89a5.73,5.73,0,0,0,8.52-1.22l26.43,12.35Zm-21.49-138.4-36.17-18.31a5.74,5.74,0,1,0-8.82,2.9L1594,128.59l-34-21,67-67.38L1661.94,62Zm-30-66.72L1664.79,2.3a5.71,5.71,0,0,0,2,.92L1662.1,60ZM1674.7-76l29.88-10.84L1721.23-61,1671.34-7.13a5.71,5.71,0,0,0-1.85-.8Zm.15-2,3.77-49.2,24.95,38.77Zm2.16-51.72-4,52.39-27.35,9.93-22.57-62.5,31.25-35.1Zm-33.07,62.94-22.45,8.15-30.24-35.53,30.45-34.2Zm-24.26,8.81L1532-26.11a5.76,5.76,0,0,0-.58-.85L1590-92.76Zm-94.07,29a5.74,5.74,0,0,0-4.36,5.57c0,.06,0,.11,0,.17L1425.63-5l-9.7-86,95.88-48.71a5.73,5.73,0,0,0,4.45,2.26Zm-98.34,54.46L1391.35,3.38l32.71-6.22Zm-1.43-28.74,95.76-18.2a5.73,5.73,0,0,0,1.1,1.86L1478,34.84l-27,5.42-21.83-13.48Zm7.89,86a5.75,5.75,0,0,0-3.83,3.48l-97.37-20.45,97.09-19.47Zm-4.2,5.25c0,.09,0,.19,0,.28s0,.33,0,.49l-97.67,24.32-17.55-29.74,5-14.92,8.71-1.75Zm-116.42-6.7L1307,71l10.3-2.06ZM1320,66.54l.46-1.37,3.11.65Zm-2,.41L1306,69.34l-4.85-8.22,17.5,3.67ZM1098.61,171.26l-1.05.26.28-.58Zm-3.33.83-101.19,25.2a5.75,5.75,0,0,0-4-3.34l4.65-64.77,101.4,41.09Zm-107,21.73a5.75,5.75,0,0,0-.69.1L959.26,119.8a5.68,5.68,0,0,0,5.64-2.73L993,128.46ZM857.8,119.34l-.22.24L763.83,61l4.76-57.67a5.71,5.71,0,0,0,2.24-.64ZM762.1,60,728.38,38.91,764.79,2.3a5.71,5.71,0,0,0,2,.92Zm-35.29-22L689.13,14.4,762.77-.36A5.71,5.71,0,0,0,763.51,1ZM632.73-23.39a5.76,5.76,0,0,0-.1-1l45.84-16.64L761.68-4.24ZM632-26.11a5.74,5.74,0,0,0-4.61-2.94l-3.1-36,51.78,22.91ZM527.26,25.56,491.34,3.38l32.71-6.22ZM397.52,58.51,284,34.67,297.5,17.15l75,7.18a5.73,5.73,0,0,0,7.83,5ZM338.35-38.8,290-113.06a5.77,5.77,0,0,0,.6-.63L363.5-71.44Zm36,58.52a5.76,5.76,0,0,0-1.16,1.44L311.84-1.45l26.39-34.23Zm-3,2.69L298.8,15.46,310.68,0Zm-74.65-7.15L220.34,7.95,181.29-43.61l1.34-3.55L308.9-.61ZM181.56-49.48l-1-.38,1.54-1Zm-.64,1.69L180-45.31l-2.16-2.85.76-.48Zm-1.68,4.47L162.05,2.37,109-2.71a5.72,5.72,0,0,0-.44-1.9L176.3-47.2ZM161.39,4.12l-1.68,4.46L119.3.09Zm-.53,6.54,70.47,14.8,28.49,37.61-29.19,37.87a5.74,5.74,0,0,0-6,9.77l-27.68,57.93L114,135Zm35.3,159.61-.87,1.82L94.09,197.29a5.76,5.76,0,0,0-2.45-2.74l21.76-57.81Zm-106,23.13,4.61-64.22,17,6.88Zm4.35,6.84,84.66-3a5.75,5.75,0,0,0,3.75,4.32l-13.57,76.22-12.57-3.27L93.25,203.17A5.72,5.72,0,0,0,94.5,200.23ZM169,279.56l-.78,4.38a5.71,5.71,0,0,0-2.53.61l-6.78-7.62Zm-11.16,29.78-23.49-4.53,29-12.12A5.77,5.77,0,0,0,165,294.4Zm95.61,20.26-25.08,33.6-74.18-42.08,4.68-9.75Zm10,55.58a5.69,5.69,0,0,0,.13,4.34l-29.76,19.3-25-16.43,20-26.82ZM244.7,418.12l-50.76,68.19-12.61-4.85-21.77-22.32L233.84,411ZM177.29,479.9l-26.21-10.09,7.09-9.5Zm-28-10.76-3.27-1.26,8.15-5.29Zm-1.12,1.5L128.52,497l-14.58-8.31,30.26-19.62Zm1.75.67L180.31,483l9.13,9.36L168.85,520,130.1,497.93Zm40.76,22.35L207,510.39a5.74,5.74,0,1,0,10.35,3.42,5.79,5.79,0,0,0,0-.63l24.17-6.63,18.38,7.07-3.58,56.25-85.89-49Zm67.22,79.21,34.33,19.57-30,54-9.45,6.68Zm35.9,20.47L318,607.11l-52.3,37Zm.88-1.58,29.61-53.34,58.78,22.62L319.61,606Zm233.24,30,.52,0a5.74,5.74,0,0,0,5.28-3.49l109.48,27.38L638,666.94l-129,42.67a5.76,5.76,0,0,0-2.61-2.6ZM675,656.59a5.76,5.76,0,0,0,1.36,1.71l-57.45,93.15,20.56-83.12Zm-22.18-42.22,11.91-48.14.48,0a5.74,5.74,0,0,0,5.47-4l30.09,4.56-20.18,81.43-.49,0a5.71,5.71,0,0,0-2.57.61ZM671,560.46a5.71,5.71,0,0,0-.84-2.94L704,528.79l1.53,18.93-4.3,17.33Zm35-7.08,1,12.54-4-.6ZM846.69,563l15.52-5.18,14.49,53.86Zm135-90.55,28.79,16.41L959.32,522a5.76,5.76,0,0,0-1-.88Zm-20.87,53.41a5.71,5.71,0,0,0-.5-2.33l51.92-33.67,15.2,8.66-48.35,64.79-20.28-33.1A5.73,5.73,0,0,0,960.81,525.82Zm53.13-37.1,30.26-19.62,4,1.55L1028.52,497Zm36-17.4L1080.31,483,1107,510.39a5.74,5.74,0,1,0,10.35,3.43,5.81,5.81,0,0,0,0-.63l24.17-6.63,18.38,7.07-3.58,56.25L1030.1,497.93Zm111.7,43,61,23.46-29.48,53.1-35.08-20Zm.12-1.89.74-11.63,76.11-20.87,11.79,7.76-26.92,48.49Zm90.15-23.74,65.53,43.12a5.74,5.74,0,1,0,10.77,3.87l115,12.5-14.4,62.14-.4,0a5.74,5.74,0,0,0-5,2.87l-198.31-76.32Zm193.15,59.68,33.76,3.67-47.51,59a5.71,5.71,0,0,0-.69-.34Zm129.32,105.1c0,.16,0,.33,0,.5a5.76,5.76,0,0,0,.08.92L1540,666.27l5-20.17Zm.62,3.14a5.76,5.76,0,0,0,1.36,1.71l-57.45,93.15,20.56-83.12Zm47.39,18.51,95.72-14.43L1677,706.88l-54.78-30.4A5.73,5.73,0,0,0,1622.42,675.1Zm74.18-99.33,16-29.41L1731,566.31l-33.23,11.09A5.75,5.75,0,0,0,1696.61,575.77ZM1722.69,524,1680.1,455l40.82-50.7,22.14,82.31Zm-2.35-121.93-41.25,51.22-34.46-55.9,6.62-26.71,64.35,13.74ZM1651.69,369,1667,307.33l28,.32,20.13,74.85Zm29.93-124.79,5.36-61.05,26.84,12.54-31.64,48.67A5.69,5.69,0,0,0,1681.62,244.17Zm-22.07-75.86a5.7,5.7,0,0,0-1.08-5.12l29.86-35a5.7,5.7,0,0,0,1.6.67l-4.52,51.49ZM1663.83,61l4.76-57.67a5.71,5.71,0,0,0,2.24-.64l87,116.61-.22.24Zm42.49-148.5,39.7-14.41,2.79,11.18-26.31,28.38Zm-1-1.56-26.46-41.12,4.41-57.45,48,26.65,14.28,57.31Zm-21.9-100.56.68-8.81,29.59-33.23,17,68.27Zm30.36-49.11,4.37-.66-3.54,4Zm-.63,5-28.83,32.38,2.55-33.27,25.11-3.79Zm-30.81,34.6-5.34,6-54.78-30.4a5.72,5.72,0,0,0,.21-1.38l62.61-9.44ZM1619-219.83l34.3,53.31-30.94,34.74-27-74.69,17.49-14.33a5.72,5.72,0,0,0,3.81,1.45A5.72,5.72,0,0,0,1619-219.83Zm2,89.58-30.93,34.74-53.46-62.81,57.3-46.93Zm-85.56-29.45-4.35-5.11,46.83-75.94a5.72,5.72,0,0,0,2.21.44,5.77,5.77,0,0,0,1.08-.1l12,33.35Zm-12.09-14.2-34.82-40.91L1537.47-231Zm-12.54,29.38a5.74,5.74,0,0,0-.17,1.36,5.72,5.72,0,0,0,.32,1.89l-95.24,48.39-10.1-89.52a5.75,5.75,0,0,0,3.17-2.61ZM1423.85-4.64,1389.07,2,1349.7-22.35l14.09-42.12,50.43-25.62Zm-37.41,7.11-48.1,9.14,10.77-32.21Zm2.28,1.41,38.8,24,1.89,16.75L1328,64.92l-7-1.48,16.68-49.87Zm-91.2,54.64L1019.3.09l253.15,24.24a5.73,5.73,0,0,0,7.83,5ZM1009-2.71a5.71,5.71,0,0,0-.44-1.9l70-44,192.73,71.05Zm-.36,2.41,290.11,60.92,5.37,9.1L1133.26,104a5.74,5.74,0,1,0-8.64,6.73l-27.68,57.93-102-41.35,8.89-123.92A5.74,5.74,0,0,0,1008.65-.31ZM993.14,126.57,965.58,115.4a5.72,5.72,0,0,0-5.09-7l-6.85-97.81L998-.14a5.75,5.75,0,0,0,4,3.38Zm-34.45-18.05a5.73,5.73,0,0,0-3,1.84L920.52,18.59,951.86,11Zm-4.19,3.89a5.74,5.74,0,0,0-.24,1.34L867.49,122a5.75,5.75,0,0,0-3.68-4.06l15.26-84.74h.12a5.74,5.74,0,0,0,5.74-5.74c0-.08,0-.17,0-.25L918.75,19Zm-69.95-87a5.73,5.73,0,0,0-7.68-3.24L823.5-60.75l42.33-45.66a5.72,5.72,0,0,0,3.2,1,5.72,5.72,0,0,0,2-.35L918.1,17.31ZM821.23-61,771.34-7.13a5.72,5.72,0,0,0-3.19-1,5.76,5.76,0,0,0-1.07.1L746.25-65.66l58.33-21.17ZM765.38-7.38l-.21.13L722.73-57.12,744.55-65Zm-1.58,1.29a5.75,5.75,0,0,0-.46.61L680.92-41.94l40-14.52ZM678.54-43,624.13-67.07l-6.08-70.59a5.74,5.74,0,0,0,4.07-5.49,5.72,5.72,0,0,0-.69-2.73l13.78-11.29,84.46,99.25ZM620.33-147.32l0,0,9.78-15.86,4,4.64Zm-9.53,2.8a5.73,5.73,0,0,0-.17,1.36,5.72,5.72,0,0,0,.32,1.89L539-104.73,513.09-116.2l-7.47-66.2a5.75,5.75,0,0,0,3.17-2.61Zm-99.63,27.47-26-11.49,17.93-53.61a5.79,5.79,0,0,0,.66,0h0Zm.23,2.08L514-92l-49.4,25.1,20-59.9Zm2.81,24.88,9.64,85.45L489.07,2,449.7-22.35l14.09-42.12ZM447.53-21.57,436.31,12,383.58,22a5.75,5.75,0,0,0-1.74-2.49L414.7-36.27a5.72,5.72,0,0,0,2.1.4,5.73,5.73,0,0,0,4.35-2ZM413.74-46.47,378-87.31l24.59-31.9L415-47A5.71,5.71,0,0,0,413.74-46.47Zm-1.36,1.19,0,.05L366.19-72l10.7-13.89ZM364.62-72.88l-73.16-42.37a5.72,5.72,0,0,0,.39-2.06,5.74,5.74,0,0,0-2.59-4.8l19-42.22,67.44,77.09ZM337.18-37.29,310.06-2.11,183.26-48.85l1.34-3.56,97.19-61.11a5.72,5.72,0,0,0,4.32,2,5.72,5.72,0,0,0,2.34-.5ZM183.12-53.62l-4.73,3L175-51.89,154.12-79.48l93-144.14Zm-11.25.57L143.76-63.41l9.32-14.45Zm2,2.67,1.32,1.74L107.61-6.13a5.77,5.77,0,0,0-.49-.49l35.63-55.23ZM108.65-.31l50.42,10.59-46.7,124.08L94.9,127.28,103.79,3.37A5.74,5.74,0,0,0,108.65-.31ZM93.14,126.57,65.58,115.4a5.72,5.72,0,0,0-5.09-7L53.64,10.58,98-.14a5.75,5.75,0,0,0,4,3.38ZM60,119.85a5.73,5.73,0,0,0,4.91-2.78L93,128.46l-4.69,65.35a5.75,5.75,0,0,0-.69.1L59.26,119.8A5.77,5.77,0,0,0,60,119.85ZM87.44,205.1a5.67,5.67,0,0,0,4.46-.74l61.73,69.32L67.92,251.41Zm68.35,71,8.45,9.5a5.7,5.7,0,0,0-1.52,5.42l-31.55,13.16-10.31-2-60-34,6.36-15.08Zm-27.63,29.33-.91.38-1.48-.84Zm3.21.62,25.7,5-4.42,9.21L129.24,307Zm95.94,58.59-19.95,26.73-66-43.43,12.08-25.2Zm4.88,45.22L161.7,455.6l46.1-61.77ZM144,467.09,93.54,447.67l17.24-35.94,45.95,47.1Zm-1.87,1.21-29.94,19.41L82.46,470.78l10.3-21.47Zm-31.64,20.52L59.32,522a5.76,5.76,0,0,0-1-.88l23.35-48.69Zm-49.66,37a5.72,5.72,0,0,0-.5-2.33l51.92-33.67,15.2,8.66L79.08,563.28l-20.28-33.1A5.73,5.73,0,0,0,60.81,525.82ZM129,499.39l38.75,22.09L105.08,605.7l-25-40.76ZM245.75,666.34l-5.94-1.75,11-7.76-.4,6.26A5.74,5.74,0,0,0,245.75,666.34Zm6.44-3.13.49-7.71,7.58-5.36-7.37,13.28A5.67,5.67,0,0,0,252.19,663.2Zm3.15,9.27a5.73,5.73,0,0,0-.87-8.19l9.19-16.56,56.05-39.63,35,19.93L307.75,732.38Zm157,182.3-120.88-70a5.72,5.72,0,0,0-2.21-6.86l19-42.22,104.14,119Zm1.4-1.24L309.05,733.87l47.2-104.95,22.59,12.88L415,853A5.71,5.71,0,0,0,413.74,853.54Zm7.7,1.49a5.73,5.73,0,0,0-4.64-2.37h-.07L380.87,643l117.61,67a5.74,5.74,0,0,0,10.31,5l102,40.49a5.62,5.62,0,0,0,.16,3.25ZM616.38,751.1a5.73,5.73,0,0,0-4.88,2.72L509.43,713.3a5.51,5.51,0,0,0,0-2l128-42.32-20.32,82.15A5.77,5.77,0,0,0,616.38,751.1Zm94.57-76.18a5.71,5.71,0,0,0,.79,2.89l-91.4,74.87,0,0,57.61-93.41a5.74,5.74,0,0,0,4.45-10.59l20.22-81.58,4.56.69,8.19,101.57A5.74,5.74,0,0,0,710.94,674.92Zm11.25-1.61a5.74,5.74,0,0,0-5.07-4.11L709,568.05l77.8,11.8a5.74,5.74,0,0,0,9.1,4.61L840,628.88a5.74,5.74,0,1,0,10.13,5.06l63.68,10.48Zm192-30.66-63.79-10.5a5.74,5.74,0,0,0-.18-1.3l24.13-10.4a5.73,5.73,0,0,0,9.34.5L914.43,642A5.69,5.69,0,0,0,914.17,642.65Zm5.45-3.93a5.72,5.72,0,0,0-4.17,1.8l-30.89-21.14a5.73,5.73,0,0,0-5.38-7.74,5.8,5.8,0,0,0-.6,0L863.93,557.2l86-28.73a5.76,5.76,0,0,0,2.6,2.52l-32.2,107.78A5.77,5.77,0,0,0,919.62,638.71Zm2.49.57,32.2-107.78a5.59,5.59,0,0,0,3-.38l20.66,33.71-55.63,74.53Zm91-9.41-88,12.87a5.74,5.74,0,0,0-1.37-2.29l55.2-74,36.22,59.09A5.73,5.73,0,0,0,1013.14,629.88Zm132.61,36.46-121.18-35.65a5.74,5.74,0,0,0-7.89-6l-36.59-59.7L1029,499.39l127.18,72.5-5.8,91.2A5.74,5.74,0,0,0,1145.75,666.34Zm7.14-2.93a5.69,5.69,0,0,0-.7-.21l5.75-90.32,34.34,19.57Zm250.91,43a5.73,5.73,0,0,0-4.38,2l-204.7-116.68,29.61-53.34,198.54,76.41a5.74,5.74,0,0,0,3.35,6.47l-21.61,85.17A5.76,5.76,0,0,0,1403.8,706.42Zm2.53.59L1428,621.75l.52,0a5.74,5.74,0,0,0,5.28-3.49l109.48,27.38L1538,666.94l-129,42.67A5.76,5.76,0,0,0,1406.33,707Zm105.17,46.81L1409.43,713.3a5.52,5.52,0,0,0,0-2l128-42.32-20.32,82.15a5.67,5.67,0,0,0-5.65,2.66ZM1527.41,871l-9.35-108.62a5.75,5.75,0,0,0,3.38-8.23l91.45-74.91a5.73,5.73,0,0,0,8.58-1.09l54.31,30.14L1530.09,871.85A5.7,5.7,0,0,0,1527.41,871Zm235.88-82.13a5.76,5.76,0,0,0,.1,1.08L1532,873.9a5.75,5.75,0,0,0-.58-.85l145.94-163.89,85.74,47.58,4.15,26.64A5.74,5.74,0,0,0,1763.28,788.83Zm20.74-20.5-11.74,15.77a5.71,5.71,0,0,0-3.23-1l-3.93-25.25Zm-21.26-13.86-84.15-46.7,42.32-47.52,26.54-4Zm-15.57-100-24.38,3.68,18.74-21a5.71,5.71,0,0,0,3.08.91Zm26.25-37.09a5.73,5.73,0,0,0,.18,1.41l-24.13,10.4a5.73,5.73,0,0,0-8.2-1.58l-44.14-44.41a5.66,5.66,0,0,0,1.07-4l34.08-11.38,42.38,46A5.71,5.71,0,0,0,1773.44,617.37Zm3.26-5.74-30-48.67,15.52-5.18Zm-15-55.6-16,5.35-21.94-35.58,20-36.7Zm-17.43-71.76-22-81.75,8.21-10.2a5.75,5.75,0,0,0,7.59-1.73l43.62,24.86Zm41.42-76.16-3.12,5.74-37.52-21.39ZM1733.2,381.6a5.74,5.74,0,0,0-5.16,3.67l-11-2.35-20.24-75.26,40.94.46a5.74,5.74,0,0,0,4.07,4.67Zm55.59-150.92-43,71.4a5.71,5.71,0,0,0-6,.72l-54.74-49.9a5.73,5.73,0,0,0-1.32-7.72l31.7-48.76Zm-74-36.56-27.67-12.93,4.58-52.14a5.74,5.74,0,0,0,5.26-4.82h59.25a5.72,5.72,0,0,0,1.82,3.36ZM1762,117.6h-.12a5.71,5.71,0,0,0-2.67.66l-87-116.61A5.75,5.75,0,0,0,1673.39,0l100.07,26.87a5.73,5.73,0,0,0,3.82,6Zm14.9-95.44-.06,0L1723.5-60.75l25.82-27.85ZM1750.27-92.27l-2.55-10.22L1764-108.4a5.74,5.74,0,0,0,.51.76Zm17-24.37a5.74,5.74,0,0,0-4,5.47,5.76,5.76,0,0,0,.1,1.08l-16.11,5.85-13.83-55.49,29.67,16.46Zm-4.5-28.9-29.91-16.6-17.72-71.1,5.8-6.52,26.54-4ZM1744.63-262l2.56,16.46-24.38,3.68,18.74-21A5.71,5.71,0,0,0,1744.63-262Zm-48.75-53.54L1740-271.13a5.71,5.71,0,0,0-1.11,3.38,5.72,5.72,0,0,0,1.3,3.64L1720-241.45l-6.69,1-18.56-74.47A5.73,5.73,0,0,0,1695.88-315.55Zm-2.86,1.06,18.52,74.31-24.53,3.7,6-78Zm-128.26-19.3.48,0a5.74,5.74,0,0,0,5.47-4l116.07,17.6a5.74,5.74,0,0,0,4.41,5.54l-6,78.42-63,9.49a5.74,5.74,0,0,0-5.51-4.13,5.74,5.74,0,0,0-5.74,5.74,5.71,5.71,0,0,0,.79,2.89l-17,13.92L1582.9-241a5.74,5.74,0,0,0,3-5,5.74,5.74,0,0,0-5.74-5.74,5.74,5.74,0,0,0-5.28,3.49l-29.41-7.36Zm-131,52.06,109.48,27.38L1538-233.07l-50.72,16.77-54.42-63.95A5.74,5.74,0,0,0,1433.77-281.73Zm-5.8,3.47.52,0a5.71,5.71,0,0,0,3-.84l53.95,63.39-76.48,25.29a5.76,5.76,0,0,0-2.61-2.6Zm-24.82,96.11a5.79,5.79,0,0,0,.66,0h0L1414-92l-49.4,25.1ZM1361.49-63.31l-13.37,40-26-16.08a5.72,5.72,0,0,0,.44-2.21,5.73,5.73,0,0,0-.28-1.76Zm-44.7,27.44a5.73,5.73,0,0,0,4.35-2l26.39,16.3L1336.31,12l-52.73,10a5.75,5.75,0,0,0-1.74-2.49l32.86-55.81A5.72,5.72,0,0,0,1316.8-35.87Zm-126.24-77.82,120.88,70a5.72,5.72,0,0,0-.39,2.06,5.73,5.73,0,0,0,2.09,4.43l-32.86,55.81a5.7,5.7,0,0,0-4.44.1L1190-113.06A5.76,5.76,0,0,0,1190.56-113.69Zm-8.77.16a5.72,5.72,0,0,0,4.32,2,5.72,5.72,0,0,0,2.34-.5l85.89,131.78a5.76,5.76,0,0,0-1.16,1.44l-192.64-71ZM950.09-96l126.37,46.59-68.86,43.3a5.72,5.72,0,0,0-4.32-2,5.74,5.74,0,0,0-5.74,5.74c0,.15,0,.3,0,.45L953.52,8.75l-7.14-102A5.75,5.75,0,0,0,950.09-96Zm-5.51,2.91L951.74,9.18l-31.86,7.7L872.59-106.67a5.75,5.75,0,0,0,1.94-2.84l64.81,10.65v0A5.74,5.74,0,0,0,944.58-93.11ZM712.88-220.8a5.71,5.71,0,0,0,3.81,1.45,5.72,5.72,0,0,0,2.31-.49L803.57-88.39l-57.94,21L695.38-206.47ZM743.94-66.74l-22.45,8.15-84.88-99.73,57.3-46.93ZM680.13-240.31a5.77,5.77,0,0,0,1.08-.1l12,33.35L635.44-159.7l-4.35-5.11,46.83-75.94A5.72,5.72,0,0,0,680.13-240.31Zm-3.74-1.39-46.53,75.45-41.33-48.56,86.5-28.6A5.76,5.76,0,0,0,676.38-241.7Zm-142.62-40,140.64,35.17c0,.16,0,.33,0,.5a5.75,5.75,0,0,0,.08.92l-87.2,28.83-54.42-63.95A5.74,5.74,0,0,0,533.77-281.73Zm-5.28,3.49a5.71,5.71,0,0,0,3-.84l53.95,63.39L508.94-190.4a5.76,5.76,0,0,0-2.61-2.6L528-278.26Zm-2.75-.7.48.23L504.6-193.53a5.75,5.75,0,0,0-.81-.06,5.74,5.74,0,0,0-5.74,5.74,5.74,5.74,0,0,0,3.34,5.21l-17.85,53.36L429-153.42Zm-97.89,127L483-127.55l-20.67,61.8L421.44-45a5.73,5.73,0,0,0-4.64-2.37h-.07l-12.62-73.8Zm-1.7-.75L403.7-123.58l-7.22-42.25ZM369.7-301a5.74,5.74,0,0,0,1.71.26h.16l22.55,131.9-69.94-30.95ZM323.44-198.14l71,31.43,7.71,45.07L376.81-88.69l-67.75-77.45Zm-67.7-30,66,29.22-14,31.23-52.4-59.9A5.79,5.79,0,0,0,255.75-228.09Zm-4.82,2.63a5.71,5.71,0,0,0,3.05-.88l52.95,60.52-19.33,43a5.74,5.74,0,0,0-1.5-.21,5.74,5.74,0,0,0-5.74,5.74,5.72,5.72,0,0,0,.46,2.26L185.65-55.21l64.12-170.37A5.77,5.77,0,0,0,250.93-225.46ZM118.88-264.32a5.74,5.74,0,0,0,5.18-3.28l121.18,35.65a5.78,5.78,0,0,0-.05.73,5.72,5.72,0,0,0,1.91,4.27L153-81l-73-96.41,37.53-87.08A5.74,5.74,0,0,0,118.88-264.32ZM23.76-251.58a5.72,5.72,0,0,0,1.6-3.9l88-12.87a5.75,5.75,0,0,0,2.41,3.13L78.68-179.07Zm55.35,76.07,72.8,96.12L142-64.05,50.71-97.71a5.76,5.76,0,0,0,.11-1.11,5.73,5.73,0,0,0-2.67-4.85ZM46.38-93.24A5.75,5.75,0,0,0,50.09-96L141-62.5,105.61-7.61a5.72,5.72,0,0,0-2.32-.49,5.74,5.74,0,0,0-5.74,5.74c0,.15,0,.3,0,.45L53.51,8.75Zm9.27,203.59L20.52,18.59,51.86,11l6.83,97.51A5.73,5.73,0,0,0,55.64,110.35ZM31.22,163.67l26.21-43.57,28.5,74.47a5.76,5.76,0,0,0-1.52,1.26Zm53.56,40a5.76,5.76,0,0,0,1,.77L66.16,251,32.6,242.23ZM23.3,246.86,6.41,237.29,28.49,243Zm1.72,1,5.72-4.23,34.71,9-6.17,14.64Zm35.14,22,55.17,31.3L56.91,289.88c0-.06,0-.12,0-.19a5.74,5.74,0,0,0-3-5ZM18.82,351.08l30.44-56a5.71,5.71,0,0,0,6.15-1.54L94.7,319.41Zm37.59-59c.06-.13.11-.27.16-.4l63.67,12.27,4.91,2.79L96.71,318.58Zm42.12,27.72,28.6-11.94,24.73,14-12,25.09Zm42,29.83,65.71,43.24L158,457.54,111.61,410Zm-59.69,36H81a5.71,5.71,0,0,0,3.31-1.06l25.14,25.77L91.85,447l-20.48-7.88ZM71.05,441l20,7.7L80.89,469.88l-13.6-7.75ZM67,464l13.15,7.5-23,48ZM22.11,639.29,54.3,531.51a5.59,5.59,0,0,0,3-.38l20.66,33.71L22.29,639.37Zm3,3.46a5.74,5.74,0,0,0-1.37-2.29l55.2-74,25,40.76-20,26.89Zm88-12.87-26.71,3.9,18.51-24.86,10.22,16.67A5.73,5.73,0,0,0,113.14,629.88Zm4.33,5.63a5.71,5.71,0,0,0,6.59-3.1l111.66,32.85L49.19,797.17a5.77,5.77,0,0,0-1-.84Z"/></svg>