<svg xmlns="http://www.w3.org/2000/svg" width="1300" height="700" viewBox="0 0 1300 700"><defs><style>.a{fill:#565656;}</style></defs><title>network_small</title><path class="a" d="M-266.32,792.86v1.83l39.34,6.47v0a5.74,5.74,0,0,0,5.74,5.74,5.74,5.74,0,0,0,5.74-5.74,5.71,5.71,0,0,0-.6-2.54l187.7-132.73,7.31,2.15a5.75,5.75,0,0,0-.05.73,5.74,5.74,0,0,0,5.74,5.74,5.71,5.71,0,0,0,3.05-.88l52.95,60.52-19.33,43a5.74,5.74,0,1,0,3,9.16l120.88,70a5.74,5.74,0,1,0,10.82.3l189.55-96.3a5.74,5.74,0,0,0,9.62-6.21l91.45-74.91a5.73,5.73,0,0,0,9.55-4.11l191.72-28.9A5.74,5.74,0,0,0,659,644.53l88-12.87a5.74,5.74,0,0,0,10.66.75l121.18,35.65a5.74,5.74,0,1,0,9.23-3.78l39.37-70.94L1132.16,710a5.74,5.74,0,0,0,10.31,5l102,40.49a5.72,5.72,0,0,0,5.46,7.1l9.35,108.53a5.75,5.75,0,1,0,7,4.48l231.37-84a5.74,5.74,0,0,0,10.52-1.11l25.48,4.19v-1.83l-25.23-4.15a5.71,5.71,0,0,0-1.17-3.35l12-16.15,14.39,8v-2.07l-13.3-7.38,13.3-17.87v-3l-14.89,20-20.34-11.29L1482.93,656l50.75-7.65V646.5l-51,7.69-2.56-16.47a5.75,5.75,0,0,0,3.73-3.79l49.86,8.21v-1.83l-49.62-8.17a5.74,5.74,0,0,0-.18-1.3l24.13-10.4a5.73,5.73,0,0,0,9.34.5l16.33,11.17v-2.19l-15.44-10.57a5.73,5.73,0,0,0-5.38-7.74,5.8,5.8,0,0,0-.6,0l-14.65-54.46,36.07-12v-1.9l-36.54,12.2-18.47-68.65L1517,416.34l16.68,9.51v-2.08l-15.82-9,3.26-6,12.56,4.83v-1.93l-11.69-4.5,11.69-21.5V381.9l-13.39,24.62-47.55-18.3a5.37,5.37,0,0,0,0-1.9l61-25.44v-2l-61.55,25.68a5.75,5.75,0,0,0-3.46-2.79l8.62-68.8a5.73,5.73,0,0,0,4.81-8.55l51.57-38.14v-2.25L1481.08,303l43-71.54,4,1.87a5.72,5.72,0,0,0,5.56,7.17V229a5.73,5.73,0,0,0-4.84,2.66l-3.78-1.77,8.62-14.33v-3.5l-10.27,17.07-73.26-34.23,43.11-66.32a5.73,5.73,0,0,0,7-1.9l33.43,20.21v-2.11l-32.61-19.72a5.71,5.71,0,0,0,.25-1.29l32.37-3.07V118.9L1501.17,122a5.75,5.75,0,0,0-3.68-4.06l15.26-84.74h.12a5.74,5.74,0,0,0,5.74-5.74c0-.08,0-.17,0-.25l15.09-3.65V21.69l-15.45,3.74a5.74,5.74,0,0,0-5.37-3.73l-.5,0L1484.46-90.18l15-16.23a5.72,5.72,0,0,0,3.2,1,5.72,5.72,0,0,0,2-.35l29,75.79V-35l-27.41-71.63a5.75,5.75,0,0,0,1.94-2.84l25.48,4.19v-1.83l-25.23-4.15a5.73,5.73,0,0,0-.24-1.51c-.67-2.25-2.25-3.92-5.48-4.1l-3.93-25.25,34.88,19.36v-2.07l-35.23-19.55L1482.93-244l50.75-7.65v-1.83l-51,7.69-2.56-16.47a5.75,5.75,0,0,0,3.73-3.79l49.86,8.21v-1.83l-49.62-8.17a5.74,5.74,0,0,0-.18-1.3l24.13-10.4a5.73,5.73,0,0,0,4.85,2.67,5.73,5.73,0,0,0,4.49-2.17l16.33,11.17v-2.19l-15.44-10.57a5.72,5.72,0,0,0,.36-2,5.74,5.74,0,0,0-5.74-5.74,5.74,5.74,0,0,0-5.74,5.74,5.74,5.74,0,0,0,.18,1.41l-24.13,10.4a5.73,5.73,0,0,0-4.85-2.67,5.71,5.71,0,0,0-3.35,1.09l-44.14-44.41a5.71,5.71,0,0,0,1.11-3.38,5.75,5.75,0,0,0-5.74-5.74,5.74,5.74,0,0,0-5.47,4l-116.07-17.6a5.74,5.74,0,0,0-5.74-5.7,5.74,5.74,0,0,0-5.74,5.74,5.75,5.75,0,0,0,3.51,5.29l-19.32,78.11-109.48-27.38c0-.17,0-.33,0-.5a5.74,5.74,0,0,0-5.74-5.74,5.74,5.74,0,0,0-5.74,5.74,5.74,5.74,0,0,0,3.47,5.28l-21.61,85.17a5.76,5.76,0,0,0-.81-.06,5.74,5.74,0,0,0-5.74,5.74,5.74,5.74,0,0,0,3.34,5.21L1096-65.75,1055.12-45a5.73,5.73,0,0,0-4.64-2.37,5.73,5.73,0,0,0-4.46,2.12l-120.88-70a5.72,5.72,0,0,0,.39-2.06,5.74,5.74,0,0,0-5.74-5.74,5.74,5.74,0,0,0-5.74,5.74,5.72,5.72,0,0,0,.46,2.26L812.07-50.65,684.39-97.71a5.77,5.77,0,0,0,.11-1.11,5.74,5.74,0,0,0-5.74-5.74,5.73,5.73,0,0,0-4.52,2.2L455.89-223.53a5.74,5.74,0,0,0,.22-1.55,5.74,5.74,0,0,0-5.74-5.74,5.74,5.74,0,0,0-5.74,5.74,5.71,5.71,0,0,0,.79,2.89l-17,13.92L416.58-241a5.74,5.74,0,0,0,3-5,5.74,5.74,0,0,0-5.74-5.74,5.74,5.74,0,0,0-5.28,3.49L267.88-283.48c0-.17,0-.33,0-.5a5.74,5.74,0,0,0-5.74-5.74,5.74,5.74,0,0,0-5.74,5.74A5.72,5.72,0,0,0,258-280L161-154.17,129.78-168,107-301.07a5.74,5.74,0,0,0,3.81-5.4,5.74,5.74,0,0,0-5.74-5.74,5.74,5.74,0,0,0-5.74,5.74,5.73,5.73,0,0,0,2.41,4.67L56.21-200.51-9.85-229.74a5.73,5.73,0,0,0,.2-1.47A5.74,5.74,0,0,0-15.39-237a5.74,5.74,0,0,0-5.18,3.28l-121.18-35.65a5.78,5.78,0,0,0,.05-.73,5.74,5.74,0,0,0-5.74-5.74,5.74,5.74,0,0,0-5.74,5.67l-88,12.87a5.75,5.75,0,0,0-5.48-4,5.72,5.72,0,0,0-4.17,1.8l-15.45-10.58v2.19l14.43,9.88a5.74,5.74,0,0,0-.26.64l-14.17-2.33v1.83l13.82,2.28-13.82,2.08v1.83l14.15-2.13a5.75,5.75,0,0,0,5.47,4,5.71,5.71,0,0,0,2.7-.68l55.53,73.32-31.37,72.78a5.74,5.74,0,0,0-1.41-.18,5.73,5.73,0,0,0-4.52,2.2l-40.56-22.51v2.07l39.69,22-.05.15-39.63-6.51v1.83L-227-98.86v0a5.74,5.74,0,0,0,5.24,5.72l7.16,102.29-31.86,7.7L-266.32-35V-30l18.1,47.31-18.1,4.38v1.86L-247.57,19l35.74,93.39a5.73,5.73,0,0,0-.24,1.34l-54.26,5.15v1.81l54.43-5.17a5.74,5.74,0,0,0,1.86,3l-26.61,44.23-29.68-17.94v2.11l28.75,17.38-28.75,47.79v3.5L-236,165.21l53.19,32.16a5.72,5.72,0,0,0-.42,2.16,5.71,5.71,0,0,0,.65,2.65L-236,241.64l-24.63-6.4c0-.16,0-.33,0-.49a5.74,5.74,0,0,0-5.74-5.74h0v11.49h0a5.73,5.73,0,0,0,4.52-2.2l17.19,9.75-21.71,16.06v2.25L-242.9,249l35.14,19.94-6.37,15.1a5.76,5.76,0,0,0-1-.1,5.74,5.74,0,0,0-5.74,5.74,5.73,5.73,0,0,0,2.24,4.55l-31.51,57.94-16.16,6.74v2l14.78-6.17-14.78,27.18v3.78l17.44-32.07,79.07-33,42.53,28-28.78,60-24.68-25.3a5.71,5.71,0,0,0,1.14-3.43,5.74,5.74,0,0,0-5.74-5.74,5.74,5.74,0,0,0-5.74,5.74,5.74,5.74,0,0,0,3.86,5.42l-9.44,53.17-69.66-26.81v1.93L-197,440.29l-3.71,20.89-65.62-37.41v2.08L-201,463.07l-10.13,57h-.1a5.74,5.74,0,0,0-5.74,5.74,5.76,5.76,0,0,0,.08.94l-49.4,16.5v1.9l50-16.69a5.76,5.76,0,0,0,2.6,2.52l-32.2,107.78a5.77,5.77,0,0,0-.76-.06,5.72,5.72,0,0,0-4.17,1.8l-15.45-10.58v2.19l14.43,9.88a5.67,5.67,0,0,0-.26.64l-14.17-2.33v1.83l13.82,2.28-13.82,2.08v1.83l14.15-2.13a5.74,5.74,0,0,0,5.47,4,5.74,5.74,0,0,0,5.74-5.67l57-8.33-82.37,110.66v3l84.9-114.06,28.49-4.16a5.75,5.75,0,0,0,2.41,3.13l-69.31,160.82a5.74,5.74,0,0,0-1.41-.18,5.73,5.73,0,0,0-4.52,2.2l-40.56-22.51v2.07l39.69,22-.05.15Zm237.6-128.92-113-33.26a5.75,5.75,0,0,0,.05-.73,5.74,5.74,0,0,0-5.74-5.74,5.73,5.73,0,0,0-2.19.44l-10.59-17.28,63.25-85,86.85,49.5-5.26,82.63ZM155.94-43.38l39.23-19.93-13.37,40-26-16.08a5.72,5.72,0,0,0,.44-2.21A5.73,5.73,0,0,0,155.94-43.38Zm87.21-145.3,77.2-25.52,42.18,49.56-10,16.28a5.71,5.71,0,0,0-2.44-.55,5.73,5.73,0,0,0-4.88,2.72L243.1-186.71a5.77,5.77,0,0,0,.11-1.14A5.76,5.76,0,0,0,243.15-188.68Zm212-33.21,218.23,121.1-.05.15L608.44-111.3a5.74,5.74,0,0,0-5.74-5.62,5.74,5.74,0,0,0-5.74,5.74,5.76,5.76,0,0,0,.1,1.08L539-89l-84.8-131.79A5.77,5.77,0,0,0,455.13-221.89ZM1017.59,23.8,1069.33,14,1052.9,63.07,1033.59,59,1015.52,28.4A5.73,5.73,0,0,0,1017.6,24C1017.6,23.91,1017.6,23.86,1017.59,23.8Zm125.56-212.48,77.2-25.52,36.14,42.46-5.66,22.9a5.77,5.77,0,0,0-.77-.06,5.73,5.73,0,0,0-4.88,2.72L1143.1-186.71a5.78,5.78,0,0,0,.11-1.14A5.76,5.76,0,0,0,1143.15-188.68Zm165-56.45-34.46,11.39,5-20.17,29.41,7.36c0,.16,0,.33,0,.5A5.76,5.76,0,0,0,1308.14-245.13Zm.56,1.71a5.76,5.76,0,0,0,1.36,1.71l-46.53,75.45-5.07-6,14.71-59.46ZM1406.33-5.9l49.58-53.48L1509,23.17a5.75,5.75,0,0,0-1.42,1.93L1407.54-1.77a5.78,5.78,0,0,0,0-.59A5.71,5.71,0,0,0,1406.33-5.9Zm24.33,128.34a5.73,5.73,0,0,0-10.31-2.46l-26.6-13.46,3.58-43.45,93,58a5.71,5.71,0,0,0-.38,1.34Zm41.64,181.7a5.71,5.71,0,0,0-.86,2.19l-41.44-.47L1416.32,255a5.74,5.74,0,0,0,1.24-.75Zm-9.49,87-7.39,9.18-4.16-15.48,10.08,2.15c0,.1,0,.2,0,.3A5.72,5.72,0,0,0,1462.81,391.18Zm15.8,172.36,28.54,46.3-39.3-42.7Zm-12.1,2.14-19.32-21,9.28-17.06L1477.64,562Zm7.36,70.21-20.18,22.67-97.82,14.75a5.74,5.74,0,0,0-5.07-4.11l-8.15-101.15,77.8,11.8a5.74,5.74,0,0,0,9.1,4.61l44.14,44.41a5.73,5.73,0,0,0,.19,7Zm-128.47,41.92L1254,752.69l0,0,57.61-93.41a5.74,5.74,0,0,0,4.45-10.59l20.22-81.58,4.56.69L1349,669.35a5.73,5.73,0,0,0-3.6,8.47Zm-179-65.63,48.24-59.92,27.22,3,42.69,59.53-7.21,29.17-109.48-27.38c0-.17,0-.33,0-.5A5.72,5.72,0,0,0,1166.41,612.18ZM683.08,526.76l-85.94,28.7L578.67,486.8,617,416.34l82,46.72-10.13,57h-.1a5.71,5.71,0,0,0-5.66,6.68Zm-75.78,92-24.13,10.4a5.73,5.73,0,0,0-8.2-1.58l-44.14-44.41a5.71,5.71,0,0,0,1.11-3.38,5.78,5.78,0,0,0,0-.66L566,567.77l42.38,46a5.68,5.68,0,0,0-1.06,5ZM442.5,566.2,441,547.87l6.88-27.77,38-32.25a5.73,5.73,0,0,0,6.91.43L545,545,528.81,574.7a5.74,5.74,0,0,0-8.09,3.37ZM107,598.94a5.74,5.74,0,1,0-5.26-.73L89.1,626.37,55,606.94l63.8-45.11,137.73,53a5.74,5.74,0,0,0,3.35,6.47l-21.61,85.17a5.66,5.66,0,0,0-5.19,2l-118.94-67.8Zm5.1,40.56L90.67,627.27,103.38,599a5.74,5.74,0,0,0,1.71.26h.16ZM146.82-37.18,114,18.63a5.7,5.7,0,0,0-4.44.1L73.07-37.2,98.76-70.52l46.36,26.85a5.72,5.72,0,0,0-.39,2.06A5.73,5.73,0,0,0,146.82-37.18Zm-29.22,61L169.33,14,152.9,63.07,133.59,59,115.52,28.4A5.73,5.73,0,0,0,117.6,24C117.6,23.91,117.6,23.86,117.59,23.8ZM222.4,3.88l38.8,24,1.89,16.75L161.71,64.92l-7-1.48,16.68-49.87ZM172,11.61l10.77-32.21L220.12,2.47Zm77.38-104.5L247-114.13l23.63,10.45Zm23.36-9.84L356.1-65.85l3.18,37a5.74,5.74,0,0,0-4.36,5.57c0,.06,0,.11,0,.17L259.31-5l-9.7-86Zm83.17,34.82-81.09-35.88,70.66-35.9a5.73,5.73,0,0,0,4.45,2.26ZM609,23.17a5.75,5.75,0,0,0-1.42,1.93L507.54-1.77a5.83,5.83,0,0,0,0-.59,5.71,5.71,0,0,0-1.23-3.55l49.58-53.48ZM540-87.46l57.69-20.94a5.74,5.74,0,0,0,.51.76l-42,45.32ZM507.07,0,607.14,26.85a5.73,5.73,0,0,0,3.82,6L595.7,117.6h-.12a5.71,5.71,0,0,0-2.67.66l-87-116.61A5.75,5.75,0,0,0,507.07,0Zm181,115.57a5.74,5.74,0,0,0,1.86,3l-26.61,44.23-62.29-37.66a5.72,5.72,0,0,0,.25-1.29Zm179.18-9.79,171.48-34.39L1046,83.64l-12.55,37.52L835.27,170.52l-3-1.21,27.64-57.83A5.74,5.74,0,0,0,867.3,106C867.3,105.9,867.29,105.83,867.29,105.75ZM1163.15,29l19,11.72-17.26,3.46Zm89.46-177.6,5.32-21.5,4.6,5.41Zm11.15-14.64,4,4.64L1254-147.32l0,0Zm-8,20a5.72,5.72,0,0,0-.69-2.73l13.78-11.29,53.64,63-58.76,66a5.7,5.7,0,0,0-2.68-.89l-9.35-108.62A5.74,5.74,0,0,0,1255.8-143.16Zm99.34-78.73,54.31,30.14-21.22,23.83-34-52.89A5.77,5.77,0,0,0,1355.13-221.89Zm60.22,31.35-3.06-1.7,3.49-3.92Zm-.15,2-4.29,55.9-21.68-33.69,21.82-24.51Zm5.44,315.62L1390.8,162a5.71,5.71,0,0,0-1.57-.71l4.36-52.82,25.94,13.13a5.73,5.73,0,0,0,1.1,5.48Zm8.18,447.64a5.74,5.74,0,0,0-8.09,3.37L1342.5,566.2,1341,547.87l6.88-27.77,38-32.25a5.73,5.73,0,0,0,6.91.43L1445,545Zm-366.7-40.82c0-.16,0-.31,0-.46l127.05-37.77-11.76,50.76ZM875.29,504.66,815,481.46l-21.77-22.32L867.52,411l31.29,20.59-4.32,67.84Zm19.07-3.36-.66,10.44-15.57-6ZM818,484.56l54.33,20.91-21.81,6a5.73,5.73,0,0,0-8.54-2.32ZM530.28,575.77l16-29.41,18.36,19.94-33.23,11.09A5.76,5.76,0,0,0,530.28,575.77Zm-90.91-48.43,6.18-5.25-5,20.11Zm-.18-2.22-4-49,20.92,3.2L446.3,519.1ZM266.41,612.18l48.24-59.92,27.22,3,42.69,59.53-7.21,29.17L267.88,616.53c0-.16,0-.33,0-.5A5.72,5.72,0,0,0,266.41,612.18Zm-340.93-120,2.76-3.71,44.1,17-21.81,6a5.74,5.74,0,0,0-5.23-3.37A5.71,5.71,0,0,0-58,509.13Zm-1.28-1.31L-82,484.56l8.47,3.26Zm5.16-3.91,50.52-67.87L-1.2,431.56-5.52,499.4l-19.19,5.26ZM-92.28,289.68a5.75,5.75,0,0,0-4-5.48l.75-4.19L.52,305c0,.18,0,.37,0,.55a5.72,5.72,0,0,0,1.63,4L-11.65,328l-95-18.3,7-14.51a5.74,5.74,0,0,0,1.64.24A5.74,5.74,0,0,0-92.28,289.68Zm-76.65-91.36L-72,174.2l-7.85,16.43a5.74,5.74,0,0,0-1.63-.24,5.74,5.74,0,0,0-5.7,5Zm100.44-27.38.78.32-1.05.26ZM-46.95,9.67l10.3,13.6L-104.82,8.95l1.75-4.65Zm-55.46-7.12,16.62-44.16L-48.43,7.71Zm57.9,7.36,73.56,7L15.7,34.26-34,23.83ZM263.15,29l19,11.72-17.26,3.46ZM365-19.56l53,33.09L314.52,34.28l43.25-52.65a5.71,5.71,0,0,0,2.9.79A5.72,5.72,0,0,0,365-19.56Zm1.15-2L496.08-2.3c0,.06,0,.11,0,.17L420.57,13,366-21.09Q366.07-21.34,366.15-21.6ZM719.61,194.56a5.77,5.77,0,0,0-1.52,1.26l-53.2-32.16,26.21-43.57Zm345.06-79.31,32.55,55.15L1010,205.93a5.76,5.76,0,0,0-2.25-2.12l27.13-81.14Zm-29.12,5.39,11.68-34.94,16.48,27.93ZM1265-19.56l53,33.09L1214.52,34.28l43.25-52.65a5.71,5.71,0,0,0,2.9.79A5.72,5.72,0,0,0,1265-19.56ZM1399.05-7.38l-.21.13-42.44-49.86L1378.23-65Zm-19.13-58.27,26.59-9.65-5.16,67.24a5.74,5.74,0,0,0-.61.08Zm17.55,59.57a5.73,5.73,0,0,0-1.12,2l-129.94-19.3a5.77,5.77,0,0,0-.1-1l88.29-32ZM1397.18,1l-36.7,36.91L1322.81,14.4,1396.44-.36A5.72,5.72,0,0,0,1397.18,1Zm-131-22.62L1396.08-2.3c0,.06,0,.11,0,.17L1320.57,13,1266-21.09Q1266.07-21.34,1266.15-21.6Zm54.08,36.52,39,24.32-67,67.39-90.94-56.17,11.48-14Zm67.21,146.15a5.72,5.72,0,0,0-4,1.91l-54.14-33.44L1348.63,91a5.73,5.73,0,0,0,6.39-2.11l36.83,18.64Zm-5,3.43a5.71,5.71,0,0,0,.37,5.3l-30.62,25.08-35.24-30.11a5.72,5.72,0,0,0-1.54-7.65l13.06-26Zm1.47,319a5.71,5.71,0,0,0,.84,2.94l-36.08,30.63,9.3-37.54Zm-44.53,43.82,6.18-5.25-5,20.1Zm-.18-2.22-4-49,20.92,3.2-9.87,39.81Zm-62.95-58.07a5.78,5.78,0,0,0,.06.77l-78.21,23.25-4.59-6.39,34.18-147.56,24.5,5.23,27.71,119.34A5.74,5.74,0,0,0,1276.25,467.06Zm1.53,3.9L1228,532.79l-28.8-40.15,77.62-23.08A5.74,5.74,0,0,0,1277.78,471Zm-231.47-16a5.71,5.71,0,0,0-3.32-1.06,5.78,5.78,0,0,0-.69,0l-14.22-41.74,27.78-50.06,49.91,9.62c0,.06,0,.12,0,.19a5.74,5.74,0,0,0,8.31,5.13l3.55,5Zm-9,5.31L995,471.85l31.94-57.55,13.67,40.11a5.72,5.72,0,0,0-3.28,5.83Zm-140-70.72-29.76,19.3-25-16.43,20-26.82,34.58,19.62a5.69,5.69,0,0,0,.13,4.34Zm1,1.51a5.73,5.73,0,0,0,3,1.76l-2.34,36.69L869.17,409.9ZM743.11,410.35,725.52,447,705,439.14l9.5-53.51h.1a5.71,5.71,0,0,0,3.31-1.06Zm-23.85-27a5.74,5.74,0,1,0-6.48,2l-9.44,53.17L622,407.17l29.13-53.57,79.07-33,42.53,28-28.78,60ZM387.73,467a5.72,5.72,0,0,0-2-4.28L426.89,395l6.37,79ZM162.11,533.88c0-.16,0-.31,0-.46l127.05-37.77L277.36,546.4ZM85,486.1l-10.35-6.81,16.66-4.57Zm8.75-12,44-12.07a5.74,5.74,0,1,0,9.84-5.79l71.11-72.7,12.22,17L158.38,528.78a5.71,5.71,0,0,0-6.24,1.51L86.49,487.1ZM-75.82,195.48l40.22-11.21,64.38,26.09L6.52,299.81H6.24a5.71,5.71,0,0,0-2.36.51L-77.26,200a5.72,5.72,0,0,0,1.48-3.84A5.78,5.78,0,0,0-75.82,195.48Zm596.46-68.41L490.8,162a5.71,5.71,0,0,0-1.57-.71l4.36-52.82,25.94,13.13a5.73,5.73,0,0,0,1.1,5.48ZM630.94,239.8a5.74,5.74,0,0,0,6.39-.62,5.77,5.77,0,0,0,.78-.78l.08-.11L655.38,248l-74.3,55,43-71.54,4,1.87a5.71,5.71,0,0,0,2.82,6.47Zm56.65,44.85,6.24-14.8L749,301.14l-58.41-11.26c0-.06,0-.12,0-.19A5.74,5.74,0,0,0,687.59,284.65Zm-2.74,10.79a5.72,5.72,0,0,0,4.24-1.88l39.29,25.85-75.88,31.66,30.44-56A5.72,5.72,0,0,0,684.85,295.44Zm5.23-3.38c.06-.13.11-.27.16-.4l63.67,12.27,4.91,2.79-28.44,11.87Zm70.85,13.77-1.48-.84,2.39.46Zm-.12,2,24.73,14-12,25.09L732.2,319.77Zm26.31,14.92L861,364.66,841,391.39,775,348ZM762.92,307l2.13-.89,25.7,5-4.42,9.21Zm5.14-2.15,29-12.12a5.77,5.77,0,0,0,1.62,1.71l-7.16,14.94Zm33.87-20.87a5.71,5.71,0,0,0-2.53.61l-6.78-7.62,10.09,2.62Zm-4,1.67A5.7,5.7,0,0,0,796.4,291l-31.55,13.16-10.31-2-60-34,6.36-15.08,88.58,23Zm-96.32-34.2,19.52-46.3a5.67,5.67,0,0,0,4.46-.74l61.73,69.32Zm17.85-47L699.83,251l-33.56-8.72,52.19-38.6A5.76,5.76,0,0,0,719.45,204.4Zm-20.33,48.23L693,267.27l-34.26-19.44,5.72-4.23ZM657,246.86l-16.88-9.58L662.16,243Zm-77.45,55.22a5.71,5.71,0,0,0-6,.72l-54.74-49.9a5.73,5.73,0,0,0-1.32-7.72l31.7-48.76,73.32,34.26ZM530,305.86,516.32,255a5.73,5.73,0,0,0,1.24-.75l54.74,49.9a5.7,5.7,0,0,0-.86,2.19ZM292.11,482.74l-59-82.32,39.68-70.14a5.72,5.72,0,0,0,7.36-3.31l45.82,9.79ZM293,487l3.3,4.6L291.58,493ZM146.31,454.93a5.71,5.71,0,0,0-3.32-1.06,5.77,5.77,0,0,0-.69,0l-14.22-41.74,27.78-50.06,49.91,9.62c0,.06,0,.12,0,.19a5.74,5.74,0,0,0,8.31,5.13l3.55,5ZM215.55,376a5.74,5.74,0,1,0-9.43-6l-49.33-9.51,10-18a5.73,5.73,0,0,0,7.7-5.39,5.78,5.78,0,0,0-.07-.85l56-17.77,38.63,6.4s0,0,0,0a5.71,5.71,0,0,0,1.14,3.42l-51.22,52.37ZM62.43,284a5.72,5.72,0,0,0-5.7,6.41l-22.4,6.32,5.1-82L62,223.82l23.44,68.78-17.26-2.86s0,0,0,0A5.74,5.74,0,0,0,62.43,284Zm-24.66-71.9-6.86-2.78,9.38-37.68Zm4.58-44.57.42-.06,18.45,54.13-21.68-8.79Zm2.23-.36,49.21,67.63-30.35-12.3ZM29.22,208.59l-62-25.11,69.33-19.32a5.76,5.76,0,0,0,3,2.9ZM37.65,214,32.48,297.2l-21,5.93a5.75,5.75,0,0,0-3.16-3L30.47,211ZM64.2,224.71l31.59,12.8,47,64.59-55.34-9.18ZM99,238.8l87.33,35.39-10,33.48-31-5.14Zm3.42-35L55.82,142.36l77-19.17-26.77,80a5.63,5.63,0,0,0-3.65.59Zm8.3,3.76L198.15,172l9.7,16.44A5.74,5.74,0,0,0,209,198l-19.42,65.06-79.28-51.83a5.66,5.66,0,0,0,.35-3.65ZM273.56,91.75l88.34,45.32-8.66,8.71-52.87-13.54c0-.18,0-.35,0-.53a5.74,5.74,0,0,0-7.86-5.34L272.6,92.78A5.77,5.77,0,0,0,273.56,91.75ZM412,167.51a5.72,5.72,0,0,0,3.72-1.37l35,29.9-20.84,17.07a5.72,5.72,0,0,0-8.07.44l-81-52.78,12.91-13,52.53,13.45c0,.18,0,.35,0,.53A5.74,5.74,0,0,0,412,167.51Zm75.65,5a5.74,5.74,0,0,0,4.8-2.59l26.43,12.35L513.5,244a5.71,5.71,0,0,0-2.7.94l-57.23-48.91L484,171.17A5.72,5.72,0,0,0,487.69,172.55Zm-9.56,134.53-27.55,45.38-26.26-42.58a5.73,5.73,0,0,0,1.91-3.38Zm-51.87-2.39a5.7,5.7,0,0,0-.35-1.29l83.66-50a5.77,5.77,0,0,0,.69.7l-31,51.15Zm85.42-49.4-12.45,50.22-17.92-.2Zm1.81.19.49,0a5.81,5.81,0,0,0,.6,0l13.55,50.37-27-.31Zm-4-9.26a5.72,5.72,0,0,0-.82,5.68l-83.66,50a5.74,5.74,0,0,0-3.2-1.93l4.85-76.8a5.73,5.73,0,0,0,4.41-8.61l21.09-17.27Zm-94.62,59.16-67.3,8.94-6.05-26.07a5.76,5.76,0,0,0,3.06-2.93l70.33,19.56C414.86,305,414.85,305.21,414.85,305.38ZM280.25,323.26a5.74,5.74,0,0,0-9.49-2.48l-14.17-10.64,77.6-24.64a5.76,5.76,0,0,0,3,2.74l-6.56,28.32Zm-107.44,9.8a5.75,5.75,0,0,0-1.84-1.26l6.6-22.1,22.73,3.77Zm30-19.17,23.63,3.92-52.54,16.68Zm2.08-1.48,22.44-16a5.73,5.73,0,0,0,8.08.1l17.27,13-22.46,7.13ZM421,220.06l-78.22,58.29a5.72,5.72,0,0,0-7.67.68L306,259.54a5.73,5.73,0,0,0-2.91-7.66l18.55-68a5.73,5.73,0,0,0,6.37-5.71,5.71,5.71,0,0,0-1.11-3.38l12.69-12.77,81.27,53a5.72,5.72,0,0,0,.16,5Zm-87.36,63.72-78.83,25-18.29-13.74a5.73,5.73,0,0,0,.39-4.45l59.22-30.11A5.73,5.73,0,0,0,305,261l29.13,19.48a5.57,5.57,0,0,0-.46,3.25ZM338,161.07l-12.43,12.5a5.74,5.74,0,1,0-5.72,9.89l-18.56,68-.39,0L279.48,138.86l10.26-4.18a5.73,5.73,0,0,0,9.16.88Zm-38.15-27,0-.06,51.84,13.28-12.43,12.5Zm-4.58,124.86L236.09,289a5.73,5.73,0,0,0-4.64-2.37h-.06l-17.87-88.43a5.74,5.74,0,0,0,2.1-1.36l80.42,57a5.73,5.73,0,0,0-.73,5Zm-84.55-60.37a5.76,5.76,0,0,0,.76.06h.24L229.61,287a5.73,5.73,0,0,0-1.87,1.06l-36.55-23.9Zm43.72,112.28,15.19,11.41a5.7,5.7,0,0,0-.37.87l-35.14-5.83Zm84.45-22.16.4,0,.4,0,6,25.91-13.23,1.76Zm6.1-5.07a5.68,5.68,0,0,0-1-3.92l78-58.15a5.73,5.73,0,0,0,2.75,1.49L420,299.81a5.74,5.74,0,0,0-4.62,3.32Zm78.7,72.22-13.52-2.89,9.93-41.64ZM355.27,146.3l8.32-8.37,40.87,21Zm-64.29-19a5.71,5.71,0,0,0-1.92,5.72l-9.93,4-8.25-43.29.17-.06Zm8.17,124.35a5.72,5.72,0,0,0-1.84.94l-80.64-57.19a5.74,5.74,0,0,0-7.25-7.88l-9.57-16.22,77.93-31.74Zm-108.5,14.28,32.54,21.28-34.7-14.06Zm35.45,24.4a5.69,5.69,0,0,0,.21,4.62l-23.92,17-24.29-4L188,274.87Zm-50.31,19.09-6.56,22-.5,0a5.72,5.72,0,0,0-2.13.41l-19.75-27.15Zm94.78,21.07-38.65,68.33L220,382.18Zm9.92-5.28c0-.05,0-.1,0-.15l49.68-6.6L326.34,335Zm51.6-7,14.07-1.87,5.6,24.1-23.65-5.05ZM348,316.09l67.13-8.92a5.76,5.76,0,0,0,3.31,3.67l-9.94,41.7L353.7,340.84Zm61.84,38.58,14.09,3,2.76,34.23-42.35,69.78Zm15.93,3.4,19,4.06-16.47,27.14Zm-.15-1.88-3.64-45.09a5.71,5.71,0,0,0,.85-.27l26.74,43.37-3.82,6.3Zm25-.27,4,6.47-7-1.5Zm1.05-1.73,28.58-47.09,18.56.21L483.6,368.59,457,362.91Zm49-46.86,28,.32,20.13,74.85L485.37,369Zm15.22-63a5.69,5.69,0,0,0-.56-.16l5.36-61.05,26.84,12.54Zm-22.63-76a5.7,5.7,0,0,0-1.08-5.12l29.86-35a5.7,5.7,0,0,0,1.6.67l-4.52,51.49Zm-5.78-7.24a5.72,5.72,0,0,0-4,1.91l-54.14-33.44L448.63,91A5.73,5.73,0,0,0,455,88.93l36.83,18.64Zm-5,3.43a5.71,5.71,0,0,0,.36,5.3l-30.62,25.08-35.24-30.11a5.72,5.72,0,0,0-1.54-7.65l13.06-26Zm-68.64-8.2a5.73,5.73,0,0,0-6.37,2.08l-42.48-21.79,27.52-27.67,34.47,21.29Zm-50.54-20.57L274.39,90.14a5.72,5.72,0,0,0-1.16-5.59l26.85-32.69,90.79,56.08ZM298.53,50.9l-26.7,32.5a5.7,5.7,0,0,0-2.64-.78L265.07,46l19.31-3.87ZM287,41.64,309.91,37,299.68,49.5Zm-18,52.46h.17l8.32,43.65-78.51,32L166.5,114.8l97.14-24.19A5.75,5.75,0,0,0,268.93,94.1Zm-71.71,76.3L110,205.93a5.76,5.76,0,0,0-2.25-2.12l27.13-81.14,29.8-7.42Zm-61.67-49.76L147.24,85.7l16.48,27.93Zm10.47-37-12.55,37.52L54.63,140.79,20.07,95.17l118.7-23.8ZM140.65,71l10.3-2.06-4.17,12.46ZM100.94,204.93a5.74,5.74,0,1,0,8.39,7.83l79.74,52.13-2.26,7.57L97,236,45.87,165.83a5.74,5.74,0,1,0-9.81-4.06,5.8,5.8,0,0,0,0,.65l-71.59,19.94-26.4-10.7,115.8-28.84ZM6.24,311.28a5.79,5.79,0,0,0,.6,0l5.74,21.41-22.26-4.29L3.57,310.62A5.71,5.71,0,0,0,6.24,311.28Zm2.34-.5a5.7,5.7,0,0,0,3.36-5.91l20.42-5.76L30.07,336l-15.52-3ZM30,337.85,27.3,380.57,15.07,335Zm1.79.34,11.6,2.23-14.2,39.75Zm.11-1.82,2.35-37.79,23-6.49a5.76,5.76,0,0,0,2.45,2.63L44,338.71Zm29.52-41a5.72,5.72,0,0,0,6.5-3.82l18.21,3,19.07,56L45.75,339.06Zm26.74-.47,56.19,9.32L165,332.69a5.74,5.74,0,0,0,.14,8.92l-10.26,18.49-47.72-9.2ZM154,361.76l-26.7,48.11-19.42-57Zm-13.43,92.66a5.74,5.74,0,0,0-3.32,5.2,5.81,5.81,0,0,0,0,.63L95,471.85,126.9,414.3Zm91.52-52.26,59.48,82.93-2,8.53-128,38.07a5.76,5.76,0,0,0-1.6-2Zm59,92.89,6.27-1.86,29.45,41.07-13,16.11-34.69-3.77Zm36.81,40.73,12.54,17.48L316,550.59Zm-28.71-43.13,77.62-23.08a5.75,5.75,0,0,0,1,1.39L328,532.79Zm77-25.58a5.75,5.75,0,0,0,.06.77L298.1,491.09l-4.59-6.39L327.7,337.13l24.5,5.23,27.71,119.35A5.74,5.74,0,0,0,376.25,467.06Zm-22.1-124.28L408,354.29,382.51,461.34l-.52,0-.32,0Zm74.34,49.56,18.1-29.81,9.31,2,20.48,33.22-19.78,79.8-21.51-3.29ZM458.34,365l24.83,5.3L477,395.28Zm26.59,5.68,64.35,13.74L554,402.1l-41.25,51.22-34.46-55.9Zm69.67,33.54,22.14,82.31L556.37,524,513.78,455Zm-3.34-19.38L561.34,387c0,.1,0,.2,0,.3a5.72,5.72,0,0,0,1.49,3.85l-7.39,9.18Zm10.46.39-11-2.35-20.24-75.26,40.94.46a5.74,5.74,0,0,0,4.07,4.67l-8.62,68.8A5.74,5.74,0,0,0,561.72,385.27ZM577.29,313a5.73,5.73,0,0,0,4.81-8.55l75-55.47,35.15,19.94L685.88,284a5.74,5.74,0,0,0-4.53,10.19l-31.51,57.94-77.71,32.43a5.75,5.75,0,0,0-3.45-2.79Zm-4.58,73.29,75.74-31.6-28.17,51.8-47.55-18.3a5.37,5.37,0,0,0,0-1.9ZM774.24,349.6,840,392.84l-48.29,64.7L745.28,410Zm67.23,44.23,24.4,16.05-70.5,45.71Zm-53.57-72.7,4.68-9.75,94.58,18.23-25.08,33.6Zm5.48-11.44,7-14.51a5.74,5.74,0,0,0,3.37-11l.75-4.19,96.06,25c0,.18,0,.37,0,.55a5.72,5.72,0,0,0,1.63,4L888.35,328Zm30.8-114.22,40.22-11.21,64.38,26.09-22.26,89.45h-.28a5.71,5.71,0,0,0-2.36.51L822.74,200a5.72,5.72,0,0,0,1.48-3.84A5.8,5.8,0,0,0,824.18,195.48Zm186.5,12.12L1098.15,172l9.7,16.44A5.74,5.74,0,0,0,1109,198l-19.42,65.06-79.28-51.83a5.67,5.67,0,0,0,.35-3.65ZM1312,167.51a5.72,5.72,0,0,0,3.72-1.37l35,29.9-20.84,17.07a5.72,5.72,0,0,0-8.07.44l-81-52.78,12.91-13,52.53,13.45c0,.18,0,.35,0,.53A5.74,5.74,0,0,0,1312,167.51ZM1287.73,467a5.72,5.72,0,0,0-2-4.28L1326.89,395l6.37,79Zm-219-135.67a5.72,5.72,0,0,0-2.13.41l-19.75-27.15,28.94,4.8-6.56,22Zm8.85-21.64,22.73,3.77-27.49,19.59a5.75,5.75,0,0,0-1.84-1.26Zm25.25,4.19,23.63,3.92-52.54,16.68Zm2.08-1.48,22.44-16a5.73,5.73,0,0,0,8.08.1l17.27,13-22.46,7.13ZM1321,220.06l-78.22,58.29a5.72,5.72,0,0,0-7.67.68L1206,259.54a5.73,5.73,0,0,0-2.91-7.66l18.55-68a5.82,5.82,0,0,0,.62,0,5.74,5.74,0,0,0,4.64-9.13l12.69-12.77,81.27,53a5.72,5.72,0,0,0,.16,5Zm-6.16,85.32-67.3,8.94-6.05-26.07a5.76,5.76,0,0,0,3.06-2.93l70.33,19.56C1314.86,305,1314.85,305.21,1314.85,305.38Zm-75.52-16.71.4,0,6,25.91-13.23,1.76,6.41-27.67Zm-5.67-4.89-78.83,25-18.29-13.74a5.73,5.73,0,0,0,.39-4.45l59.22-30.11a5.73,5.73,0,0,0,8.85.53l29.13,19.48a5.56,5.56,0,0,0-.46,3.25ZM1238,161.07l-12.43,12.5a5.74,5.74,0,1,0-5.72,9.89l-18.56,68-.39,0-21.46-112.55,10.26-4.18a5.73,5.73,0,0,0,9.16.88Zm-38.15-27,0-.06,51.84,13.28-12.43,12.5Zm-4.58,124.86L1136.09,289a5.73,5.73,0,0,0-4.64-2.37h-.06l-17.87-88.43a5.74,5.74,0,0,0,2.1-1.36l80.42,57a5.73,5.73,0,0,0-.73,5Zm-84.55-60.37a5.78,5.78,0,0,0,.76.06h.24L1129.61,287a5.73,5.73,0,0,0-1.87,1.06l-36.55-23.9Zm43.72,112.28,15.19,11.41a5.7,5.7,0,0,0-.37.87l-35.14-5.83Zm16.28,10-14.17-10.64,77.6-24.64a5.76,5.76,0,0,0,3,2.74l-6.56,28.32-50.35,6.69a5.74,5.74,0,0,0-9.49-2.48Zm9.73,4.27,49.68-6.6L1226.34,335l-45.86-9.79C1180.48,325.15,1180.49,325.1,1180.49,325.05Zm51.6-6.86,14.07-1.87,5.6,24.1-23.65-5.05Zm15.87-2.11,67.13-8.92a5.75,5.75,0,0,0,3.31,3.67l-9.94,41.7-54.75-11.69Zm75.78,39.71-13.52-2.89,9.93-41.64Zm-13.93-1.13,14.09,3,2.76,34.22-42.35,69.78Zm15.93,3.4,19,4.06-16.47,27.14Zm-.15-1.88-3.64-45.09a5.7,5.7,0,0,0,.85-.27l26.74,43.37-3.82,6.3ZM1320,299.81a5.74,5.74,0,0,0-4.62,3.32L1245,283.58a5.8,5.8,0,0,0,0-.65,5.71,5.71,0,0,0-1-3.27l78-58.15a5.73,5.73,0,0,0,2.75,1.49ZM1255.27,146.3l8.32-8.37,40.87,21Zm-82-61.74,26.85-32.69,90.79,56.08-27.62,27.78-88.85-45.58a5.72,5.72,0,0,0-1.16-5.59Zm.34,7.19,88.34,45.32-8.66,8.71-52.87-13.54c0-.18,0-.35,0-.53a5.74,5.74,0,0,0-7.86-5.34L1172.6,92.78A5.77,5.77,0,0,0,1173.56,91.75ZM1191,127.29a5.71,5.71,0,0,0-1.92,5.72l-9.93,4-8.25-43.29.17-.06Zm8.17,124.35a5.72,5.72,0,0,0-1.84.94l-80.64-57.19a5.74,5.74,0,0,0-7.25-7.88l-9.57-16.22,77.93-31.74Zm-108.5,14.28,32.54,21.28-34.7-14.06Zm35.45,24.4a5.69,5.69,0,0,0,.21,4.62l-23.92,17-24.29-4,9.88-33.09Zm-49.79,17.35-31-5.14L999,238.8l87.33,35.39Zm-33.51-5.56-55.34-9.18L964.2,224.71l31.59,12.8ZM962.43,284a5.72,5.72,0,0,0-5.7,6.41l-22.4,6.32,5.1-82L962,223.82l23.44,68.78-17.26-2.86s0,0,0,0A5.74,5.74,0,0,0,962.43,284ZM942.77,167.43l18.45,54.13-21.68-8.79,2.81-45.28Zm-5,44.63-6.86-2.78,9.38-37.68Zm-.12,1.9-5.17,83.25-21,5.93a5.75,5.75,0,0,0-3.16-3L930.47,211Zm25.78,8.5-18.85-55.33,49.21,67.63Zm-34.21-13.86-62-25.11,69.33-19.32a5.76,5.76,0,0,0,3,2.9Zm-110.85-6.72h.1a5.71,5.71,0,0,0,2.86-.77l81,100.2a5.75,5.75,0,0,0-1.39,1.93l-96.2-25Zm85.2,108.76a5.71,5.71,0,0,0,2.67.66,5.79,5.79,0,0,0,.6,0l5.74,21.41-22.26-4.29Zm5,.16a5.7,5.7,0,0,0,3.36-5.91l20.42-5.76L930.07,336l-15.52-3ZM930,337.85l-2.65,42.72L915.07,335Zm1.79.34,11.6,2.23-14.2,39.75Zm.11-1.82,2.35-37.79,23-6.49a5.76,5.76,0,0,0,2.45,2.63l-15.72,44Zm29.52-41a5.72,5.72,0,0,0,6.5-3.82l18.21,3,19.07,56-59.41-11.45Zm26.74-.47,56.19,9.32,20.73,28.5a5.74,5.74,0,0,0,.15,8.92l-10.26,18.49-47.72-9.2ZM1054,361.76l-26.7,48.11-19.42-57ZM1115.55,376a5.74,5.74,0,1,0-9.43-6l-49.33-9.51,10-18a5.71,5.71,0,0,0,7.63-6.25l56-17.77,38.62,6.4s0,0,0,0a5.71,5.71,0,0,0,1.14,3.42l-51.22,52.37Zm55-45.52-38.65,68.33L1120,382.18Zm2.19-.2a5.72,5.72,0,0,0,7.36-3.31l45.83,9.79-33.82,146-59-82.32ZM1193,487l3.3,4.6-4.68,1.39Zm61.18-144.25L1308,354.29l-25.52,107.05-.52,0-.32,0Zm33.32,126,45.94,7,4.09,50.75-34.85,29.58a5.72,5.72,0,0,0-3.74-1.39h-.12L1284,472.45A5.75,5.75,0,0,0,1287.47,468.8Zm69.13,8.74-21.51-3.29-6.6-81.91,18.1-29.81,9.31,2,20.48,33.22Zm-9-116.64,3-5,4,6.47Zm3-8.43-26.26-42.58a5.73,5.73,0,0,0,1.91-3.38l51.89.59Zm-24.32-47.77a5.7,5.7,0,0,0-.35-1.29l83.66-50a5.77,5.77,0,0,0,.69.7l-31,51.15Zm82.39-52.8-83.66,50a5.74,5.74,0,0,0-3.2-1.93l4.85-76.8a5.73,5.73,0,0,0,4.41-8.61l21.09-17.27,57.32,49a5.71,5.71,0,0,0-.82,5.68Zm-94.87-95.59a5.73,5.73,0,0,0-6.37,2.08l-42.48-21.79,27.52-27.67,34.47,21.29ZM1199.68,49.5,1187,41.64l22.94-4.6Zm-1.16,1.41-26.7,32.5a5.7,5.7,0,0,0-2.64-.78L1165.07,46l19.31-3.87Zm-29.6,43.2h.17l8.32,43.65-78.51,32L1066.5,114.8l97.14-24.19A5.74,5.74,0,0,0,1168.93,94.1ZM1006,203.24a5.74,5.74,0,1,0,3.31,9.52l79.74,52.13-2.26,7.57L997,236l-51.08-70.21a5.75,5.75,0,1,0-9.77-3.4l-71.59,19.94-26.4-10.7,194.69-48.48ZM861.66,183.16l-38,10.58a5.76,5.76,0,0,0-2-2.34l8.49-17.77,4.91-1.22Zm-41.56,7.46a5.73,5.73,0,0,0-7.33,4.8l-81.71,2.9L828,174.2Zm-91.92,9.61,84.66-3a5.75,5.75,0,0,0,3.75,4.32L803,277.78l-12.57-3.27-63.52-71.34A5.72,5.72,0,0,0,728.18,200.23Zm-11-2.86a5.72,5.72,0,0,0,.22,4.81L664,241.64l-24.63-6.4c0-.16,0-.33,0-.49a5.74,5.74,0,0,0-10.59-3.08l-3.78-1.77L664,165.21Zm-93.75,31.76L550.15,194.9l43.11-66.32a5.73,5.73,0,0,0,7-1.9l62.18,37.59Zm-74.92-35L520.83,181.2l4.58-52.14a5.74,5.74,0,0,0,5.26-4.82h59.25a5.72,5.72,0,0,0,1.82,3.36Zm41.43-71.69H530.67A5.73,5.73,0,0,0,520.35,120l-26.6-13.46,3.58-43.45,93,58A5.7,5.7,0,0,0,589.92,122.44ZM492,105.63,455.84,87.33a5.74,5.74,0,1,0-8.82,2.9l-19.3,38.36-34-21,67-67.38L495.61,62Zm-99.84,1L301.23,50.45l11.48-14L420.23,14.92l39,24.32ZM311.73,34.84l-27,5.42L262.89,26.77,259.51-3.18l95.76-18.2a5.73,5.73,0,0,0,1.1,1.86Zm-44.33,48a5.75,5.75,0,0,0-3.83,3.48L166.2,65.86l97.09-19.47Zm-4.2,5.25c0,.09,0,.19,0,.28s0,.33,0,.49l-97.67,24.32L148,83.44l5-14.92,8.71-1.75ZM153.65,66.54l.46-1.37,3.11.65Zm-2,.41-11.93,2.39-4.85-8.22,17.5,3.67Zm-13.8,2.77L18.86,93.57-4.23,63.08,16.44,36.26l116,24.36ZM14.48,35.85-5.36,61.59-32.3,26ZM16.9,94l-50,10a5.74,5.74,0,0,0-1.2-1.94L-5.37,64.56ZM-32.7,106c0-.08,0-.15,0-.23L18.11,95.56l34.62,45.71L-64.73,170.52l-3-1.21,27.64-57.83a5.74,5.74,0,0,0,1.63.24A5.74,5.74,0,0,0-32.7,106Zm-32.17,66.43,26.53,10.75-38,10.58a5.76,5.76,0,0,0-2-2.34l8.49-17.77Zm-16.76,29.46h.1a5.71,5.71,0,0,0,2.86-.77l81,100.2A5.75,5.75,0,0,0,1,303.24l-96.2-25ZM13.1,334.6l12.46,46.46a5.74,5.74,0,1,0,5.1.2l14.47-40.49,60.7,11.7L126.11,412,92.52,472.52,72.63,478l-72-47.35,2.4-37.72a5.74,5.74,0,1,0-5-9.3l-34.38-19.5L-10.88,330ZM.54,432.7l69.77,45.91-74,20.29Zm-1.6-3.22-18-11.82,18.9-25.39a5.7,5.7,0,0,0,1.4.51Zm-.51-38.28-19,25.47-10.29-6.77L-1.73,391ZM-5.64,501.3l-.66,10.44-15.57-6Zm1,13,61,23.46-29.48,53.1-35.08-20Zm.12-1.89.74-11.63,76.11-20.87,11.79,7.76L57.19,536.18Zm90.15-23.74,65.53,43.12a5.7,5.7,0,0,0,.08,4.9l-32.67,23.1-59.67-23Zm66.66,49.49a5.74,5.74,0,0,0,9.64-2.5l115,12.5-14.4,62.14-.4,0a5.74,5.74,0,0,0-5,2.87L120.58,560.58Zm126.49,10.19L312.52,552l-47.51,59a5.71,5.71,0,0,0-.69-.34ZM408.14,654.88l-34.46,11.39,5-20.17,29.41,7.36c0,.16,0,.33,0,.5A5.75,5.75,0,0,0,408.14,654.88Zm-29-10.53L386,616.67l23.81,33.2a5.75,5.75,0,0,0-1.25,1.83Zm-34.82-88.87,48.9,5.31a5.74,5.74,0,0,0,3.49,5l-11.54,46.64ZM393.38,559l-50.51-5.49-13.77-19.2,50.1-62.23a5.71,5.71,0,0,0,2.79.73h.2L397,555.09A5.75,5.75,0,0,0,393.38,559ZM384,472.45a5.75,5.75,0,0,0,3.5-3.65l45.94,7,4.09,50.75-34.85,29.58a5.72,5.72,0,0,0-3.74-1.39h-.12Zm74,7.12,25.94,4a5.71,5.71,0,0,0,.84,2.94L448.65,517.1Zm26.21,2.18-25.78-3.94,19.31-77.92,33.87,54.93-19.08,23.7a5.74,5.74,0,0,0-8.32,3.23Zm9.73-2.1,18.68-23.2,42.8,69.41-9.48,17.43-51.76-56.23a5.72,5.72,0,0,0-.25-7.41Zm53.29,65,9.28-17.06L577.64,562l-11.13,3.72Zm31.42,18.86,28.55,46.3-39.3-42.7ZM557.46,525.8l20-36.7,18,66.93-16,5.35ZM556,402.52l8.21-10.2a5.73,5.73,0,0,0,7.59-1.73l43.62,24.86L578,484.27Zm22.76-10,40.65,15.64-3.12,5.74Zm42.35,16.3L703,440.29l-3.71,20.89-81.44-46.42ZM700.63,464l13.15,7.5-23,48Zm.34-1.89L704.73,441l20,7.7-10.18,21.23Zm25.47-12.83,49.36,19-29.94,19.41-29.71-16.94Zm.78-1.63,17.24-35.94,45.95,47.1-12.74,8.26ZM787.9,462.6,783,469.14l-3.27-1.26Zm4-2.29L811,479.9l-26.21-10.09ZM900.54,432.7l69.77,45.91-74,20.29Zm.13-2.07,2.4-37.72a5.74,5.74,0,1,0-5-9.3l-34.39-19.5L889.12,330l24,4.62,12.46,46.46a5.74,5.74,0,1,0,5.1.2l14.47-40.49,60.7,11.7L1026.11,412l-33.59,60.52L972.63,478Zm90.63,44.1L985,486.1l-10.35-6.81Zm2.44-.67,44-12.07a5.74,5.74,0,1,0,9.84-5.79l71.11-72.7,12.22,17-72.55,128.25a5.71,5.71,0,0,0-6.24,1.51l-65.65-43.2Zm138.36-71.9,59.48,82.93-2,8.53-128,38.07a5.76,5.76,0,0,0-1.6-2Zm59,92.89,6.27-1.86,29.45,41.07-13,16.11-34.69-3.77Zm36.81,40.73,12.54,17.48L1216,550.59Zm1.17-1.46,50.1-62.23a5.71,5.71,0,0,0,2.79.73h.2L1297,555.09a5.75,5.75,0,0,0-3.64,3.91l-50.51-5.49Zm64.08,26.48a5.74,5.74,0,0,0,3.49,5l-11.54,46.64-40.85-57Zm-6.66,53.58,11.91-48.14.48,0a5.75,5.75,0,0,0,5.47-4l30.09,4.56-20.18,81.43-.49,0a5.71,5.71,0,0,0-2.57.61Zm23.24,35.51a5.76,5.76,0,0,0-1.25,1.83l-29.41-7.36,6.85-27.68Zm-5.11-89.41a5.71,5.71,0,0,0-.84-2.94l33.86-28.74,1.53,18.93-4.3,17.33Zm35-7.08,1,12.54-4-.6Zm54.48-66.33a5.72,5.72,0,0,0-.25-7.41l18.68-23.2,42.8,69.41-9.48,17.43Zm-1.65-8.54a5.74,5.74,0,0,0-8.32,3.23l-25.78-3.94,19.31-77.92,33.87,54.93ZM1377,395.28,1358.34,365l24.83,5.3Zm-20-32.37-5.38-8.72,28.58-47.09,18.56.21-15.19,61.28Zm24.29-57.6,30.36-50-12.45,50.22Zm32.18-49.83.49,0a5.81,5.81,0,0,0,.6,0l13.55,50.37-27-.31Zm0-11.44a5.71,5.71,0,0,0-2.7.94l-57.23-48.91,30.4-24.89a5.73,5.73,0,0,0,8.52-1.22l26.43,12.35ZM1392,105.63l-36.17-18.31a5.74,5.74,0,1,0-8.82,2.9l-19.3,38.36-34-21,67-67.38L1395.61,62Zm-30-66.72L1398.46,2.3a5.71,5.71,0,0,0,2,.92L1395.78,60ZM1408.38-76l29.88-10.84L1454.9-61,1405-7.13a5.71,5.71,0,0,0-1.85-.8Zm.15-2,3.77-49.2,24.95,38.77Zm2.16-51.72-4,52.39-27.35,9.93-22.57-62.5,31.25-35.1Zm-33.07,62.94-22.45,8.15-30.24-35.53,30.45-34.2Zm-24.26,8.81-87.66,31.82a5.76,5.76,0,0,0-.58-.85l58.59-65.8Zm-94.07,29a5.74,5.74,0,0,0-4.36,5.57c0,.06,0,.11,0,.17L1159.31-5l-9.7-86,95.88-48.71a5.73,5.73,0,0,0,4.45,2.26Zm-98.34,54.46L1125,3.38l32.71-6.22Zm-1.43-28.74,95.76-18.2a5.73,5.73,0,0,0,1.1,1.86l-44.65,54.36-27,5.42-21.83-13.48Zm7.89,86a5.75,5.75,0,0,0-3.83,3.48L1066.2,65.86l97.09-19.47Zm-4.2,5.25c0,.09,0,.19,0,.28s0,.33,0,.49l-97.67,24.32L1048,83.44l5-14.92,8.71-1.75Zm-116.42-6.7L1040.65,71l10.3-2.06Zm6.87-14.84.46-1.37,3.11.65Zm-2,.41-11.93,2.39-4.85-8.22,17.5,3.67ZM832.29,171.26l-1.05.26.28-.58Zm-3.33.83-101.19,25.2a5.75,5.75,0,0,0-4-3.34l4.65-64.77,101.4,41.09ZM722,193.81a5.75,5.75,0,0,0-.69.1L692.94,119.8a5.68,5.68,0,0,0,5.64-2.73l28.1,11.39ZM591.48,119.34l-.22.24L497.5,61l4.76-57.67a5.71,5.71,0,0,0,2.24-.64ZM495.78,60,462.06,38.91,498.46,2.3a5.71,5.71,0,0,0,2,.92Zm-35.29-22L422.81,14.4,496.44-.36A5.71,5.71,0,0,0,497.18,1ZM366.41-23.39a5.76,5.76,0,0,0-.1-1l45.84-16.64L495.36-4.24Zm-.72-2.72a5.74,5.74,0,0,0-4.61-2.94L358-65l51.78,22.91ZM260.94,25.56,225,3.38l32.71-6.22ZM131.19,58.51,17.67,34.67,31.17,17.15l75,7.18a5.73,5.73,0,0,0,7.83,5ZM72-38.8,23.63-113.06a5.77,5.77,0,0,0,.6-.63L97.18-71.44Zm36,58.52a5.76,5.76,0,0,0-1.16,1.44L45.51-1.45,71.9-35.68Zm-3,2.69L32.47,15.46,44.36,0ZM30.35,15.26-46,7.95-85-43.61l1.34-3.55L42.58-.61ZM-84.76-49.48l-1-.38,1.54-1Zm-.64,1.69-.93,2.48-2.16-2.85.76-.48Zm-1.68,4.47L-104.27,2.37l-53-5.08a5.72,5.72,0,0,0-.44-1.9L-90-47.2ZM-104.93,4.12l-1.68,4.46L-147,.09Zm-.53,6.54L-35,25.46-6.5,63.07l-29.19,37.87a5.72,5.72,0,0,0-2.75-.7A5.74,5.74,0,0,0-44.19,106a5.74,5.74,0,0,0,2.48,4.73l-27.68,57.93L-152.28,135Zm35.3,159.61-.87,1.82-101.19,25.2a5.76,5.76,0,0,0-2.45-2.74l21.76-57.81Zm-106,23.13,4.61-64.22,17,6.88Zm4.35,6.84,84.66-3a5.75,5.75,0,0,0,3.75,4.32L-97,277.78l-12.57-3.27-63.52-71.34A5.72,5.72,0,0,0-171.82,200.23Zm74.52,79.32-.78,4.38a5.71,5.71,0,0,0-2.53.61l-6.78-7.62Zm-11.16,29.78-23.49-4.53,29-12.12a5.77,5.77,0,0,0,1.62,1.71Zm95.61,20.26-25.08,33.6-74.18-42.08,4.68-9.75Zm10,55.58a5.69,5.69,0,0,0,.13,4.34l-29.76,19.3-25-16.43,20-26.82Zm-18.77,32.94-50.76,68.19L-85,481.46l-21.77-22.32L-32.48,411ZM-89,479.9l-26.21-10.09,7.09-9.5Zm-28-10.76-3.27-1.26,8.15-5.29Zm-1.12,1.5L-137.8,497l-14.58-8.31,30.26-19.62Zm1.75.67L-86,483l9.13,9.36L-97.47,520l-38.75-22.09Zm40.76,22.35,16.31,16.72a5.71,5.71,0,0,0-1.14,3.42,5.74,5.74,0,0,0,5.74,5.74,5.74,5.74,0,0,0,5.74-5.74,5.79,5.79,0,0,0,0-.63l24.17-6.63,18.38,7.07L-10,569.88l-85.89-49Zm67.22,79.21L26,592.45l-30,54-9.45,6.68Zm35.9,20.47,24.14,13.76-52.3,37Zm.88-1.58L58,538.43l58.78,22.62L53.28,606Zm233.24,30,.52,0a5.74,5.74,0,0,0,5.28-3.49l109.48,27.38-5.26,21.28-129,42.67A5.76,5.76,0,0,0,240,707Zm147.07,34.84a5.76,5.76,0,0,0,1.36,1.71l-57.45,93.15,20.56-83.12Zm-22.18-42.22,11.91-48.14.48,0a5.74,5.74,0,0,0,5.47-4l30.09,4.56-20.18,81.43-.49,0a5.71,5.71,0,0,0-2.57.61Zm18.13-53.9a5.71,5.71,0,0,0-.84-2.94l33.86-28.74,1.53,18.93-4.3,17.33Zm35-7.08,1,12.54-4-.6ZM580.37,563l15.52-5.18,14.49,53.86Zm135-90.55,28.79,16.41L693,522a5.76,5.76,0,0,0-1-.88Zm-20.87,53.41a5.71,5.71,0,0,0-.5-2.33l51.92-33.67,15.2,8.66-48.35,64.79-20.28-33.1A5.73,5.73,0,0,0,694.48,525.82Zm53.13-37.1,30.26-19.62,4,1.55L762.2,497Zm36-17.4L814,483l26.72,27.39a5.74,5.74,0,1,0,10.35,3.43,5.81,5.81,0,0,0,0-.63l24.17-6.63,18.38,7.07L890,569.88,763.78,497.93Zm111.7,43,61,23.46-29.48,53.1-35.08-20Zm.12-1.89.74-11.63,76.11-20.87,11.79,7.76-26.92,48.49Zm90.15-23.74,65.53,43.12a5.74,5.74,0,1,0,10.77,3.87l115,12.5-14.4,62.14-.4,0a5.74,5.74,0,0,0-5,2.87L958.89,536.83Zm193.15,59.68,33.76,3.67-47.51,59a5.71,5.71,0,0,0-.69-.34Zm129.32,105.1c0,.16,0,.33,0,.5a5.76,5.76,0,0,0,.08.92l-34.46,11.39,5-20.17Zm.62,3.14a5.76,5.76,0,0,0,1.36,1.71l-57.45,93.15,20.56-83.12Zm47.39,18.51,95.72-14.43-41.15,46.21-54.78-30.4A5.73,5.73,0,0,0,1356.1,675.1Zm74.18-99.33,16-29.41,18.36,19.94-33.23,11.09A5.75,5.75,0,0,0,1430.28,575.77ZM1456.37,524,1413.78,455l40.82-50.7,22.14,82.31ZM1454,402.1l-41.25,51.22-34.46-55.9,6.62-26.71,64.35,13.74ZM1385.37,369l15.27-61.63,28,.32,20.13,74.85Zm29.93-124.79,5.36-61.05,26.84,12.54-31.64,48.67A5.69,5.69,0,0,0,1415.3,244.17Zm-22.07-75.86a5.7,5.7,0,0,0-1.08-5.12l29.86-35a5.7,5.7,0,0,0,1.6.67l-4.52,51.49ZM1397.5,61l4.76-57.67a5.71,5.71,0,0,0,2.24-.64l87,116.61-.22.24ZM1440-87.46l39.7-14.41,2.79,11.18-26.31,28.38ZM1439-89l-26.46-41.12,4.41-57.45,48,26.65,14.28,57.31Zm-21.9-100.56.68-8.81,29.59-33.23,17,68.27Zm30.36-49.11,4.37-.66-3.54,4Zm-.63,5L1418-201.35l2.55-33.27,25.11-3.79ZM1416-199.13l-5.34,6-54.78-30.4a5.72,5.72,0,0,0,.21-1.38l62.61-9.44Zm-63.33-20.7,34.3,53.31L1356-131.78l-27-74.69,17.49-14.33a5.72,5.72,0,0,0,3.81,1.45A5.72,5.72,0,0,0,1352.67-219.83Zm2,89.58-30.93,34.74-53.46-62.81,57.3-46.93Zm-85.56-29.45-4.35-5.11,46.83-75.94a5.72,5.72,0,0,0,2.21.44,5.77,5.77,0,0,0,1.08-.1l12,33.35ZM1257-173.9l-34.82-40.91L1271.14-231Zm-12.54,29.38a5.74,5.74,0,0,0-.17,1.36,5.72,5.72,0,0,0,.32,1.89l-95.24,48.39-10.1-89.52a5.75,5.75,0,0,0,3.17-2.61ZM1157.53-4.64,1122.75,2l-39.37-24.32,14.09-42.12,50.43-25.62Zm-37.41,7.11L1072,11.61l10.77-32.21Zm2.28,1.41,38.8,24,1.89,16.75L1061.71,64.92l-7-1.48,16.68-49.87Zm-91.2,54.64L753,.09l253.15,24.24a5.73,5.73,0,0,0,7.83,5ZM742.69-2.71a5.71,5.71,0,0,0-.44-1.9l70-44L1005,22.41Zm-.36,2.41,290.11,60.92,5.37,9.1L866.94,104a5.74,5.74,0,1,0-8.64,6.73l-27.68,57.93-102-41.35L737.46,3.37A5.74,5.74,0,0,0,742.33-.31ZM726.81,126.57,699.25,115.4a5.72,5.72,0,0,0-5.09-7l-6.85-97.81L731.67-.14a5.75,5.75,0,0,0,4,3.38Zm-34.45-18.05a5.73,5.73,0,0,0-3,1.84L654.2,18.59,685.54,11Zm-4.19,3.89a5.74,5.74,0,0,0-.24,1.34L601.17,122a5.75,5.75,0,0,0-3.68-4.06l15.26-84.74h.12a5.74,5.74,0,0,0,5.74-5.74c0-.08,0-.17,0-.25L652.43,19Zm-69.95-87a5.73,5.73,0,0,0-7.68-3.24L557.18-60.75l42.33-45.66a5.72,5.72,0,0,0,3.2,1,5.72,5.72,0,0,0,2-.35l47.11,123.1ZM554.9-61,505-7.13a5.72,5.72,0,0,0-3.19-1,5.76,5.76,0,0,0-1.07.1L479.92-65.66l58.33-21.17ZM499.05-7.38l-.21.13L456.41-57.12,478.23-65Zm-1.58,1.29a5.75,5.75,0,0,0-.46.61L414.6-41.94l40-14.52ZM412.22-43,357.81-67.07l-6.08-70.59a5.74,5.74,0,0,0,4.07-5.49,5.72,5.72,0,0,0-.69-2.73l13.78-11.29,84.46,99.25ZM354-147.32l0,0,9.78-15.86,4,4.64Zm-9.53,2.8a5.73,5.73,0,0,0-.17,1.36,5.72,5.72,0,0,0,.32,1.89L272.7-104.73,246.76-116.2l-7.47-66.2a5.75,5.75,0,0,0,3.17-2.61Zm-99.63,27.47-26-11.49,17.93-53.61a5.79,5.79,0,0,0,.66,0h0Zm.23,2.08,2.59,23-49.4,25.1,20-59.9Zm2.81,24.88,9.64,85.45L222.75,2,183.37-22.35l14.09-42.12ZM181.21-21.57,170,12,117.26,22a5.75,5.75,0,0,0-1.74-2.49l32.86-55.81a5.72,5.72,0,0,0,2.1.4,5.73,5.73,0,0,0,4.35-2ZM147.42-46.47,111.7-87.31l24.59-31.9L148.63-47A5.71,5.71,0,0,0,147.42-46.47Zm-1.36,1.19,0,.05L99.87-72l10.7-13.89ZM98.29-72.88,25.14-115.25a5.72,5.72,0,0,0,.39-2.06,5.74,5.74,0,0,0-2.59-4.8l19-42.22,67.44,77.09ZM70.86-37.29,43.74-2.11-83.07-48.85l1.34-3.56,97.19-61.11a5.72,5.72,0,0,0,4.32,2,5.72,5.72,0,0,0,2.34-.5ZM-83.2-53.62l-4.73,3-3.38-1.25-20.89-27.58,93-144.14Zm-11.25.57-28.11-10.36,9.32-14.45Zm2,2.67,1.32,1.74-67.6,42.51a5.77,5.77,0,0,0-.49-.49l35.63-55.23ZM-157.67-.31l50.42,10.59L-154,134.36l-17.48-7.08,8.89-123.92A5.74,5.74,0,0,0-157.67-.31Zm-15.52,126.87-27.56-11.17a5.74,5.74,0,0,0,.15-1.29,5.74,5.74,0,0,0-5.24-5.72l-6.85-97.81L-168.33-.14a5.75,5.75,0,0,0,4,3.38Zm-33.15-6.72a5.73,5.73,0,0,0,4.91-2.78l28.1,11.39L-178,193.81a5.75,5.75,0,0,0-.69.1l-28.36-74.11A5.77,5.77,0,0,0-206.34,119.85Zm27.45,85.25a5.74,5.74,0,0,0,1.37.17,5.71,5.71,0,0,0,3.09-.91l61.73,69.32-85.71-22.28Zm68.35,71,8.45,9.5a5.73,5.73,0,0,0-1.69,4.07,5.74,5.74,0,0,0,.17,1.35l-31.55,13.16-10.31-2-60-34,6.36-15.08Zm-27.63,29.33-.91.38-1.48-.84Zm3.21.62,25.7,5-4.42,9.21L-137.08,307ZM-39,364.66-59,391.39-125,348l12.08-25.2Zm4.88,45.22-70.5,45.71,46.1-61.77Zm-88.21,57.2-50.44-19.41,17.24-35.94,45.95,47.1Zm-1.87,1.21-29.94,19.41-29.71-16.94,10.3-21.47Zm-31.64,20.52L-207,522a5.76,5.76,0,0,0-1-.88l23.35-48.69Zm-49.66,37a5.72,5.72,0,0,0-.5-2.33l51.92-33.67,15.2,8.66-48.35,64.79-20.28-33.1A5.73,5.73,0,0,0-205.52,525.82Zm68.21-26.43,38.75,22.09-62.69,84.22-25-40.76ZM-20.58,666.34l-5.94-1.75,11-7.76-.4,6.26A5.74,5.74,0,0,0-20.58,666.34Zm6.44-3.13.49-7.71,7.58-5.36-7.37,13.28A5.67,5.67,0,0,0-14.13,663.2Zm3.15,9.27a5.72,5.72,0,0,0,1.33-3.67,5.73,5.73,0,0,0-2.2-4.52l9.19-16.56,56.05-39.63,35,19.93L41.42,732.38Zm157,182.3-120.88-70a5.72,5.72,0,0,0-2.21-6.86l19-42.22,104.14,119Zm1.4-1.24L42.73,733.87l47.2-104.95,22.59,12.88L148.63,853A5.71,5.71,0,0,0,147.42,853.54Zm7.7,1.49a5.73,5.73,0,0,0-4.64-2.37h-.07L114.55,643l117.61,67a5.74,5.74,0,0,0,10.31,5l102,40.49a5.62,5.62,0,0,0,.16,3.25ZM350.05,751.1a5.73,5.73,0,0,0-4.88,2.72L243.1,713.3a5.51,5.51,0,0,0,0-2l128-42.32-20.32,82.15A5.77,5.77,0,0,0,350.05,751.1Zm94.57-76.18a5.71,5.71,0,0,0,.79,2.89L354,752.69l0,0,57.61-93.41A5.74,5.74,0,0,0,416,648.67l20.22-81.58,4.56.69L449,669.35A5.74,5.74,0,0,0,444.62,674.92Zm11.25-1.61a5.74,5.74,0,0,0-5.07-4.11l-8.15-101.15,77.8,11.8a5.74,5.74,0,0,0,9.1,4.61l44.14,44.41a5.74,5.74,0,1,0,10.13,5.06l63.68,10.48Zm192-30.66-63.79-10.5a5.74,5.74,0,0,0-.18-1.3L608,620.44a5.73,5.73,0,0,0,9.34.5L648.11,642A5.69,5.69,0,0,0,647.85,642.65Zm5.45-3.93a5.72,5.72,0,0,0-4.17,1.8l-30.89-21.14a5.73,5.73,0,0,0-5.38-7.74,5.8,5.8,0,0,0-.6,0L597.61,557.2l86-28.73a5.76,5.76,0,0,0,2.6,2.52l-32.2,107.78A5.77,5.77,0,0,0,653.3,638.71Zm2.49.57L688,531.51a5.59,5.59,0,0,0,3-.38l20.66,33.71L656,639.37Zm91-9.41-88,12.87a5.74,5.74,0,0,0-1.37-2.29l55.2-74,36.22,59.09A5.73,5.73,0,0,0,746.81,629.88Zm132.61,36.46L758.25,630.68a5.74,5.74,0,0,0-7.89-6l-36.59-59.7,48.92-65.55,127.18,72.5-5.8,91.2A5.74,5.74,0,0,0,879.42,666.34Zm7.14-2.93a5.69,5.69,0,0,0-.7-.21l5.75-90.32L926,592.45Zm250.91,43a5.73,5.73,0,0,0-4.38,2L928.4,591.77,958,538.43l198.54,76.41a5.74,5.74,0,0,0,3.35,6.47l-21.61,85.17A5.76,5.76,0,0,0,1137.48,706.42Zm2.53.59,21.63-85.26.52,0a5.74,5.74,0,0,0,5.28-3.49l109.48,27.38-5.26,21.28-129,42.67A5.76,5.76,0,0,0,1140,707Zm105.17,46.81L1143.1,713.3a5.52,5.52,0,0,0,0-2l128-42.32-20.32,82.15a5.67,5.67,0,0,0-5.65,2.66ZM1261.08,871l-9.35-108.62a5.75,5.75,0,0,0,3.38-8.23l91.45-74.91a5.73,5.73,0,0,0,8.58-1.09l54.31,30.14L1263.76,871.85A5.7,5.7,0,0,0,1261.08,871ZM1497,788.83a5.76,5.76,0,0,0,.1,1.08l-231.37,84a5.75,5.75,0,0,0-.58-.85l145.94-163.89,85.74,47.58,4.15,26.64A5.74,5.74,0,0,0,1497,788.83Zm20.74-20.5L1506,784.1a5.71,5.71,0,0,0-3.23-1l-3.93-25.25Zm-21.26-13.86-84.15-46.7,42.32-47.52,26.54-4Zm-15.57-100-24.38,3.68,18.74-21a5.71,5.71,0,0,0,3.08.91Zm26.25-37.09a5.73,5.73,0,0,0,.18,1.41l-24.13,10.4a5.73,5.73,0,0,0-8.2-1.58l-44.14-44.41a5.66,5.66,0,0,0,1.07-4L1466,567.77l42.38,46A5.71,5.71,0,0,0,1507.12,617.37Zm3.26-5.74-30-48.67,15.52-5.18Zm-15-55.6-16,5.35-21.94-35.58,20-36.7ZM1478,484.27l-22-81.75,8.21-10.2a5.75,5.75,0,0,0,7.59-1.73l43.62,24.86Zm41.42-76.16-3.12,5.74-37.52-21.39Zm-52.54-26.51a5.74,5.74,0,0,0-5.16,3.67l-11-2.35-20.24-75.26,40.94.46a5.74,5.74,0,0,0,4.07,4.67Zm55.59-150.92-43,71.4a5.71,5.71,0,0,0-6,.72l-54.74-49.9a5.73,5.73,0,0,0-1.32-7.72l31.7-48.76Zm-74-36.56-27.67-12.93,4.58-52.14a5.74,5.74,0,0,0,5.26-4.82h59.25a5.72,5.72,0,0,0,1.82,3.36Zm47.21-76.53h-.12a5.71,5.71,0,0,0-2.67.66l-87-116.61A5.75,5.75,0,0,0,1407.07,0l100.07,26.87a5.73,5.73,0,0,0,3.82,6Zm14.9-95.44-.06,0-53.37-82.94L1483-88.6ZM1483.94-92.27l-2.55-10.22,16.28-5.91a5.74,5.74,0,0,0,.51.76Zm17-24.37a5.74,5.74,0,0,0-4,5.47,5.76,5.76,0,0,0,.1,1.08L1481-104.25l-13.83-55.49,29.67,16.46Zm-4.5-28.9-29.91-16.6-17.72-71.1,5.8-6.52,26.54-4ZM1478.3-262l2.56,16.46-24.38,3.68,18.74-21A5.71,5.71,0,0,0,1478.3-262Zm-48.75-53.54,44.14,44.41a5.71,5.71,0,0,0-1.11,3.38,5.72,5.72,0,0,0,1.3,3.64l-20.18,22.66-6.69,1-18.56-74.47A5.73,5.73,0,0,0,1429.55-315.55Zm-2.86,1.06,18.52,74.31-24.53,3.7,6-78Zm-128.26-19.3.48,0a5.74,5.74,0,0,0,5.47-4l116.07,17.6a5.74,5.74,0,0,0,4.41,5.54l-6,78.42-63,9.49a5.74,5.74,0,0,0-5.51-4.13,5.74,5.74,0,0,0-5.74,5.74,5.71,5.71,0,0,0,.79,2.89l-17,13.92L1316.58-241a5.74,5.74,0,0,0,3-5,5.74,5.74,0,0,0-5.74-5.74,5.74,5.74,0,0,0-5.28,3.49l-29.41-7.36Zm-131,52.06,109.48,27.38-5.26,21.28-50.72,16.77-54.42-63.95A5.74,5.74,0,0,0,1167.44-281.73Zm-5.8,3.47.52,0a5.71,5.71,0,0,0,3-.84l53.95,63.39-76.48,25.29A5.76,5.76,0,0,0,1140-193Zm-24.82,96.11a5.79,5.79,0,0,0,.66,0h0L1147.67-92l-49.4,25.1ZM1095.17-63.31l-13.37,40-26-16.08a5.72,5.72,0,0,0,.44-2.21,5.73,5.73,0,0,0-.28-1.76Zm-44.7,27.44a5.73,5.73,0,0,0,4.35-2l26.39,16.3L1070,12l-52.73,10a5.75,5.75,0,0,0-1.74-2.49l32.86-55.81A5.72,5.72,0,0,0,1050.47-35.87ZM924.23-113.69l120.88,70a5.72,5.72,0,0,0-.39,2.06,5.73,5.73,0,0,0,2.09,4.43L1014,18.63a5.7,5.7,0,0,0-4.44.1L923.63-113.06A5.76,5.76,0,0,0,924.23-113.69Zm-8.77.16a5.72,5.72,0,0,0,4.32,2,5.72,5.72,0,0,0,2.34-.5L1008,19.72a5.76,5.76,0,0,0-1.16,1.44l-192.64-71ZM683.76-96,810.14-49.43,741.28-6.13a5.72,5.72,0,0,0-4.32-2,5.74,5.74,0,0,0-5.74,5.74c0,.15,0,.3,0,.45L687.19,8.75l-7.14-102A5.75,5.75,0,0,0,683.76-96Zm-5.51,2.91L685.41,9.18l-31.86,7.7L606.26-106.67a5.75,5.75,0,0,0,1.94-2.84L673-98.86v0A5.74,5.74,0,0,0,678.25-93.11ZM446.55-220.8a5.71,5.71,0,0,0,3.81,1.45,5.72,5.72,0,0,0,2.31-.49L537.25-88.39l-57.94,21L429.06-206.47ZM477.61-66.74l-22.45,8.15-84.88-99.73,57.3-46.93ZM413.8-240.31a5.77,5.77,0,0,0,1.08-.1l12,33.35L369.11-159.7l-4.35-5.11,46.83-75.94A5.72,5.72,0,0,0,413.8-240.31Zm-3.74-1.39-46.53,75.45L322.2-214.82l86.5-28.6A5.76,5.76,0,0,0,410.06-241.7Zm-142.62-40,140.64,35.17c0,.16,0,.33,0,.5a5.75,5.75,0,0,0,.08.92l-87.2,28.83-54.42-63.95A5.74,5.74,0,0,0,267.44-281.73Zm-5.28,3.49a5.71,5.71,0,0,0,3-.84l53.95,63.39L242.61-190.4A5.76,5.76,0,0,0,240-193l21.63-85.26Zm-2.75-.7.48.23-21.61,85.17a5.75,5.75,0,0,0-.81-.06,5.74,5.74,0,0,0-5.74,5.74,5.74,5.74,0,0,0,3.34,5.21l-17.85,53.36-54.57-24.15Zm-97.89,127,55.13,24.39L196-65.75,155.12-45a5.73,5.73,0,0,0-4.64-2.37h-.07l-12.62-73.8Zm-1.7-.75-22.45,29.12-7.22-42.25ZM103.38-301a5.74,5.74,0,0,0,1.71.26h.16l22.55,131.9L57.86-199.78ZM57.12-198.14l71,31.43,7.71,45.07L110.48-88.69,42.73-166.14Zm-67.7-30,66,29.22-14,31.23L-11-227.53A5.79,5.79,0,0,0-10.57-228.09Zm-4.82,2.63a5.71,5.71,0,0,0,3.05-.88l52.95,60.52-19.33,43a5.74,5.74,0,0,0-1.5-.21A5.74,5.74,0,0,0,14-117.31a5.72,5.72,0,0,0,.46,2.26L-80.67-55.21l64.12-170.37A5.77,5.77,0,0,0-15.39-225.46Zm-132.05-38.85a5.74,5.74,0,0,0,5.18-3.28l121.18,35.65a5.78,5.78,0,0,0-.05.73,5.72,5.72,0,0,0,1.91,4.27L-113.37-81l-73-96.41,37.53-87.08A5.74,5.74,0,0,0-147.45-264.32Zm-95.12,12.74a5.72,5.72,0,0,0,1.6-3.9l88-12.87a5.75,5.75,0,0,0,2.41,3.13l-37.13,86.14Zm55.35,76.07,72.8,96.12-9.9,15.34-91.31-33.66a5.76,5.76,0,0,0,.11-1.11,5.73,5.73,0,0,0-2.67-4.85Zm-32.74,82.27A5.75,5.75,0,0,0-216.24-96l90.93,33.52L-160.72-7.61A5.72,5.72,0,0,0-163-8.1a5.74,5.74,0,0,0-5.74,5.74c0,.15,0,.3,0,.45L-212.81,8.75Zm9.27,203.59L-245.8,18.59-214.46,11l6.83,97.51A5.73,5.73,0,0,0-210.68,110.35Zm-24.42,53.31,26.21-43.57,28.5,74.47a5.76,5.76,0,0,0-1.52,1.26Zm53.56,40a5.76,5.76,0,0,0,1,.77L-200.17,251l-33.56-8.72ZM-243,246.86l-16.88-9.58,22.07,5.74Zm1.72,1,5.72-4.23,34.71,9L-207,267.27Zm35.14,22,55.17,31.3-58.42-11.26c0-.06,0-.12,0-.19a5.74,5.74,0,0,0-3-5Zm-41.33,81.23,30.44-56a5.72,5.72,0,0,0,1.91.33,5.72,5.72,0,0,0,4.24-1.88l39.29,25.85Zm37.59-59c.06-.13.11-.27.16-.4l63.67,12.27,4.91,2.79-28.44,11.87Zm42.12,27.72,28.6-11.94,24.73,14-12,25.09Zm42,29.83L-60,392.84l-48.29,64.7L-154.72,410Zm-59.69,36h.1a5.71,5.71,0,0,0,3.31-1.06l25.14,25.77L-174.48,447-195,439.14ZM-195.27,441l20,7.7-10.18,21.23-13.6-7.75Zm-4.1,23.07,13.15,7.5-23,48Zm-44.85,175.27L-212,531.51a5.76,5.76,0,0,0,.76.06,5.72,5.72,0,0,0,2.19-.44l20.66,33.71L-244,639.37Zm3,3.46a5.74,5.74,0,0,0-1.37-2.29l55.2-74,25,40.76-20,26.89Zm88-12.87-26.71,3.9,18.51-24.86,10.22,16.67A5.73,5.73,0,0,0-153.19,629.88Zm4.33,5.63a5.74,5.74,0,0,0,1.41.18,5.74,5.74,0,0,0,5.18-3.28L-30.6,665.27l-186.54,131.9a5.77,5.77,0,0,0-1-.84Z"/></svg>