<?xml version="1.0" encoding="utf-8"?>
<!-- Generator: Adobe Illustrator 22.1.0, SVG Export Plug-In . SVG Version: 6.00 Build 0)  -->
<svg version="1.1" id="Layer_1" xmlns="http://www.w3.org/2000/svg" xmlns:xlink="http://www.w3.org/1999/xlink" x="0px" y="0px"
	 width="213.4px" height="28px" viewBox="0 0 213.4 28" style="enable-background:new 0 0 213.4 28;" xml:space="preserve">
<style type="text/css">
	.st0{fill:#999999;}
</style>
<title>qi_header</title>
<g>
	<path class="st0" d="M11.3,22.8l1,3.3c0.1,0.3-0.1,0.4-0.4,0.4h-3c-0.3,0-0.4-0.1-0.5-0.4l-1-3.2c-5.4-0.4-6.9-3-6.9-10.3
		c0-8,1.8-10.4,8.6-10.4s8.6,2.4,8.6,10.4C17.7,19.7,16.3,22.3,11.3,22.8z M13.5,12.6c0-5.2-0.7-6.8-4.4-6.8s-4.4,1.6-4.4,6.8
		c0,5.1,0.7,6.7,4.4,6.7S13.5,17.7,13.5,12.6z"/>
	<path class="st0" d="M24.6,2.3c0.3,0,0.4,0.1,0.4,0.4v19.6c0,0.3-0.1,0.4-0.4,0.4h-3.4c-0.3,0-0.4-0.1-0.4-0.4V2.8
		c0-0.3,0.1-0.4,0.4-0.4H24.6z"/>
	<path class="st0" d="M41.3,7.3c0.2,0,0.4,0.2,0.4,0.4c0,0,0,0,0,0v14.4c0,0.2-0.1,0.3-0.3,0.3h-1.9c-0.2,0-0.3-0.1-0.3-0.3v-3.8
		c-0.9,0.1-1.7,0.1-2.6,0.1c-3.8,0-4.7-1.2-4.7-5.9c0-4.5,0.9-5.7,5.1-5.7C38.4,7,39.9,7.1,41.3,7.3z M36.9,9.1
		c-2.3,0-2.5,0.8-2.5,3.6c0,2.9,0.3,3.6,2.6,3.6c0.7,0,1.5,0,2.2-0.1V9.1L36.9,9.1z"/>
	<path class="st0" d="M53.6,7.1c0.1,0,0.3,0.1,0.3,0.2c0,0,0,0.1,0,0.1v10.4c0,0.3-0.1,0.3-0.3,0.3c-1.5,0.3-3.3,0.3-4.6,0.3
		c-3.8,0-4.9-0.6-4.9-4.9V7.4c0-0.2,0.1-0.3,0.3-0.3h1.8c0.2,0,0.3,0.1,0.3,0.3v5.8c0,3,0.5,3.2,2.4,3.2h2.4v-9
		c0-0.1,0.1-0.3,0.2-0.3c0,0,0.1,0,0.1,0H53.6z"/>
	<path class="st0" d="M65.4,10.3v7.1c0,0.3-0.1,0.5-0.4,0.6c-1.1,0.3-2.9,0.5-4.6,0.5c-2.9,0-4.3-0.5-4.3-3.4c0-2.6,1.4-3.3,3.9-3.3
		h3v-1.1c0-1.1-0.7-1.6-2.3-1.6h-3.4c-0.2,0-0.3-0.1-0.3-0.3V7.6c0-0.2,0.1-0.3,0.3-0.3C58.3,7,59.4,6.9,60.6,7
		C64.2,7,65.4,8.1,65.4,10.3z M60.1,13.6c-1.1,0-1.6,0.3-1.6,1.4c0,1.2,0.6,1.5,2.1,1.5c0.8,0,1.6-0.1,2.3-0.2v-2.6H60.1z"/>
	<path class="st0" d="M77.6,11.8v6.3c0,0.2-0.1,0.3-0.3,0.3c0,0,0,0-0.1,0h-1.8c-0.1,0-0.3-0.1-0.3-0.2c0,0,0-0.1,0-0.1v-5.8
		c0-3-0.5-3.2-2.4-3.2h-2.4v9c0,0.1-0.1,0.3-0.2,0.3c0,0-0.1,0-0.1,0h-1.9c-0.2,0-0.3-0.1-0.3-0.3V7.6c0-0.3,0.1-0.3,0.3-0.3
		C69.7,7,71.5,7,72.8,7C76.6,7,77.6,7.5,77.6,11.8z"/>
	<path class="st0" d="M83.1,3.9c0.2-0.1,0.3,0.1,0.3,0.3v2.9h2c0.2,0,0.3,0.1,0.3,0.3v1.3c0,0.2-0.1,0.3-0.3,0.3c0,0,0,0-0.1,0h-2
		v6.3c0,0.9,0.3,1.1,1.3,1.1h0.9c0.2,0,0.3,0.1,0.3,0.3V18c0,0.2-0.1,0.3-0.3,0.4c0,0,0,0,0,0c-0.5,0.1-1,0.1-1.5,0.1
		c-1.6,0-3.3,0-3.3-2.5V9h-1.2c-0.2,0-0.3-0.1-0.3-0.2c0,0,0-0.1,0-0.1V7.4c0-0.2,0.1-0.3,0.3-0.3h1.2V4.7c0-0.2,0.1-0.3,0.3-0.3
		L83.1,3.9z"/>
	<path class="st0" d="M97.2,12.5v0.6c0,0.4-0.1,0.6-0.7,0.6H90c0.1,2.2,0.6,2.7,2.5,2.7h3.5c0.1,0,0.3,0.1,0.3,0.2c0,0,0,0.1,0,0.1
		v1.3c0,0.2-0.1,0.3-0.3,0.3c0,0,0,0,0,0c-1.2,0.2-2.4,0.2-3.7,0.2c-4,0-4.9-1.1-4.9-5.8S88.5,7,92.4,7C96.3,7,97.2,8.1,97.2,12.5z
		 M90,11.9h4.7c0-2.2-0.5-2.8-2.3-2.8C90.5,9.1,90.1,9.7,90,11.9L90,11.9z"/>
	<path class="st0" d="M108.7,2.8c0.2,0,0.3,0.1,0.3,0.3v14.6c0,0.2-0.1,0.4-0.3,0.4c0,0,0,0-0.1,0c-1.4,0.3-2.9,0.4-4.4,0.4
		c-4.1,0-5-1.2-5-5.8c0-4.5,0.9-5.8,4.7-5.8c0.9,0,1.8,0,2.6,0.1v-4c0-0.2,0.1-0.3,0.3-0.3L108.7,2.8z M104.3,9.1
		c-2.3,0-2.6,0.7-2.6,3.6c0,2.8,0.2,3.6,2.5,3.6c0.8,0,1.5-0.1,2.3-0.2V9.1H104.3z"/>
	<path class="st0" d="M120.4,10.3v7.1c0,0.3-0.1,0.5-0.4,0.6c-1.1,0.3-2.9,0.5-4.6,0.5c-2.8,0-4.3-0.5-4.3-3.4
		c0-2.6,1.4-3.3,3.9-3.3h3v-1.1c0-1.1-0.7-1.6-2.3-1.6h-3.4c-0.2,0-0.3-0.1-0.3-0.3V7.6c0-0.2,0.1-0.3,0.3-0.3
		c1.1-0.2,2.2-0.3,3.4-0.3C119.2,7,120.4,8.1,120.4,10.3z M115.1,13.6c-1.1,0-1.6,0.3-1.6,1.4c0,1.2,0.6,1.5,2.1,1.5
		c0.8,0,1.6-0.1,2.3-0.2v-2.6H115.1z"/>
	<path class="st0" d="M131.1,3.8c0,0.9-0.5,1.4-1.5,1.4s-1.5-0.5-1.5-1.4s0.5-1.4,1.5-1.4S131.1,2.9,131.1,3.8z M130.6,7.1
		c0.1,0,0.3,0.1,0.3,0.2c0,0,0,0,0,0.1v10.7c0,0.1-0.1,0.3-0.2,0.3c0,0-0.1,0-0.1,0h-1.9c-0.1,0-0.3-0.1-0.3-0.2c0,0,0-0.1,0-0.1
		V7.4c0-0.1,0.1-0.3,0.2-0.3c0,0,0.1,0,0.1,0H130.6z"/>
	<path class="st0" d="M143.2,11.8v6.3c0,0.2-0.1,0.3-0.3,0.3c0,0,0,0-0.1,0H141c-0.1,0-0.3-0.1-0.3-0.2c0,0,0-0.1,0-0.1v-5.8
		c0-3-0.5-3.2-2.4-3.2h-2.4v9c0,0.1-0.1,0.3-0.2,0.3c0,0-0.1,0-0.1,0h-1.9c-0.2,0-0.3-0.1-0.3-0.3V7.6c0-0.3,0.1-0.3,0.3-0.3
		c1.5-0.3,3.3-0.3,4.6-0.3C142.1,7,143.2,7.5,143.2,11.8z"/>
	<path class="st0" d="M148.4,3.8c0,0.9-0.5,1.4-1.5,1.4s-1.5-0.5-1.5-1.4s0.5-1.4,1.5-1.4S148.4,2.9,148.4,3.8z M147.9,7.1
		c0.1,0,0.3,0.1,0.3,0.2c0,0,0,0.1,0,0.1v10.7c0,0.1-0.1,0.3-0.2,0.3c0,0-0.1,0-0.1,0H146c-0.1,0-0.3-0.1-0.3-0.2c0,0,0-0.1,0-0.1
		V7.4c0-0.1,0.1-0.3,0.2-0.3c0,0,0.1,0,0.1,0H147.9z"/>
	<path class="st0" d="M153.8,3.9c0.2-0.1,0.3,0.1,0.3,0.3v2.9h2c0.2,0,0.3,0.1,0.3,0.2c0,0,0,0,0,0.1v1.3c0,0.2-0.1,0.3-0.3,0.3
		c0,0,0,0-0.1,0h-2v6.3c0,0.9,0.3,1.1,1.3,1.1h0.9c0.2,0,0.3,0.1,0.3,0.3V18c0,0.2-0.1,0.3-0.3,0.4c0,0,0,0,0,0
		c-0.5,0.1-1,0.1-1.5,0.1c-1.6,0-3.3,0-3.3-2.5V9h-1.2c-0.2,0-0.3-0.1-0.3-0.3c0,0,0-0.1,0-0.1V7.4c0-0.2,0.1-0.3,0.3-0.3
		c0,0,0,0,0.1,0h1.2V4.7c0-0.2,0.1-0.3,0.3-0.3L153.8,3.9z"/>
	<path class="st0" d="M161.3,3.8c0,0.9-0.5,1.4-1.5,1.4s-1.5-0.5-1.5-1.4s0.5-1.4,1.5-1.4S161.3,2.9,161.3,3.8z M160.8,7.1
		c0.1,0,0.3,0.1,0.3,0.2c0,0,0,0.1,0,0.1v10.7c0,0.1-0.1,0.3-0.2,0.3c0,0-0.1,0-0.1,0h-1.9c-0.1,0-0.3-0.1-0.3-0.2c0,0,0,0,0-0.1
		V7.4c0-0.1,0.1-0.3,0.2-0.3c0,0,0,0,0.1,0H160.8z"/>
	<path class="st0" d="M172.5,10.3v7.1c0,0.3-0.1,0.5-0.4,0.6c-1.1,0.3-2.9,0.5-4.6,0.5c-2.9,0-4.3-0.5-4.3-3.4
		c0-2.6,1.4-3.3,3.9-3.3h3v-1.1c0-1.1-0.7-1.6-2.3-1.6h-3.4c-0.2,0-0.3-0.1-0.3-0.3V7.6c0-0.2,0.1-0.3,0.3-0.3
		c1.1-0.2,2.2-0.3,3.4-0.3C171.3,7,172.5,8.1,172.5,10.3z M167.2,13.6c-1.1,0-1.6,0.3-1.6,1.4c0,1.2,0.6,1.5,2.1,1.5
		c0.8,0,1.6-0.1,2.3-0.2v-2.6H167.2z"/>
	<path class="st0" d="M178,3.9c0.2-0.1,0.3,0.1,0.3,0.3v2.9h2c0.2,0,0.3,0.1,0.3,0.3v1.3c0,0.2-0.1,0.3-0.3,0.3c0,0,0,0-0.1,0h-2
		v6.3c0,0.9,0.3,1.1,1.3,1.1h0.9c0.2,0,0.3,0.1,0.3,0.3V18c0,0.2-0.1,0.3-0.3,0.4c0,0,0,0,0,0c-0.5,0.1-1,0.1-1.5,0.1
		c-1.6,0-3.3,0-3.3-2.5V9h-1.2c-0.2,0-0.3-0.1-0.3-0.2c0,0,0-0.1,0-0.1V7.4c0-0.2,0.1-0.3,0.3-0.3h1.2V4.7c0-0.2,0.1-0.3,0.3-0.3
		L178,3.9z"/>
	<path class="st0" d="M185.6,3.8c0,0.9-0.5,1.4-1.5,1.4c-1,0-1.5-0.5-1.5-1.4s0.5-1.4,1.5-1.4C185,2.4,185.6,2.9,185.6,3.8z
		 M185,7.1c0.1,0,0.3,0.1,0.3,0.2c0,0,0,0.1,0,0.1v10.7c0,0.1-0.1,0.3-0.2,0.3c0,0-0.1,0-0.1,0h-1.9c-0.1,0-0.3-0.1-0.3-0.2
		c0,0,0-0.1,0-0.1V7.4c0-0.1,0.1-0.3,0.2-0.3c0,0,0.1,0,0.1,0H185z"/>
	<path class="st0" d="M197.7,7.1c0.2,0,0.3,0.1,0.2,0.3l-2.3,8.7c-0.6,2.2-0.7,2.4-3,2.4c-2.1,0-2.3-0.2-2.9-2.4l-2.4-8.7
		c0-0.3,0-0.3,0.3-0.3h2c0.2,0,0.2,0.1,0.3,0.3l2.1,8.1c0.2,0.7,0.3,0.8,0.6,0.8c0.4,0,0.5-0.1,0.7-0.8l2.1-8.2
		c0.1-0.3,0.1-0.3,0.3-0.3L197.7,7.1z"/>
	<path class="st0" d="M209,12.5v0.6c0,0.4-0.1,0.6-0.7,0.6h-6.5c0.1,2.2,0.6,2.7,2.5,2.7h3.5c0.1,0,0.3,0.1,0.3,0.2c0,0,0,0.1,0,0.1
		v1.3c0,0.2-0.1,0.3-0.3,0.3c0,0,0,0,0,0c-1.2,0.2-2.4,0.2-3.7,0.2c-4,0-4.9-1.1-4.9-5.8s0.9-5.8,4.9-5.8C208.1,7,209,8.1,209,12.5z
		 M201.8,11.9h4.7c0-2.2-0.5-2.8-2.3-2.8C202.3,9.1,201.8,9.7,201.8,11.9L201.8,11.9z"/>
</g>
</svg>
